<?xml version="1.0" encoding="UTF-8" standalone="no"?>
<!DOCTYPE svg PUBLIC "-//W3C//DTD SVG 1.1//EN" "http://www.w3.org/Graphics/SVG/1.1/DTD/svg11.dtd">
<svg xmlns="http://www.w3.org/2000/svg" xmlns:xlink="http://www.w3.org/1999/xlink" version="1.1" width="612pt" height="792pt" viewBox="0 0 612 792">
<g enable-background="new">
<path transform="matrix(.75,0,0,.75,0,0)" d="M 0 0 L 816 0 L 816 1056 L 0 1056 Z " fill="#0097a7"/>
<text fill="#eeeeee" xml:space="preserve" transform="matrix(.75 0 0 .75 72 72)" font-size="18.666666" font-family="ArialMT"><tspan y="17.509116" x="48 59.39598 69.7717 73.91652 83.244647 88.42795 98.803668 109.17938 119.5551 125.76778 130.95108 141.3268 146.50952 151.69283 156.87613 162.05944 167.24274 173.45542 183.83113 194.20685 198.35167 202.49649 211.82462 217.00792 226.33605 236.71176 252.25257 262.6283 267.81159 272.99488 283.3706 288.5539 298.92964 309.30537 319.6811 330.05683 336.2695 345.59764 350.78096 361.15669 371.5324 381.90815 387.09144 397.46717 407.8429 421.31587 426.49916 439.9721 446.18479 450.3296 455.51289 459.6577 470.03346 480.40919 485.59248 489.7373 499.06544 504.24873 514.62448 519.80776 530.1835 536.3961 546.77188 556.1 566.4757 575.80386 585.13198 590.31527 595.49856">This quarter, I really came to understand how writing is a process. I</tspan></text>
<text fill="#eeeeee" xml:space="preserve" transform="matrix(.75 0 0 .75 72 104.197269)" font-size="18.666666" font-family="ArialMT"><tspan y="17.509116" x="0 10.375717 14.520538 27.993485 38.3692 47.697328 57.02545 62.208757 75.6817 81.89438 92.270099 97.4534 107.82912 113.01242 119.2251 129.60082 139.97653 150.35225 160.72797 165.91127 176.28699 182.49967 192.87538 198.05869 203.24199 212.57012 217.75342 221.89824 232.27396 237.45726 252.99806 262.32618 267.50947 277.8852 282.03004 292.40577 302.7815 312.10963 321.43775 331.81349 342.1892 352.56495 356.70979 361.89308 366.0379 370.18275 375.36604 385.74177 391.95445 402.33015 407.51344 417.88917 424.10185 434.47755 439.66084 448.98896 453.1338 463.50953 472.83766 482.16578 492.5415 501.86964 507.05293 512.2362 522.61196 532.9877 538.17098 543.35427 548.53756 553.7208 559.9335 570.3092 580.68496 584.8298 588.9746">always wrote rough drafts in my highschool literature classes, but I really</tspan></text>
<text fill="#eeeeee" xml:space="preserve" transform="matrix(.75 0 0 .75 72 136.39453)" font-size="18.666666" font-family="ArialMT"><tspan y="17.509116" x="0 9.328125 14.511429 20.724106 31.099823 41.47554 51.851259 55.99608 66.371799 76.74751 81.93082 87.11412 97.48984 102.67314 113.04886 123.424579 128.60788 133.79119 143.11931 153.49503 169.03583 179.41155 184.59485 194.97057 199.11539 209.4911 219.86682 225.05013 235.42584 245.80156 250.98487 261.3606 271.73634 282.11207 292.4878 298.70048 303.8838 317.35676 327.73249 338.10823 348.48396 353.66725 362.99537 369.20805 379.58375 389.95948 395.14277 399.2876 409.66334 420.03907 425.22236 440.76316 450.09129 455.2746 460.4579 464.60273 470.8154 480.14353 485.32685 490.51014 500.88587 507.09855 517.47427 522.65756 527.8408 537.16897 542.35226 552.72799 563.1037">struggled to get something on paper when creating my first drafts and</tspan></text>
<text fill="#eeeeee" xml:space="preserve" transform="matrix(.75 0 0 .75 72 168.5918)" font-size="18.666666" font-family="ArialMT"><tspan y="17.509116" x="0 10.375717 20.751435 26.964112 37.33983 41.48465 50.812776 55.99608 71.53688 81.9126 92.288318 102.66403 107.847339 118.22305 128.59877 137.9269 143.1102 147.25502 162.79582 173.17154 179.38422 189.75994 199.08806 209.46378 225.00458 235.3803 245.75601 250.93932 260.26747 265.45075 269.59559 279.9713 285.1546 295.53034 301.743 307.9557 312.10054 321.42866 325.5735 335.94923 346.32496 351.50825 361.88398 367.06727 372.25056 387.79136 397.11949 402.3028 407.48609 411.63093 422.00666 432.3824 436.52723 441.7105 452.08625 462.46199 472.8377 482.16584 487.34913 491.50248 503.94606 514.3218 524.6975 535.07327 540.25656 550.63229 561.008 576.5488 586.92459 592.10787 597.29116 601.09878">barely made any improvements in arriving at my final ones. Anne Lamott&#x2019;s</tspan></text>
<text fill="#eeeeee" xml:space="preserve" transform="matrix(.75 0 0 .75 72 200.78907)" font-size="18.666666" font-family="ArialMT"><tspan y="17.509116" x="0 6.212677 18.65625 29.031968 33.17679 38.360094 43.543397 52.87152 58.054826 69.450809 73.59563 79.808307 89.13643 94.31973 99.50304 112.97598 119.18866 129.56438 134.74768 139.93099 149.25911 155.47179 160.65509 176.19589 186.57161 196.94733 207.32305 212.50635 228.04715 238.42287 243.60617 249.81885 260.19459 270.5703 274.71516 278.86 288.1881 298.56385 303.74714 308.93043 319.30616 329.6819 334.86518 340.04847 350.4242 360.79994 365.98323 379.45619 385.66886 389.81367 394.99696 405.37269 411.58537 420.91349 426.0968 435.42494 440.60823 450.98396 457.19664 462.37995 467.56324 481.0362 485.18104 490.36433 500.74006 505.92335 516.2991 521.48239 531.8581 542.2338 548.44656 553.6298 564.00558 573.3337">&#x201c;Shitty First Drafts&#x201d; made me realize that no writers start with a perfect</tspan></text>
<text fill="#eeeeee" xml:space="preserve" transform="matrix(.75 0 0 .75 72 232.98633)" font-size="18.666666" font-family="ArialMT"><tspan y="17.509116" x="0 10.375717 14.520538 24.896256 34.22438 44.600099 49.7834 60.15912 65.34242 70.52573 83.99867 90.21135 94.35617 99.539478 103.684299 114.06001 124.43573 129.61904 134.80234 141.01502 151.39073 166.93154 172.11484 177.29814 187.67386 198.04958 202.1944 208.40708 213.59038 218.77368 222.9185 229.13118 238.4593 243.64261 248.82592 259.20164 265.4143 275.79005 280.97334 286.15663 291.3399 296.5232 306.89894 317.27467 327.6504 332.83369 345.27726 355.65296 360.83625 371.21199 377.42466 382.60798 395.05155 399.19636 409.57209 419.9478 433.42079 437.22837 446.5565 451.7398 457.95249 467.27946 477.65516 488.03089 497.359 507.73475 511.87959 522.2553 532.63107 537.4771 547.84317 561.3161 571.69186 576.8751 589.3187 593.46359 603.8393 614.215">piece of writing from their first draft, and Peter Elbow&#x2019;s &#x201c;Teaching Two Kinds</tspan></text>
<text fill="#eeeeee" xml:space="preserve" transform="matrix(.75 0 0 .75 72 265.1836)" font-size="18.666666" font-family="ArialMT"><tspan y="17.509116" x="0 10.375717 15.559021 20.40509 31.801072 42.17679 46.32161 56.697328 66.02545 70.17027 80.54599 90.92171 97.134387 102.31769 111.64581 122.02153 132.39725 145.8702 156.24591 166.62163 171.80493 187.34574 197.72145 202.90476 213.28047 223.65619 237.12914 242.31244 247.49575 257.87147 267.1996 271.34443 281.72016 292.0959 297.27919 307.6549 318.03065 327.35877 337.7345 348.11024 353.29353 363.66926 374.04499 384.42073 389.604 399.97975 405.16304 410.3463 415.5296 425.90534 436.28108 441.46437 447.67704 458.05274 468.42848 478.8042 489.17994 494.36323 504.73896 515.1147 520.298 530.6737 536.88638 547.2621 552.4454 562.8211 568.0044 573.1877 583.5634 588.7467 593.93 598.0748 604.2875 613.6156">of Thinking&#x201d; showed me how taking advantage of the rough nature of a first</tspan></text>
<text fill="#eeeeee" xml:space="preserve" transform="matrix(.75 0 0 .75 72 297.38087)" font-size="18.666666" font-family="ArialMT"><tspan y="17.509116" x="0 10.375717 16.588395 26.964112 32.147417 37.33072 42.514024 47.697328 58.073045 64.28572 74.66144 85.037158 95.41287 105.78859 110.97189 121.34761 131.72333 142.09905 152.47476 158.68744 169.06316 174.24646 178.39128 187.7194 198.09513 203.27843 216.75138 222.96405 227.10887 232.29218 236.437 246.81272 257.18843 262.3717 272.74745 283.12318 293.4989 303.87464 314.25038 324.6261 329.8094 334.99269 345.3684 355.74415 360.92744 371.30317 381.6789 392.05464 398.2673 403.45063 408.6339 419.00965 425.22233 430.40565 439.73377 450.1095 459.43763 469.81336 480.1891 490.56483 495.7481 506.12385 512.33657 522.7123 533.088 539.30068 544.48397 549.66726 560.04299 564.1878 574.56356 583.89169 588.0365 598.41226">draft through generative writing opened the door for second order thinking</tspan></text>
<text fill="#eeeeee" xml:space="preserve" transform="matrix(.75 0 0 .75 72 329.57814)" font-size="18.666666" font-family="ArialMT"><tspan y="17.509116" x="0 4.144821 14.520538 19.703843 23.848664 34.22438 39.407686 49.7834 55.99608 61.179384 67.39206 77.76778 87.0959 91.24072 100.56885 104.71367 115.089389 125.4651 134.79323 139.97653 145.15984 155.53556 165.91127 171.09458 176.27788 181.46118 191.8369 198.04958 208.4253 218.80101 229.17673 234.36003 247.83298 254.04566 258.1905 263.37379 267.51863 277.89436 288.27009 293.45338 298.63667 304.84934 315.22505 330.76585 335.94917 346.3249 351.50819 367.04899 377.42469 387.8004 398.17616 402.32099 406.46583 411.6491 422.02485 426.16969 435.4978 440.6811 445.86439 456.2401 465.56825 474.89637 480.07966 484.2245 494.60023 499.7835 510.15925 515.3425 525.71829 530.90158 541.2773 551.653 562.02877 572.4045 576.5493">in later revisions that turned writing from a monolithic task into a doable</tspan></text>
<text fill="#eeeeee" xml:space="preserve" transform="matrix(.75 0 0 .75 72 361.7754)" font-size="18.666666" font-family="ArialMT"><tspan y="17.509116" x="0 10.375717 16.588395 26.964112 36.292238 46.667955 55.99608 65.3242 70.50751 75.69081 80.874118 91.24983 96.433139 106.80885 117.18457 127.56029 131.70511 141.03324 145.17806 155.55377 165.92949 171.1128 176.2961 186.67182 197.04753 206.37566 216.75138 221.93468 231.2628 241.63852 252.01424 261.34236 271.71809 282.0938 287.2771 296.60523 301.7885 305.93336 316.30909 321.49238 331.8681 342.24385 347.42713 357.80287 362.98616 378.52696 387.85508 393.0384 410.3098 416.5225 420.6673 425.8506 429.99543 440.37117 450.7469 455.93019 466.3059 471.4892 481.86494 492.24067 502.6164 507.79969 520.2433 530.619 534.76388 538.9087 549.2844 558.61257 568.9883 579.364 589.73977 599.0679 604.25119">process. In applying these concepts in both my Writing 2 and Philosophy 2</tspan></text>
<text fill="#eeeeee" xml:space="preserve" transform="matrix(.75 0 0 .75 72 393.97267)" font-size="18.666666" font-family="ArialMT"><tspan y="17.509116" x="0 9.328125 13.472946 23.848664 33.17679 42.504915 52.88063 62.208757 67.39206 72.57536 77.75867 82.94197 93.31769 103.693408 107.83823 111.98305 122.358768 131.68689 142.0626 147.24591 152.42922 157.61252 171.08547 181.46118 190.7893 195.97261 206.34833 216.72405 221.90735 227.09066 237.46637 243.67905 248.86235 259.23808 269.61378 273.7586 284.13435 289.31764 294.50093 304.87666 310.05995 320.43568 330.8114 341.18714 351.56288 355.7077 366.08345 371.26673 384.7397 390.95237 395.09718 400.28047 404.4253 414.80104 425.17677 430.36006 440.73579 451.1115 460.43965 470.81538 481.1911 486.3744 496.75013 506.07826 515.4064 519.5512 529.92697 540.3027 555.8435 566.21926 576.595 581.77828 591.1064 596.2897 606.6654">classes, I believe I was better able to handle writing based assignments by</tspan></text>
<text fill="#eeeeee" xml:space="preserve" transform="matrix(.75 0 0 .75 72 426.16993)" font-size="18.666666" font-family="ArialMT"><tspan y="17.509116" x="0 10.375717 20.751435 30.07956 34.22438 44.600099 54.975816 60.15912 70.534839 75.71814 85.046268 90.22957 96.442249 106.81796 112.00127 122.37698 132.7527 142.08083 147.26413 151.40895 161.78467 166.96797 182.50878 186.6536 197.02931 207.40503 212.58834 217.77164 228.14736 233.33066 243.70638 249.91905 260.29478 270.67048 281.0462 290.37434 300.75007 305.93336 316.30909 326.6848 337.06056 347.43629 352.61958 366.09254 372.3052 376.45 381.6333 385.77815 396.15388 406.5296 411.7129 415.85774 426.23347 435.56159 440.74488 451.1206 461.49635 471.87208 477.05537 487.4311 492.61439 497.79768 501.9425 512.31826 521.64639 526.82968 532.01296 537.1962 546.52438 556.9001 561.0449 571.42068 581.7964 586.9797 591.1245 601.50027 606.68356">having a strategy in mind to produce good writing instead of just typing into</tspan></text>
<text fill="#eeeeee" xml:space="preserve" transform="matrix(.75 0 0 .75 72 458.3672)" font-size="18.666666" font-family="ArialMT"><tspan y="17.509116" x="0 10.375717 15.559021 25.934739 36.310457 46.686174 57.06189 61.20671 71.58243 76.76573 87.14145 97.517169 106.84529 112.028598 122.40431 132.78003 143.15575 148.33905 158.71477 169.09049 179.4662 183.61103 193.98674 204.36246 209.54576 218.87389 229.2496 244.7904 255.16613 260.34944 270.72517 274.87 285.24574 295.62147 300.80476 311.18049 321.5562 331.93196 342.30769 347.49098 356.8191 367.19483 382.73564 393.11134 402.43946 407.62275 417.99848 428.3742 433.5575 438.74079 449.11653 454.2998 459.4831 463.62794 468.81123 473.9945 479.1778 491.62138 500.9495 511.3252 521.7009 526.8842 531.02908 541.4048 546.5881 560.06106 566.2737 570.4185 575.6018 579.74667 590.1224">a google doc and hoping something good comes out of it. Even in writing</tspan></text>
<text fill="#eeeeee" xml:space="preserve" transform="matrix(.75 0 0 .75 72 490.56446)" font-size="18.666666" font-family="ArialMT"><tspan y="17.509116" x="0 5.183304 15.559021 19.703843 29.031968 34.21527 43.543397 53.919115 60.13179 69.459918 74.64322 78.78804 89.16376 94.34706 99.530368 109.90608 115.088809 120.27211 125.455417 130.63872 135.82202 141.00533 145.15015 151.36283 160.69095 165.87425 171.05756 181.43328 191.80899 202.18471 206.32953 210.47435 220.85007 231.22579 236.40909 246.7848 257.16053 267.53627 277.912 284.12467 294.50038 299.68367 303.8285 313.15663 323.53236 328.71565 342.1886 348.40129 352.54609 357.72938 361.8742 372.24995 382.62568 387.80897 392.99226 403.36799 408.55128 418.927 429.30274 434.48603 439.6693 455.2101 464.53825 469.72157 473.8664 484.24214 494.61787 504.9936 514.3217 519.505 529.88076 540.2565 545.43978 555.8155 560.9988 571.3745 581.75027 592.126 602.5017 607.68447">this very letter, I first applied generative writing to get my ideas onto paper,</tspan></text>
<text fill="#eeeeee" xml:space="preserve" transform="matrix(.75 0 0 .75 72 522.7617)" font-size="18.666666" font-family="ArialMT"><tspan y="17.509116" x="0 10.375717 20.751435 31.127152 36.310457 41.49376 51.869478 62.245195 72.62091 77.804218 88.17993 98.55565 108.931369 113.07619 117.22101 127.596729 137.97245 143.15575 152.48387 162.85959 172.18772 182.56343 192.93915 203.31487 208.49817 218.87389 225.08657 235.46228 245.838 252.05068 257.23399 262.4173 272.79304 276.93788 287.3136 296.64173 300.78657 311.1623 321.53804 326.7213 331.9046 342.28034 347.46363 363.00444 373.38014 382.70826 393.08399 398.26728 403.45057 413.8263 424.20204 434.57777 444.9535 455.32923 460.5125 469.84065 475.02394 484.35206 488.4969 498.87263 509.24836 515.46109 525.8368 532.04946 537.2327 547.60848 557.9842 568.3599 573.5432 589.084 599.4597 605.67239">and then applied second order thinking to make thoughts clearer and more</tspan></text>
<text fill="#eeeeee" xml:space="preserve" transform="matrix(.75 0 0 .75 72 554.959)" font-size="18.666666" font-family="ArialMT"><tspan y="17.509116" x="0 9.328125 19.703843 30.07956 39.407686 43.552507 52.88063 63.256349 68.43965 73.622959 87.0959 97.47162 101.61644 105.76126 116.13698 121.32028 126.503589 130.6484 139.97653 144.12136 154.49707 164.87279 170.05609 174.20092 184.57663 190.7893 201.16503 211.54074 217.75342 222.93672 233.31244 239.52512 249.90084 260.27656 270.65229 274.79713 284.12525 294.50099 299.68428 303.8291 314.20484 324.58058 334.9563 339.10115 344.28443 354.66017 365.0359 375.41163 380.5949 385.7782 389.92304 400.29878 413.77174 418.95503 423.09986 432.42799 441.7561 452.13185 462.50758 471.8357 477.01899 487.3947 492.578 497.7613 502.94459 513.3203 523.69607 528.87936 539.25509 549.6308 558.9589 569.33468 584.8755 595.2512 605.62698 610.81027">concise, while fixing larger organizational and flow issues of the document.</tspan></text>
<text fill="#eeeeee" xml:space="preserve" transform="matrix(.75 0 0 .75 72 587.15628)" font-size="18.666666" font-family="ArialMT"><tspan y="17.509116" x="48 59.39598 69.7717 75.984378 81.16768 91.543399 101.91911 108.13179 123.67259 134.04831 140.26099 150.6367 155.82 161.00331 166.18662 171.36992 181.74564 192.12136 196.26618 206.64189 217.01761 227.39333 232.57663 242.95235 248.13565 258.51136 268.8871 274.07038 279.25367 289.6294 295.84208 301.0254 311.40113 321.77687 332.1526 342.52833 348.741 358.06913 363.25245 373.62818 384.0039 394.37965 398.52449 408.9002 419.27595 424.45924 434.83497 440.01826 445.20155 455.57728 465.953 476.32875 481.51203 491.88777 502.2635 506.40834 510.55317 514.698 519.8813 529.2094 534.3927 539.576 549.9517 555.135 568.608 572.7528 583.12857 587.2734">Furthermore, I gained a better understanding of and ability to wield</tspan></text>
<text fill="#eeeeee" xml:space="preserve" transform="matrix(.75 0 0 .75 72 619.3535)" font-size="18.666666" font-family="ArialMT"><tspan y="17.509116" x="0 10.375717 20.751435 31.127152 40.455278 45.63858 56.014299 66.390018 71.57332 75.71814 86.09386 96.469577 101.65288 105.7977 116.173419 121.35672 136.89752 146.22565 151.40895 164.8819 171.09458 175.2394 180.4227 184.56752 194.94324 205.31896 210.50226 215.68556 220.86887 231.24459 236.42789 251.96869 261.2968 266.4801 276.85585 287.23158 296.5597 301.74299 306.92628 320.39924 326.6119 330.7567 335.94 340.08485 350.46058 360.8363 366.0196 376.39533 385.72346 396.09919 406.4749 412.6876 416.8324 427.20814 437.58387 446.912 457.28773 466.61585 471.79914 476.98243 492.52323 501.85136 507.03468 517.4104 527.78616 531.93099 541.2591 546.4424 556.8181 567.19387 577.5696 581.7144 586.8977 600.37069 604.5155 609.6988">punctuation in my writing. In my past writing experiences, my only goal with</tspan></text>
<text fill="#eeeeee" xml:space="preserve" transform="matrix(.75 0 0 .75 72 651.5508)" font-size="18.666666" font-family="ArialMT"><tspan y="17.509116" x="0 10.375717 20.751435 31.127152 40.455278 45.63858 56.014299 66.390018 71.57332 75.71814 86.09386 96.469577 101.65288 115.125827 125.50154 134.82967 140.01297 145.19628 155.57199 161.78467 166.96797 171.1128 176.2961 181.4794 186.6627 197.03842 202.22173 212.59745 222.97316 228.15647 237.48459 247.8603 254.07299 260.28565 270.66139 279.9895 285.1728 290.35609 295.53938 300.72267 305.90596 315.23408 325.6098 331.82249 342.19819 352.5739 357.7572 361.90205 366.04689 371.23017 376.41346 380.5583 390.93403 396.1173 406.49305 416.86878 427.2445 437.62025 442.80354 447.98683 458.36256 468.73829 482.21125 487.39454 491.53938 496.72267 501.90596 512.2817 517.12777 522.31106 532.68679 542.0149 547.1982 557.5739 567.94967 573.13296 588.6737">punctuation was for it to be correct. I cared little about how it affected my</tspan></text>
<text fill="#eeeeee" xml:space="preserve" transform="matrix(.75 0 0 .75 72 683.74807)" font-size="18.666666" font-family="ArialMT"><tspan y="17.509116" x="0 13.472946 19.685624 23.830445 29.013749 33.15857 43.534288 53.910005 59.093309 64.27661 68.42143 78.79715 88.125278 93.30858 98.49188 103.675189 114.0509 124.42662 129.60993 134.79323 138.93805 144.12136 149.30466 154.48796 164.86368 169.0085 173.15332 183.52904 197.00199 207.3777 217.75342 222.93672 228.12003 238.49575 248.87146 254.05477 263.38288 268.56617 274.77885 278.92366 288.25178 293.43507 298.61836 308.99409 319.3698 323.51466 333.89039 344.2661 348.41096 352.5558 362.93153 373.30726 382.63539 387.81867 393.00196 398.18525 411.6582 422.03395 432.40968 436.5545 446.93025 452.11354 462.48927 472.865 478.04829 488.424 497.75215 508.12788 518.5036 527.8317 533.015 543.39077 553.7665 558.94979 564.13308">writing, just that it followed the strict guidelines I would be expected to</tspan></text>
</g>
</svg>
