<?xml version="1.0" encoding="UTF-8" standalone="no"?>
<!DOCTYPE svg PUBLIC "-//W3C//DTD SVG 1.1//EN" "http://www.w3.org/Graphics/SVG/1.1/DTD/svg11.dtd">
<svg xmlns="http://www.w3.org/2000/svg" xmlns:xlink="http://www.w3.org/1999/xlink" version="1.1" width="612pt" height="792pt" viewBox="0 0 612 792">
<g enable-background="new">
<path transform="matrix(.75,0,0,.75,0,0)" d="M 0 0 L 816 0 L 816 1056 L 0 1056 Z " fill="#0097a7"/>
<text fill="#eeeeee" xml:space="preserve" transform="matrix(.75 0 0 .75 72 72)" font-size="18.666666" font-family="ArialMT"><tspan y="17.509116" x="0 10.375717 19.703843 24.887146 35.262865 39.407686 48.73581 53.919115 60.13179 70.50751 79.83563 85.018939 95.39465 105.77037 110.953678 121.32939 125.47421 134.80234 138.94716 149.32288 159.6986 164.8819 170.0652 175.2485 180.43181 190.80753 194.95235 204.28047 214.65619 219.8395 230.21521 240.59093 246.8036 251.98691 262.3626 268.5753 284.1161 294.49183 304.86756 310.05085 320.42658 325.60987 335.9856 342.19828 352.57398 368.11479 378.49049 383.67378 387.8186 397.14674 402.33003 411.65815 415.80299 425.1311 435.50685 445.88258 450.0274 455.2107 465.58644 474.91456 485.29029 491.50297 501.87867 512.2544 522.6301 526.77499 531.95828 542.334 552.7097 557.893 563.0763 573.452">by distracted biking. I also performed a dramatic visual overhaul on the</tspan></text>
<text fill="#eeeeee" xml:space="preserve" transform="matrix(.75 0 0 .75 72 104.197269)" font-size="18.666666" font-family="ArialMT"><tspan y="17.509116" x="0 10.375717 20.751435 30.07956 35.262865 45.63858 50.821306 56.00461 60.850679 72.24666 82.622379 92.99809 98.1814 107.50952 117.88524 122.03006 132.40578 138.61846 143.80176 153.12989 162.45801 172.83373 183.20944 198.75025 209.12596 214.30927 224.68498 229.86829 235.05159 240.2349 250.61061 260.98634 266.16963 275.49775 285.87348 295.2016 305.57734 315.95307 326.3288 331.5121 341.88783 348.1005 358.4762 363.6595 368.84278 374.02607 384.4018 388.54664 398.92237 404.10566 414.48139 424.85713 430.0404 435.2237 444.55183 450.7645 461.1402 471.51594 476.69923 487.07496 492.25825 497.44154 507.81727 518.193 523.3763 529.589 539.9647 550.34048 555.52377 565.8995 572.1122 576.257 585.58517 595.9609">poster. The color scheme of the second draft did not create the rhetorical</tspan></text>
<text fill="#eeeeee" xml:space="preserve" transform="matrix(.75 0 0 .75 72 136.39453)" font-size="18.666666" font-family="ArialMT"><tspan y="17.509116" x="0 10.375717 15.2217869 20.40509 30.780808 40.108934 45.292238 50.47554 55.658845 66.03456 76.41028 81.59358 86.776889 91.96019 97.14349 107.51921 117.89493 128.27065 133.45395 143.82967 150.04235 154.18717 164.56288 168.7077 179.08342 189.45914 193.60396 197.74878 207.0769 212.26021 222.63593 226.78075 242.32155 252.69727 263.073 268.2563 273.43959 283.8153 288.99806 294.18135 299.36463 309.74037 319.06849 324.25178 328.3966 333.5799 338.76319 354.304 364.6797 375.05543 385.43116 390.61445 395.79774 406.17347 416.5492 421.73249 432.10823 442.48396 451.81208 456.99537 467.3711 473.58378 478.7671 489.14283 499.51856 509.8943 516.10696 526.48269 531.66598 542.0417 551.3698 560.69796 564.8428 575.2185 585.59426 595.97">effect that I had originally aimed for, as it made the poster unprofessional</tspan></text>
<text fill="#eeeeee" xml:space="preserve" transform="matrix(.75 0 0 .75 72 168.5918)" font-size="18.666666" font-family="ArialMT"><tspan y="17.509116" x="0 10.375717 20.751435 31.127152 36.310457 46.686174 57.06189 63.274568 73.65028 78.83359 84.01689 94.39261 99.57591 105.78859 116.16431 126.54002 136.91574 142.09905 146.2524 158.69597 168.0241 173.2074 183.58312 193.95883 204.33455 210.54723 220.92295 226.10625 238.54982 248.92554 253.07036 257.21519 267.59089 272.77418 286.24714 296.62287 302.83555 309.04823 319.42396 323.5688 327.71363 332.8969 343.27265 352.60078 362.9765 367.12135 377.49708 381.6419 392.01765 401.34577 406.52906 410.6739 421.04963 426.2329 432.4456 444.88917 455.2649 464.59303 473.92115 484.29689 494.6726 504.00074 513.32888 522.657 527.8403 537.1684 546.4965">and hard to read. As Laura Bolin Carroll explains in &#x201c;Backpacks vs.</tspan></text>
<text fill="#eeeeee" xml:space="preserve" transform="matrix(.75 0 0 .75 72 200.78907)" font-size="18.666666" font-family="ArialMT"><tspan y="17.509116" x="0 12.443573 18.65625 22.801072 33.17679 38.360094 47.688219 58.063936 67.39206 77.76778 87.0959 92.279209 98.49188 103.675189 108.85849 119.23421 129.60993 134.79323 145.16895 155.54467 165.92038 176.2961 186.67182 192.88449 203.26021 213.63593 222.96405 233.33977 238.52307 248.89879 254.08209 259.26539 269.6411 274.8244 288.29737 294.51005 298.65486 303.83815 307.98298 318.3587 328.73445 333.91773 344.29347 348.4383 358.81404 368.14216 378.51789 383.70118 394.0769 400.28959 410.66529 421.04103 426.2243 430.36915 439.69728 444.88056 455.2563 460.10237 465.28565 475.66139 484.9895 490.1728 499.50093 504.6842 515.05996 525.43569 538.9086 544.0919 548.23678 553.42007">Briefcases,&#x201d; the appearance of a writing piece greatly affects how its</tspan></text>
<text fill="#eeeeee" xml:space="preserve" transform="matrix(.75 0 0 .75 72 232.98633)" font-size="18.666666" font-family="ArialMT"><tspan y="17.509116" x="0 10.375717 20.751435 31.127152 35.271974 45.64769 56.023408 65.35153 75.72725 80.91055 91.28627 101.66199 107.874668 117.20279 127.57851 131.72333 141.05146 151.42717 160.7553 165.9386 170.08342 175.26673 184.59485 189.77816 205.31896 215.69467 225.0228 234.35092 244.72664 255.10236 265.4781 270.66139 275.84468 287.24067 297.6164 303.82908 309.0124 314.19569 324.5714 334.94715 340.13044 345.31373 349.45857 359.8343 370.21003 374.35487 379.53816 389.91389 396.12657 406.50227 411.68556 416.86885 422.05213 432.42787 437.61116 442.79444 458.33525 467.66337 472.84669 483.2224 493.59815 502.92628 508.10957 518.4853 523.668 528.8513 534.0346 539.2179 544.4012 553.7293 557.87417 573.4149 583.79067 587.9355 592.0803 597.2636 601.40847 611.7842">audience perceives its message. For the final draft of my poster, I simplified</tspan></text>
<text fill="#eeeeee" xml:space="preserve" transform="matrix(.75 0 0 .75 72 265.1836)" font-size="18.666666" font-family="ArialMT"><tspan y="17.509116" x="0 5.183304 15.559021 25.934739 31.118042 40.446168 50.821886 61.1976 66.380908 76.75662 87.13234 92.31564 97.49895 102.68225 113.05797 118.24127 128.61699 138.9927 144.17601 154.55173 164.92745 174.25557 178.40039 188.77611 194.98879 200.17209 205.3554 215.73111 220.91442 227.12709 237.5028 247.87853 258.25425 263.43757 273.8133 284.18904 294.56477 299.74806 309.07618 315.28886 325.66456 336.04029 341.22358 351.5993 361.97505 367.15834 377.53407 382.71736 393.09309 399.30577 409.68147 420.0572 430.43293 434.57777 443.90589 449.08918 459.4649 469.84065 479.16877 483.3136 493.68934 504.06507 509.24836 514.43167 524.8074 535.1831 540.3664 545.5497 549.6945 559.02267 564.20596 574.58169 584.9574 594.2855 598.43038 608.8061">the content to be easier to read and created a graphic design that is easier</tspan></text>
<text fill="#eeeeee" xml:space="preserve" transform="matrix(.75 0 0 .75 72 297.38087)" font-size="18.666666" font-family="ArialMT"><tspan y="17.509116" x="0 10.375717 20.751435 25.934739 31.118042 41.49376 51.869478 57.05278 67.4285 76.75662 87.13234 96.460468">on the eyes.</tspan></text>
<text fill="#eeeeee" xml:space="preserve" transform="matrix(.75 0 0 .75 72 329.57814)" font-size="18.666666" font-family="ArialMT"><tspan y="17.509116" x="48 53.183305 63.55902 68.742328 73.92563 84.301349 94.67706 99.86037 109.18849 119.56421 128.89234 139.26805 149.64377 160.01949 165.20279 175.5785 181.79119 192.1669 197.3502 202.53351 207.71681 218.09253 223.27584 228.45914 245.73056 251.94324 256.08808 261.27137 265.4162 275.79194 286.16767 291.35096 303.79454 310.0072 320.3829 324.52775 334.90348 344.2316 349.4149 354.26097 364.62699 378.09996 388.47569 393.65898 398.84226 414.38307 423.71119 428.8945 439.27024 443.41508 453.7908 464.16654 469.34983 479.72557 490.1013 499.4294 504.6127 513.9408 519.1241 532.59707 542.9728 549.1854 559.56118 564.74447 575.1202 585.4959 590.6792 595.8625 606.2382">In the second draft of Writing Project Two, my blog posts were not as</tspan></text>
<text fill="#eeeeee" xml:space="preserve" transform="matrix(.75 0 0 .75 72 361.7754)" font-size="18.666666" font-family="ArialMT"><tspan y="17.509116" x="0 9.328125 19.703843 30.07956 39.407686 49.7834 55.99608 65.3242 75.69992 80.883228 85.028049 95.40376 105.77948 116.1552 120.30002 125.48332 135.85904 145.18717 150.37047 155.55377 160.73708 171.1128 181.48851 191.86423 197.04753 201.19235 211.56807 216.75138 227.12709 237.5028 247.87853 258.25425 268.62995 273.81324 278.99653 289.37226 295.58494 300.76826 305.95155 316.32728 326.703 342.2438 347.42713 352.6104 362.98616 368.16944 378.54518 388.9209 394.1042 399.28749 416.89613 421.04096 426.22425 436.59999 441.78327 452.159 462.53474 467.71803 477.04615 481.19099 491.5667 501.94245 508.15513 513.33847 522.66659 527.84988 538.2256 544.43826 549.6215 553.76638 564.1421">conversational as I had intended for them to be. With no clear starting</tspan></text>
<text fill="#eeeeee" xml:space="preserve" transform="matrix(.75 0 0 .75 72 393.97267)" font-size="18.666666" font-family="ArialMT"><tspan y="17.509116" x="0 10.375717 20.751435 24.896256 35.271974 40.455278 45.63858 50.821886 66.362689 75.69081 80.874118 90.20224 100.57796 110.953678 120.2818 130.65752 136.8702 146.19832 156.57404 161.75734 165.90216 176.27788 186.6536 191.8369 198.04958 208.4253 217.75342 228.12914 238.50485 248.88057 254.06388 258.20869 268.5844 273.7677 284.14344 289.32673 299.70246 310.0782 315.26148 325.6372 336.01295 346.38868 350.5335 359.86164 369.18977 373.3346 382.66273 387.846 398.22175 403.40504 408.58833 413.7716 424.14735 434.52308 439.70637 444.88966 455.26539 465.6411 469.78596 479.11408 484.29737 494.6731 499.85639 505.03968 515.4154 525.79116 536.1669 546.5426 551.7259 555.8793 568.3229 578.6986 589.07437">point, my conversation rushed into an analysis of the topic at hand. And,</tspan></text>
<text fill="#eeeeee" xml:space="preserve" transform="matrix(.75 0 0 .75 72 426.16993)" font-size="18.666666" font-family="ArialMT"><tspan y="17.509116" x="0 13.472946 23.848664 27.993485 32.138307 42.514024 47.697328 52.88063 63.256349 73.632068 78.81537 85.028049 95.40376 104.73189 115.107608 125.48332 135.85904 145.18717 155.56288 164.891 170.07431 180.45003 184.59485 188.73967 193.92298 203.2511 213.62682 224.00254 234.37825 244.75397 254.08209 259.26539 269.6411 280.01686 285.20014 290.38343 300.75917 305.94245 311.12574 321.50148 331.8772 337.0605 347.43623 353.6489 364.0246 374.40034 379.58363 389.95936 396.17204 401.35536 410.68348 421.0592 431.43495 440.76307 451.1388 457.35148 466.6796 477.0553 482.2386 486.38343 496.75917 507.1349 512.3182 517.50149 522.68478 533.0605 543.4362 552.76437 557.94766 568.32339 572.4682 582.84396 588.0272 598.40298 608.7787">while the responses all connected to the greater conversation, they did not</tspan></text>
<text fill="#eeeeee" xml:space="preserve" transform="matrix(.75 0 0 .75 72 458.3672)" font-size="18.666666" font-family="ArialMT"><tspan y="17.509116" x="0 9.328125 19.703843 30.07956 40.455278 50.830995 60.15912 65.34242 70.52573 83.99867 88.14349 93.3268 103.702518 108.88582 119.261539 129.63726 138.96538 149.3411 154.5244 164.90012 170.08342 180.45914 190.83486 196.01758 201.20088 206.04695 215.37392 225.74964 230.93294 236.11624 240.26107 249.58919 254.77249 259.9558 270.33155 280.70729 285.89057 296.2663 306.64204 312.8547 323.2304 333.60615 338.78944 343.97273 353.30085 358.48414 368.85987 375.07255 380.25587 385.43916 395.81489 400.99818 406.18147 411.36476 421.74049 432.1162 437.2995 446.62763 457.00337 467.3791 476.7072 487.08296 493.29563 502.62376 512.99948 518.18276 522.3276 532.7033 543.07907 548.2623 553.4456">connect with each other. To fix the abrupt start of the conversation, I</tspan></text>
<text fill="#eeeeee" xml:space="preserve" transform="matrix(.75 0 0 .75 72 490.56446)" font-size="18.666666" font-family="ArialMT"><tspan y="17.509116" x="0 4.144821 14.520538 23.848664 34.22438 40.437059 45.62036 55.99608 66.371799 71.5551 81.93082 92.30653 97.48984 101.63466 112.010379 116.1552 121.3385 125.48332 135.85904 140.00386 145.18717 155.56288 165.9386 175.26673 180.45003 185.63333 196.00905 201.19235 206.37566 216.75138 221.93468 235.40763 241.6203 245.76512 250.94843 261.32417 267.53684 272.72016 283.0959 292.424 301.75215 305.89698 316.2727 326.64845 331.83174 337.015 347.39076 353.60343 358.78675 369.16249 379.5382 383.68305 394.05879 399.24208 409.6178 419.99354 425.17683 435.55256 440.73585 451.11158 461.4873 471.86305 482.23878 487.4215 492.6048 497.45088 508.84687 519.2226 529.5983 539.97409 545.15737 550.34066">inserted an initial post of a writer asking for help on a paper. Then, I</tspan></text>
<text fill="#eeeeee" xml:space="preserve" transform="matrix(.75 0 0 .75 72 522.7617)" font-size="18.666666" font-family="ArialMT"><tspan y="17.509116" x="0 15.540802 25.91652 36.292238 40.437059 45.62036 49.765184 60.1409 70.51662 75.69992 80.883228 91.25894 101.63466 106.81796 112.00127 116.14609 126.521808 139.99475 145.17806 155.55377 160.73708 165.92038 171.10369 181.4794 191.85512 197.03842 206.36655 216.74227 227.11798 236.4461 246.82183 253.0345 262.3626 272.73835 277.92164 282.06648 292.4422 302.81794 308.00123 313.1845 323.56025 328.74354 338.07167 342.2165 352.59223 358.8049 362.9497 368.133 377.46113 382.6444 396.11738 406.4931 410.63795 419.96607 430.3418 435.5251 444.8532 455.22895 465.60469 475.9804 485.30854 495.68428 501.89695 511.22508 516.4084 529.88137 540.2571 546.4697 556.84548 562.02877 566.1736">modified the flow of the conversation to clarify which speakers were in</tspan></text>
<text fill="#eeeeee" xml:space="preserve" transform="matrix(.75 0 0 .75 72 554.959)" font-size="18.666666" font-family="ArialMT"><tspan y="17.509116" x="0 10.375717 20.751435 26.964112 37.33983 47.715547 63.256349 73.632068 84.00778 89.191089 94.37439 104.75011 115.125827 125.50154 130.68485 141.06056 145.20539 154.53351 164.90923 175.28495 181.49762 191.87334 202.24906 217.78986 228.16558 238.54129 243.7246 248.9079 262.38087 266.5257 271.70899 282.08473 287.268 297.64375 308.01948 317.3476 327.72334 332.90663 343.28236 348.46565 358.84138 369.2171 374.39985 379.58314 384.76643 389.9497 395.133 405.50874 409.65357 418.9817 429.35743 434.5407 443.86885 454.24458 464.6203 474.99604 485.37178 495.7475 506.12324 511.30653 516.4898 526.86557 537.2413 542.42459 552.8003 562.1284 572.50418 578.7168 589.0925 593.23739">agreement and disagreement with each other. I also changed the overall</tspan></text>
<text fill="#eeeeee" xml:space="preserve" transform="matrix(.75 0 0 .75 72 587.15628)" font-size="18.666666" font-family="ArialMT"><tspan y="17.509116" x="0 5.183304 9.328125 19.703843 33.17679 38.360094 48.73581 53.919115 59.102418 64.28572 74.66144 85.037158 90.22046 99.548587 109.9243 120.30002 129.62815 140.00386 146.21654 155.54467 165.92038 171.10369 175.2485 185.62422 195.99994 201.18325 206.36655 216.74227 221.92557 232.30129 242.677 247.8603 253.04361 263.4193 269.632 274.8153 281.02799 291.4037 296.58699 300.7318 311.10755 320.43568 325.61897 330.80226 335.98554 346.36128 356.737 361.9203 366.06513 376.44087 385.76899 391.98167 402.35737 412.7331 422.06123 426.20606 436.5818 446.95753 451.10237 460.43049 465.61378 475.9895 486.36524 495.69337 499.8382 505.02149 509.16633 518.49447 528.8702 534.05349 543.3816 553.7573 564.13308 569.31637 573.4612 589.00198 599.3777 609.7534">flow of the conversation to better reflect the increasingly positive sentiment</tspan></text>
<text fill="#eeeeee" xml:space="preserve" transform="matrix(.75 0 0 .75 72 619.3535)" font-size="18.666666" font-family="ArialMT"><tspan y="17.509116" x="0 5.183304 15.559021 29.031968 39.407686 45.62036 55.99608 65.3242 70.50751 80.883228 91.25894 101.63466 110.96278 121.3385 131.71422 136.89752 147.27324 156.60137 161.78467 172.16039 177.34369 182.527 187.7103 198.08602 208.46173 213.64504 227.11798 233.33066 237.47548 242.65879 246.8036 257.17933 267.55506 272.73835 282.06648 287.24977 297.6255 308.00123 312.14607 322.5218 331.8499 337.0332 346.36134 356.73707 372.27787 387.81867 398.1944 408.57014 412.71498 417.89826 427.22639 432.40968 442.7854 453.16114 463.53688 468.72016 473.90345 484.27919 489.46247 499.8382 510.21394 515.3972 520.5805 530.95626 537.16897 542.35226 551.68038 562.0561 572.4318 582.80758 593.1833 602.5114">towards anecdotes of the writing studies community and to better connect</tspan></text>
<text fill="#eeeeee" xml:space="preserve" transform="matrix(.75 0 0 .75 72 651.5508)" font-size="18.666666" font-family="ArialMT"><tspan y="17.509116" x="0 5.183304 15.559021 25.934739 31.118042 37.33072 47.706438 58.082155 62.226976 66.371799 76.74751 86.07564 91.25894 104.73189 108.87671 114.06001 124.43573 129.61904 139.99475 150.37047 159.6986 170.07431 175.25762 185.63333 190.81664 201.19235 211.56807 216.7508">the replies with each other.</tspan></text>
</g>
</svg>
