<?xml version="1.0" encoding="UTF-8" standalone="no"?>
<!DOCTYPE svg PUBLIC "-//W3C//DTD SVG 1.1//EN" "http://www.w3.org/Graphics/SVG/1.1/DTD/svg11.dtd">
<svg xmlns="http://www.w3.org/2000/svg" xmlns:xlink="http://www.w3.org/1999/xlink" version="1.1" width="612pt" height="792pt" viewBox="0 0 612 792">
<g enable-background="new">
<path transform="matrix(.75,0,0,.75,0,0)" d="M 0 0 L 816 0 L 816 1056 L 0 1056 Z " fill="#0097a7"/>
<text fill="#eeeeee" xml:space="preserve" transform="matrix(.75 0 0 .75 72 72)" font-size="18.666666" font-family="ArialMT"><tspan y="17.509116" x="0 10.375717 20.751435 31.127152 41.50287 45.64769 56.023408 65.35153 70.534839 86.07564 96.451358 101.63466 106.81796 117.19368 122.37698 132.7527 143.12842 152.45655 162.83226 168.01557 183.55637 193.93209 203.26021 213.63593 218.81923 234.36003 244.73575 250.94843 261.32417 266.50746 270.65229 286.19309 296.5688 306.94453 316.27265 321.45594 326.63923 337.01496 341.1598 346.34309 359.81605 366.02873 370.17353 375.3568 379.50166 389.87739 400.2531 405.4364 410.28248 421.67848 432.0542 436.19905 445.52717 450.71046 454.8553 464.1834 469.3667 479.74244 489.07057 499.4463 509.82203 519.15017 523.295 533.6707 537.81558 541.9604">enables me to have much more impactful writing. This is especially</tspan></text>
<text fill="#eeeeee" xml:space="preserve" transform="matrix(.75 0 0 .75 72 104.197269)" font-size="18.666666" font-family="ArialMT"><tspan y="17.509116" x="0 4.144821 19.685624 30.06134 40.437059 46.649736 51.83304 62.208757 72.58447 77.76778 82.95108 88.134387 98.5101 104.72278 109.90608 125.446887 135.8226 141.0059 151.38162 160.70975 165.89305 176.26877 181.45207 194.92502 205.30074 220.84154 231.21726 241.59297 246.77628 257.15199 263.36466 268.54798 280.99156 290.31968 294.46449 304.8402 315.21595 324.54408 334.9198 340.1031 355.6439 366.0196 370.16444 380.54017 386.75285 391.93617 402.3119 412.68763 422.01576 432.39149 442.7672 452.09535 462.47108 467.65437 472.83766 478.02095 491.4939 495.63874 499.78358 503.9284 509.1117 519.4874 529.86318 535.04647 548.5194 554.73208 558.8769 564.0602 568.205 578.58078 588.9565 594.1398 598.2846">important for me as a Computer Science Major because I will be writing in</tspan></text>
<text fill="#eeeeee" xml:space="preserve" transform="matrix(.75 0 0 .75 72 136.39453)" font-size="18.666666" font-family="ArialMT"><tspan y="17.509116" x="0 10.375717 15.559021 24.887146 35.262865 40.446168 45.62947 49.774293 60.15001 70.52573 75.70903 89.18198 99.55769 109.93341 116.14609 126.521808 131.70511 145.17806 155.55377 165.92949 171.1128 174.92038 184.2485 189.43181 193.57663 209.11743 219.49315 229.86887 236.08155 241.26485 251.64057 262.0163 267.1996 272.38288 276.5277 285.85585 291.03913 300.36726 310.74299 321.1187 330.44685 340.82258 350.1507 354.29554 364.67127 375.047 380.2303 390.60603 395.7893 411.3301 421.7058 431.03395 440.36207 450.7378 461.11354 471.48927 476.67256 486.00068 490.1455 500.52125 510.89698 517.1096 521.25448 530.5826 535.76589 546.1416 556.51736">a setting where what&#x2019;s important is conveying a message clearly and</tspan></text>
<text fill="#eeeeee" xml:space="preserve" transform="matrix(.75 0 0 .75 72 168.5918)" font-size="18.666666" font-family="ArialMT"><tspan y="17.509116" x="0 10.375717 20.751435 26.964112 36.292238 46.667955 57.04367 66.371799 70.51662 79.84474 90.22046 94.36528 102.30798">persuasively.</tspan></text>
<text fill="#eeeeee" xml:space="preserve" transform="matrix(.75 0 0 .75 72 200.78907)" font-size="18.666666" font-family="ArialMT"><tspan y="17.509116" x="48 59.39598 69.7717 75.984378 86.36009 96.73581 107.11153 117.48724 122.67055 139.94197 146.15465 150.29947 155.48278 159.6276 170.00331 180.37903 185.56233 195.93805 201.12136 206.30466 211.48796 216.67127 227.04698 237.4227 246.75083 257.12654 262.3098 272.68556 283.06129 292.3894 302.76515 318.3059 328.68165 333.86494 344.24067 349.42396 364.96476 375.34046 381.55314 391.92884 397.11213 406.44026 416.81599 427.1917 432.375 436.51985 446.89558 457.2713 467.64704 472.83033 478.0136 491.48658 497.69926 501.84407 507.02735 517.4031 522.5858 527.7691 532.9524 538.1357 543.319 553.6947 564.07046">Through Writing 2, I have become a more confident writer. I now</tspan></text>
<text fill="#eeeeee" xml:space="preserve" transform="matrix(.75 0 0 .75 72 232.98633)" font-size="18.666666" font-family="ArialMT"><tspan y="17.509116" x="0 10.375717 20.751435 24.896256 29.041077 39.416795 48.74492 59.120637 64.30394 69.48724 79.86296 90.23868 95.42198 100.605289 105.78859 110.97189 121.34761 131.72333 141.05146 151.42717 156.61048 161.79378 172.1695 182.54521 187.72852 198.10424 208.47995 213.66326 224.03897 234.41469 239.59799 243.74282 254.11853 258.26338 263.44667 268.62995 279.00569 284.18898 293.5171 303.89283 319.43363 334.97444 345.35017 355.7259 359.87074 369.19886 379.5746 384.75788 395.1336 400.3169 409.64503 420.02076 430.39649 439.7246 443.86946 453.19758 463.5733 467.71815 477.04627 482.22956 492.6053 502.98103 513.35678 518.54006 528.9158 533.76187 538.9451 549.32089 558.649 563.8323 567.9771 577.30526 587.68099 591.8258 601.15396 606.3372 610.48208">believe that I have the potential to communicate concisely and effectively in</tspan></text>
<text fill="#eeeeee" xml:space="preserve" transform="matrix(.75 0 0 .75 72 265.1836)" font-size="18.666666" font-family="ArialMT"><tspan y="17.509116" x="0 10.375717 20.751435 25.934739 36.310457 41.49376 50.821886 61.1976 70.52573 80.90144 91.27716 95.42198 100.605289 110.981 121.35672 131.73244 136.91574 147.29146 153.50414 163.87985 169.06316 179.43888 188.767 198.09513 202.23995 212.61566 222.99138 233.3671 237.51192 242.69522 252.02335 262.39906 267.58235 272.76564 276.91047 287.2862 297.66194 306.99006 312.17335 317.35664 327.73237 338.1081 348.48384 353.6671 367.14009 371.2849 375.42976 379.5746 384.75788 394.086 404.46174 414.83747 420.02076 424.1656 434.54133 444.91706 455.2928 460.47608 465.65937 476.0351 481.21839 491.59413 497.8068 508.1825 517.5106 522.6939 526.83877 536.1669 546.5426 551.7259 556.9092 567.2849">both casual and professional settings, and will continue to practice the</tspan></text>
<text fill="#eeeeee" xml:space="preserve" transform="matrix(.75 0 0 .75 72 297.38087)" font-size="18.666666" font-family="ArialMT"><tspan y="17.509116" x="0 4.144821 14.520538 24.896256 35.271974 44.600099 49.7834 54.966707 61.179384 71.5551 87.0959 92.279209 97.46251 107.83823 111.98305 121.31117 126.49448 135.8226 139.96743 150.34314 159.67127 168.99939 174.1827 184.55841 194.93413 205.30985 210.49315 220.86887 231.24459 240.57271 250.94843 255.09325 265.46897 275.84468 281.02796 296.56877 305.89689 311.0802 324.55317 330.76585 334.91065 340.09394 344.23878 354.6145 364.99024 370.17353 379.50166 388.82978 392.9746 397.11946 401.26429 410.5924 415.7757 420.95899 431.33473 436.518 452.0588 462.4345 472.81025 477.99354 483.17683 488.3601 498.73585 509.11158 514.29489 519.47817 529.8539 540.2296 550.60537 554.7502 559.9335 565.11679 577.5603 587.93606 593.1193 603.49508 609.70779">ideas from this class and develop my writing skills to meet that goal. Before</tspan></text>
<text fill="#eeeeee" xml:space="preserve" transform="matrix(.75 0 0 .75 72 329.57814)" font-size="18.666666" font-family="ArialMT"><tspan y="17.509116" x="0 5.183304 15.559021 24.887146 29.031968 39.407686 49.7834 54.966707 60.15001 70.52573 74.67055 83.99867 89.18198 98.5101 102.65492 113.03064 122.358768 131.68689 136.8702 142.0535 147.2368 152.4201 161.74823 165.89305 176.26877 189.74172 200.11743 210.49315 215.67646 229.1494 235.36208 239.5069 244.6902 248.83502 259.21076 269.5865 274.76979 285.1455 294.47364 299.65693 310.03266 320.4084 325.59169 335.9674 342.18009 347.3634 352.5467 357.72999 368.1057 374.3184 389.8592 395.04249 400.22578 410.6015 420.97724 426.16053 431.3438 444.81678 455.1925 464.52064 474.89637 479.0412 484.2245 489.40779 504.94859 515.3243 525.7 536.07577 541.25906 546.4423 551.6256 562.00137 568.214 573.3973 588.9381 599.31387">taking this class, I viewed writing as an art form that wasn&#x2019;t meant for me.</tspan></text>
<text fill="#eeeeee" xml:space="preserve" transform="matrix(.75 0 0 .75 72 361.7754)" font-size="18.666666" font-family="ArialMT"><tspan y="17.509116" x="0 13.472946 23.848664 36.291658 41.47496 46.658266 51.841569 57.02487 66.353 76.728717 87.10443 92.287738 96.432559 101.61586 106.799167 117.17488 126.503009 131.68631 142.06203 147.24533 156.57346 166.94918 177.32489 186.65302 197.02873 203.24141 212.56954 222.94525 228.12856 232.27338 242.6491 253.02481 258.20814 268.58387 278.9596 284.14289 297.61585 307.99159 318.3673 328.74305 333.92634 347.3993 353.61198 357.75679 362.94007 373.3158 379.52848 384.7118 395.08753 405.46327 415.839 421.02229 427.23497 437.61067 447.9864 458.36213 468.73786 474.95054 480.13386 485.31715 495.69288 506.0686 511.2519 516.4352 520.58 529.90817 535.09146 545.46719">Now, I see it as a conversation between writer and reader that is as</tspan></text>
<text fill="#eeeeee" xml:space="preserve" transform="matrix(.75 0 0 .75 72 393.97267)" font-size="18.666666" font-family="ArialMT"><tspan y="17.509116" x="0 10.375717 15.2217869 20.40509 30.780808 40.108934 45.292238 49.437059 58.765184 69.1409 74.3242 84.69992 94.028049 99.21135 109.58707 114.77037 120.98305 131.35877 141.73448 152.1102 162.48592 168.6986 173.8819 184.25762 194.63333 200.84601 210.17414 220.54985 224.69467 234.0228 244.39852 253.72664 258.90995 263.05476 268.23805 273.42134 278.6046 283.7879 288.9712 299.34693 309.72267 320.0984 330.47413 336.6868 346.01493 351.19825 361.57398 371.9497 382.32545 387.50874 392.69203 403.06776 413.44349 418.62678 423.81007 428.99336 439.36909 449.7448 454.9281 464.25624 474.63197 483.96009 493.2882 503.66395 512.99209 522.3202 527.5035 537.8792 543.0625 548.2458 563.7866">effective as a reader perceives it. I understand that the success of my</tspan></text>
<text fill="#eeeeee" xml:space="preserve" transform="matrix(.75 0 0 .75 72 426.16993)" font-size="18.666666" font-family="ArialMT"><tspan y="17.509116" x="0 13.472946 19.685624 23.830445 29.013749 33.15857 43.534288 53.910005 59.093309 69.469028 79.84474 90.22046 100.596179 110.97189 121.34761 130.67574 135.85904 146.23476 156.61048 161.79378 166.97708 177.3528 187.72852 192.91182 203.28754 213.66326 227.1362 232.3195 247.8603 258.23603 268.61177 277.93989 283.12318 293.4989 299.71159 310.08729 325.62809 341.16889 351.54463 357.7573 362.9406 369.1533 379.529 383.67384 394.04957 403.3777 408.56098 413.74427 418.92756 424.11085 434.48658 438.6314 442.77626 453.15199 465.59498 470.77827 475.96156 486.33729 496.713 501.8963 507.0796 513.29226 523.66799 528.85128 539.227 549.6027 555.8154 560.9987 571.37448 581.7502 586.9335 597.3092 607.68496">writing depends not on how many grammar rules I follow, but rather on how</tspan></text>
<text fill="#eeeeee" xml:space="preserve" transform="matrix(.75 0 0 .75 72 458.3672)" font-size="18.666666" font-family="ArialMT"><tspan y="17.509116" x="0 6.212677 16.588395 26.964112 37.33983 47.715547 53.928224 63.256349 68.43965 78.81537 89.191089 95.40376 104.73189 115.107608 119.252429 128.58055 138.95627 144.13957 159.68038 169.0085 174.1918 180.40448 190.7802 201.15592 206.33922 216.71494 222.92761 227.07244 236.40056 246.77628 250.9211 256.1044 266.4801 271.32618 276.50947 286.8852 296.21333 301.3966 306.5799 311.76319 316.94648 322.12977 326.2746 336.65034 347.02607 356.3542 366.72993 371.9132 377.0965 387.47224 391.61708 400.9452 406.12849 415.4566 419.60145 429.97718 439.3053 448.63343 453.8167 457.96156 468.33729 478.713 488.04115 492.18598 502.5617 512.93746 518.1207 523.304 533.67977 539.89248 553.3654 563.74118 569.95388 580.3296 585.5129 590.69619">readers perceive my rhetorical effect. I leave this class looking forward to</tspan></text>
<text fill="#eeeeee" xml:space="preserve" transform="matrix(.75 0 0 .75 72 490.56446)" font-size="18.666666" font-family="ArialMT"><tspan y="17.509116" x="0 5.183304 15.559021 20.742325 31.118042 37.33072 47.706438 52.88974 66.362689 72.57536 76.720188 81.90349 86.04831 96.42403 106.79974 111.98305 117.16635 127.54207 136.8702 146.19832 155.52645 160.70975 165.89305 176.26877 186.64449 197.0202 207.39592 213.6086 218.7919 229.16762 239.54334 243.68816 248.87146 253.01628 263.392 272.72013 277.90345 283.08674 293.46247 298.64576 307.97389 318.3496 328.72535 334.93803 345.31373 350.497 366.0378 375.36595 380.54927 385.73255 396.10829 406.484 416.85975 427.23548 437.6112 442.7945 452.12263 457.3059 470.77888 474.9237 480.107 490.48274 495.66603 506.04176 511.22505 521.60079 531.9765 538.1892 547.51736 552.7006 563.07638 573.4521">future writing tasks: opportunities to share my thoughts with others and</tspan></text>
<text fill="#eeeeee" xml:space="preserve" transform="matrix(.75 0 0 .75 72 522.7617)" font-size="18.666666" font-family="ArialMT"><tspan y="17.509116" x="0 6.212677 16.588395 25.91652 36.292238 40.437059 49.765184 60.1409 65.3242 75.69992 86.07564 96.451358 102.66403 107.847339 113.03064 123.40636 133.78208 144.15779 154.53351 164.90923 174.23735 183.56548 188.74878 199.1245 209.50022 214.68352 230.22432 239.55245 244.73575 248.88057 259.2563 269.63203 275.8447 286.2204 296.59614 305.92427 311.10755 316.29084 326.66658 331.84986 342.2256 352.60133 361.92945 372.30519 387.84599 398.22169 403.40498 413.7807 418.964 429.33973 439.71546 444.89875 450.08204 460.45777 466.67045 471.85377 485.32673 491.5394 495.6842 500.8675 511.24324 516.42599">receive peer feedback on my journey to become a better writer.</tspan></text>
<text fill="#eeeeee" xml:space="preserve" transform="matrix(.75 0 0 .75 72 587.15628)" font-size="18.666666" font-family="ArialMT"><tspan y="17.509116" x="0 9.326965 19.702683 24.885987 39.397417 49.773134 60.14885 70.52457 75.70787 88.15144 98.52716 103.710468 108.89377 122.366718 132.74243 142.07056 152.44628 158.65895 163.84226 176.28583 186.66155 192.87422 198.05753 208.43325 217.76137 222.94467 228.12798 245.3994 251.61208 255.7569 260.9402 265.08503 275.46076 285.8365">To Good But Never Perfect Writing,</tspan></text>
<text fill="#eeeeee" xml:space="preserve" transform="matrix(.75 0 0 .75 72 619.3535)" font-size="18.666666" font-family="ArialMT"><tspan y="17.509116" x="0 12.443573 21.771698 25.91652 36.292238 41.47554 53.919115 64.29483 79.83563 90.21135">Kyle Kumar</tspan></text>
</g>
</svg>
