<?xml version="1.0" encoding="UTF-8" standalone="no"?>
<!DOCTYPE svg PUBLIC "-//W3C//DTD SVG 1.1//EN" "http://www.w3.org/Graphics/SVG/1.1/DTD/svg11.dtd">
<svg xmlns="http://www.w3.org/2000/svg" xmlns:xlink="http://www.w3.org/1999/xlink" version="1.1" width="612pt" height="792pt" viewBox="0 0 612 792">
<g enable-background="new">
<path transform="matrix(.75,0,0,.75,0,0)" d="M 0 0 L 816 0 L 816 1056 L 0 1056 Z " fill="#0097a7"/>
<text fill="#eeeeee" xml:space="preserve" transform="matrix(.75 0 0 .75 72 72)" font-size="18.666666" font-family="ArialMT"><tspan y="17.509116" x="0 4.144821 14.520538 24.896256 29.041077 38.3692 42.514024 52.88974 63.265459 73.641178 77.785999 82.9693 93.34502 103.72073 109.93341 125.47421 135.84993 146.22565 151.40895 161.78467 171.1128 176.2961 186.67182 190.81664 200.14476 205.32807 211.54074 221.91646 231.24459 236.42789 246.8036 257.17933 262.3626 272.73835 276.88319 286.2113 290.35615 300.73188 311.1076 316.2909 321.47419 326.65748 331.84077 342.2165 346.36134 355.68946 366.0652 371.24848 381.6242 391.99995 398.21263 403.39595 413.77168 419.98435 435.52516 445.90089 456.2766 461.4599 471.83564 477.01893 487.39466 493.60734 503.98304 519.5238 529.89956 535.0828 539.22769 548.5558 553.7391 563.0672 567.21206 576.54019 586.9159 597.2916">individual harmed by distracted biking. I also performed a dramatic visual</tspan></text>
<text fill="#eeeeee" xml:space="preserve" transform="matrix(.75 0 0 .75 72 104.197269)" font-size="18.666666" font-family="ArialMT"><tspan y="17.509116" x="0 10.375717 19.703843 30.07956 36.292238 46.667955 57.04367 67.41939 71.56421 76.74751 87.12323 97.49895 102.68225 107.865558 118.24127 128.61699 133.8003 144.17601 154.55173 163.87985 169.06316 179.43888 185.65155 190.83486 201.21057 210.5387 215.722 220.9053 231.28102 241.65674 246.84004 256.16816 266.54389 270.68873 281.06446 287.27714 292.46046 301.78858 311.1167 321.49244 331.86817 347.40898 357.78468 362.96797 373.3437 378.52699 383.71028 388.89356 399.2693 409.64503 414.8283 424.15644 434.53218 443.8603 454.23603 464.61177 474.9875 480.17079 490.5465 496.7592 507.1349 512.3182 517.50149 522.68478 533.0605 537.2053 547.58108 552.76437 563.1401 573.5158">overhaul on the poster as the color scheme of the second draft did not</tspan></text>
<text fill="#eeeeee" xml:space="preserve" transform="matrix(.75 0 0 .75 72 136.39453)" font-size="18.666666" font-family="ArialMT"><tspan y="17.509116" x="0 9.328125 15.540802 25.91652 36.292238 41.47554 51.851259 57.03456 62.217866 72.59358 82.9693 88.1526 94.36528 104.741 115.116718 120.30002 130.67574 136.88842 141.03324 150.36136 160.73708 164.8819 170.0652 180.44092 185.28699 190.47029 200.84601 210.17414 215.35744 220.54074 225.72405 236.09976 246.47548 251.65879 256.8421 262.0254 267.20869 277.5844 287.96015 298.33589 303.51918 313.8949 320.10758 324.25239 334.6281 338.77296 349.14869 359.5244 363.66926 367.8141 377.1422 382.3255 392.70124 396.84608 412.38688 422.76258 433.1383 438.3216 443.50489 453.8806 459.06336 464.24665 469.42994 479.80567 489.1338 494.31709 498.4619 503.6452 508.8285 524.36929 534.745 545.1207 555.49649 560.67977 565.86306 576.2388">create the rhetorical effect that I had originally aimed for, as it made the</tspan></text>
<text fill="#eeeeee" xml:space="preserve" transform="matrix(.75 0 0 .75 72 168.5918)" font-size="18.666666" font-family="ArialMT"><tspan y="17.509116" x="0 10.375717 20.751435 30.07956 35.262865 45.63858 51.851259 57.03456 66.362689 76.7384 87.11412 102.65492 107.83823 118.21394 128.58966 137.91779 148.2935 154.50618 158.651 169.02672 179.40244 188.73056 193.91387 198.06722 210.51079 219.83892 225.02222 235.39794 245.77365 256.14936 262.36204 272.73774 277.92103 290.3646 300.7403 304.88514 309.02998 319.4057 324.589 338.06196 348.43769 354.65037 360.86305 371.23878 375.3836 379.52845 384.71174 395.08747 404.4156 414.79133 418.93617 429.3119 433.45674 443.83247 453.16059 458.34388 462.4887 472.86445 478.04774 484.2604 496.70399 507.0797 516.40786 525.73599 536.1117 546.4874 555.81558 565.1437 574.4718 579.6551 588.9832 598.31137">poster seem unserious. As Laura Bolin Carroll explains in &#x201c;Backpacks vs.</tspan></text>
<text fill="#eeeeee" xml:space="preserve" transform="matrix(.75 0 0 .75 72 200.78907)" font-size="18.666666" font-family="ArialMT"><tspan y="17.509116" x="0 12.443573 18.65625 22.801072 33.17679 38.360094 47.688219 58.063936 67.39206 77.76778 87.0959 92.279209 98.49188 103.675189 114.0509 124.42662 137.89957 143.08287 153.45859 158.64189 169.01761 173.16243 183.53815 192.86627 203.24199 208.4253 218.80101 223.98432 229.16762 242.64057 248.85324 252.99806 258.18138 262.32618 272.7019 283.07765 288.26094 292.40577 302.7815 313.15724 322.48536 331.81349 336.99678 347.3725 353.58518 363.96089 374.3366 379.5199 383.66474 392.99287 398.17616 408.55189 413.39796 418.58125 428.95698 438.2851 443.46839 452.7965 457.9798 468.35554 478.73127 492.20423 497.3875 501.53236 506.71565 516.04379 521.22708 531.6028 541.9785 552.35427 556.4991 566.8748 577.25057 586.5787">Briefcases,&#x201d; how a piece of writing looks greatly affects how its audience</tspan></text>
<text fill="#eeeeee" xml:space="preserve" transform="matrix(.75 0 0 .75 72 232.98633)" font-size="18.666666" font-family="ArialMT"><tspan y="17.509116" x="0 10.375717 20.751435 26.964112 36.292238 46.667955 50.812776 60.1409 70.51662 79.84474 85.028049 89.17287 94.35617 103.684299 108.8676 124.4084 134.78412 144.11225 153.44037 163.81609 174.1918 184.56752 189.75083 194.93413 207.3777 217.75342 222.93672 228.12003 232.26485 242.64057 247.82387 258.1996 268.57533 277.90345 288.27919 292.424 302.79975 313.17549 317.3203 327.69606 338.07179 343.25508 353.6308 358.8141 374.3549 384.7306 390.94328 401.31898 406.50227 422.04307 432.41877 442.7945 453.17024 459.3829 469.7586 474.9419 485.31764 490.50093 500.87666 511.25239 521.6281 526.8114 530.95626 541.332 546.51528 556.891 561.0358 566.2191 570.36398 579.6921">perceives its message. So, in developing a more moderate and intuitive</tspan></text>
<text fill="#eeeeee" xml:space="preserve" transform="matrix(.75 0 0 .75 72 265.1836)" font-size="18.666666" font-family="ArialMT"><tspan y="17.509116" x="0 10.375717 20.751435 30.07956 34.22438 44.600099 54.975816 60.15912 65.34242 75.71814 81.93082 87.11412 92.297428 102.67314 113.04886 118.23216 123.41547 127.56029 137.936 148.31172 152.45655 157.63985 168.01557 174.22824 184.60396 189.78726 194.97057 200.15387 210.52959 215.71289 220.8962 236.437 245.76512 250.94843 261.32417 271.6999 281.028 286.2113 296.58705 301.76979 306.95307 312.13636 317.31965 322.50294 332.87867 337.0235 352.5643 362.94 373.31575 378.49903 383.6823 394.05805 399.24134 414.78215 425.15785 434.48597 444.8617 450.04499 455.22828 465.604 475.97975 481.16304 491.53877 501.9145 511.2426 516.4259 526.80166 533.0143 538.1976 548.5733 558.94906 564.1323">design for the final draft of my poster, I aimed to make the poster both</tspan></text>
<text fill="#eeeeee" xml:space="preserve" transform="matrix(.75 0 0 .75 72 297.38087)" font-size="18.666666" font-family="ArialMT"><tspan y="17.509116" x="0 10.375717 20.751435 30.07956 34.22438 44.600099 50.812776 55.99608 61.179384 71.5551 76.7384 87.11412 97.48984 107.865558 118.24127 124.45395 133.78208 138.96538 149.3411 159.71681 170.09253 175.27584 188.74878 199.1245 203.26932 207.41414 217.78986 222.97316 227.11798 242.65879 253.0345 259.2472 269.62294 278.95106 283.0959 293.47163 303.84736 309.03065 319.40638 329.7821 335.99479 345.3229 355.6986 366.07435 371.25764 375.40248 385.7782 396.15394 405.48207 410.66535 421.04109 426.22438 431.40766 435.5525 440.73579">easier to understand while improving perceptions of it.</tspan></text>
<text fill="#eeeeee" xml:space="preserve" transform="matrix(.75 0 0 .75 72 329.57814)" font-size="18.666666" font-family="ArialMT"><tspan y="17.509116" x="48 53.183305 63.55902 68.742328 73.92563 84.301349 94.67706 99.86037 109.18849 119.56421 128.89234 139.26805 149.64377 160.01949 165.20279 175.5785 181.79119 192.1669 197.3502 202.53351 207.71681 218.09253 223.27584 228.45914 245.73056 251.94324 256.08808 261.27137 265.4162 275.79194 286.16767 291.35096 303.79454 310.0072 320.3829 324.52775 334.90348 344.2316 349.4149 354.26097 364.62699 378.09996 388.47569 393.65898 398.84226 414.38307 423.71119 428.8945 439.27024 443.41508 453.7908 464.16654 469.34983 479.72557 490.1013 499.4294 504.6127 513.9408 519.1241 532.59707 542.9728 549.1854 559.56118 564.74447 575.1202 585.4959 590.6792 595.8625 606.2382">In the second draft of Writing Project Two, my blog posts were not as</tspan></text>
<text fill="#eeeeee" xml:space="preserve" transform="matrix(.75 0 0 .75 72 361.7754)" font-size="18.666666" font-family="ArialMT"><tspan y="17.509116" x="0 9.328125 19.703843 30.07956 39.407686 49.7834 55.99608 65.3242 75.69992 80.883228 85.028049 95.40376 105.77948 116.1552 120.30002 125.48332 135.85904 145.18717 150.37047 155.55377 160.73708 171.1128 181.48851 191.86423 197.04753 201.19235 211.56807 216.75138 227.12709 237.5028 247.87853 258.25425 268.62995 273.81324 278.99653 289.37226 295.58494 300.76826 305.95155 316.32728 326.703 342.2438 347.42713 352.6104 362.98616 368.16944 378.54518 388.9209 394.1042 399.28749 416.89613 421.04096 426.22425 436.59999 441.78327 452.159 462.53474 467.71803 477.04615 481.19099 491.5667 501.94245 508.15513 513.33847 522.66659 527.84988 538.2256 544.43826 549.6215 553.76638 564.1421">conversational as I had intended for them to be. With no clear starting</tspan></text>
<text fill="#eeeeee" xml:space="preserve" transform="matrix(.75 0 0 .75 72 393.97267)" font-size="18.666666" font-family="ArialMT"><tspan y="17.509116" x="0 10.375717 20.751435 24.896256 35.271974 40.455278 45.63858 50.821886 66.362689 75.69081 80.874118 90.20224 100.57796 110.953678 120.2818 130.65752 136.8702 146.19832 156.57404 161.75734 165.90216 176.27788 186.6536 191.8369 198.04958 208.4253 217.75342 228.12914 238.50485 248.88057 254.06388 258.20869 268.5844 273.7677 284.14344 289.32673 299.70246 310.0782 315.26148 325.6372 336.01295 346.38868 350.5335 359.86164 369.18977 373.3346 382.66273 387.846 398.22175 403.40504 408.58833 413.7716 424.14735 434.52308 439.70637 444.88966 455.26539 465.6411 469.78596 479.11408 484.29737 494.6731 499.85639 505.03968 515.4154 525.79116 536.1669 546.5426 551.7259 555.8793 568.3229 578.6986 589.07437">point, my conversation rushed into an analysis of the topic at hand. And,</tspan></text>
<text fill="#eeeeee" xml:space="preserve" transform="matrix(.75 0 0 .75 72 426.16993)" font-size="18.666666" font-family="ArialMT"><tspan y="17.509116" x="0 13.472946 23.848664 27.993485 32.138307 42.514024 47.697328 52.88063 63.256349 73.632068 78.81537 85.028049 95.40376 104.73189 115.107608 125.48332 135.85904 145.18717 155.56288 164.891 170.07431 180.45003 184.59485 188.73967 193.92298 203.2511 213.62682 224.00254 234.37825 244.75397 254.08209 259.26539 269.6411 280.01686 285.20014 290.38343 300.75917 305.94245 311.12574 321.50148 331.8772 337.0605 347.43623 353.6489 364.0246 374.40034 379.58363 389.95936 396.17204 401.35536 410.68348 421.0592 431.43495 440.76307 451.1388 457.35148 466.6796 477.0553 482.2386 486.38343 496.75917 507.1349 512.3182 517.50149 522.68478 533.0605 543.4362 552.76437 557.94766 568.32339 572.4682 582.84396 588.0272 598.40298 608.7787">while the responses all connected to the greater conversation, they did not</tspan></text>
<text fill="#eeeeee" xml:space="preserve" transform="matrix(.75 0 0 .75 72 458.3672)" font-size="18.666666" font-family="ArialMT"><tspan y="17.509116" x="0 9.328125 19.703843 30.07956 40.455278 50.830995 60.15912 65.34242 70.52573 83.99867 88.14349 93.3268 103.702518 108.88582 119.261539 129.63726 138.96538 149.3411 154.5244 164.90012 170.08342 180.45914 190.83486 196.01758 201.20088 206.04695 215.37392 225.74964 230.93294 236.11624 240.26107 249.58919 254.77249 259.9558 270.33155 280.70729 285.89057 296.2663 306.64204 312.8547 323.2304 333.60615 338.78944 343.97273 353.30085 358.48414 368.85987 375.07255 380.25587 385.43916 395.81489 400.99818 406.18147 411.36476 421.74049 432.1162 437.2995 446.62763 457.00337 467.3791 476.7072 487.08296 493.29563 502.62376 512.99948 518.18276 522.3276 532.7033 543.07907 548.2623 553.4456">connect with each other. To fix the abrupt start of the conversation, I</tspan></text>
<text fill="#eeeeee" xml:space="preserve" transform="matrix(.75 0 0 .75 72 490.56446)" font-size="18.666666" font-family="ArialMT"><tspan y="17.509116" x="0 4.144821 14.520538 23.848664 34.22438 40.437059 45.62036 55.99608 66.371799 71.5551 81.93082 92.30653 97.48984 101.63466 112.010379 116.1552 121.3385 125.48332 135.85904 140.00386 145.18717 155.56288 165.9386 175.26673 180.45003 185.63333 196.00905 201.19235 206.37566 216.75138 221.93468 235.40763 241.6203 245.76512 250.94843 261.32417 267.53684 272.72016 283.0959 292.424 301.75215 305.89698 316.2727 326.64845 331.83174 337.015 347.39076 353.60343 358.78675 369.16249 379.5382 383.68305 394.05879 399.24208 409.6178 419.99354 425.17683 435.55256 440.73585 451.11158 461.4873 471.86305 482.23878 487.4215 492.6048 497.45088 508.84687 519.2226 529.5983 539.97409 545.15737 550.34066">inserted an initial post of a writer asking for help on a paper. Then, I</tspan></text>
<text fill="#eeeeee" xml:space="preserve" transform="matrix(.75 0 0 .75 72 522.7617)" font-size="18.666666" font-family="ArialMT"><tspan y="17.509116" x="0 15.540802 25.91652 36.292238 40.437059 45.62036 49.765184 60.1409 70.51662 75.69992 80.883228 91.25894 101.63466 106.81796 112.00127 116.14609 126.521808 139.99475 145.17806 155.55377 160.73708 165.92038 171.10369 181.4794 191.85512 197.03842 206.36655 216.74227 227.11798 236.4461 246.82183 253.0345 262.3626 272.73835 277.92164 282.06648 292.4422 302.81794 308.00123 313.1845 323.56025 328.74354 344.28434 354.66004 363.98817 374.3639 379.54719 383.69203 388.8753 394.0586 403.38673 407.53157 417.9073 428.28303 434.4957 444.8714 451.08409 456.2674 469.74037 480.1161 484.26094 493.58906 503.96479 509.14808 518.4762 528.8519 539.22769 549.6034 558.9315 569.30728 575.5199">modified the flow of the conversation to make it clearer which speakers</tspan></text>
<text fill="#eeeeee" xml:space="preserve" transform="matrix(.75 0 0 .75 72 554.959)" font-size="18.666666" font-family="ArialMT"><tspan y="17.509116" x="0 13.472946 23.848664 30.06134 40.437059 45.62036 49.765184 60.1409 65.3242 75.69992 86.07564 92.288318 102.66403 113.03975 128.58055 138.95627 149.33199 154.51529 159.6986 170.07431 180.45003 190.82575 196.00905 206.38477 210.52959 219.85771 230.23343 240.60915 246.82183 257.19755 267.57325 283.11405 293.48976 303.86549 309.04878 314.23207 327.70503 331.84986 337.03315 347.40888 352.59217 362.9679 373.34364 382.67176 393.0475 398.23078 408.6065 413.7898 424.16554 434.54127 439.724 444.9073 450.09059 455.27388 460.45716 470.8329 474.97773 484.30586 494.68159 499.86488 509.193 519.5687 529.94448 540.3202 550.6959 561.07168 571.4474 576.6307 581.81399 592.1897">were in agreement and disagreement with each other. I also changed the</tspan></text>
<text fill="#eeeeee" xml:space="preserve" transform="matrix(.75 0 0 .75 72 587.15628)" font-size="18.666666" font-family="ArialMT"><tspan y="17.509116" x="0 10.375717 19.703843 30.07956 36.292238 46.667955 50.812776 54.957597 60.1409 65.3242 69.469028 79.84474 93.31769 98.50099 108.87671 114.06001 119.24332 124.42662 134.80234 145.17806 150.36136 159.68949 170.0652 180.44092 189.76905 200.14476 206.35744 215.68556 226.06128 231.24459 235.3894 245.76512 256.14085 261.32417 266.50746 276.88319 282.06648 292.4422 302.81794 308.00123 313.1845 323.56025 329.77293 334.95625 341.1689 351.54463 356.7279 360.87275 371.24848 380.5766 385.7599 390.94319 396.12648 406.5022 416.87794 422.06123 426.20606 436.5818 445.9099 452.1226 462.4983 472.87403 482.20216 486.347 496.72273 507.09846 511.2433 520.5714 525.7547 536.13046 546.50619 555.8343 559.9791 565.1624 569.30728 578.6354">overall flow of the conversation to better reflect the increasingly positive</tspan></text>
<text fill="#eeeeee" xml:space="preserve" transform="matrix(.75 0 0 .75 72 619.3535)" font-size="18.666666" font-family="ArialMT"><tspan y="17.509116" x="0 9.328125 19.703843 30.07956 35.262865 39.407686 54.948488 65.3242 75.69992 80.883228 86.06653 91.24983 101.62555 115.098499 125.47421 131.68689 142.0626 151.39073 156.57404 166.94976 177.32547 187.70119 197.02931 207.40503 217.78075 222.96405 233.33977 242.6679 247.8512 258.22694 263.41023 268.5935 273.7768 284.15254 294.52827 299.71156 313.1845 319.3972 323.542 328.72529 332.87013 343.24586 353.62159 358.80488 368.133 373.31629 383.69203 394.06776 398.2126 408.58833 417.91645 423.09974 432.42787 442.8036 458.3444 473.8852 484.26094 494.63667 498.7815 503.96479 513.2929 518.4762 528.8519 539.22769 549.6034 554.7867 559.97 570.3457 575.529 585.9047 596.28048 601.46377 606.64706 617.02279">sentiment towards anecdotes of the writing studies community and to better</tspan></text>
<text fill="#eeeeee" xml:space="preserve" transform="matrix(.75 0 0 .75 72 651.5508)" font-size="18.666666" font-family="ArialMT"><tspan y="17.509116" x="0 9.328125 19.703843 30.07956 40.455278 50.830995 60.15912 65.34242 70.52573 75.70903 86.08475 96.460468 101.64377 107.856449 118.23216 128.60788 132.7527 136.89752 147.27324 156.60137 161.78467 175.25762 179.40244 184.58574 194.96146 200.14476 210.52048 220.8962 230.22432 240.60004 245.78334 256.15907 261.34236 271.71809 282.0938 287.27656">connect the replies with each other.</tspan></text>
</g>
</svg>
