<?xml version="1.0" encoding="UTF-8" standalone="no"?>
<!DOCTYPE svg PUBLIC "-//W3C//DTD SVG 1.1//EN" "http://www.w3.org/Graphics/SVG/1.1/DTD/svg11.dtd">
<svg xmlns="http://www.w3.org/2000/svg" xmlns:xlink="http://www.w3.org/1999/xlink" version="1.1" width="612pt" height="792pt" viewBox="0 0 612 792">
<g enable-background="new">
<path transform="matrix(.75,0,0,.75,0,0)" d="M 0 0 L 816 0 L 816 1056 L 0 1056 Z " fill="#0097a7"/>
<text fill="#eeeeee" xml:space="preserve" transform="matrix(.75 0 0 .75 72 72)" font-size="18.666666" font-family="ArialMT"><tspan y="17.509116" x="261.37406 278.64549 289.02119 295.23387 304.56199 313.8901 319.07344 332.5464 336.69123 341.8745 352.25025">Works Cited</tspan></text>
<text fill="#eeeeee" xml:space="preserve" transform="matrix(.75 0 0 .75 72 104.197269)" font-size="18.666666" font-family="ArialMT"><tspan y="33.509115" x="0 13.472946 23.848664 30.06134 36.274019 46.649736 50.794557 54.939378 60.12268 65.305988 75.6817 86.05742 96.433139 102.64581 113.02153 118.204837 130.6484 141.02413 145.16895 149.31377 159.68949 164.87279 170.05609 176.26877 188.71234 199.08806 208.41619 217.74431 228.12003 238.49575 247.82387 257.15199 266.4801 271.6634 280.99153 290.31965 295.50294 300.68623 313.1298 319.34248 323.4873 333.86305 339.04634 348.37446 358.75019 368.0783 378.45405 387.78218 392.96546 398.14875 410.59233 415.77565 426.15138 436.5271 445.85523 451.0385 456.2218 466.59754 480.0705 490.44624 496.6589 507.0346 512.2179 525.69088 536.0666 546.4423 551.6256 562.00137 568.214 572.3588 581.68698 592.0627">Carroll, Laura Bolin. &#x201c;Backpacks vs. Briefcases: Steps toward Rhetorical</tspan></text>
<text fill="#eeeeee" xml:space="preserve" transform="matrix(.75 0 0 .75 72 160.39453)" font-size="18.666666" font-family="ArialMT"><tspan y="17.509116" x="48 60.443574 70.81929 81.19501 85.33983 94.66795 103.99608 108.1409 117.469028 122.65233">Analysis.&#x201d;</tspan></text>
<text fill="#eeeeee" xml:space="preserve" transform="matrix(.75 0 0 .75 72 160.39453)" font-size="18.666666" font-family="Arial" font-style="italic"><tspan y="17.509116" x="134.04831 151.65697 157.86965 162.01447 167.19777 171.34259 181.7183 192.09403 197.27733 209.7209 220.09662 230.47234 239.80046 250.17618 259.5043 264.68763 269.8709 283.34388 293.7196 304.09535 314.47108 318.6159 328.99165 339.36738 348.6955 353.87879 364.25453 374.63026 379.81355 397.42219 403.63487 407.77967 412.96296 417.1078 427.48353">Writing Spaces: Readings on Writing</tspan></text>
<text fill="#eeeeee" xml:space="preserve" transform="matrix(.75 0 0 .75 72 160.39453)" font-size="18.666666" font-family="ArialMT"><tspan y="17.509116" x="437.85914 443.04243 448.2257 457.55384 467.92958 472.0744">, vol.</tspan></text>
<text fill="#eeeeee" xml:space="preserve" transform="matrix(.75 0 0 .75 72 160.39453)" font-size="18.666666" font-family="ArialMT"><tspan y="17.509116" x="482.44105 492.81678 498.00007 503.18336 515.62698 526.0027 532.21536 536.36019 546.7359 552.9486 558.1319 570.57546 576.7881 587.1638 596.49197 605.82009">1, Parlor Press,</tspan></text>
<text fill="#eeeeee" xml:space="preserve" transform="matrix(.75 0 0 .75 72 192.5918)" font-size="18.666666" font-family="ArialMT"><tspan y="17.509116" x="48 60.443574 70.81929 81.19501 91.570728 97.7834 107.11153 117.48724 127.86296 133.04627 138.22957 150.67314 164.14609 169.32939 174.5127 184.88842 195.26413 205.63985 216.01557 221.19887 226.38217 236.75789 247.1336 252.31691 257.5002 267.87593 278.25166 288.62739 299.0031 309.3788">Anderson, SC, 2010, pp. 45&#x2013;58.</tspan></text>
<text fill="#eeeeee" xml:space="preserve" transform="matrix(.75 0 0 .75 72 236.78907)" font-size="18.666666" font-family="ArialMT"><tspan y="17.509116" x="0 13.472946 23.848664 33.17679 42.504915 52.88063 57.02545 61.170274 66.35358 71.53688 83.98045 94.35617 103.684299 107.82912 118.204837 123.38814 128.57144 134.78412 147.22769 157.60341 167.97913 177.30725 182.49056 192.86627 203.24199 208.4253 212.57012 222.94583 233.32155 237.12914 246.45726 251.64057 265.11354 275.48927 285.865 291.04829 301.424 307.6367 311.7815 321.10963 331.48536 335.6302 340.81349 353.25706 358.10313 363.28645 373.66218 382.9903 388.17359 397.5017">Cassell, Kevin. &#x201c;Punctuation&#x2019;s Rhetorical Effects&#x201d;</tspan></text>
<text fill="#eeeeee" xml:space="preserve" transform="matrix(.75 0 0 .75 72 236.78907)" font-size="18.666666" font-family="Arial" font-style="italic"><tspan y="17.509116" x="408.89765 426.5063 432.71897 436.86378 442.04707 446.1919 456.56764 466.94337 472.12666 484.57023 494.94593 505.32167 514.6498 525.0255 534.35366">Writing Spaces:</tspan></text>
<text fill="#eeeeee" xml:space="preserve" transform="matrix(.75 0 0 .75 72 280.98634)" font-size="18.666666" font-family="Arial" font-style="italic"><tspan y="17.509116" x="48 61.472948 71.84866 82.22438 92.6001 96.74492 107.120639 117.49635 126.82448 132.00778 142.3835 152.75922 157.94252 175.55118 181.76386 185.90868 191.09198 195.2368 205.61252">Readings on Writing</tspan></text>
<text fill="#eeeeee" xml:space="preserve" transform="matrix(.75 0 0 .75 72 280.98634)" font-size="18.666666" font-family="ArialMT"><tspan y="17.509116" x="215.98824 221.17154 226.35485 235.68297 246.05869 250.2035 255.38681 260.57014 270.94587 276.12916 281.31245 293.756 304.1317 310.3444 314.4892 324.86494 331.0776 336.26094 348.7045 354.91719 365.2929 374.62104 383.94917 389.13246 393.2858 405.72938 416.1051 426.48085 436.85658 443.06925 452.39738 462.77308 473.1488">, vol. 3, Parlor Press, Anderson,</tspan></text>
<text fill="#eeeeee" xml:space="preserve" transform="matrix(.75 0 0 .75 72 280.98634)" font-size="18.666666" font-family="ArialMT"><tspan y="17.509116" x="484.54533 496.9889 510.46186 515.64517 520.8284 531.20419 541.5799 551.9556 562.33139 567.51467 572.69796 583.07369 593.4494">SC, 2010, pp.</tspan></text>
<text fill="#eeeeee" xml:space="preserve" transform="matrix(.75 0 0 .75 72 313.1836)" font-size="18.666666" font-family="ArialMT"><tspan y="17.509116" x="48 58.375719 68.751438 79.12715 89.50287">3&#x2013;13.</tspan></text>
<text fill="#eeeeee" xml:space="preserve" transform="matrix(.75 0 0 .75 72 357.38087)" font-size="18.666666" font-family="ArialMT"><tspan y="17.509116" x="0 12.443573 16.588395 26.964112 37.33983 49.78282 54.966127 60.14943 72.593 82.96872 88.15202 98.52774 103.710468 108.89377 114.07707 120.28975 129.61672 139.99243 150.36815 159.69628 170.07199 174.21681 184.59253 194.96825 199.81432 210.18035 223.65329 234.029 239.21231 251.65589 255.8007 266.17643 276.55213 285.88026 291.06355 301.43928 306.62257 311.46864 322.86463 333.24037 337.3852 347.76094 357.08906 361.2339 371.60963 381.98536 387.16865 397.54438 406.8725 411.71858 421.04554 431.42127 441.797 451.12513 461.50086 465.6457 476.02143 486.39717 491.58045 508.85188 515.0646 519.2094 524.3927 528.53756 538.91329 549.289 554.4723">Elbow, Peter. &#x201c;Teaching Two Kinds of Thinking by Teaching Writing.&#x201d;</tspan></text>
<text fill="#eeeeee" xml:space="preserve" transform="matrix(.75 0 0 .75 72 401.57814)" font-size="18.666666" font-family="Arial" font-style="italic"><tspan y="17.509116" x="48 60.443574 75.984378 86.36009 92.57277 102.94849 112.27661 116.42143 126.79715 137.17287 142.35617 155.82912 166.20484 176.58055 181.76386 187.97653 198.35225 204.56493 208.70975 219.08547 228.41359 233.5969 238.7802 251.22377 260.55189 270.9276 275.07246 285.44819 291.66087 302.03657 307.21986 311.3647 321.74043 332.11616 341.44429 346.62757 350.7724 361.14814 366.33143 376.70716 387.0829 397.45863 403.6713 414.047 418.19184 428.56758 438.9433 444.1266 454.50233 464.87806 475.25379 480.43708 490.1195 500.49525 510.87098 520.1991 530.5748 534.71969 545.0954">Embracing Contraries: Explorations in Learning and Teaching</tspan></text>
<text fill="#eeeeee" xml:space="preserve" transform="matrix(.75 0 0 .75 72 401.57814)" font-size="18.666666" font-family="ArialMT"><tspan y="17.509116" x="555.4709 560.6542 565.83749 580.3489 589.677 594.8603 605.236 611.4487">, Oxford</tspan></text>
<text fill="#eeeeee" xml:space="preserve" transform="matrix(.75 0 0 .75 72 433.7754)" font-size="18.666666" font-family="ArialMT"><tspan y="17.509116" x="48 61.472948 71.84866 75.993488 85.32161 95.69733 101.91 111.23813 115.38295 120.56625 129.89438 135.07769 147.52126 153.73394 164.10965 173.43778 182.7659 187.9492 193.1325 206.60546 216.98117 230.45412 235.30019 246.03022 256.40596 262.61863 271.94676 277.13008 282.31336 292.6891 303.06483 313.44056 323.81629 328.99958 334.18287 344.5586 354.93434 360.1176 365.3009 375.67665 386.05238 396.4281 406.80384 417.17958">University Press, New York, 1986, pp. 55&#x2013;63.</tspan></text>
<text fill="#eeeeee" xml:space="preserve" transform="matrix(.75 0 0 .75 72 477.97267)" font-size="18.666666" font-family="ArialMT"><tspan y="17.509116" x="0 10.375717 20.751435 36.292238 46.667955 51.851259 57.03456 62.217866 66.371219 78.81479 89.190509 99.56622 109.94194 115.125247 120.30855 126.521228 138.9648 149.34052 153.48534 158.66864 163.85195 173.18007 178.36338 189.75936 193.90418 200.11685 209.44498 214.62828 219.81159 233.28453 239.49721 249.87293 255.05623 260.23954 269.56767 274.75099">Lamott, Anne. &#x201c;Shitty First Drafts.&#x201d;</tspan></text>
<text fill="#eeeeee" xml:space="preserve" transform="matrix(.75 0 0 .75 72 477.97267)" font-size="18.666666" font-family="Arial" font-style="italic"><tspan y="17.509116" x="287.17689 299.62046 303.76527 309.97795 320.35365 325.53694 335.91267 345.24079 350.42408 362.86766 367.01246 373.22514">Bird by Bird</tspan></text>
<text fill="#eeeeee" xml:space="preserve" transform="matrix(.75 0 0 .75 72 477.97267)" font-size="18.666666" font-family="ArialMT"><tspan y="17.509116" x="383.60093">,</tspan></text>
<text fill="#eeeeee" xml:space="preserve" transform="matrix(.75 0 0 .75 72 477.97267)" font-size="18.666666" font-family="ArialMT"><tspan y="17.509116" x="393.96754 406.4111 416.7868 426.11494 436.49067 446.8664 453.07908 458.2624 470.70597 481.08168 491.4574 500.78553 510.11366 515.29696 520.4802 533.9532 544.3289 557.8019 562.64797 573.378 583.7537 589.96646 599.29458">Anchor Books, New York,</tspan></text>
<text fill="#eeeeee" xml:space="preserve" transform="matrix(.75 0 0 .75 72 522.1699)" font-size="18.666666" font-family="ArialMT"><tspan y="17.509116" x="48 58.375719 68.751438 79.12715 89.50287 94.68617 99.86948 110.24519 120.62091 125.804218 130.98752 141.36324 151.73896 162.11467 172.49039 182.8661">1997, pp. 21&#x2013;27.</tspan></text>
<text fill="#eeeeee" xml:space="preserve" transform="matrix(.75 0 0 .75 72 566.3672)" font-size="18.666666" font-family="ArialMT"><tspan y="17.509116" x="0 10.730026 21.105744 31.48146 41.857179 52.232896 57.4162 62.599504 74.01312 84.38884 90.60152 99.92964 110.30536 120.681079 134.15402 144.52974 148.68309 161.12667 170.45479 180.8305 191.20623 201.58194 206.76525 210.91007 216.09337 221.27667 227.48935 239.93292 250.30864 260.68437 271.06007 275.2049 285.58064 290.76393 308.03535 314.24803 318.39283 323.5761 333.95185 340.16453 349.49266 354.67597 368.14894 377.47706 387.85279 392.69886 404.09486 414.47059 424.8463 434.17445 439.35774 453.86915 467.3421 477.71784 482.90113 495.3447 505.7204 516.0961 520.24099 524.3858 533.7139 544.08969 554.4654">Young, Vershawn Ashanti. &#x201c;Should Writers Use They Own English?&#x201d;</tspan></text>
<text fill="#eeeeee" xml:space="preserve" transform="matrix(.75 0 0 .75 72 566.3672)" font-size="18.666666" font-family="Arial" font-style="italic"><tspan y="17.509116" x="567.22848 572.41177 582.7875 596.26046">Iowa</tspan></text>
<text fill="#eeeeee" xml:space="preserve" transform="matrix(.75 0 0 .75 72 610.56448)" font-size="18.666666" font-family="Arial" font-style="italic"><tspan y="17.509116" x="48 57.328126 67.70384 78.07956 84.29224 94.66795 105.04367 109.18849 114.371799 124.74751 129.93082 135.11412 148.58707 158.96279 163.1076 168.29091 178.66663 184.8793 195.25502 199.39984 204.58315 217.02672 222.21002 232.58574 242.96146 247.10628 257.482">Journal of Cultural Studies</tspan></text>
<text fill="#eeeeee" xml:space="preserve" transform="matrix(.75 0 0 .75 72 610.56448)" font-size="18.666666" font-family="ArialMT"><tspan y="17.509116" x="266.81013 271.9934 277.1767 286.50483 296.88056 301.0254 306.20869 311.39198 321.7677 332.14344 337.32673 342.51 352.88575 363.26148 368.44477 373.62806 384.00379 389.18708 394.37037 404.7461 415.12184 425.49757 435.8733">, vol. 12, no. 1, 2010,</tspan></text>
<text fill="#eeeeee" xml:space="preserve" transform="matrix(.75 0 0 .75 72 610.56448)" font-size="18.666666" font-family="ArialMT"><tspan y="17.509116" x="446.23988 456.6156 466.99134 472.17463 477.3579 486.3482 496.72395 507.09968 517.4754 526.4657 536.84146 547.21719 552.40048">pp. 110&#x2013;117.,</tspan></text>
<text fill="#eeeeee" xml:space="preserve" transform="matrix(.75 0 0 .75 72 642.7617)" font-size="18.666666" font-family="ArialMT"><tspan y="17.509116" x="48 58.375719 63.55902 68.742328 79.11804 88.44617 93.62947 98.812778 103.99608 114.371799 124.74751 128.89234 134.07564 144.45136 150.66403 161.03975 166.22306 176.59877 186.97449 192.15779 202.53351 212.90923 223.28495 233.66066 244.03638 249.21968 259.5954 269.97114 280.34687 290.7226 296.93528 307.31098 317.68669 328.0624 337.39054 342.57383 352.94956 363.3253 373.70103 384.07676">https://doi.org/10.17077/2168-569x.1095.</tspan></text>
</g>
</svg>
