<?xml version="1.0" encoding="UTF-8" standalone="no"?>
<!DOCTYPE svg PUBLIC "-//W3C//DTD SVG 1.1//EN" "http://www.w3.org/Graphics/SVG/1.1/DTD/svg11.dtd">
<svg xmlns="http://www.w3.org/2000/svg" xmlns:xlink="http://www.w3.org/1999/xlink" version="1.1" width="612pt" height="792pt" viewBox="0 0 612 792">
<g enable-background="new">
<path transform="matrix(.75,0,0,.75,0,0)" d="M 0 0 L 816 0 L 816 1056 L 0 1056 Z " fill="#0097a7"/>
<text fill="#eeeeee" xml:space="preserve" transform="matrix(.75 0 0 .75 72 72)" font-size="18.666666" font-family="Arial" font-style="italic"><tspan y="17.509116" x="48 60.443574 65.62688 76.002597 86.37831 90.52313 100.89885">Studies</tspan></text>
<text fill="#eeeeee" xml:space="preserve" transform="matrix(.75 0 0 .75 72 72)" font-size="18.666666" font-family="ArialMT"><tspan y="17.509116" x="110.226978 115.41028 120.59358 129.9217 140.29743 144.44225 149.62555 154.80886 165.18457 175.56029 180.74359 185.9269 196.30261 206.67833 211.86164 217.04494 227.42066 232.60396 237.78726 248.16298 258.5387 268.91444 279.29017 284.47346 289.65675 300.03248 310.4082 315.5915 320.77479 329.76509 340.1408 350.51655 360.89228 369.88258 380.25828 390.634 395.8173">, vol. 12, no. 1, 2010, pp. 110&#x2013;117.,</tspan></text>
<text fill="#eeeeee" xml:space="preserve" transform="matrix(.75 0 0 .75 72 104.197269)" font-size="18.666666" font-family="ArialMT"><tspan y="17.509116" x="0 10.375717 15.559021 20.742325 31.118042 40.446168 45.62947 50.812776 55.99608 66.371799 76.74751 80.892337 86.07564 96.451358 102.66403 113.03975 118.22305 128.59877 138.97449 144.15779 154.53351 164.90923 175.28495 185.66066 196.03638 201.21968 211.5954 221.97112 232.34683 242.72255 248.93523 259.31095 269.68666 280.06239 289.3905 294.5738 304.94953 315.32527 325.701 336.07673">https://doi.org/10.17077/2168-569x.1095.</tspan></text>
</g>
</svg>
