<?xml version="1.0" encoding="UTF-8" standalone="no"?>
<!DOCTYPE svg PUBLIC "-//W3C//DTD SVG 1.1//EN" "http://www.w3.org/Graphics/SVG/1.1/DTD/svg11.dtd">
<svg xmlns="http://www.w3.org/2000/svg" xmlns:xlink="http://www.w3.org/1999/xlink" version="1.1" width="612pt" height="792pt" viewBox="0 0 612 792">
<g enable-background="new">
<path transform="matrix(.75,0,0,.75,0,0)" d="M 0 0 L 816 0 L 816 1056 L 0 1056 Z " fill="#0097a7"/>
<text fill="#eeeeee" xml:space="preserve" transform="matrix(.75 0 0 .75 72 72)" font-size="18.666666" font-family="ArialMT"><tspan y="17.509116" x="261.37406 278.64549 289.02119 295.23387 304.56199 313.8901 319.07344 332.5464 336.69123 341.8745 352.25025">Works Cited</tspan></text>
<text fill="#eeeeee" xml:space="preserve" transform="matrix(.75 0 0 .75 72 104.197269)" font-size="18.666666" font-family="ArialMT"><tspan y="33.509115" x="0 13.472946 23.848664 30.06134 36.274019 46.649736 50.794557 54.939378 60.12268 65.305988 75.6817 86.05742 96.433139 102.64581 113.02153 118.204837 130.6484 141.02413 145.16895 149.31377 159.68949 164.87279 170.05609 176.26877 188.71234 199.08806 208.41619 217.74431 228.12003 238.49575 247.82387 257.15199 266.4801 271.6634 280.99153 290.31965 295.50294 300.68623 313.1298 319.34248 323.4873 333.86305 339.04634 348.37446 358.75019 368.0783 378.45405 387.78218 392.96546 398.14875 410.59233 415.77565 426.15138 436.5271 445.85523 451.0385 456.2218 466.59754 480.0705 490.44624 496.6589 507.0346 512.2179 525.69088 536.0666 546.4423 551.6256 562.00137 568.214 572.3588 581.68698 592.0627">Carroll, Laura Bolin. &#x201c;Backpacks vs. Briefcases: Steps toward Rhetorical</tspan></text>
<text fill="#eeeeee" xml:space="preserve" transform="matrix(.75 0 0 .75 72 148.39453)" font-size="18.666666" font-family="ArialMT"><tspan y="17.509116" x="0 12.443573 22.81929 33.195009 37.33983 46.667955 55.99608 60.1409 69.469028 74.65233">Analysis.&#x201d;</tspan></text>
<text fill="#eeeeee" xml:space="preserve" transform="matrix(.75 0 0 .75 72 148.39453)" font-size="18.666666" font-family="Arial" font-style="italic"><tspan y="17.509116" x="86.04831 103.65697 109.869647 114.014469 119.19777 123.34259 133.7183">Writing</tspan></text>
<text fill="#eeeeee" xml:space="preserve" transform="matrix(.75 0 0 .75 72 192.5918)" font-size="18.666666" font-family="Arial" font-style="italic"><tspan y="17.509116" x="48 60.443574 70.81929 81.19501 90.52313 100.89885 110.226978 115.41028 120.59358 134.06653 144.44225 154.81797 165.19368 169.3385 179.71422 190.08994 199.41806 204.60137 214.97708 225.3528 230.5361 248.14476 254.35744 258.50227 263.68556 267.83039 278.20613">Spaces: Readings on Writing</tspan></text>
<text fill="#eeeeee" xml:space="preserve" transform="matrix(.75 0 0 .75 72 192.5918)" font-size="18.666666" font-family="ArialMT"><tspan y="17.509116" x="288.58183 293.76515 298.94844 308.27656 318.65229 322.79713 327.9804 333.1637 343.53944 348.72273 353.906 366.34959 376.72529 382.93797 387.08277 397.4585 403.67118 408.8545 421.29808 427.51075 437.88648 447.2146 456.54273">, vol. 1, Parlor Press,</tspan></text>
<text fill="#eeeeee" xml:space="preserve" transform="matrix(.75 0 0 .75 72 192.5918)" font-size="18.666666" font-family="ArialMT"><tspan y="17.509116" x="466.90934 479.3529 489.72865 500.10438 510.4801 516.69277 526.0209 536.3966 546.77236 551.9556 557.1389 569.5825 583.0555">Anderson, SC,</tspan></text>
<text fill="#eeeeee" xml:space="preserve" transform="matrix(.75 0 0 .75 72 224.78907)" font-size="18.666666" font-family="ArialMT"><tspan y="17.509116" x="0 10.375717 20.751435 31.127152 41.50287 46.686174 51.869478 62.245195 72.62091 77.804218 82.98752 93.363239 103.73895 114.11467 124.49039 134.8661">2010, pp. 45&#x2013;58.</tspan></text>
<text fill="#eeeeee" xml:space="preserve" transform="matrix(.75 0 0 .75 72 268.98634)" font-size="18.666666" font-family="ArialMT"><tspan y="17.509116" x="0 13.472946 23.848664 33.17679 42.504915 52.88063 57.02545 61.170274 66.35358 71.53688 83.98045 94.35617 103.684299 107.82912 118.204837 123.38814 128.57144 134.78412 147.22769 157.60341 167.97913 177.30725 182.49056 192.86627 203.24199 208.4253 212.57012 222.94583 233.32155 237.12914 246.45726 251.64057 265.11354 275.48927 285.865 291.04829 301.424 307.6367 311.7815 321.10963 331.48536 335.6302 340.81349 353.25706 358.10313 363.28645 373.66218 382.9903 388.17359 397.5017">Cassell, Kevin. &#x201c;Punctuation&#x2019;s Rhetorical Effects&#x201d;</tspan></text>
<text fill="#eeeeee" xml:space="preserve" transform="matrix(.75 0 0 .75 72 268.98634)" font-size="18.666666" font-family="Arial" font-style="italic"><tspan y="17.509116" x="408.89765 426.5063 432.71897 436.86378 442.04707 446.1919 456.56764 466.94337 472.12666 484.57023 494.94593 505.32167 514.6498 525.0255 534.35366 539.5369 544.7202 558.1932 568.5689 578.94467 589.3204 593.4652 603.84097 614.2167">Writing Spaces: Readings</tspan></text>
<text fill="#eeeeee" xml:space="preserve" transform="matrix(.75 0 0 .75 72 301.1836)" font-size="18.666666" font-family="Arial" font-style="italic"><tspan y="17.509116" x="0 10.375717 20.751435 25.934739 43.543397 49.756074 53.900896 59.084199 63.22902 73.60474">on Writing</tspan></text>
<text fill="#eeeeee" xml:space="preserve" transform="matrix(.75 0 0 .75 72 301.1836)" font-size="18.666666" font-family="ArialMT"><tspan y="17.509116" x="83.98045 89.16376 94.34706 103.675189 114.0509 118.195728 123.37903 128.56233 138.93805">, vol. 3,</tspan></text>
<text fill="#eeeeee" xml:space="preserve" transform="matrix(.75 0 0 .75 72 345.38087)" font-size="18.666666" font-family="ArialMT"><tspan y="17.509116" x="48 60.443574 70.81929 77.03197 81.17679 91.552509 97.76518 102.94849 115.39206 121.60474 131.98046 141.30858 150.6367 155.82 159.97336 172.41693 182.79265 193.16837 203.54409 209.75676 219.08489 229.4606 239.83632 245.01963 250.20293 262.64649 276.11946 281.30274 286.48603 296.86177 307.2375 317.61323 327.98896 333.17225 338.35554 348.73127 359.107 364.29029 369.47358 379.8493 390.22505 400.60078 410.9765">Parlor Press, Anderson, SC, 2010, pp. 3&#x2013;13.</tspan></text>
<text fill="#eeeeee" xml:space="preserve" transform="matrix(.75 0 0 .75 72 389.57814)" font-size="18.666666" font-family="ArialMT"><tspan y="17.509116" x="0 12.443573 16.588395 26.964112 37.33983 49.78282 54.966127 60.14943 72.593 82.96872 88.15202 98.52774 103.710468 108.89377 114.07707 120.28975 129.61672 139.99243 150.36815 159.69628 170.07199 174.21681 184.59253 194.96825 199.81432 210.18035 223.65329 234.029 239.21231 251.65589 255.8007 266.17643 276.55213 285.88026 291.06355 301.43928 306.62257 311.46864 322.86463 333.24037 337.3852 347.76094 357.08906 361.2339 371.60963 381.98536 387.16865 397.54438 406.8725 411.71858 421.04554 431.42127 441.797 451.12513 461.50086 465.6457 476.02143 486.39717 491.58045 508.85188 515.0646 519.2094 524.3927 528.53756 538.91329 549.289 554.4723">Elbow, Peter. &#x201c;Teaching Two Kinds of Thinking by Teaching Writing.&#x201d;</tspan></text>
<text fill="#eeeeee" xml:space="preserve" transform="matrix(.75 0 0 .75 72 421.7754)" font-size="18.666666" font-family="Arial" font-style="italic"><tspan y="17.509116" x="0 12.443573 27.984375 38.360094 44.57277 54.948488 64.27661 68.42143 78.79715 89.17287 94.35617 107.82912 118.204837 128.58055 133.76386 139.97653 150.35225 156.56493 160.70975 171.08547 180.41359">Embracing Contraries:</tspan></text>
<text fill="#eeeeee" xml:space="preserve" transform="matrix(.75 0 0 .75 72 465.97267)" font-size="18.666666" font-family="Arial" font-style="italic"><tspan y="17.509116" x="48 60.443574 69.7717 80.147418 84.29224 94.66795 100.88063 111.25635 116.43965 120.58447 130.96019 141.3359 150.66403 155.84734 159.99216 170.36788 175.55118 185.9269 196.30261 206.67833 212.891 223.26673 227.41155 237.78726 248.16298 253.34629 263.722 274.09773 284.47346 289.65675 299.33918 309.7149 320.09065 329.41877 339.7945 343.93934 354.31507">Explorations in Learning and Teaching</tspan></text>
<text fill="#eeeeee" xml:space="preserve" transform="matrix(.75 0 0 .75 72 465.97267)" font-size="18.666666" font-family="ArialMT"><tspan y="17.509116" x="364.6907 369.87403 375.0573 389.56874 398.89686 404.08015 414.45588 420.66856 431.04426 436.22755 449.7005 460.07624 464.22108 473.5492 483.92494 490.1376 499.46574 503.61054 508.79383">, Oxford University</tspan></text>
<text fill="#eeeeee" xml:space="preserve" transform="matrix(.75 0 0 .75 72 465.97267)" font-size="18.666666" font-family="ArialMT"><tspan y="17.509116" x="523.3053 535.7489 541.96157 552.3373 561.6654 570.9935 576.1768 581.3601 594.83309 605.2088">Press, New</tspan></text>
<text fill="#eeeeee" xml:space="preserve" transform="matrix(.75 0 0 .75 72 498.16993)" font-size="18.666666" font-family="ArialMT"><tspan y="17.509116" x="48 58.730028 69.10574 75.31842 84.646549 89.82985 95.01315 105.38887 115.76459 126.140308 136.51602 141.69933 146.88263 157.25835 167.63407 172.81737 178.00067 188.37639 198.7521 209.12783 219.50354 229.87926">York, 1986, pp. 55&#x2013;63.</tspan></text>
<text fill="#eeeeee" xml:space="preserve" transform="matrix(.75 0 0 .75 72 542.3672)" font-size="18.666666" font-family="ArialMT"><tspan y="17.509116" x="0 10.375717 20.751435 36.292238 46.667955 51.851259 57.03456 62.217866 66.371219 78.81479 89.190509 99.56622 109.94194 115.125247 120.30855 126.521228 138.9648 149.34052 153.48534 158.66864 163.85195 173.18007 178.36338 189.75936 193.90418 200.11685 209.44498 214.62828 219.81159 233.28453 239.49721 249.87293 255.05623 260.23954 269.56767 274.75099">Lamott, Anne. &#x201c;Shitty First Drafts.&#x201d;</tspan></text>
<text fill="#eeeeee" xml:space="preserve" transform="matrix(.75 0 0 .75 72 542.3672)" font-size="18.666666" font-family="Arial" font-style="italic"><tspan y="17.509116" x="287.17689 299.62046 303.76527 309.97795 320.35365 325.53694 335.91267 345.24079 350.42408 362.86766 367.01246 373.22514">Bird by Bird</tspan></text>
<text fill="#eeeeee" xml:space="preserve" transform="matrix(.75 0 0 .75 72 542.3672)" font-size="18.666666" font-family="ArialMT"><tspan y="17.509116" x="383.60093">,</tspan></text>
<text fill="#eeeeee" xml:space="preserve" transform="matrix(.75 0 0 .75 72 542.3672)" font-size="18.666666" font-family="ArialMT"><tspan y="17.509116" x="393.96754 406.4111 416.7868 426.11494 436.49067 446.8664 453.07908 458.2624 470.70597 481.08168 491.4574 500.78553 510.11366 515.29696 520.4802 533.9532 544.3289 557.8019 562.64797 573.378 583.7537 589.96646 599.29458">Anchor Books, New York,</tspan></text>
<text fill="#eeeeee" xml:space="preserve" transform="matrix(.75 0 0 .75 72 574.56448)" font-size="18.666666" font-family="ArialMT"><tspan y="17.509116" x="0 10.375717 20.751435 31.127152 41.50287 46.686174 51.869478 62.245195 72.62091 77.804218 82.98752 93.363239 103.73895 114.11467 124.49039 134.8661">1997, pp. 21&#x2013;27.</tspan></text>
<text fill="#eeeeee" xml:space="preserve" transform="matrix(.75 0 0 .75 72 618.7617)" font-size="18.666666" font-family="ArialMT"><tspan y="17.509116" x="0 10.730026 21.105744 31.48146 41.857179 52.232896 57.4162 62.599504 74.01312 84.38884 90.60152 99.92964 110.30536 120.681079 134.15402 144.52974 148.68309 161.12667 170.45479 180.8305 191.20623 201.58194 206.76525 210.91007 216.09337 221.27667 227.48935 239.93292 250.30864 260.68437 271.06007 275.2049 285.58064 290.76393 308.03535 314.24803 318.39283 323.5761 333.95185 340.16453 349.49266 354.67597 368.14894 377.47706 387.85279 392.69886 404.09486 414.47059 424.8463 434.17445 439.35774 453.86915 467.3421 477.71784 482.90113 495.3447 505.7204 516.0961 520.24099 524.3858 533.7139 544.08969 554.4654">Young, Vershawn Ashanti. &#x201c;Should Writers Use They Own English?&#x201d;</tspan></text>
<text fill="#eeeeee" xml:space="preserve" transform="matrix(.75 0 0 .75 72 618.7617)" font-size="18.666666" font-family="Arial" font-style="italic"><tspan y="17.509116" x="567.22848 572.41177 582.7875 596.26046">Iowa</tspan></text>
<text fill="#eeeeee" xml:space="preserve" transform="matrix(.75 0 0 .75 72 650.959)" font-size="18.666666" font-family="Arial" font-style="italic"><tspan y="17.509116" x="0 9.328125 19.703843 30.07956 36.292238 46.667955 57.04367 61.18849 66.371799 76.74751 81.93082 87.11412 100.58707 110.96278 115.107608 120.29091 130.66663 136.8793 147.25502">Journal of Cultural</tspan></text>
</g>
</svg>
