<?xml version="1.0" encoding="UTF-8" standalone="no"?>
<!DOCTYPE svg PUBLIC "-//W3C//DTD SVG 1.1//EN" "http://www.w3.org/Graphics/SVG/1.1/DTD/svg11.dtd">
<svg xmlns="http://www.w3.org/2000/svg" xmlns:xlink="http://www.w3.org/1999/xlink" version="1.1" width="612pt" height="792pt" viewBox="0 0 612 792">
<g enable-background="new">
<path transform="matrix(.75,0,0,.75,0,0)" d="M 0 0 L 816 0 L 816 1056 L 0 1056 Z " fill="#0097a7"/>
<text fill="#eeeeee" xml:space="preserve" transform="matrix(.75 0 0 .75 72 104.197269)" font-size="18.666666" font-family="ArialMT"><tspan y="17.509116" x="0 9.326965 19.702683 24.885987 39.397417 49.773134 60.14885 70.52457 75.70787 88.15144 98.52716 103.710468 108.89377 122.366718 132.74243 142.07056 152.44628 158.65895 163.84226 176.28583 186.66155 192.87422 198.05753 208.43325 217.76137 222.94467 228.12798 245.3994 251.61208 255.7569 260.9402 265.08503 275.46076 285.8365">To Good But Never Perfect Writing,</tspan></text>
<text fill="#eeeeee" xml:space="preserve" transform="matrix(.75 0 0 .75 72 136.39453)" font-size="18.666666" font-family="ArialMT"><tspan y="17.509116" x="0 12.443573 21.771698 25.91652 36.292238 41.47554 53.919115 64.29483 79.83563 90.21135">Kyle Kumar</tspan></text>
</g>
</svg>
