<?xml version="1.0" encoding="UTF-8" standalone="no"?>
<!DOCTYPE svg PUBLIC "-//W3C//DTD SVG 1.1//EN" "http://www.w3.org/Graphics/SVG/1.1/DTD/svg11.dtd">
<svg xmlns="http://www.w3.org/2000/svg" xmlns:xlink="http://www.w3.org/1999/xlink" version="1.1" width="612pt" height="792pt" viewBox="0 0 612 792">
<g enable-background="new">
<path transform="matrix(.75,0,0,.75,0,0)" d="M 0 0 L 816 0 L 816 1056 L 0 1056 Z " fill="#0097a7"/>
<text fill="#eeeeee" xml:space="preserve" transform="matrix(.75 0 0 .75 72 72)" font-size="18.666666" font-family="ArialMT"><tspan y="17.509116" x="0 5.183304 15.559021 25.934739 31.118042 36.301347 41.48465 46.667955 60.1409 70.51662 80.892337 85.037158 95.41287 100.596179 110.97189 121.34761 126.530918 136.90663 146.23476 156.61048 166.98619 176.31432 181.49762 191.87334 202.24906 207.43236 212.61566 222.99138 228.17469 234.38736 244.76308 255.1388 265.51454 271.7272 282.1029 286.24775 291.43104 301.80677 306.99006 317.36579 322.54908 327.73237 338.1081 343.29139 348.47468 358.8504 369.22615 374.40943 387.8824 398.25813 402.40296 406.5478 416.92353 427.29927 437.675 442.85829 455.30186 465.67756 476.05329 482.26597 492.64167 497.82496 501.9698 512.3455 517.5288 522.7121 533.0878 543.46359 548.64688 561.09048 572.1486 581.4756">that I would be expected to regurgitate to the College Board in the SAT.</tspan></text>
<text fill="#eeeeee" xml:space="preserve" transform="matrix(.75 0 0 .75 72 104.197269)" font-size="18.666666" font-family="ArialMT"><tspan y="17.509116" x="0 13.472946 23.848664 37.32161 47.697328 57.02545 67.40117 72.58389 77.7672 82.9505 89.16318 99.538898 109.91461 120.29033 124.43515 134.81087 145.18659 150.36989 162.81346 173.18918 182.5173 186.66213 197.03784 202.22115 215.69409 226.06981 235.39794 244.72606 255.10178 259.24659 263.39143 267.199 276.52714 281.71046 287.92314 299.3191 309.69483 320.07057 325.25386 338.7268 349.10255 359.47828 364.66157 375.0373 381.24998 385.39479 394.7229 405.09864 409.24348 414.42677 426.87034 431.7164 436.89973 447.27546 456.60359 461.78688 471.115 476.29829 490.8097 495.99299 501.17628 513.6199 523.9956 534.37136 543.69949 548.88278 559.2585 569.6342 574.8175 578.96237 589.3381 599.7138">However, reading Kevin Cassell&#x2019;s &#x201c;The Rhetorical Effects Of Punctuation&#x201d;</tspan></text>
<text fill="#eeeeee" xml:space="preserve" transform="matrix(.75 0 0 .75 72 136.39453)" font-size="18.666666" font-family="ArialMT"><tspan y="17.509116" x="0 15.540802 25.91652 36.292238 46.667955 51.851259 67.39206 77.76778 82.95108 89.16376 99.539478 109.91519 114.06001 118.204837 127.53296 137.90868 143.09198 148.27529 158.651 169.02672 174.21002 179.39333 189.76905 200.14476 210.52048 219.8486 225.0319 235.40763 245.78334 250.96665 255.11147 265.48719 275.8629 281.0462 285.19105 294.51918 299.70246 310.0782 319.4063 329.78205 340.15779 345.34107 350.52436 360.9001 367.11277 372.29609 387.83689 398.2126 404.42527 414.80097 419.98426 425.16755 435.54328 445.919 456.29475 461.47804 465.62287 475.9986 485.32673 490.51 495.6933 500.8766 511.25233 515.39718 519.542 529.9177 543.3907 547.5355 557.91128">made me realize that punctuation is used for more than just following</tspan></text>
<text fill="#eeeeee" xml:space="preserve" transform="matrix(.75 0 0 .75 72 168.5918)" font-size="18.666666" font-family="ArialMT"><tspan y="17.509116" x="0 10.375717 16.588395 26.964112 42.504915 58.045717 68.42143 73.60474 77.74956 87.07768 97.4534 101.59822 106.781528 112.9942 123.36992 127.51474 137.89046 147.21858 152.40189 157.58519 162.7685 167.9518 173.1351 178.3184 188.69412 199.06984 209.44556 219.82128 225.00458 230.18788 245.72869 256.1044 261.28773 271.66346 282.03919 295.51216 300.69544 311.07118 321.4469 331.82264 341.15077 346.33406 356.70979 367.0855 372.2688 376.41365 386.78938 397.1651 402.3484 411.6765 422.05226 432.42799 437.61128 443.82395 454.19966 458.34449 467.6726 472.8559 478.03919 488.41493 498.79066 503.97395 509.15724 513.30209 523.6778 537.15078 542.33407 552.7098">grammatical rules. It taught me how punctuation controls the flow of</tspan></text>
<text fill="#eeeeee" xml:space="preserve" transform="matrix(.75 0 0 .75 72 200.78907)" font-size="18.666666" font-family="ArialMT"><tspan y="17.509116" x="0 9.328125 19.703843 30.07956 35.262865 45.63858 56.014299 65.34242 75.71814 85.046268 90.22957 95.41287 105.78859 116.16431 126.54002 131.72333 147.26413 157.63985 168.01557 178.39128 183.57459 199.11539 209.4911 214.67441 220.88709 231.2628 241.63852 245.78334 249.92816 259.2563 269.63203 274.8153 279.9986 290.37434 300.75007 305.93336 311.11665 321.49238 331.8681 345.34107 355.7168 361.92948 367.1128 377.48854 381.63337 386.81666 400.2896 406.5023 410.6471 415.83039 426.20613 432.4188 441.74693 446.93025 457.30598 467.6817 472.865 483.24073 493.61647 498.79975 503.98304 509.16633 519.54208 523.6869 527.8317 538.20748 551.6804 556.8637 566.19186 571.3751 577.58779 581.7326 591.0607">sentences, and made me realize that powerful writers do not follow strict</tspan></text>
<text fill="#eeeeee" xml:space="preserve" transform="matrix(.75 0 0 .75 72 232.98633)" font-size="18.666666" font-family="ArialMT"><tspan y="17.509116" x="0 6.212677 16.588395 20.733216 31.108933 40.437059 45.62036 50.803667 61.179384 67.39206 72.57536 82.95108 93.3268 106.79974 111.98305 117.16635 127.54207 132.72537 143.10109 152.42922 162.80493 167.98824 178.36396 188.73967 199.11539 208.44351 213.62682 224.00254 234.37825 239.56156 243.70638 254.08209 264.45783 269.6411 274.8244 280.0077 290.38343 299.71156 304.89485 315.27058 325.6463 336.02204 341.20533 346.3886 351.5719 361.94764 372.32337 381.6515 386.83479 397.2105 407.58625 411.73109 415.87593 426.25166 431.43495 441.81068 452.1864 462.56214 471.89027 482.266 491.59413 496.7774 500.92225 511.29798 516.48129 526.857 532.0403 537.2236 547.5993 557.97506 562.1199">rules for how to use punctuation. Instead, they build pauses into their</tspan></text>
<text fill="#eeeeee" xml:space="preserve" transform="matrix(.75 0 0 .75 72 265.1836)" font-size="18.666666" font-family="ArialMT"><tspan y="17.509116" x="0 13.472946 19.685624 23.830445 29.013749 33.15857 43.534288 53.910005 59.093309 64.27661 74.65233 79.83563 90.21135 105.75215 116.12787 126.503589 136.8793 146.20743 150.35225 159.68038 170.05609 175.2394 184.56752 194.94324 201.15592 206.33922 216.71494 220.85976 231.23548 236.41878 249.89173 260.26747 266.48014 276.85585 286.18397 291.36726 301.74299 307.95567 313.13899 323.5147 327.65956 336.98768 347.3634 352.5467 357.72999 368.1057 378.48146 383.66474 389.8774 400.2531 410.62886 421.00459 431.3803 437.593 442.7763 452.10444 462.48017 472.8559 482.18403 492.55976 497.74305 502.92634 513.30209 518.48538 528.8611 535.0737 545.44949 555.8252 561.0085 571.3842 581.75997">writing to emphasize certain words or give the reader space to breathe.</tspan></text>
<text fill="#eeeeee" xml:space="preserve" transform="matrix(.75 0 0 .75 72 297.38087)" font-size="18.666666" font-family="ArialMT"><tspan y="17.509116" x="0 13.472946 23.848664 29.031968 39.407686 49.7834 55.99608 61.179384 66.362689 76.7384 87.11412 97.48984 102.67314 113.04886 123.424579 127.5694 137.94512 148.32083 153.50414 162.83226 173.20798 183.5837 192.91182 203.28754 209.50022 219.87593 230.25165 240.62737 245.81067 256.1864 266.56214 276.93788 287.3136 292.4969 297.68019 311.15315 321.52888 331.9046 337.0879 347.46363 357.83937 364.05204 369.23536 379.61109 385.82377 391.00709 401.3828 411.75856 416.94184 422.12513 427.3084 432.4917 442.86744 458.40824 463.59156 468.77485 479.15058 483.2954 487.44026 497.81599 511.28895 515.4338 525.8095 536.18527 541.3685 547.5812 557.9569 562.10177 572.4775 581.8056 586.9889 592.1722 602.5479 612.92367">Rather than being concerned about whether or not I am following rules that</tspan></text>
<text fill="#eeeeee" xml:space="preserve" transform="matrix(.75 0 0 .75 72 329.57814)" font-size="18.666666" font-family="ArialMT"><tspan y="17.509116" x="0 15.540802 24.868927 30.05223 36.264909 46.640626 57.016344 67.39206 77.76778 83.98045 93.30858 98.49188 114.032688 124.4084 133.73653 138.91983 149.29555 159.67127 164.85457 170.03787 180.41359 189.74172 200.11743 210.49315 215.67646 226.05217 236.42789 241.61119 251.98691 265.45985 275.83558 282.04826 292.42396 297.60725 307.98298 313.16627 318.34956 323.53285 328.71614 333.8994 344.27516 354.65089 368.12385 373.30714 383.68287 393.011 403.38673 408.57 418.94575 429.32148 439.6972 449.02534 454.20863 464.58436 474.96009 480.14338 484.2882 494.66395 505.03968 510.22297 515.40628 525.782 530.9653 540.2934 550.6691 561.04489 566.22817 572.4408 582.8165 586.96139 592.14468 597.32797 607.7037">my readers may not even be aware of, I now use punctuation to control the</tspan></text>
<text fill="#eeeeee" xml:space="preserve" transform="matrix(.75 0 0 .75 72 361.7754)" font-size="18.666666" font-family="ArialMT"><tspan y="17.509116" x="0 5.183304 9.328125 19.703843 33.17679 38.360094 48.73581 53.919115 59.102418 74.64322 83.971347 89.15465 102.627597 108.84027 112.98509 118.168399 122.31322 132.68894 143.06465 148.24796 157.57608 167.9518 173.1351 178.3184 188.69412 199.06984 204.25315 209.43645 213.58127 218.76457 223.94788 239.48868 249.8644 256.0771 266.45283 271.6361 280.96424 285.10908 295.4848 304.81294 315.18867 319.3335 328.66163 333.8449 349.3857 359.7614 364.9447 374.27284 384.64857 395.0243 404.35243 409.5357 425.0765 434.40464 439.58796 449.96369 460.33943 469.66755 473.81239 480.02507 490.40077 500.7765 505.95979 512.1725 522.5482 532.92398 538.10726 548.483 554.6957 558.8405 568.16867 578.5444">flow of my writing so that it more closely matches my desired rhetorical</tspan></text>
<text fill="#eeeeee" xml:space="preserve" transform="matrix(.75 0 0 .75 72 393.97267)" font-size="18.666666" font-family="ArialMT"><tspan y="17.509116" x="0 10.375717 15.2217869 20.40509 30.780808 40.108934 45.292238">effect.</tspan></text>
<text fill="#eeeeee" xml:space="preserve" transform="matrix(.75 0 0 .75 72 426.16993)" font-size="18.666666" font-family="ArialMT"><tspan y="17.509116" x="48 59.39598 69.7717 73.91652 83.244647 88.42795 92.57277 102.94849 113.3242 123.69992 128.88323 139.25894 148.58707 153.77037 164.14609 174.5218 184.89752 194.22565 199.40895 209.78467 220.16039 229.48851 239.86423 250.23995 260.61567 265.79896 276.17469 286.5504 296.92616 306.25428 311.4376 321.81333 332.18907 337.37236 341.51719 351.8929 362.26866 367.45195 372.63523 387.14665 397.52238 407.8981 418.27384 423.45713 436.93009 443.14277 447.28758 452.47087 456.6157 466.99143 477.36717 482.55046 486.69529 496.0234 506.39915 510.54399 515.7273 520.9106 534.38357 540.5962 544.74099 549.92428 554.0691 564.4448 574.82058 580.00387 585.18716 595.56289 605.9386">This idea extends beyond punctuation. Good writing isn&#x2019;t writing that</tspan></text>
<text fill="#eeeeee" xml:space="preserve" transform="matrix(.75 0 0 .75 72 458.3672)" font-size="18.666666" font-family="ArialMT"><tspan y="17.509116" x="0 5.183304 15.559021 19.703843 23.848664 34.22438 47.697328 57.02545 62.208757 71.53688 81.9126 92.288318 101.61644 111.99216 122.367877 127.55118 131.696 142.07172 152.44744 162.82315 166.96797 172.15128 182.527 186.67182 197.04753 201.19235 211.56807 220.8962 226.0795 231.2628 241.63852 252.01424 262.38996 267.57325 277.94898 284.16166 294.53736 310.07817 325.61897 335.9947 342.20738 347.3907 353.60337 363.97908 368.1239 378.49964 387.82777 393.01106 398.19435 408.57008 418.9458 424.1291 429.31239 433.4572 442.78535 447.96864 452.11347 462.4892 471.81733 477.0006 487.37635 497.75209 508.1278 513.3111 526.78408 532.9967 537.14157 542.3248 546.46969 556.8454 567.2211 572.4044 577.5877 587.96347 598.3392">follows conventional dialect and grammar rules, but is instead writing that</tspan></text>
<text fill="#eeeeee" xml:space="preserve" transform="matrix(.75 0 0 .75 72 490.56446)" font-size="18.666666" font-family="ArialMT"><tspan y="17.509116" x="0 9.328125 13.472946 23.848664 34.22438 40.437059 44.58188 53.910005 59.093309 69.469028 79.84474 90.22046 95.40376 105.77948 110.62555 115.80885 126.18457 135.5127 140.696 144.84082 154.16895 164.54467 168.68949 178.01761 183.20092 192.52904 202.90476 218.44556 233.98636 244.36208 254.7378 258.88264 268.21076 278.5865 283.76979 294.1455 303.47364 308.65693 312.80177 317.98506 327.31318 332.49647 348.03727 358.41297 367.7411 377.0692 387.44496 397.82069 408.1964 413.3797 417.53306 429.97663 439.30476 444.48805 455.90168 466.2774 472.49009 481.8182 492.1939 502.56965 516.0426 526.41836 530.57168 543.01528 552.3434 562.7191 573.09487 583.4706 588.6539">clearly and effectively communicates its message. As Vershawn Ashanti</tspan></text>
<text fill="#eeeeee" xml:space="preserve" transform="matrix(.75 0 0 .75 72 522.7617)" font-size="18.666666" font-family="ArialMT"><tspan y="17.509116" x="0 10.730026 21.105744 31.48146 41.857179 52.232896 57.4162 67.791919 77.12004 87.49576 91.64058 102.0163 106.16112 116.536838 125.86496 131.04827 135.19309 145.5688 150.7521 157.37471 169.81829 180.194 190.56972 200.94544 205.09026 215.46598 220.64928 237.9207 244.13338 248.2782 253.4615 263.83723 270.0499 279.37803 284.56135 298.0343 307.36244 317.73817 322.58424 333.98023 344.35597 354.7317 364.0598 369.2431 383.75453 397.22749 407.6032 412.7865 425.23008 435.60578 445.9815 450.12635 454.27119 463.5993 473.97505 484.35078 490.56346 495.74678 500.93006 511.3058 521.6815 531.00967 535.1545 545.5302 550.7135 554.85836 565.2341 575.6098">Young explains in "Should Writers Use They Own English?&#x201d;, deviations</tspan></text>
<text fill="#eeeeee" xml:space="preserve" transform="matrix(.75 0 0 .75 72 554.959)" font-size="18.666666" font-family="ArialMT"><tspan y="17.509116" x="0 5.183304 11.395981 21.771698 37.3125 42.495805 47.679109 58.054826 68.43054 73.613849 82.94197 88.125278 98.50099 108.87671 119.252429 129.62815 135.84082 146.21654 151.39984 157.61252 167.98824 172.13306 182.50878 191.8369 197.0202 207.39592 212.57923 217.76253 230.2061 240.58182 250.95754 255.10236 259.2472 268.57533 278.95106 284.13435 294.51008 300.72276 311.09846 316.28175 326.65748 337.0332 342.2165 347.39979 357.7755 367.10365 372.28694 382.66267 388.87535 399.25105 409.62678 413.7716 424.14735 439.68815 450.06385 455.24714 459.39198 468.7201 473.90339 484.2791 493.60725 498.79054 514.3313 524.70706 535.08279 544.4109 549.5942 559.9699 566.1826 576.55838 586.9341 597.3098">from the standard rules of English are not as problematic as many groups</tspan></text>
<text fill="#eeeeee" xml:space="preserve" transform="matrix(.75 0 0 .75 72 587.15628)" font-size="18.666666" font-family="ArialMT"><tspan y="17.509116" x="0 4.144821 8.289642 17.617768 27.993485 33.17679 38.360094 48.73581 53.919115 63.24724 67.39206 77.76778 81.9126 97.4534 102.6367 107.82001 125.428668 135.80438 146.1801 151.3634 156.5467 172.08751 182.46323 187.64653 192.82984 203.20555 209.41823 218.74636 223.92966 239.47046 249.84618 256.05885 266.43458 271.61787 276.80116 287.17689 297.5526 307.92835 313.11164 318.29493 328.67066 339.0464 348.3745 358.75025 363.93354 370.1462 380.5219 384.66676 395.04249 404.3706 409.5539 413.69874 423.02687 428.21015 441.6831 452.05885 462.43458 467.61787 477.9936 488.36933 494.582 499.76533 510.14106 516.35379 521.53707 531.9128 542.2885 547.4718 552.6551 563.0308 568.2141 578.58987 582.7347 593.1104 602.43856">like to claim. What matters more than these rules is whether or not a piece</tspan></text>
<text fill="#eeeeee" xml:space="preserve" transform="matrix(.75 0 0 .75 72 619.3535)" font-size="18.666666" font-family="ArialMT"><tspan y="17.509116" x="0 10.375717 15.559021 20.742325 34.21527 40.427949 44.57277 49.756074 53.900896 64.27661 74.65233 79.83563 89.16376 99.539478 109.91519 120.29091 130.66663 139.99475 145.17806 154.50618 159.68949 173.16243 177.30725 182.49056 192.86627 198.04958 202.1944 207.3777 216.70583 221.88913 228.1018 238.47753 248.85324 259.22895 269.60469 275.81736 286.19306 296.5688 305.8969 316.27265 321.45594 325.60929 338.05287 347.38099 352.56428 361.8924 366.03724 372.2499 377.43324 387.80897 398.1847 402.32954 406.47438 415.8025 420.98579 431.3615 441.73725 446.92054 457.29627 467.672 478.04774 483.23103 487.37586 497.7516 502.93489 513.3106 517.45547 522.63876 526.78359 536.1117 546.4874 550.63229">of writing connects with its readerbase. As virtually no one intuitively</tspan></text>
<text fill="#eeeeee" xml:space="preserve" transform="matrix(.75 0 0 .75 72 651.5508)" font-size="18.666666" font-family="ArialMT"><tspan y="17.509116" x="0 10.375717 20.751435 31.127152 41.50287 47.715547 57.04367 62.226976 72.60269 82.97841 93.354129 102.68225 107.865558 118.24127 122.38609 126.530918 131.71422 136.89752 147.27324 157.64896 162.83226 169.04494 179.42066 183.56548 193.9412 203.26932 208.45262 218.82834 224.01165 229.19495 242.6679 248.88057 253.02539 258.20869 262.35353 272.72926 283.10499 288.28828 293.47157 303.8473 314.22303 324.59877 328.7436 338.07173 342.21656 352.5923 362.96803 368.1513 373.3346 383.71034 394.08607 409.62687 414.81019 425.1859 430.03199 435.21528 445.591 451.80369 461.1318 466.31513 470.45997 474.6048 479.7881 484.97138 489.1162 499.49195 504.67524 515.05099 525.4267 535.8024 546.17819 551.36148 555.5063 560.6896">understands all the rules of writing, applying them offers little benefit.</tspan></text>
<text fill="#eeeeee" xml:space="preserve" transform="matrix(.75 0 0 .75 72 683.74807)" font-size="18.666666" font-family="ArialMT"><tspan y="17.509116" x="0 12.443573 18.65625 29.031968 39.407686 48.73581 52.88063 63.256349 73.632068 78.81537 88.14349 93.3268 103.702518 114.07823 124.45395 134.82967 141.04235 151.41806 156.60137 165.92949 176.3052 186.68093 196.00905 206.38477 216.76049 221.94379 226.08861 236.46433 246.84004 256.16816 261.35145 266.53474 276.91047 283.12315 288.30647 298.6822 309.05793 319.43367 328.76179 333.94508 344.3208 354.69654 359.87983 364.02467 374.4004 384.77613 389.9594 395.1427 405.51844 409.66328 420.039 424.18385 434.55958 443.8877 449.07099 454.25428 459.43757 469.8133 480.18904 490.56477 495.74806 506.12379 512.3364 522.71218 538.2529 553.7937 564.16946">Breaking standard conventions for punctuation, dialect, and grammar</tspan></text>
</g>
</svg>
