<?xml version="1.0" encoding="UTF-8" standalone="no"?>
<!DOCTYPE svg PUBLIC "-//W3C//DTD SVG 1.1//EN" "http://www.w3.org/Graphics/SVG/1.1/DTD/svg11.dtd">
<svg xmlns="http://www.w3.org/2000/svg" xmlns:xlink="http://www.w3.org/1999/xlink" version="1.1" width="612pt" height="792pt" viewBox="0 0 612 792">
<g enable-background="new">
<path transform="matrix(.75,0,0,.75,0,0)" d="M 0 0 L 816 0 L 816 1056 L 0 1056 Z " fill="#0097a7"/>
<text fill="#eeeeee" xml:space="preserve" transform="matrix(.75 0 0 .75 72 72)" font-size="18.666666" font-family="ArialMT"><tspan y="17.509116" x="0 6.212677 16.588395 26.964112 37.33983 43.552507 53.928224 58.073045 63.256349 73.632068 78.81537 89.191089 94.37439 99.55769 109.93341 115.116718 120.30002 130.67574 141.05146 146.23476 159.7077 170.08342 174.22824 178.37306 188.74878 199.1245 209.50022 214.68352 227.12709 237.5028 247.87853 254.0912 264.46693 269.6502 273.79505 284.17079 289.35408 294.53736 304.9131 315.28883 320.4721 332.91569 343.97383 353.30079 358.48408 363.66737 377.14033 387.51606 400.989 411.36476 420.69288 431.0686 436.25135 441.43464 446.61793 452.8306 463.2063 473.58204 483.95777 488.1026 498.47834 508.85408 514.03738 526.48098 536.8567 546.1848 550.32968">regurgitate to the College Board in the SAT. However, reading Kevin</tspan></text>
<text fill="#eeeeee" xml:space="preserve" transform="matrix(.75 0 0 .75 72 104.197269)" font-size="18.666666" font-family="ArialMT"><tspan y="17.509116" x="0 13.472946 23.848664 33.17679 42.504915 52.88063 57.02545 61.170274 64.97786 74.305988 79.48929 85.701969 97.097949 107.47366 117.84938 123.032688 136.50563 146.88135 157.25707 162.44037 172.81609 179.02877 183.17359 192.50171 202.87743 207.02225 212.20555 224.64913 229.4952 234.6785 245.05422 254.38234 259.56565 268.89378 274.0771 288.5885 293.7718 298.95509 311.39866 321.77436 332.1501 341.4782 346.6615 357.03724 367.41297 372.59626 376.7411 387.11683 397.49256 403.70524 408.88856 424.42936 434.80506 445.1808 455.55653 460.7398 476.2806 486.6563 491.8396 498.05229 508.42799 518.8037 522.94857 527.0934 536.4215 546.79727 551.9805 557.1638 567.53958 577.9153">Cassell&#x2019;s &#x201c;The Rhetorical Effects Of Punctuation&#x201d; made me realize that</tspan></text>
<text fill="#eeeeee" xml:space="preserve" transform="matrix(.75 0 0 .75 72 136.39453)" font-size="18.666666" font-family="ArialMT"><tspan y="17.509116" x="0 10.375717 20.751435 31.127152 40.455278 45.63858 56.014299 66.390018 71.57332 75.71814 86.09386 96.469577 101.65288 105.7977 115.125827 120.30913 130.68485 140.01297 150.38869 160.7644 165.94771 171.13101 181.50673 187.7194 192.90271 208.44351 218.81923 225.0319 235.40763 240.59093 245.77423 256.14997 266.5257 276.90144 282.08473 286.22956 296.6053 305.9334 311.1167 316.3 321.48329 331.859 336.00386 340.14869 350.5244 363.99739 368.1422 378.51795 388.89369 394.07698 404.4527 410.66539 421.04109 436.58189 452.12269 462.4984 467.6817 471.82655 481.15467 491.5304 495.67524 500.85853 507.0712 517.4469 521.59176 531.96749 541.2956 546.4789 551.6622 556.84548 562.02877 567.21206 572.3953 582.77108 593.1468 603.5225 613.89828">punctuation is used for more than just following grammatical rules. It taught</tspan></text>
<text fill="#eeeeee" xml:space="preserve" transform="matrix(.75 0 0 .75 72 168.5918)" font-size="18.666666" font-family="ArialMT"><tspan y="17.509116" x="0 15.540802 25.91652 31.099823 41.47554 51.851259 65.3242 70.50751 80.883228 91.25894 101.63466 110.96278 116.14609 126.521808 136.89752 142.08083 146.22565 156.60137 166.97708 172.16039 181.48851 191.86423 202.23995 207.42325 213.63593 224.01165 228.15647 237.48459 242.6679 247.8512 258.22694 268.60267 273.78596 278.96925 283.11408 293.4898 306.96278 312.14607 322.5218 327.70509 332.88838 342.2165 352.59223 362.96797 368.15126 378.52699 388.9027 398.23085 408.60658 417.9347 423.11799 428.30128 438.677 449.05274 459.42848 464.61177 480.15257 490.52827 500.904 511.27973 516.463 532.0038 542.3795 547.5628 553.7755 564.15127 574.527 578.6718 582.81668 592.1448">me how punctuation controls the flow of sentences, and made me realize</tspan></text>
<text fill="#eeeeee" xml:space="preserve" transform="matrix(.75 0 0 .75 72 200.78907)" font-size="18.666666" font-family="ArialMT"><tspan y="17.509116" x="0 5.183304 15.559021 25.934739 31.118042 36.301347 46.677064 57.05278 70.52573 80.90144 87.11412 92.297428 102.67314 106.81796 112.00127 125.47421 131.68689 135.83171 141.01502 151.39073 157.60341 166.93154 172.11484 182.49056 192.86627 198.04958 208.4253 218.80101 223.98432 229.16762 234.35092 244.72664 248.87146 253.01628 263.392 276.86494 282.04823 291.37635 296.55964 302.7723 306.9171 316.24525 321.42854 326.61183 332.8245 343.2002 347.34504 357.72077 367.0489 372.23219 377.41548 387.7912 394.00389 399.1872 409.56294 419.93867 433.41163 438.5949 443.7782 454.15394 459.33723 469.71296 479.04109 489.4168 494.6001 504.97584 515.35159 525.7273 535.0554 540.2387 550.61447 560.9902 566.17349 570.3183 580.69406 591.06979">that powerful writers do not follow strict rules for how to use punctuation,</tspan></text>
<text fill="#eeeeee" xml:space="preserve" transform="matrix(.75 0 0 .75 72 232.98633)" font-size="18.666666" font-family="ArialMT"><tspan y="17.509116" x="0 10.375717 20.751435 25.934739 31.118042 35.262865 45.63858 54.966707 60.15001 70.52573 80.90144 91.27716 96.460468 106.83618 117.2119 121.35672 125.50154 135.87726 141.06056 151.43628 161.812 172.18772 181.51584 191.89156 201.21968 206.40299 210.5478 220.92353 226.10683 236.48255 241.66585 246.84915 257.22486 267.6006 271.74543 277.9581 283.14143 296.61439 302.82707 306.97187 312.15516 316.3 326.67573 337.05146 342.23475 352.61048 362.9862 372.31434 382.69007 393.0658 398.24909 408.62483 419.00056 424.18385 437.6568 448.03254 458.40827 468.784 473.9673 479.15058 489.5263 499.90205 509.23017 514.41348 527.8864 538.26217 548.6379 553.82119 559.00448 564.18777 574.5635 579.74679 590.1225 600.4982">but instead build pauses into their writing based on when they want to add</tspan></text>
<text fill="#eeeeee" xml:space="preserve" transform="matrix(.75 0 0 .75 72 265.1836)" font-size="18.666666" font-family="ArialMT"><tspan y="17.509116" x="0 10.375717 25.91652 36.292238 46.667955 57.04367 66.371799 70.51662 79.84474 85.028049 90.21135 100.58707 105.77037 115.098499 125.47421 131.68689 136.8702 147.24591 151.39073 161.76645 166.94976 180.4227 190.79842 197.0111 207.38681 216.71494 221.89824 232.27396 238.48664 243.66994 254.04566 258.1905 267.51863 277.89436 283.07765 288.26094 298.63667 309.0124 314.19569 320.40837 330.78407 341.1598 351.53553 361.91127 368.12394 373.30726 382.63539 393.0111 403.38685 412.71498 423.0907 428.274 433.45729 443.833 449.0163 459.39204 465.6047 475.9804 486.35615 491.53944 501.91517 512.2909 517.4742 522.6575 527.84078 538.2165 547.5446 552.7279 563.10366 573.4794 583.8551 589.0384 599.4141">emphasis to certain words or give the reader space to breathe. Instead of</tspan></text>
<text fill="#eeeeee" xml:space="preserve" transform="matrix(.75 0 0 .75 72 297.38087)" font-size="18.666666" font-family="ArialMT"><tspan y="17.509116" x="0 10.375717 20.751435 24.896256 35.271974 45.64769 50.830995 60.15912 70.534839 80.91055 90.23868 100.614398 106.82707 117.20279 127.57851 137.95423 143.13753 153.51325 163.88896 174.26468 184.6404 189.8237 195.007 208.47995 218.85567 229.23139 234.41469 244.7904 255.16613 261.37879 266.56208 276.9378 283.15049 288.3338 298.70954 309.08528 314.26856 319.45185 324.63514 329.81843 340.19416 355.73497 360.91828 366.10157 376.4773 380.62214 384.76698 395.1427 408.61567 412.7605 423.13624 433.51197 438.69526 444.90794 455.28364 459.42848 469.8042 479.13233 484.3156 489.4989 499.87464 510.25038 515.43368 520.61697 536.1577 545.48587 550.6691 556.88186 567.25759 577.6333 588.00906 598.38479 604.5974">being concerned about whether or not I am following rules that my readers</tspan></text>
<text fill="#eeeeee" xml:space="preserve" transform="matrix(.75 0 0 .75 72 329.57814)" font-size="18.666666" font-family="ArialMT"><tspan y="17.509116" x="0 15.540802 25.91652 35.244646 40.427949 50.803667 61.179384 66.362689 71.54599 81.92171 91.24983 101.62555 112.00127 117.18457 127.56029 137.936 143.11931 153.49503 166.96797 177.34369 183.55637 193.93209 199.11539 209.4911 214.67441 219.85771 225.04102 230.22432 235.40763 245.78334 256.15907 269.63203 274.8153 279.9986 286.21128 295.5394 300.72273 305.906 316.28175 321.46504 331.84077 341.16889 351.54463 356.7279 367.10365 377.47938 387.8551 397.18324 402.36653 412.74226 423.11799 428.30128 432.4461 442.82185 453.19758 458.38087 463.56416 473.93989 479.12318 488.4513 498.82704 509.20277 514.38607 520.59878 530.9745 535.1193 540.3026 545.4859 555.86166 566.23739 571.42068 576.60397 580.7488 591.1245">may not even be aware of, I now try to use punctuation to control the flow</tspan></text>
<text fill="#eeeeee" xml:space="preserve" transform="matrix(.75 0 0 .75 72 361.7754)" font-size="18.666666" font-family="ArialMT"><tspan y="17.509116" x="0 10.375717 15.559021 20.742325 36.283128 45.61125 50.794557 64.2675 70.48018 74.625 79.808307 83.953128 94.32884 104.70456 109.88786 119.21599 129.5917 134.77501 139.95832 150.33403 160.70975 165.89305 171.07636 175.22118 180.40448 185.58779 201.12859 211.5043 217.71698 228.0927 233.276 242.60413 246.74895 257.12467 266.4528 276.8285 280.97334 290.30146 295.48475 311.02555 321.40126 326.58454 335.91267 346.2884 356.66413 365.99226 371.17555 386.71635 396.04447 401.22779 411.60353 421.97926 431.30738 435.4522 441.6649 452.0406 462.41633 467.5996 473.8123 484.188 494.56373 499.747 510.12275 516.33547 520.4803 529.8084 540.18417 544.329 549.51229 559.888 564.7341 569.91738 580.2931 589.6212 594.8045">of my writing so that it more closely matches my desired rhetorical effect.</tspan></text>
<text fill="#eeeeee" xml:space="preserve" transform="matrix(.75 0 0 .75 72 393.97267)" font-size="18.666666" font-family="ArialMT"><tspan y="17.509116" x="48 63.540803 73.91652 80.129199 90.50491 95.68822 106.063938 116.43965 126.81537 137.19109 143.40377 153.77948 157.9243 162.06912 170.01183 175.19513 180.37844 185.56174 190.74504 194.88986 205.26558 215.6413 221.85398 232.22969 242.60541 252.98113 258.16444 263.34773 273.72346 284.09919 289.28248 294.46577 304.8415 315.21723 325.59297 335.9687 341.15199 354.62495 360.83763 364.98243 370.1657 374.31056 384.68629 395.062 400.2453 404.39015 413.71827 424.094 428.23884 433.42213 438.6054 452.07838 458.29106 462.43586 467.61915 471.76399 482.1397 492.51545 497.69874 502.88203 513.25778 523.6335 528.8168 534.00009 538.1449">More generally, I learned that good writing isn&#x2019;t writing that is</tspan></text>
<text fill="#eeeeee" xml:space="preserve" transform="matrix(.75 0 0 .75 72 426.16993)" font-size="18.666666" font-family="ArialMT"><tspan y="17.509116" x="0 10.375717 16.588395 26.964112 42.504915 58.045717 68.42143 73.60474 77.74956 87.07768 97.4534 101.59822 105.74304 115.07117 120.25447 129.5826 139.95832 146.17099 152.38367 162.75939 172.08751 177.27082 182.45412 187.63742 198.01314 208.38886 213.57216 218.75547 224.96814 235.34386 240.52716 250.90288 261.2786 267.49128 272.67457 286.14753 292.3602 296.505 301.6883 305.83314 316.20887 326.5846 331.76789 336.95118 347.3269 357.70265 362.88594 368.0692 377.39735 381.54219 391.9179 402.29365 408.50633 412.65113 421.97926 427.16255 437.53828 447.914 458.28974 463.47303 473.84877 478.69483 483.8781 494.25386 503.58198 508.76527 512.9101 522.2382 532.61398 536.7588">grammatically correct, but rather writing that clearly and effectively</tspan></text>
<text fill="#eeeeee" xml:space="preserve" transform="matrix(.75 0 0 .75 72 458.3672)" font-size="18.666666" font-family="ArialMT"><tspan y="17.509116" x="0 9.328125 19.703843 35.244646 50.785448 61.161165 71.53688 75.6817 85.00983 95.385547 100.56885 110.944568 120.27269 125.45599 129.60082 134.78412 144.11225 149.29555 164.83635 175.21207 184.54019 193.86832 204.24404 214.61975 224.99547 230.17877 235.36208 245.7378 250.9211 257.1338 267.50953 277.88526 288.261 298.63673 304.8494 314.17753 319.36085 323.5142 335.95777 345.2859 350.46919 361.8828 372.25856 378.47123 387.79936 398.17506 408.55079 422.02375 432.39949 436.55284 448.9964 458.32453 468.70027 479.076 489.45173 494.635 498.77986 503.62593 514.35598 524.7317 535.1074 545.48318">communicates its message to readers. As Vershawn Ashanti Young</tspan></text>
<text fill="#eeeeee" xml:space="preserve" transform="matrix(.75 0 0 .75 72 490.56446)" font-size="18.666666" font-family="ArialMT"><tspan y="17.509116" x="0 10.375717 19.703843 30.07956 34.22438 44.600099 48.74492 59.120637 68.44876 73.632068 77.776889 88.1526 93.33591 99.95851 112.402088 122.7778 133.15352 143.52924 147.67406 158.04978 163.23308 180.5045 186.71718 190.862 196.0453 206.42102 212.6337 221.96183 227.14513 240.61808 249.9462 260.3219 265.16798 276.56398 286.9397 297.31544 306.64356 311.82685 326.33827 339.81123 350.18696 355.37025 367.8138 378.1895 388.56526 392.71009 396.85493 406.18305 416.55879 426.9345 433.1472 438.3305 448.70625 459.08198 468.4101 472.55494 482.93067 488.11396 492.2588 502.63453 513.01028 522.3384 527.52169 532.70498 538.9176 549.29336 564.8341 570.0174 575.2007 585.5764">explains in "Should Writers Use They Own English?&#x201d; deviations from the</tspan></text>
<text fill="#eeeeee" xml:space="preserve" transform="matrix(.75 0 0 .75 72 522.7617)" font-size="18.666666" font-family="ArialMT"><tspan y="17.509116" x="0 9.328125 14.511429 24.887146 35.262865 45.63858 56.014299 62.226976 72.60269 77.785999 83.99867 94.37439 98.51921 108.89493 118.22305 123.40636 133.78208 138.96538 144.14868 156.59226 166.96797 177.34369 181.48851 185.63333 194.96146 205.33718 210.52048 220.8962 227.10887 237.48459 242.6679 253.04361 263.4193 268.6026 273.7859 284.16163 293.48976 298.67304 309.04878 315.26145 325.63716 336.01289 340.1577 350.53346 366.07426 376.44996 381.63325 385.77809 395.1062 400.2895 410.66523 419.99336 425.17665 440.71745 451.09315 461.46888 470.797 475.9803 486.35603 492.5687 502.9444 513.3201 523.69589 533.024 538.2073 542.3521 546.49697 555.8251 566.2008 571.3841 576.5674">standard rules of English are not as problematic as many groups like to</tspan></text>
<text fill="#eeeeee" xml:space="preserve" transform="matrix(.75 0 0 .75 72 554.959)" font-size="18.666666" font-family="ArialMT"><tspan y="17.509116" x="0 9.328125 13.472946 23.848664 27.993485 43.534288 48.71759 53.900896 59.084199 69.459918 74.64322 79.82652 90.20224 99.530368 104.71367 109.89697 115.08028 128.55323 138.92894 149.30466 154.48796 159.67127 175.21207 185.58779 190.77109 195.95439 206.33011 212.54279 221.87091 227.05422 242.59502 252.97074 259.1834 269.55915 274.74244 279.92573 290.30146 300.6772 311.05293 316.2362 321.4195 331.79524 342.17097 351.49909 361.87483 367.0581 373.27079 383.64649 387.79133 398.16706 407.49519 412.67848 416.8233 426.15144 431.33473 444.80769 455.1834 465.55915 470.74244 481.11817 491.4939 497.70658 502.8899 513.2656 519.4783 524.66159 535.0373 545.413 550.5963 555.7796 566.15536 571.3386 581.71438 585.8592 596.2349 605.56307">claim. In fact, what matters more than these rules is whether or not a piece</tspan></text>
<text fill="#eeeeee" xml:space="preserve" transform="matrix(.75 0 0 .75 72 587.15628)" font-size="18.666666" font-family="ArialMT"><tspan y="17.509116" x="0 10.375717 15.559021 20.742325 34.21527 40.427949 44.57277 49.756074 53.900896 64.27661 74.65233 79.83563 89.16376 99.539478 109.91519 120.29091 130.66663 139.99475 145.17806 154.50618 159.68949 173.16243 177.30725 182.49056 192.86627 198.04958 202.1944 207.3777 216.70583 221.88913 228.1018 238.47753 248.85324 259.22895 269.60469 275.81736 286.19306 296.5688 305.8969 316.27265 321.45594 325.60929 338.05287 348.4286 358.80433 363.9876 369.1709 379.54664 388.87477 394.05805 404.43379 408.5786 424.11943 434.49513 443.82325 449.00654 454.18983 464.56556 474.94129 480.12458 490.5003 500.87605 511.25178 516.43508 520.5799 530.9556 536.1389 546.51467 550.6595 555.8428 559.9876 569.31576 579.69149 583.8363">of writing connects with its readerbase. And, as almost no one intuitively</tspan></text>
<text fill="#eeeeee" xml:space="preserve" transform="matrix(.75 0 0 .75 72 619.3535)" font-size="18.666666" font-family="ArialMT"><tspan y="17.509116" x="0 10.375717 20.751435 31.127152 41.50287 47.715547 57.04367 62.226976 72.60269 82.97841 93.354129 102.68225 107.865558 118.24127 122.38609 126.530918 131.71422 136.89752 147.27324 157.64896 162.83226 169.04494 179.42066 183.56548 193.9412 203.26932 208.45262 218.82834 224.01165 229.19495 242.6679 248.88057 253.02539 258.20869 262.35353 272.72926 283.10499 288.28828 293.47157 303.8473 314.22303 324.59877 328.7436 338.07173 342.21656 352.5923 362.96803 368.1513 373.3346 383.71034 394.08607 409.62687 414.81019 425.1859 430.03199 435.21528 445.591 451.80369 461.1318 466.31513 470.45997 474.6048 479.7881 484.97138 489.1162 499.49195 504.67524 515.05099 525.4267 535.8024 546.17819 551.36148 555.5063 560.6896 565.87289 571.05618">understands all the rules of writing, applying them offers little benefit to</tspan></text>
<text fill="#eeeeee" xml:space="preserve" transform="matrix(.75 0 0 .75 72 651.5508)" font-size="18.666666" font-family="ArialMT"><tspan y="17.509116" x="0 15.540802 25.91652 35.244646 40.427949 45.61125 51.82393 62.199647 72.57536 82.95108 93.3268 99.539478 108.8676 114.0509 124.42662 130.6393 135.8226 149.29555 155.50823 159.65305 164.83635 175.21207 181.42475 190.75287 195.93618 201.11948 214.59243 224.96814 235.34386 245.71958 249.8644 260.2401 270.61585 275.79914 280.98243 291.35816 295.503 304.83113 310.0144 320.39015 326.6028 331.78614 335.93098 345.2591 349.40394 359.77967 364.96296 380.50376 390.87947 401.2552 411.63093 416.8142 432.355 442.7307 447.914 454.12669 464.50239 474.8781 479.02296 483.1678 492.4959 502.87165 508.05494 513.2382 517.38308 527.7588 532.9421 543.3178 548.5011 561.97409 572.3498 581.6779 586.8612 597.23696 607.6127">most readers or writers. Reading this article made me realize, in a way not</tspan></text>
<text fill="#eeeeee" xml:space="preserve" transform="matrix(.75 0 0 .75 72 683.74807)" font-size="18.666666" font-family="ArialMT"><tspan y="17.509116" x="0 10.375717 20.751435 24.896256 30.07956 40.455278 45.63858 54.966707 59.111528 74.65233 78.79715 82.94197 93.31769 99.530368 104.71367 109.89697 120.27269 125.45599 137.89957 148.27529 157.60341 161.74823 172.12395 177.30725 190.7802 201.15592 210.48404 219.81217 230.18788 234.3327 238.47753 242.28511 251.61324 256.79655 267.17225 273.38493 278.56825 282.71308 292.0412 296.18605 306.56178 311.74507 316.92835 322.11164 332.48738 342.8631 348.0464 353.22969 366.70265 372.9153 377.06013 382.2434 386.38825 396.76399 407.1397 412.323 416.46784 425.79597 430.97926 441.35499 451.7307 456.914 462.0973 466.24214 476.61787 485.94599 491.12928 496.31257 506.6883 517.064 527.43978 537.8155 542.9988 548.18209 553.36538 563.7411 567.8859 572.03079 582.4065 595.87948 600.0243 610.4">quite similar to Kevin Cassell&#x2019;s article, that writing is not just about following</tspan></text>
</g>
</svg>
