<?xml version="1.0" encoding="UTF-8" standalone="no"?>
<!DOCTYPE svg PUBLIC "-//W3C//DTD SVG 1.1//EN" "http://www.w3.org/Graphics/SVG/1.1/DTD/svg11.dtd">
<svg xmlns="http://www.w3.org/2000/svg" xmlns:xlink="http://www.w3.org/1999/xlink" version="1.1" width="612pt" height="792pt" viewBox="0 0 612 792">
<g enable-background="new">
<path transform="matrix(.75,0,0,.75,0,0)" d="M 0 0 L 816 0 L 816 1056 L 0 1056 Z " fill="#0097a7"/>
<text fill="#eeeeee" xml:space="preserve" transform="matrix(.75 0 0 .75 72 72)" font-size="18.666666" font-family="ArialMT"><tspan y="17.509116" x="0 6.212677 16.588395 20.733216 31.108933 40.437059 45.62036 55.99608 61.179384 66.362689 76.7384 82.95108 93.3268 108.8676 124.4084 134.78412 139.96685 145.15015 150.33345 155.51676 165.89247 171.07578 176.25908 186.6348 195.96292 201.14623 206.32953 211.51284 216.69614 227.07186 232.25516 238.46784 248.84355 259.21928 268.5474 278.9231 284.10639 299.6472 308.9753 314.15864 324.53437 334.9101 345.28584 349.43067 358.7588 363.94209 374.3178 379.5011 384.6844 395.06013 405.43586 414.76399 425.1397 440.6805 444.82533 455.20106 465.57679 470.76008 481.1358 491.51155 496.69483 507.07057 511.91664 517.0999 527.47567 536.8038 541.98709 546.1319 555.46 565.83578 571.01907 584.492 590.7047 594.84957 600.03286 610.40859">rules of grammar. In fact, to reach my goals of becoming an effective writer</tspan></text>
<text fill="#eeeeee" xml:space="preserve" transform="matrix(.75 0 0 .75 72 104.197269)" font-size="18.666666" font-family="ArialMT"><tspan y="17.509116" x="0 4.144821 14.520538 19.703843 30.07956 40.455278 45.63858 56.014299 61.1976 71.57332 81.949039 91.27716 95.42198 105.7977 116.173419 125.50154 134.82967 140.01297 150.38869 160.7644 171.14012 176.32343 185.65155 196.02727 205.3554 215.73111 226.10683 230.25165 235.43495 244.76308 255.1388 260.32209 265.50538 269.6502 280.02595 290.40168 299.7298 304.9131 310.09638 315.27967 325.6554 329.80024 333.94508 344.3208 357.79377 361.9386 372.31434 382.69007 387.87336 398.24909 404.46177 414.83747 430.37828 445.91908 456.2948 462.50749 467.6908 473.90348 484.27919 488.424 498.79975 508.12788 513.31118 526.7841 537.15988 547.5356 551.6804 562.05618 567.23947 577.6152 587.9909 593.1742 598.3575 608.7332">in both business and casual settings, following grammar rules would not be</tspan></text>
<text fill="#eeeeee" xml:space="preserve" transform="matrix(.75 0 0 .75 72 136.39453)" font-size="18.666666" font-family="ArialMT"><tspan y="17.509116" x="0 15.540802 25.91652 35.244646 45.62036 50.803667 61.179384 66.362689 71.54599 81.92171 87.10501 97.48073 107.856449 112.00127 122.37698 127.56029 132.74359 137.9269 148.30261 157.63074 162.81404 173.18976 183.56548 193.9412 199.1245 204.3078 209.4911 214.67441 218.81923 229.19495 239.57067 245.78334 256.15907 266.5348 276.91053 282.0938 287.2771 297.65284 308.02857 313.21186 318.39515 323.57844 328.76173 338.08985 348.46559 358.8413 369.21705 373.36189 383.7376 388.9209 399.29664 408.62477 419.0005 424.18379 428.3286 438.70436 449.08009 459.4558 469.83155 480.20729 490.583 500.95875 506.14204 511.32533 521.70108 526.88436 536.21249 542.4252 552.8009 563.17666 568.3599 578.73568 583.91897">much of a help. Instead, I learned that I should use language to create a</tspan></text>
<text fill="#eeeeee" xml:space="preserve" transform="matrix(.75 0 0 .75 72 168.5918)" font-size="18.666666" font-family="ArialMT"><tspan y="17.509116" x="0 10.375717 20.751435 30.07956 34.22438 40.437059 50.812776 61.18849 66.371799 72.58447 82.96019 93.33591 98.51921 108.89493 115.107608 119.252429 128.58055 138.95627 143.10109 148.2844 158.66011 163.50618 168.68949 179.0652 188.39333 193.57663 198.75994 202.90476 213.28047 222.6086 227.7919 238.16762 248.54334 258.91908 264.10237 269.28565 279.66139 290.0371 294.18196 304.55769 314.9334 320.1167 330.49244 340.86817 351.2439 355.38874 365.76448 375.0926 380.27589 385.45918 395.8349 402.04759 412.42329 427.96409 443.50489 453.8806 460.0933 465.2766 471.4893 481.865 486.00984 496.38557 505.71369 510.89698 515.0418 525.41757 530.6008 539.92898 550.3047 559.6328 570.00857">desired rhetorical effect instead, going against grammar rules in cases</tspan></text>
<text fill="#eeeeee" xml:space="preserve" transform="matrix(.75 0 0 .75 72 200.78907)" font-size="18.666666" font-family="ArialMT"><tspan y="17.509116" x="0 13.472946 23.848664 34.22438 40.437059 50.812776 55.99608 60.1409 65.3242 70.50751 86.04831 96.42403 106.79974 117.17546 122.358768 137.89957 147.22769 152.411 165.88394 172.09662 176.24144 181.42475 185.56957 195.94528 206.321 211.5043 220.83243 224.97725 235.35297 245.72869 251.94136 262.31709 268.52976 273.71308 284.0888 290.30149 295.4848 311.0256 321.4013 327.61399 337.9897 343.17298 347.3178 362.8586 373.2343 383.61006 392.93818 398.12147 403.30476 413.68049 417.82533 423.0086 427.85469 439.25068 449.6264 453.77125 463.09938 468.28266 472.4275 481.7556 486.9389 497.31465 506.64277 517.0185 527.3942 536.72238 540.8672 551.2429 555.38778 559.5326">where it made my writing clearer or more impactful. This is especially</tspan></text>
<text fill="#eeeeee" xml:space="preserve" transform="matrix(.75 0 0 .75 72 232.98633)" font-size="18.666666" font-family="ArialMT"><tspan y="17.509116" x="0 4.144821 19.685624 30.06134 40.437059 46.649736 51.83304 62.208757 72.58447 77.76778 82.95108 88.134387 98.5101 104.72278 109.90608 125.446887 135.8226 141.0059 151.38162 161.75734 171.08547 181.46118 191.8369 201.16503 211.54074 216.72405 227.09976 236.42789 241.61119 251.98691 257.17024 270.6432 281.01893 296.55973 306.93544 317.31117 322.49446 332.87019 339.08287 344.26618 356.70976 366.03788 370.18269 380.5584 390.93415 400.26228 410.638 415.8213 431.3621 441.7378 445.88264 456.25837 462.47105 467.65437 472.83766 478.02095 491.4939 495.63874 499.78358 503.9284 509.1117 519.4874 529.86318 535.04647 548.5194 554.73208 558.8769 564.0602 568.205 578.58078">important for me because as a Computer Science Major I will be writing</tspan></text>
<text fill="#eeeeee" xml:space="preserve" transform="matrix(.75 0 0 .75 72 265.1836)" font-size="18.666666" font-family="ArialMT"><tspan y="17.509116" x="0 10.375717 20.751435 30.07956 40.455278 55.99608 66.371799 76.74751 81.93082 92.30653 97.48984 101.63466 112.010379 122.38609 127.5694 141.04235 145.18717 150.37047 160.74619 165.92949 171.1128 181.48851 191.86423 197.04753 207.42325 216.75138 227.12709 233.33977 243.71549 253.04361 262.37174 267.55506 277.9308 288.30653 294.5192 304.8949 315.27064 324.59877 334.9745 340.15779 350.5335 355.7168 360.9001 371.27583 380.60395 390.97969 395.1245 405.50025 409.64509 420.0208 424.16566 434.54139 444.9171 450.1004 459.42854 469.80427 480.18 484.32484 488.46968 498.8454 509.22114 519.59689 523.7417 534.11746">documentation with the express purpose of explaining challenging</tspan></text>
<text fill="#eeeeee" xml:space="preserve" transform="matrix(.75 0 0 .75 72 297.38087)" font-size="18.666666" font-family="ArialMT"><tspan y="17.509116" x="0 9.328125 19.703843 30.07956 39.407686 49.7834 60.15912 65.34242 74.67055 79.85385 85.037158 98.5101 102.65492 107.83823 118.21394 123.39725 133.77297 144.14868 149.33199 159.7077 165.92038 176.2961 191.8369 207.3777 217.75342 223.9661 229.1494 239.52512 249.90084 254.04566 258.1905 267.51863 277.89436 283.07765 287.22248 297.5982 302.7815 312.10963 316.25447 326.6302 337.00593 342.1892">concepts, with no grammar police in sight.</tspan></text>
<text fill="#eeeeee" xml:space="preserve" transform="matrix(.75 0 0 .75 72 329.57814)" font-size="18.666666" font-family="ArialMT"><tspan y="17.509116" x="48 59.39598 69.7717 75.984378 86.36009 96.73581 107.11153 117.48724 122.67055 139.94197 146.15465 150.29947 155.48278 159.6276 170.00331 180.37903 185.56233 195.93805 201.12136 206.30466 211.48796 216.67127 227.04698 237.4227 246.75083 257.12654 262.3098 272.68556 283.06129 292.3894 302.76515 318.3059 328.68165 333.86494 344.24067 349.42396 364.96476 375.34046 381.55314 391.92884 397.11213 406.44026 416.81599 427.1917 432.375 436.51985 446.89558 457.2713 467.64704 472.83033 478.0136 491.48658 497.69926 501.84407 507.02735 517.4031 522.5858 527.7691 532.9524 538.1357 543.319 553.6947 564.07046">Through Writing 2, I have become a more confident writer. I now</tspan></text>
<text fill="#eeeeee" xml:space="preserve" transform="matrix(.75 0 0 .75 72 361.7754)" font-size="18.666666" font-family="ArialMT"><tspan y="17.509116" x="0 10.375717 20.751435 24.896256 29.041077 39.416795 48.74492 59.120637 64.30394 69.48724 79.86296 90.23868 95.42198 100.605289 105.78859 110.97189 121.34761 131.72333 141.05146 151.42717 156.61048 161.79378 172.1695 182.54521 187.72852 198.10424 208.47995 213.66326 224.03897 234.41469 239.59799 243.74282 254.11853 258.26338 263.44667 268.62995 279.00569 284.18898 293.5171 303.89283 319.43363 334.97444 345.35017 355.7259 359.87074 369.19886 379.5746 384.75788 395.1336 400.3169 409.64503 420.02076 430.39649 439.7246 443.86946 453.19758 463.5733 467.71815 477.04627 482.22956 492.6053 502.98103 513.35678 518.54006 528.9158 533.76187 538.9451 549.32089 558.649 563.8323 567.9771 577.30526 587.68099 591.8258 601.15396 606.3372 610.48208">believe that I have the potential to communicate concisely and effectively in</tspan></text>
<text fill="#eeeeee" xml:space="preserve" transform="matrix(.75 0 0 .75 72 393.97267)" font-size="18.666666" font-family="ArialMT"><tspan y="17.509116" x="0 10.375717 20.751435 25.934739 36.310457 41.49376 50.821886 61.1976 70.52573 80.90144 91.27716 95.42198 100.605289 110.981 121.35672 131.73244 136.91574 147.29146 153.50414 163.87985 169.06316 179.43888 188.767 198.09513 202.23995 212.61566 222.99138 233.3671 237.51192 242.69522 252.02335 262.39906 267.58235 272.76564 276.91047 287.2862 297.66194 306.99006 312.17335 317.35664 327.73237 338.1081 348.48384 353.6671 367.14009 371.2849 375.42976 379.5746 384.75788 394.086 404.46174 414.83747 420.02076 424.1656 434.54133 444.91706 455.2928 460.47608 465.65937 476.0351 481.21839 491.59413 497.8068 508.1825 517.5106 522.6939 526.83877 536.1669 546.5426 551.7259 556.9092 567.2849">both casual and professional settings, and will continue to practice the</tspan></text>
<text fill="#eeeeee" xml:space="preserve" transform="matrix(.75 0 0 .75 72 426.16993)" font-size="18.666666" font-family="ArialMT"><tspan y="17.509116" x="0 4.144821 14.520538 24.896256 35.271974 44.600099 49.7834 54.966707 61.179384 71.5551 87.0959 92.279209 97.46251 107.83823 111.98305 121.31117 126.49448 135.8226 139.96743 150.34314 159.67127 168.99939 174.1827 184.55841 194.93413 205.30985 210.49315 220.86887 231.24459 240.57271 250.94843 255.09325 265.46897 275.84468 281.02796 296.56877 305.89689 311.0802 324.55317 330.76585 334.91065 340.09394 344.23878 354.6145 364.99024 370.17353 379.50166 388.82978 392.9746 397.11946 401.26429 410.5924 415.7757 420.95899 431.33473 436.518 452.0588 462.4345 472.81025 477.99354 483.17683 488.3601 498.73585 509.11158 514.29489 519.47817 529.8539 540.2296 550.60537 554.7502 559.9335 565.11679 582.7254 593.10116 597.246 601.3908">ideas from this class and develop my writing skills to meet that goal. While</tspan></text>
<text fill="#eeeeee" xml:space="preserve" transform="matrix(.75 0 0 .75 72 458.3672)" font-size="18.666666" font-family="ArialMT"><tspan y="17.509116" x="0 10.375717 20.751435 25.934739 36.310457 42.523134 52.89885 58.082155 63.265459 73.641178 82.9693 87.11412 97.48984 107.865558 113.04886 118.23216 128.60788 132.7527 142.08083 147.26413 156.59226 160.73708 171.1128 180.44092 189.76905 194.95235 200.13565 205.31896 214.64708 218.7919 229.16762 242.64057 253.01628 263.392 268.57533 282.04829 288.26097 292.40577 297.58906 301.7339 312.10963 322.48536 327.66865 338.04438 347.3725 352.5558 362.93153 373.30726 378.49055 388.86628 395.07896 400.26228 405.44557 410.62886 421.00459 427.21726 442.75807 447.94136 453.12464 463.50038 473.8761 479.0594 484.24269 497.71565 508.09138 517.4195 527.7952 531.94009 537.12338 542.30667 557.8474 568.22317 578.5989 588.9746 594.1579 599.3412 604.5245 614.9002">before taking this class I viewed writing as an art form that wasn&#x2019;t meant for</tspan></text>
<text fill="#eeeeee" xml:space="preserve" transform="matrix(.75 0 0 .75 72 490.56446)" font-size="18.666666" font-family="ArialMT"><tspan y="17.509116" x="0 15.540802 25.91652 31.099823 36.283128 41.46643 46.649736 57.02545 67.40117 80.874118 86.05742 95.385547 105.76126 116.13698 121.32028 125.4651 130.6484 135.83171 146.20743 155.53556 160.71886 171.09458 176.27788 185.606 195.98172 206.35744 215.68556 226.06128 232.27396 241.60208 251.9778 257.1611 261.3059 271.68165 282.05738 287.24067 297.6164 307.99214 313.1754 326.64839 337.0241 347.39985 357.77558 362.95887 376.43183 382.6445 386.7893 391.9726 402.34834 408.561 413.74433 424.12007 434.4958 444.87153 450.0548 456.2675 466.6432 477.01893 487.39466 497.7704 503.98307 509.16639 514.3497 524.7254 535.10116 540.2844 545.4677 549.61257 558.9407 564.12399 574.4997">me, I now see it as a conversation between writer and reader that is as</tspan></text>
<text fill="#eeeeee" xml:space="preserve" transform="matrix(.75 0 0 .75 72 522.7617)" font-size="18.666666" font-family="ArialMT"><tspan y="17.509116" x="0 10.375717 15.2217869 20.40509 30.780808 40.108934 45.292238 49.437059 58.765184 69.1409 74.3242 84.69992 95.07564 105.451358 110.63466 114.77948 130.32028 140.696 151.07172 160.39984 165.58315 170.76645 181.14217 185.28699 190.47029 200.84601 210.17414 215.35744 225.73316 230.91646 237.12914 247.50485 257.88056 268.2563 278.63203 284.8447 290.028 300.40376 310.77949 316.99217 326.32029 336.69599 340.84083 350.16896 360.54469 369.8728 375.0561 379.20094 384.38423 389.5675 399.94325 409.27137 414.45466 419.63795 424.82124 430.00453 440.38026 450.75599 461.1317 471.50746 477.72013 487.04826 492.23158 502.6073 512.98306 523.35879 528.54208 533.72537 544.1011 554.4768 559.6601 564.8434 578.31637 588.6921 599.0678">effective and impactful as a reader perceives it as. I understand that what</tspan></text>
<text fill="#eeeeee" xml:space="preserve" transform="matrix(.75 0 0 .75 72 554.959)" font-size="18.666666" font-family="ArialMT"><tspan y="17.509116" x="0 10.375717 20.751435 25.934739 36.310457 42.523134 58.063936 62.208757 72.58447 82.96019 92.288318 97.47162 101.61644 106.79974 111.98305 127.52385 136.85198 142.03528 155.50823 161.7209 165.86573 171.04903 175.19385 185.56957 195.94528 201.12859 205.2734 214.60153 219.78484 229.11296 239.48868 248.8168 258.14494 268.52064 277.84877 287.17689 292.36018 302.7359 306.88075 312.06404 316.20887 325.537 330.72029 341.096 351.47175 356.65504 361.83833 372.21406 382.58979 396.06275 401.24604 416.78684 427.16255 437.53828 446.8664 452.04969 462.4254 468.6381 479.0138 494.5546 510.0954 520.4711 526.68386 531.8671 538.07986 548.45559 552.6004 562.97616 572.30429 577.48757">determines if my writing is successful is not how many grammar rules I</tspan></text>
<text fill="#eeeeee" xml:space="preserve" transform="matrix(.75 0 0 .75 72 587.15628)" font-size="18.666666" font-family="ArialMT"><tspan y="17.509116" x="0 5.183304 15.559021 19.703843 23.848664 34.22438 46.667375 51.850679 57.03398 67.4097 77.785419 82.96872 88.15202 92.296848 101.62497 106.80827 110.953098 121.32881 130.65694 135.84024 146.21596 156.59168 166.96739 172.1507 182.52642 192.90213 202.23026 212.60597 222.98169 228.165 238.54071 248.91643 254.09973 264.47547 274.8512 288.32417 293.50746 299.72013 310.09584 320.47157 330.8473 341.22303 347.4357 356.76383 361.94715 372.32289 382.6986 388.9113 398.2394 408.6151 412.75996 422.08808 432.4638 437.6471 453.1879 462.51603 467.69935 473.91203 484.28773 494.66346 499.84675 510.22248 516.4352 520.58 529.90817 540.2839 544.4287 549.612 559.98776 564.8338 570.0171 580.3928 589.72097">follow, but is instead based on how readers perceive my rhetorical effect</tspan></text>
<text fill="#eeeeee" xml:space="preserve" transform="matrix(.75 0 0 .75 72 619.3535)" font-size="18.666666" font-family="ArialMT"><tspan y="17.509116" x="0 10.375717 20.751435 31.127152 36.310457 46.686174 56.014299 60.15912 70.534839 80.91055 91.28627 100.614398 110.99011 116.173419 121.35672 126.54002 131.72333 135.86815 146.24387 156.61959 165.94771 176.32343 181.50673 186.69004 197.06575 201.21057 210.5387 215.722 225.05013 229.19495 239.57067 248.89879 258.22694 263.41023 267.55506 277.9308 288.30653 297.63465 301.77949 312.1552 322.53096 327.71424 332.89753 343.27326 349.48594 362.95887 373.3346 379.54728 389.92298 395.10627 400.28956 410.66529 415.84858 429.32154 435.5342 439.67903 444.8623 449.00715 459.38288 469.7586 474.9419 480.12519 490.50093 499.82905 509.15718 518.4853 523.6686 527.8134 538.18917 543.37246 548.5557 558.93148">and exigence. I leave this class looking forward to writing tasks in the</tspan></text>
<text fill="#eeeeee" xml:space="preserve" transform="matrix(.75 0 0 .75 72 651.5508)" font-size="18.666666" font-family="ArialMT"><tspan y="17.509116" x="0 5.183304 15.559021 20.742325 31.118042 37.33072 47.706438 52.88974 58.073045 68.44876 78.82448 89.200199 99.57591 105.78859 110.97189 121.34761 131.72333 135.86815 141.05146 145.19628 155.57199 164.90012 170.08342 175.26673 185.64244 190.82575 200.15387 210.52959 220.9053 227.11798 237.4937 242.677 258.2178 267.54594 272.72926 277.91255 288.28828 298.664 309.03974 319.41548 329.7912 334.9745 344.3026 349.4859 362.95887 367.1037 372.287 382.66273 387.846 398.22175 403.40504 413.78077 424.1565 430.36918 439.6973 444.8806 455.25636 465.63209 476.0078 481.1911 491.56684 501.94258 506.0874 516.46316 521.6464 526.8297 537.20547 547.5812 557.9569 568.33267 578.7084 588.0365">future; opportunities to share my thoughts with others and gain feedback</tspan></text>
<text fill="#eeeeee" xml:space="preserve" transform="matrix(.75 0 0 .75 72 683.74807)" font-size="18.666666" font-family="ArialMT"><tspan y="17.509116" x="0 5.183304 11.395981 21.771698 37.3125 42.495805 47.679109 58.054826 68.43054 83.971347 89.15465 99.530368 109.90608 115.089389 130.63019 139.95832 145.14162 149.28644 159.66216 170.03787 176.25055 186.62627 197.00199 206.33011 211.51342 216.69672 227.07244 232.25574 242.63146 253.00717 262.3353 272.711 288.2518 298.6275 303.8108 314.18653 319.3698 329.74555 340.12129 345.30458 350.48786 360.8636 367.07627 372.25959 385.73255 391.94523 396.09004 401.27333 411.64906 416.8318">from them on my journey to become a better writer.</tspan></text>
</g>
</svg>
