<?xml version="1.0" encoding="UTF-8" standalone="no"?>
<!DOCTYPE svg PUBLIC "-//W3C//DTD SVG 1.1//EN" "http://www.w3.org/Graphics/SVG/1.1/DTD/svg11.dtd">
<svg xmlns="http://www.w3.org/2000/svg" xmlns:xlink="http://www.w3.org/1999/xlink" version="1.1" width="612pt" height="792pt" viewBox="0 0 612 792">
<g enable-background="new">
<path transform="matrix(.75,0,0,.75,0,0)" d="M 0 0 L 816 0 L 816 1056 L 0 1056 Z " fill="#0097a7"/>
<text fill="#eeeeee" xml:space="preserve" transform="matrix(.75 0 0 .75 72 72)" font-size="18.666666" font-family="ArialMT"><tspan y="17.509116" x="0 13.472946 23.848664 34.22438 40.437059 45.62036 59.093309 69.469028 73.613849 77.75867">Dear Neil,</tspan></text>
<text fill="#eeeeee" xml:space="preserve" transform="matrix(.75 0 0 .75 72 104.197269)" font-size="18.666666" font-family="ArialMT"><tspan y="17.509116" x="48 60.443574 70.81929 74.96411 85.33983 95.715549 100.89885 111.27457 116.45787 126.83359 137.2093 143.42198 148.60529 153.78859 164.1643 169.34761 174.53092 183.85904 194.23476 204.61048 210.82315 216.00646 233.27788 239.49056 243.63538 248.81868 252.9635 263.33924 273.71498 278.89826 289.274 294.45729 303.7854 307.93025 318.30595 327.63407 336.9622 342.14549 352.5212 362.89695 372.22508 377.40837 392.94917 403.32487 413.7006 424.07633 429.2596 444.8004 455.17613 460.3594 470.73515 475.91844 491.45924 501.83494 508.0476 518.42337 523.6066 532.93478 543.3105 553.6862 558.8695 563.01437 573.3901 583.7658 594.14157">Being a part of your Writing 2 class has made me a more confident</tspan></text>
<text fill="#eeeeee" xml:space="preserve" transform="matrix(.75 0 0 .75 72 136.39453)" font-size="18.666666" font-family="ArialMT"><tspan y="17.509116" x="0 10.375717 20.751435 31.127152 36.310457 45.63858 56.014299 66.390018 79.86296 84.00778 94.3835 104.75922 115.13493 125.51065 135.88637 146.26209 150.4069 160.78263 165.96593 179.43888 185.65155 189.79637 194.97968 205.3554 210.53812 215.72142 220.56749 231.96347 242.33919 248.55187 258.92759 269.30329 279.67903 290.05476 295.23805 300.42134 310.79707 321.1728 326.35609 332.56877 342.94447 353.3202 363.69593 367.84077 378.2165 388.59223 397.92036 403.10365 413.47938 423.8551 434.23085 439.41413 449.78987 453.9347 463.26283 472.59095 482.96669 492.2948 501.62294 505.76777 516.1435 526.5192 535.84738 541.03067 551.4064 556.58969 561.77297 566.95626 577.332">and knowledgeable writer. Through the readings and discussions of the</tspan></text>
<text fill="#eeeeee" xml:space="preserve" transform="matrix(.75 0 0 .75 72 168.5918)" font-size="18.666666" font-family="ArialMT"><tspan y="17.509116" x="0 9.328125 13.472946 23.848664 33.17679 42.504915 47.688219 52.87152 58.054826 63.23813 67.38295 77.75867 88.134387 94.34706 104.72278 115.098499 125.47421 130.65752 135.84082 146.21654 156.59226 161.77556 166.95886 180.43181 186.64449 190.7893 195.97261 200.11743 210.49315 220.86887 226.05217 230.19699 239.52512 244.70842 255.08414 260.26747 270.6432 276.85588 287.23158 296.5597 306.93544 316.26356 325.59169 330.77497 335.95826 341.14155 346.32484 350.46968 360.8454 371.22114 377.4338 387.8095 398.18525 408.56098 413.74427 424.12 434.49574 447.9687 453.15199 466.62495 472.83763 476.98243 482.1657 486.31056 496.68629 507.062 512.2453 522.62106 532.99679 543.3725 552.7006 557.8839 568.25967 578.6354">class, I learned that writing is a process. I learned how writing does not</tspan></text>
<text fill="#eeeeee" xml:space="preserve" transform="matrix(.75 0 0 .75 72 200.78907)" font-size="18.666666" font-family="ArialMT"><tspan y="17.509116" x="0 10.375717 19.703843 23.848664 33.17679 38.360094 43.543397 47.688219 58.063936 63.24724 73.622959 78.80626 88.134387 98.5101 107.83823 118.21394 128.58966 144.13047 149.31377 154.49707 164.87279 175.2485 180.43181 185.61511 189.75994 200.13565 209.46378 214.64708 225.0228 235.39852 245.77423 250.95754 255.10236 265.4781 270.66139 281.0371 287.2498 297.6255 306.9536 312.1369 321.46504 326.64833 340.12129 344.2661 349.4494 359.82514 365.00843 374.33656 384.71229 400.25309 410.62879 414.77363 425.14936 434.47749 439.66078 450.0365 459.36463 469.74037 480.1161 490.49183 506.03263 510.17744">exist in a vacuum, but instead interacts with complex academic</tspan></text>
<text fill="#eeeeee" xml:space="preserve" transform="matrix(.75 0 0 .75 72 232.98633)" font-size="18.666666" font-family="ArialMT"><tspan y="17.509116" x="0 9.328125 19.703843 30.07956 39.407686 49.7834 55.99608 65.3242 75.69992 80.883228 85.028049 95.40376 105.77948 115.107608 120.29091 130.66663 141.04235 151.41806 156.60137 166.97708 171.1219 180.45003 189.77816 200.15387 210.52959 216.74227 226.07039 236.4461 241.62941 250.95754 261.33326 276.87406 292.41487 302.7906 313.16633 317.31117 322.49446 326.63929 337.015 346.34315 351.52644 356.70973 372.25053 381.57865 386.76197 391.94526 396.0901 402.30278 411.6309 416.8142 421.9975 435.47047 441.68315 445.82795 451.01124 455.15608 465.5318 475.90754 481.09083 491.46656 497.67924 508.05494 512.19979 522.5755 531.9036 537.0869 542.2702 547.4535 553.66616 564.0419 574.4176 583.7457 587.89059 598.2663 603.4496 613.8253">conversations and discourse communities. My first writing project translates</tspan></text>
<text fill="#eeeeee" xml:space="preserve" transform="matrix(.75 0 0 .75 72 265.1836)" font-size="18.666666" font-family="ArialMT"><tspan y="17.509116" x="0 10.375717 20.751435 25.934739 36.310457 45.63858 56.014299 66.390018 76.76573 92.30653 96.451358 105.77948 110.96278 121.3385 127.55118 132.73448 136.8793 146.20743 150.35225 160.72797 165.91127 172.12395 182.49967 192.87538 203.2511 209.46378 214.64708 218.7919 229.16762 239.54334 244.72664 255.10236 265.4781 270.66139 275.84468 286.2204 296.59614 301.77943 312.15516 318.36784 328.74354 338.07167 348.4474 352.59223 362.96797 373.3437 382.6718 393.04756 398.23085 408.60658 413.78987 418.97315 429.34889 433.4937 442.82185 448.00514 454.2178 464.5935 473.92164 479.10493 489.48066 499.85639 505.03968 515.4154 519.56027 528.88839 533.0332 543.40896 553.78469 558.96798 564.15127 569.33456 579.71029 584.89358">an academic article reporting on the prevalence of distracted biking, to a</tspan></text>
<text fill="#eeeeee" xml:space="preserve" transform="matrix(.75 0 0 .75 72 297.38087)" font-size="18.666666" font-family="ArialMT"><tspan y="17.509116" x="0 10.375717 20.751435 30.07956 35.262865 45.63858 51.851259 57.03456 67.41028 77.785999 87.11412 97.48984 103.702518 108.88582 113.03064 122.358768 126.503589 136.8793 147.25502 152.43833 162.81404 167.99735 172.14217 182.51789 192.8936 203.26932 207.41414 212.59745 222.97316 229.18584 239.56156 249.93727 260.313 269.6411 273.78596 278.96925 283.11408 293.4898 303.86555 309.04884 314.23213 324.60786 334.98359 340.16688 345.35017 349.495 365.0358 375.4115 379.55635 389.93208 405.47288 415.84858 426.2243 431.4076 440.73573 445.919 451.1023 461.47804 471.85377 477.03706 486.36518 496.7409 500.88575 511.26148 516.44479 520.5896 530.96536 541.34109 550.6692 555.8525 566.2282 576.60397 581.78726 585.93209 590.0769 600.45266 610.82839">poster advertising a legal proposition that implements the solutions outlined</tspan></text>
<text fill="#eeeeee" xml:space="preserve" transform="matrix(.75 0 0 .75 72 329.57814)" font-size="18.666666" font-family="ArialMT"><tspan y="17.509116" x="0 10.375717 19.703843 24.887146 30.07045 40.446168 50.821886 56.005189 66.380908 72.59358 77.776889 81.92171 91.24983 95.39465 105.77037 110.953678 116.13698 121.32028 131.696 136.8793 152.4201 161.74823 166.93154 176.25966 186.63538 195.9635 206.33922 216.71494 227.09066 232.27396 245.7469 251.95958 256.1044 261.28773 265.43257 275.8083 286.18403 291.3673 301.74305 307.95573 318.33143 322.47627 332.852 342.1801 347.3634 352.5467 357.72999 362.91328 368.09657 377.42469 382.60798 392.9837 403.35945 413.73518 424.1109 434.48664 439.66993 443.81477 454.1905 459.37379 469.7495 474.9328 485.30854 490.49183 500.86756 505.0124 514.3405 523.66867 534.0444 544.4201 550.6328 559.96096">by the article. In my second writing project, I stepped into a discourse</tspan></text>
<text fill="#eeeeee" xml:space="preserve" transform="matrix(.75 0 0 .75 72 361.7754)" font-size="18.666666" font-family="ArialMT"><tspan y="17.509116" x="0 9.328125 19.703843 35.244646 50.785448 61.161165 71.53688 75.6817 80.865009 90.19313 95.376438 105.75215 116.12787 126.503589 136.8793 142.0626 147.24591 152.42922 162.80493 173.18065 178.36396 188.73967 198.0678 208.44351 218.81923 229.19495 234.37825 244.75397 255.12969 265.5054 270.68873 280.01686 290.39259 294.5374 304.91316 315.28889 320.47218 330.8479 336.0312 341.21449 351.5902 361.96595 372.34169 381.6698 392.04554 402.42127 407.60456 417.9803 422.12513 427.3084 437.68415 447.01228 451.1571 461.53285 471.90858 482.2843 491.61244 501.98817 507.17146 511.31629 521.692 526.8753 540.34829 546.5609 550.70578 555.88906 560.0339 570.4096 580.78536">community about the usage and value of anecdotal evidence in writing,</tspan></text>
<text fill="#eeeeee" xml:space="preserve" transform="matrix(.75 0 0 .75 72 393.97267)" font-size="18.666666" font-family="ArialMT"><tspan y="17.509116" x="0 10.375717 14.520538 24.896256 34.22438 38.3692 48.74492 59.120637 64.30394 68.44876 78.82448 89.200199 93.34502 102.67314 106.81796 117.19368 127.5694 137.94512 142.08994 147.27324 156.60137 166.97708 177.3528 182.5361 188.74878 192.8936 203.26932 213.64504 218.82834 222.97316 233.34888 243.7246 253.05272 258.23603 263.4193 269.632 280.0077 295.5485 300.7318 305.9151 316.29084 326.66658 331.84986 342.2256 346.37043 355.69856 365.02668 375.4024 385.77815 391.9908 401.31895 411.69465 416.87794 426.20606 436.5818 452.1226 467.6634 478.03913 488.41487 492.5597 497.74299 507.0711 512.2544 516.39926 526.77499 531.95828 542.334 547.5173 552.70059 563.0763">placing individual contributions from the discourse community into the</tspan></text>
<text fill="#eeeeee" xml:space="preserve" transform="matrix(.75 0 0 .75 72 426.16993)" font-size="18.666666" font-family="ArialMT"><tspan y="17.509116" x="0 10.375717 20.751435 31.127152 37.33983 47.715547 52.89885 63.274568 68.45787 73.641178 84.01689 94.39261 99.57591 103.72073 114.09645 119.279758 129.65547 135.86815 146.24387 156.61959 161.80289 166.98619 177.36191 181.50673 190.83486 200.16298 210.5387 219.86682 229.19495 233.33977 243.71549 254.0912">genre of an internet discussion.</tspan></text>
<text fill="#eeeeee" xml:space="preserve" transform="matrix(.75 0 0 .75 72 458.3672)" font-size="18.666666" font-family="ArialMT"><tspan y="17.509116" x="48 53.183305 63.55902 68.742328 84.28313 93.61125 98.794559 108.12268 118.4984 127.82652 138.20224 148.57796 158.95368 164.13698 174.5127 180.72537 191.10109 196.2844 201.4677 206.651 217.02672 222.21002 227.39333 244.66475 250.87743 255.02225 260.20558 264.3504 274.72615 285.10188 290.28517 302.72874 308.9414 319.31715 323.46199 333.8377 343.16584 348.34913 353.5324 368.04383 378.41957 388.7953 393.97859 399.16188 404.34516 409.52845 423.0014 433.37715 442.70527 447.88856 458.26429 468.64 477.96815 488.34388 494.55656 504.93226 510.11555 520.4913 530.867 541.24276 551.61849 556.80178 561.98507 575.458 585.83377 596.2095">In my second draft of Writing Project One, I was unsure about what</tspan></text>
<text fill="#eeeeee" xml:space="preserve" transform="matrix(.75 0 0 .75 72 490.56446)" font-size="18.666666" font-family="ArialMT"><tspan y="17.509116" x="0 5.183304 14.511429 24.887146 35.262865 40.446168 50.821886 56.005189 61.18849 71.56421 81.939929 91.26805 101.64377 107.856449 113.03975 117.18457 126.512699 136.88842 152.42922 162.80493 173.18065 178.36396 183.54726 188.73056 193.91387 207.38681 217.76253 228.13825 233.32155 243.69727 254.07299 259.2563 264.43959 274.8153 279.9986 289.32673 295.5394 305.9151 316.29084 321.47413 331.84986 337.03315 341.8792 353.2752 363.65095 367.79579 377.1239 382.3072 391.6353 402.01106 412.38679 421.7149 432.09065 442.46638 447.64967 463.19047 472.5186 477.7019 482.8852 493.26094 503.63667 514.0124 524.3881 534.76388 539.94717 549.27529 554.45858 564.8343 575.21 580.3933 585.5766 595.95236">type of advertisement I wanted to create. This caused my thoughts on the</tspan></text>
<text fill="#eeeeee" xml:space="preserve" transform="matrix(.75 0 0 .75 72 522.7617)" font-size="18.666666" font-family="ArialMT"><tspan y="17.509116" x="0 10.375717 16.588395 26.964112 31.108933 41.48465 50.812776 55.99608 61.179384 66.362689 76.7384 81.92171 92.297428 102.67314 107.856449 118.23216 122.37698 126.521808 131.70511 142.08083 151.40895 161.78467 167.99735 173.18065 178.36396 188.73967 199.11539 204.29869 214.67441 218.81923 229.19495 238.52307 248.89879 254.08209 259.26539 265.47807 275.85377 285.1819 295.55763 299.70246 304.88575 309.03059 319.4063 329.78205 334.96534 339.11018 349.4859 354.6692 365.04493 370.2282 379.55635 389.93208 399.2602 409.63594 420.01167 430.3874 435.57069 445.9464 452.1591 462.5348 467.71809 472.90138 478.08467 483.26795 493.64369 504.0194 509.2027 514.386 527.85897 538.2347 547.5628 552.7461 563.1218 573.49758">project to be all over the place, resulting in a second draft that was not</tspan></text>
<text fill="#eeeeee" xml:space="preserve" transform="matrix(.75 0 0 .75 72 554.959)" font-size="18.666666" font-family="ArialMT"><tspan y="17.509116" x="0 10.375717 20.751435 31.127152 37.33983 41.48465 50.812776 55.99608 66.371799 75.69992 80.883228 86.06653 96.442249 105.77037 116.14609 125.47421 135.84993 146.22565 151.40895 161.78467 171.1128 176.2961 181.4794 186.6627 197.03842 207.41414 217.78986 222.97316 233.34888 243.7246 254.10031 264.476 274.85176 280.03504 285.21833 295.59407 301.80674 306.99006 311.1349 316.31819 321.50148 326.68476 337.0605 342.24378 352.6195 362.99525 368.17854 373.36183 378.5451 383.7284 388.91169 402.38465 412.76039 422.0885 427.2718 432.45509 442.8308 453.20655 458.38984 471.8628 482.23854 488.4512 498.8269 508.15504 513.3383 518.5216 528.89736 534.0806 544.45639 554.8321 560.0154 570.3911 580.76687 590.095 594.2398 598.38467">nearly as focused as I had hoped for it to be. It was too wordy to be easily</tspan></text>
<text fill="#eeeeee" xml:space="preserve" transform="matrix(.75 0 0 .75 72 587.15628)" font-size="18.666666" font-family="ArialMT"><tspan y="17.509116" x="0 9.328125 18.65625 22.801072 38.341875 53.882677 64.25839 74.63411 79.81741 90.19313 99.521259 104.70456 115.08028 125.45599 135.83171 146.20743 150.35225 160.72797 165.91127 176.28699 186.6627 195.99083 205.31896 209.46378 219.8395 230.21521 235.39852 245.77423 255.10236 260.28565 264.43049 269.61378 274.79707 288.27003 298.64576 302.7906 306.93544 317.31117 322.49446 331.82258 335.9674 351.5082 361.8839 366.02876 371.21205 381.58778 391.9635 402.33924 412.71498 423.0907 432.41883 436.56367 445.89179 451.07508 455.2199 465.59565 474.92378 484.2519 488.39674 498.77247 509.1482 514.3315 524.7072 535.08297 545.4587 555.8344 566.21017">skimmed by people passing by it while simultaneously lacking enough</tspan></text>
<text fill="#eeeeee" xml:space="preserve" transform="matrix(.75 0 0 .75 72 619.3535)" font-size="18.666666" font-family="ArialMT"><tspan y="17.509116" x="0 4.144821 14.520538 19.703843 30.07956 36.292238 51.83304 62.208757 67.39206 71.53688 81.9126 92.288318 97.47162 102.65492 113.03064 118.21394 128.58966 138.96538 145.17806 155.55377 165.92949 172.14217 177.32547 186.6536 197.02931 207.40503 217.78075 228.15647 234.36914 239.55245 244.73575 249.91905 260.29478 266.50746 271.69075 276.87403 287.24977 297.6255 302.80879 306.9536 317.32936 330.8023 335.9856 340.13044 345.31373 350.497 360.87275 367.08543 377.46113 387.83686 398.2126 407.5407 417.91645 428.29219 433.47547 438.65876 443.84205 454.21778 459.40107 464.58436 470.79704 481.17274 491.54847 500.8766 505.02143 510.2047 514.34957 524.7253 535.101 539.24588 549.6216 559.9973 565.1806 570.3639 580.7396 585.9229 601.46377">information to garner support for the law it proposed. In transitioning to my</tspan></text>
<text fill="#eeeeee" xml:space="preserve" transform="matrix(.75 0 0 .75 72 651.5508)" font-size="18.666666" font-family="ArialMT"><tspan y="17.509116" x="0 5.183304 9.328125 19.703843 30.07956 34.22438 39.407686 49.7834 55.99608 66.371799 71.5551 76.7384 81.92171 87.10501 92.288318 97.47162 102.65492 113.03064 122.358768 132.73448 142.0626 152.43833 162.81404 167.99735 172.14217 182.51789 191.84601 201.17414 206.35744 216.73316 227.10887 232.29218 242.6679 253.04361 259.2563 269.63203 273.77687 283.10499 288.28828 297.6164 302.79969 313.1754 318.3587 322.50355 331.83168 337.01496 341.1598 350.4879 360.86366 365.00849 370.19178 380.5675 389.89564 394.04048 404.4162 414.79194 425.16767 434.4958 444.87153 450.0548 460.43055 469.75868 474.94197 485.3177 495.69343 506.06916 510.214 520.5897 530.96548 536.14877 546.5245">final draft, I focused less on purely statistical evidence by adding an</tspan></text>
<text fill="#eeeeee" xml:space="preserve" transform="matrix(.75 0 0 .75 72 683.74807)" font-size="18.666666" font-family="ArialMT"><tspan y="17.509116" x="0 10.375717 20.751435 31.127152 40.455278 50.830995 61.20671 66.390018 76.76573 81.949039 87.13234 97.50806 102.69136 118.23216 127.56029 132.74359 143.11931 153.49503 162.82315 168.00646 178.38217 184.59485 189.77816 194.96146 205.33718 210.52048 220.8962 231.27191 235.41674 245.79245 250.97576 256.15907 266.5348 271.71809 281.0462 291.42195 301.79768 311.1258 315.27064 320.45393 324.59877 333.92689 339.11018 345.32286 355.69856 359.84339 370.21913 380.59486 384.7397 389.92298 395.10627 400.28956 404.4344 413.7625 418.9458 423.09065 433.46638 443.8421 454.21784 458.36268 464.57536 469.75868 480.1344 484.27925 493.60737 498.79066 509.16639 515.379 525.75479 530.93807 541.3138 551.6895 562.06527 572.441 577.62429 582.80758 593.1833">anecdote to my poster to paint a specific (albeit fictional) picture about an</tspan></text>
</g>
</svg>
