<?xml version="1.0" encoding="UTF-8" standalone="no"?>
<!DOCTYPE svg PUBLIC "-//W3C//DTD SVG 1.1//EN" "http://www.w3.org/Graphics/SVG/1.1/DTD/svg11.dtd">
<svg xmlns="http://www.w3.org/2000/svg" xmlns:xlink="http://www.w3.org/1999/xlink" version="1.1" width="612pt" height="792pt" viewBox="0 0 612 792">
<g enable-background="new">
<path transform="matrix(.75,0,0,.75,0,0)" d="M 0 0 L 816 0 L 816 1056 L 0 1056 Z " fill="#0097a7"/>
<text fill="#eeeeee" xml:space="preserve" transform="matrix(.75 0 0 .75 72 72)" font-size="18.666666" font-family="ArialMT"><tspan y="17.509116" x="48 59.39598 69.7717 73.91652 83.244647 88.42795 98.803668 109.17938 119.5551 125.76778 130.95108 141.3268 146.50952 151.69283 156.87613 162.05944 167.24274 173.45542 183.83113 194.20685 198.35167 202.49649 211.82462 217.00792 226.33605 236.71176 252.25257 262.6283 267.81159 272.99488 283.3706 288.5539 298.92964 309.30537 319.6811 330.05683 336.2695 345.59764 350.78096 361.15669 371.5324 381.90815 387.09144 397.46717 407.8429 421.31587 426.49916 439.9721 446.18479 450.3296 455.51289 459.6577 470.03346 480.40919 485.59248 489.7373 499.06544 504.24873 514.62448 519.80776 530.1835 536.3961 546.77188 556.1 566.4757 575.80386 585.13198 590.31527 595.49856">This quarter, I really came to understand how writing is a process. I</tspan></text>
<text fill="#eeeeee" xml:space="preserve" transform="matrix(.75 0 0 .75 72 104.197269)" font-size="18.666666" font-family="ArialMT"><tspan y="17.509116" x="0 10.375717 14.520538 27.993485 38.3692 47.697328 57.02545 62.208757 75.6817 81.89438 92.270099 97.4534 107.82912 113.01242 119.2251 129.60082 139.97653 150.35225 160.72797 165.91127 176.28699 182.49967 192.87538 198.05869 203.24199 212.57012 217.75342 221.89824 232.27396 237.45726 252.99806 262.32618 267.50947 277.8852 282.03004 292.40577 302.7815 312.10963 321.43775 331.81349 342.1892 352.56495 356.70979 361.89308 366.0379 370.18275 375.36604 385.74177 391.95445 402.33015 407.51344 417.88917 424.10185 434.47755 439.66084 448.98896 453.1338 463.50953 472.83766 482.16578 492.5415 501.86964 507.05293 512.2362 522.61196 532.9877 538.17098 543.35427 548.53756 553.7208 559.9335 570.3092 580.68496 584.8298 588.9746">always wrote rough drafts in my highschool literature classes, but I really</tspan></text>
<text fill="#eeeeee" xml:space="preserve" transform="matrix(.75 0 0 .75 72 136.39453)" font-size="18.666666" font-family="ArialMT"><tspan y="17.509116" x="0 9.328125 14.511429 20.724106 31.099823 41.47554 51.851259 55.99608 66.371799 76.74751 81.93082 87.11412 97.48984 102.67314 113.04886 123.424579 128.60788 133.79119 143.11931 153.49503 169.03583 179.41155 184.59485 194.97057 199.11539 209.4911 219.86682 225.05013 235.42584 245.80156 250.98487 261.3606 271.73634 282.11207 292.4878 298.70048 303.8838 317.35676 327.73249 338.10823 348.48396 353.66725 362.99537 369.20805 379.58375 389.95948 395.14277 399.2876 409.66334 420.03907 425.22236 440.76316 450.09129 455.2746 460.4579 464.60273 470.8154 480.14353 485.32685 490.51014 500.88587 507.09855 517.47427 522.65756 527.8408 537.16897 542.35226 552.72799 563.1037">struggled to get something on paper when creating my first drafts and</tspan></text>
<text fill="#eeeeee" xml:space="preserve" transform="matrix(.75 0 0 .75 72 168.5918)" font-size="18.666666" font-family="ArialMT"><tspan y="17.509116" x="0 10.375717 20.751435 26.964112 37.33983 41.48465 50.812776 55.99608 71.53688 81.9126 92.288318 102.66403 107.847339 118.22305 128.59877 137.9269 143.1102 147.25502 162.79582 173.17154 179.38422 189.75994 199.08806 209.46378 225.00458 235.3803 245.75601 250.93932 260.26747 265.45075 269.59559 279.9713 285.1546 295.53034 301.743 307.9557 312.10054 321.42866 325.5735 335.94923 346.32496 351.50825 361.88398 367.06727 372.25056 387.79136 397.11949 402.3028 407.48609 411.63093 422.00666 432.3824 436.52723 441.7105 452.08625 462.46199 472.8377 482.16584 487.34913 491.50248 503.94606 514.3218 524.6975 535.07327 540.25656 550.63229 561.008 576.5488 586.92459 592.10787 597.29116 601.09878">barely made any improvements in arriving at my final ones. Anne Lamott&#x2019;s</tspan></text>
<text fill="#eeeeee" xml:space="preserve" transform="matrix(.75 0 0 .75 72 200.78907)" font-size="18.666666" font-family="ArialMT"><tspan y="17.509116" x="0 6.212677 18.65625 29.031968 33.17679 38.360094 43.543397 52.87152 58.054826 69.450809 73.59563 79.808307 89.13643 94.31973 99.50304 112.97598 119.18866 129.56438 134.74768 139.93099 149.25911 155.47179 160.65509 176.19589 186.57161 196.94733 207.32305 212.50635 228.04715 238.42287 243.60617 249.81885 260.19459 270.5703 274.71516 278.86 288.1881 298.56385 303.74714 308.93043 319.30616 329.6819 334.86518 340.04847 350.4242 359.75233 370.12806 380.50379 385.68708 390.87037 401.2461 411.62184 416.8051 427.18086 437.55659 446.8847 452.068 457.25129 470.72425 476.93693 481.08174 486.265 496.64076 502.85343 512.1815 517.3648 527.74057 538.1163 548.492 552.63687 557.8201 563.0034 572.33157 577.51486 587.89059 594.1033">&#x201c;Shitty First Drafts&#x201d; made me realize that even the best writers don&#x2019;t start</tspan></text>
<text fill="#eeeeee" xml:space="preserve" transform="matrix(.75 0 0 .75 72 232.98633)" font-size="18.666666" font-family="ArialMT"><tspan y="17.509116" x="0 13.472946 17.617768 22.801072 33.17679 38.360094 48.73581 53.919115 64.29483 74.67055 80.883228 86.06653 96.442249 105.77037 110.953678 116.13698 126.512699 130.65752 141.03324 150.36136 160.73708 165.92038 176.2961 181.4794 186.6627 200.13565 206.34833 210.49315 215.67646 219.82128 230.19699 240.57271 245.75601 250.93932 257.15199 267.5277 283.0685 288.25184 293.43513 303.81086 314.18659 318.33143 324.5441 329.72743 334.9107 339.05555 345.26823 354.59635 359.77967 364.96296 375.33869 381.55137 391.92707 397.11036 402.29365 407.47694 412.66023 425.1038 435.4795 440.66279 451.0385 457.2512 462.4345 474.87809 479.0229 489.39863 499.77436 513.2473 517.05496 526.38308 531.56637 537.77908 547.106 557.48178 567.8575 577.1856 587.56137 591.7062 602.0819">with a perfect piece of writing from their first draft. Peter Elbow&#x2019;s &#x201c;Teaching</tspan></text>
<text fill="#eeeeee" xml:space="preserve" transform="matrix(.75 0 0 .75 72 265.1836)" font-size="18.666666" font-family="ArialMT"><tspan y="17.509116" x="0 10.366028 23.838974 34.21469 39.397996 51.841569 55.98639 66.36211 76.73782 86.06595 91.24925 101.62497 106.80827 111.65434 123.05032 133.42604 137.57086 147.94658 157.2747 161.41953 171.79524 182.17096 188.38364 193.56694 202.89507 213.27079 223.6465 237.11945 247.49517 257.87089 263.0542 278.595 288.9707 294.154 304.52973 314.90547 328.37843 333.5617 338.745 349.12074 358.44886 362.5937 372.96943 383.34516 388.52845 398.90419 409.2799 418.60804 428.98377 439.3595 444.5428 454.91853 465.29426 475.66999 480.85328 491.229 496.4123 501.59559 506.77888 517.1546 527.53036 532.7136 538.9263 549.302 559.67776 570.05349">Two Kinds of Thinking&#x201d; showed me how taking advantage of the rough</tspan></text>
<text fill="#eeeeee" xml:space="preserve" transform="matrix(.75 0 0 .75 72 297.38087)" font-size="18.666666" font-family="ArialMT"><tspan y="17.509116" x="0 10.375717 20.751435 25.934739 36.310457 42.523134 52.89885 58.082155 68.45787 73.641178 78.82448 89.200199 94.3835 99.5668 103.711627 109.9243 119.252429 124.43573 129.61904 139.99475 146.20743 156.58315 161.76645 166.94976 172.13306 177.31636 187.69208 193.90476 204.28047 214.65619 225.0319 235.40763 240.59093 250.96665 261.34236 271.71809 282.0938 288.3065 298.6822 303.86549 308.0103 317.33845 327.71418 332.89747 346.37043 352.5831 356.7279 361.9112 366.05604 376.43177 386.8075 391.99079 402.36653 412.74226 423.11799 433.4937 443.86946 454.24519 459.42848 464.61177 474.9875 485.36323 490.5465 500.92225 511.29798 521.6737 527.88638 533.06967 538.2529 548.62869 554.8413 560.0246 569.3527 579.72848 589.0566 599.4323 609.80807">nature of a first draft through generative writing opened the door for second</tspan></text>
<text fill="#eeeeee" xml:space="preserve" transform="matrix(.75 0 0 .75 72 329.57814)" font-size="18.666666" font-family="ArialMT"><tspan y="17.509116" x="0 10.375717 16.588395 26.964112 37.33983 43.552507 48.73581 53.919115 64.29483 68.43965 78.81537 88.14349 92.288318 102.66403 113.03975 118.22305 122.367877 132.74359 137.9269 142.07172 152.44744 157.63074 168.00646 174.21913 179.40244 185.61511 195.99083 205.31896 209.46378 218.7919 222.93672 233.31244 243.68816 253.01628 258.1996 263.38288 273.7586 284.13435 289.31764 294.50093 299.6842 310.05995 316.2726 326.64833 337.02406 347.39979 352.58308 366.05604 372.2687 376.4135 381.5968 385.74165 396.11738 406.4931 411.6764 416.85969 423.07237 433.44807 448.98887 454.17219 464.5479 474.92366 480.10694 490.48268 500.8584 511.23414 521.60989 531.9856 538.19827 548.574 558.9497 568.27786 578.65359 589.0293 599.405 603.54989 613.9256">order thinking in later revisions that turned writing from an unapproachable,</tspan></text>
<text fill="#eeeeee" xml:space="preserve" transform="matrix(.75 0 0 .75 72 361.7754)" font-size="18.666666" font-family="ArialMT"><tspan y="17.509116" x="0 4.144821 14.520538 24.896256 35.271974 41.48465 45.62947 56.005189 66.380908 75.70903 80.892337 86.07564 96.451358 105.77948 115.107608 120.29091 124.43573 134.81145 139.99475 150.37047 155.55377 165.92949 171.1128 181.48851 191.86423 202.23995 212.61566 216.76049 227.1362 232.3195 237.5028 247.87853 252.02335 262.39906 271.72718 282.1029 297.6437 308.0194 318.39515 322.53999 327.72328 338.099 344.31169 354.68739 364.0155 374.39125 383.71937 393.0475 398.23078 403.41407 421.0227 431.39845 435.54328 439.6881 450.06385 455.24714 465.62287 475.9986 486.37434 490.51918 499.8473 503.99214 514.36788 524.7436 529.9269 535.11019 545.4859 555.86166 565.18978">laborious task into a doable, piecemeal process. While applying these</tspan></text>
<text fill="#eeeeee" xml:space="preserve" transform="matrix(.75 0 0 .75 72 393.97267)" font-size="18.666666" font-family="ArialMT"><tspan y="17.509116" x="0 9.328125 19.703843 30.07956 39.407686 49.7834 60.15912 65.34242 74.67055 79.85385 83.99867 94.37439 99.55769 109.93341 120.30913 125.49243 135.86815 141.05146 156.59226 165.92038 171.10369 188.3751 194.58779 198.7326 203.91591 208.06073 218.43645 228.81217 233.99547 244.37119 249.55449 259.9302 270.3059 280.68165 285.86494 298.3085 308.6842 312.82905 316.97389 327.3496 336.67774 347.05348 357.4292 367.80494 377.13307 382.31636 392.69209 397.87538 407.2035 411.34834 421.72407 431.0522 440.3803 450.75605 460.08418 465.26747 470.45075 475.63404 480.81733 491.19306 501.5688 505.71363 509.85847 520.2342 529.5623 539.93807 545.12136 550.3046 555.4879 568.9609 579.3366">concepts in both my Writing 2 and Philosophy 1 classes, I believe I was</tspan></text>
<text fill="#eeeeee" xml:space="preserve" transform="matrix(.75 0 0 .75 72 426.16993)" font-size="18.666666" font-family="ArialMT"><tspan y="17.509116" x="0 10.375717 20.751435 25.934739 31.118042 41.49376 47.706438 52.88974 63.265459 73.641178 77.785999 88.16171 93.34502 98.52832 108.90404 114.08734 124.46306 134.83878 145.2145 155.59021 159.73503 170.11075 175.29405 188.767 194.97968 199.1245 204.3078 208.45262 218.82834 229.20406 235.41674 245.79245 256.16816 265.49629 275.872 286.24775 291.43104 301.80677 311.1349 320.463 324.60786 334.98359 345.3593 360.90013 371.27583 381.65156 386.83485 396.16297 401.34626 411.722 421.0501 426.2334 436.60914 446.98487 456.313 460.45783 470.83357 481.2093 486.39259 496.7683 501.9516 511.27973 516.463 522.67568 533.0514 538.2347 548.6104 558.98617 568.3143 573.49758 577.6424">better able to handle writing-based assignments by having a strategy in</tspan></text>
<text fill="#eeeeee" xml:space="preserve" transform="matrix(.75 0 0 .75 72 458.3672)" font-size="18.666666" font-family="ArialMT"><tspan y="17.509116" x="0 15.540802 19.685624 30.06134 40.437059 45.62036 50.803667 61.179384 66.362689 76.7384 82.95108 93.3268 103.702518 114.07823 123.40636 133.78208 138.96538 149.3411 159.71681 170.09253 180.46825 185.65155 199.1245 205.33718 209.482 214.6653 218.81012 229.18584 239.56156 244.74486 248.88968 259.26539 268.5935 273.7768 284.15254 294.52827 304.904 310.08729 320.463 325.6463 330.8296 334.97444 345.35017 354.67829 359.86158 365.04487 370.22816 379.55628 389.932 394.07685 404.45259 414.8283 420.0116 424.15644 434.53218 439.71546 450.0912 455.27449 465.6502 470.8335 481.20924 491.58497 501.9607 512.3364 516.48129 526.857 532.0403 542.416 552.79177 562.1199 567.30319 577.6789 588.0546">mind to produce good writing instead of just typing into a google doc and</tspan></text>
<text fill="#eeeeee" xml:space="preserve" transform="matrix(.75 0 0 .75 72 490.56446)" font-size="18.666666" font-family="ArialMT"><tspan y="17.509116" x="0 10.375717 20.751435 31.127152 35.271974 45.64769 56.023408 61.20671 70.534839 80.91055 96.451358 106.82707 112.010379 122.38609 126.530918 136.90663 147.28235 152.46566 162.84137 173.21709 183.5928 193.96852 199.15183 208.47995 218.85567 234.39647 244.77219 254.10031 259.28364 269.65937 280.0351 285.21839 290.40168 300.7774 305.9607 311.14399 315.28883 320.4721 325.6554 330.83869 336.02198 346.3977 351.581 365.05397 371.26664 375.41145 380.59474 384.73957 395.1153 405.49104 410.67433 415.8576 426.23335 430.37818 439.7063 444.8896 454.2177 464.59346 470.80613 480.13426 485.31758 489.4624 499.83815 505.02143 510.2047 520.58047 525.7632 530.9465 536.12979 541.31307 546.49636 551.6796 555.82449 562.0371 571.36526">hoping something good comes out of it. In writing this very letter, I first</tspan></text>
<text fill="#eeeeee" xml:space="preserve" transform="matrix(.75 0 0 .75 72 522.7617)" font-size="18.666666" font-family="ArialMT"><tspan y="17.509116" x="0 10.375717 20.751435 31.127152 35.271974 39.416795 49.79251 60.16823 65.35153 75.72725 86.10297 96.47868 106.8544 113.06708 123.442798 128.6261 132.77092 142.09905 152.47476 157.65807 171.13101 177.34369 181.48851 186.67182 190.81664 201.19235 211.56807 216.75138 221.93468 232.3104 237.4937 247.86942 258.24513 263.4284 268.6117 284.1525 293.48063 298.66395 302.80879 313.1845 323.56025 333.93598 343.2641 348.4474 358.82313 369.19886 374.38215 384.75788 389.94117 400.3169 410.69264 421.06837 431.4441 436.62684 441.81013 446.9934 457.36915 467.74488 478.1206 483.3039 488.48719 498.8629 509.23866 519.6144 524.79769 535.1734 545.54916 555.92489 560.0697 564.21456 574.5903">applied generative writing to get my ideas onto paper, and then applied</tspan></text>
<text fill="#eeeeee" xml:space="preserve" transform="matrix(.75 0 0 .75 72 554.959)" font-size="18.666666" font-family="ArialMT"><tspan y="17.509116" x="0 9.328125 19.703843 29.031968 39.407686 49.7834 60.15912 65.34242 75.71814 81.93082 92.30653 102.68225 108.89493 114.07823 119.261539 129.63726 133.78208 144.15779 153.48592 157.63074 168.00646 178.38217 183.56548 188.74878 199.1245 204.3078 219.8486 230.22432 239.55245 249.92816 255.11147 270.65229 279.9804 285.1637 290.347 300.72273 311.09846 321.47419 331.8499 342.22566 347.40895 356.73707 361.92036 371.24848 375.3933 385.76905 396.14479 402.35746 412.73316 418.94584 424.12916 434.50489 444.8806 455.25636 460.43965 475.98045 486.35615 492.56883 502.94453 508.1278 517.45596 527.83169 538.2074 547.5355 551.68038 561.0085 571.3842">second order thinking to make my thoughts clearer and more concise,</tspan></text>
<text fill="#eeeeee" xml:space="preserve" transform="matrix(.75 0 0 .75 72 587.15628)" font-size="18.666666" font-family="ArialMT"><tspan y="17.509116" x="0 13.472946 23.848664 27.993485 32.138307 42.514024 47.697328 52.88063 57.02545 66.35358 70.4984 80.874118 91.24983 96.433139 100.57796 110.953678 117.16635 127.54207 137.91779 144.13047 149.31377 159.68949 165.90216 176.27788 186.6536 197.02931 201.17414 210.50226 220.87798 226.06128 230.2061 240.58182 250.95754 261.33326 265.4781 270.66139 281.0371 291.41285 301.78858 306.97187 312.15516 316.3 326.67573 340.14869 345.33198 349.4768 358.80494 368.13307 378.5088 388.88453 398.21266 403.39595 413.77168 418.95497 424.13825 429.32154 439.69728 450.073 455.2563 465.63203 476.00776 485.33589 495.7116 511.2524 521.6281 532.00387 537.18716">while fixing larger organizational and flow issues of the document.</tspan></text>
<text fill="#eeeeee" xml:space="preserve" transform="matrix(.75 0 0 .75 72 619.3535)" font-size="18.666666" font-family="ArialMT"><tspan y="17.509116" x="48 59.39598 69.7717 75.984378 81.16768 91.543399 101.91911 108.13179 123.67259 134.04831 140.26099 150.6367 155.82 161.00331 166.18662 171.36992 181.74564 192.12136 196.26618 206.64189 217.01761 227.39333 232.57663 242.95235 248.13565 258.51136 268.8871 274.07038 279.25367 289.6294 295.84208 301.0254 311.40113 321.77687 332.1526 342.52833 348.741 358.06913 363.25245 373.62818 384.0039 394.37965 398.52449 408.9002 419.27595 424.45924 434.83497 440.01826 445.20155 455.57728 465.953 479.42597 484.60926 489.79255 500.16828 505.35157 518.8245 522.96939 533.3451 537.4899">Furthermore, I gained a better understanding of how to wield</tspan></text>
<text fill="#eeeeee" xml:space="preserve" transform="matrix(.75 0 0 .75 72 651.5508)" font-size="18.666666" font-family="ArialMT"><tspan y="17.509116" x="0 10.375717 20.751435 31.127152 40.455278 45.63858 56.014299 66.390018 71.57332 75.71814 86.09386 96.469577 101.65288 105.7977 116.173419 121.35672 136.89752 146.22565 151.40895 164.8819 171.09458 175.2394 180.4227 184.56752 194.94324 205.31896 210.50226 215.68556 220.86887 231.24459 236.42789 251.96869 261.2968 266.4801 276.85585 287.23158 296.5597 301.74299 306.92628 320.39924 326.6119 330.7567 335.94 340.08485 350.46058 360.8363 366.0196 376.39533 385.72346 396.09919 406.4749 412.6876 416.8324 427.20814 437.58387 446.912 457.28773 466.61585 471.79914 476.98243 492.52323 501.85136 507.03468 517.4104 527.78616 531.93099 541.2591 546.4424 556.8181 567.19387 577.5696 581.7144 586.8977 600.37069 604.5155 609.6988">punctuation in my writing. In my past writing experiences, my only goal with</tspan></text>
<text fill="#eeeeee" xml:space="preserve" transform="matrix(.75 0 0 .75 72 683.74807)" font-size="18.666666" font-family="ArialMT"><tspan y="17.509116" x="0 10.375717 20.751435 31.127152 40.455278 45.63858 56.014299 66.390018 71.57332 75.71814 86.09386 96.469577 101.65288 115.125827 125.50154 134.82967 140.01297 145.19628 155.57199 161.78467 166.96797 171.1128 176.2961 181.4794 186.6627 197.03842 202.22173 212.59745 222.97316 228.15647 234.36914 243.69727 254.07299 260.28565 266.49833 276.87403 286.20216 291.38545 296.56874 302.7814 307.96473 313.148 318.3313 333.8721 344.2478 350.46049 360.83619 364.98103 374.30915 379.49244 384.67573 395.05146 399.1963 403.34114 413.71687 427.18983 437.56556 447.94129 453.12458 458.30787 468.6836 479.05934 484.2426 493.57075 498.75404 504.9667 509.1115 518.43966 523.6229 528.8062 539.18197 549.5577 553.7025 564.07827 574.454 578.5988 582.74368 593.1194 603.4951">punctuation was for it to be &#x201c;correct.&#x201d; I merely followed the strict guidelines</tspan></text>
</g>
</svg>
