<?xml version="1.0" encoding="UTF-8" standalone="no"?>
<!DOCTYPE svg PUBLIC "-//W3C//DTD SVG 1.1//EN" "http://www.w3.org/Graphics/SVG/1.1/DTD/svg11.dtd">
<svg xmlns="http://www.w3.org/2000/svg" xmlns:xlink="http://www.w3.org/1999/xlink" version="1.1" width="612pt" height="792pt" viewBox="0 0 612 792">
<g enable-background="new">
<path transform="matrix(.75,0,0,.75,0,0)" d="M 0 0 L 816 0 L 816 1056 L 0 1056 Z " fill="#ffffff"/>
<clipPath id="cp2">
<path d="M 0 0 L 612 0 L 612 72 L 0 72 Z " fill-rule="evenodd"/>
</clipPath>
<g clip-path="url(#cp2)">
<text xml:space="preserve" transform="matrix(.75 0 0 .75 72 36)" font-size="16" font-family="TimesNewRomanPSMT"><tspan y="14.9375" x="567.5703 579.1223 587.1223 599.5703 606.6743">Kumar</tspan></text>
<text xml:space="preserve" transform="matrix(.75 0 0 .75 72 36)" font-size="16" font-family="TimesNewRomanPSMT"><tspan y="14.9375" x="616">3</tspan></text>
</g>
<text xml:space="preserve" transform="matrix(.75 0 0 .75 72 72)" font-size="16" font-family="TimesNewRomanPSMT"><tspan y="14.9375" x="0 7.1040008 15.104 23.104 30.208 35.536 39.984 44.432004 50.656003 57.760004 70.208 77.312007 85.312007 89.76 93.76 98.208 106.208 113.312007 117.76 121.76 127.088008 131.08802 142.64002 149.74402 157.74402 162.19202 169.29602 177.29602 181.29602 185.74402 193.74402 197.74402 202.19202 210.19202 217.29602 225.29602 230.62403 238.62403 246.62403 251.95203 259.05604 263.50404 270.60804 274.60804 279.93605 285.26405 293.26405 305.71205 309.71205 314.16004 322.16004 329.26405 333.26405 339.48805 343.93605 351.04005 356.36805 360.81605 364.81605 368.81605 373.26405 377.71205 385.71205 392.81605 396.81605 403.92005 407.92005 415.92005 423.02406 428.35206 434.57606 442.57606 449.68006 455.90406 460.35206 468.35206 475.45606 479.45606 491.90406 499.00807 505.23207 511.45606 518.56008 526.56008 533.66409 537.66409 544.76809 552.76809 560.76809 564.76809 571.8721 579.8721 587.8721 594.9761 602.0801 606.5281">advertisement that I wanted to incorporate from the start, like a persuasive message and appeals</tspan></text>
<text xml:space="preserve" transform="matrix(.75 0 0 .75 72 99.59766)" font-size="16" font-family="TimesNewRomanPSMT"><tspan y="14.9375" x="0 4.4480006 12.448 16.448 28.896 36.896 40.896 45.344 52.448 57.476564 65.47656 72.58057 77.028568 84.13257 92.13257 96.13257 103.23657 111.23657 119.23657 123.68457 130.78858 138.78858 145.89258 152.99658">to my targeted audience.</tspan></text>
<text xml:space="preserve" transform="matrix(.75 0 0 .75 72 127.19531)" font-size="16" font-family="TimesNewRomanPSMT"><tspan y="14.9375" x="48 53.328 57.328 61.776 69.776 76.880008 81.328 89.328 97.328 104.43201 112.43201 116.43201 124.43201 131.53601 136.86402 143.08802 151.08802 158.19202 164.41602 168.86402 176.86402 183.96802 187.96802 192.41602 199.52002 207.52002 215.52002 223.52002 230.62403 238.62403 245.72803 249.72803 254.17603 262.17604 266.17604 270.62403 278.62403 284.84803 292.84803 297.29603 302.62403 309.72804 313.72804 321.72804 326.17604 334.17604 341.28004 346.60804 350.60804 357.71205 362.16004 366.60804 371.05604 378.16004 385.26405 393.26405 399.48805 403.48805 407.93605 415.93605 419.93605 424.38404 431.48805 439.48805 446.59205 450.59205 457.69606 464.80006 469.24806 473.69606 481.69606 489.69606 493.69606 500.80006 508.80006 516.80007 520.80007 528.80007 536.80007 541.24807 548.35208 552.35208 557.68008 565.68008 571.00808 575.00808 579.45608 587.45608">I included persuasive language to inspire other citizens to take action and vote for the</tspan></text>
<text xml:space="preserve" transform="matrix(.75 0 0 .75 72 154.79297)" font-size="16" font-family="TimesNewRomanPSMT"><tspan y="14.9375" x="0 8 13.328 21.328 29.328 37.328 43.552 48 52.448 56.896005 64.896 72.896 76.896 80.60156 95.70557 103.70557 108.153568 112.60156 119.70557 123.70557 128.15357 136.15357 143.25757 147.25757 155.25757 159.70557 165.92957 173.92957 181.03357 185.48157 191.70557 195.70557 208.15357 215.25757 223.25757 227.25757 235.25757 240.58557 245.03357 253.03357 261.03358 265.03358 272.13758 276.58558 281.03358 288.13758 296.13758 300.58558 305.03358 313.03358 321.03358 325.03358 329.48158 337.48158 341.48158 345.92958 353.92958 361.03358 365.03358 372.13758 377.46559 381.91358 386.36158 393.46559 397.91358 405.01759 409.01759 416.12159 424.12159 432.12159 436.12159 440.56959 448.56959 455.67359 459.67359 467.67359 474.7776 481.0016 488.1056 493.4336 497.8816 505.8816 510.3296 514.7776 522.7776 530.7776 537.0016 541.0016 553.4496 560.5536 568.5536 572.5536 580.5536 585.5078 590.8358 597.9398">proposition. While the visuals may bring attention to the article and the descriptions may offer</tspan></text>
<text xml:space="preserve" transform="matrix(.75 0 0 .75 72 182.39063)" font-size="16" font-family="TimesNewRomanPSMT"><tspan y="14.9375" x="0 8 15.104 19.552 26.656 31.104 35.552003 41.776 45.776 52.88 60.88 68.880008 76.880008 81.328 85.328 89.776 97.776 104.880008 108.880008 115.104007 119.552 124 132 139.104 143.552 148 156 164 168 172 180 188 196 203.104 207.104 215.104 220.432 224.432 228.88 236.88 241.328 247.552 251.552 264 271.104 275.552 280 287.104 292.432 298.656 302.656 307.104 312.432 316.432 324.432 332.432 336.88 343.984 350.208 354.208 361.312 366.64 373.74403 377.74403 385.74403 393.74403 398.19203 402.19203 409.29603 416.40003 422.62403 427.07203 431.07203 436.40003 444.40003 449.72804 453.72804 458.17604 466.17604 473.28004 477.28004 485.28004 490.60804 498.60804 506.60804 514.60806 520.83206 525.28 529.728 534.176 542.176 550.176 554.176 557.21878 568.77078 574.99478 578.99478">details about the situation, none of this matters if votes are not cast for the proposition. As a</tspan></text>
<text xml:space="preserve" transform="matrix(.75 0 0 .75 72 209.98828)" font-size="16" font-family="TimesNewRomanPSMT"><tspan y="14.9375" x="0 5.328 12.432001 18.656002 26.656002 31.104002 35.552003 39.552003 43.552003 48.88 52.88 64.432 71.536 77.76 81.76 87.984 95.984 101.312007 108.41601 112.41601 116.864009 124.864009 128.86402 135.96802 143.96802 151.96802 155.96802 163.07202 167.07202 174.17603 181.28003 185.72803 190.17603 194.17603 198.62403 206.62403 210.62403 217.72803 224.83203 229.28003 233.72803 241.72803 249.72803 253.72803 258.17604 266.17604 273.28004 277.72804 281.72804 289.72804 295.05604 299.50404 307.50404 315.50404 321.72804 325.72804 330.17604 338.17604 345.28004 349.28004 353.72804 359.95204 366.17604 374.17604 381.28004 385.28004 393.28004 397.72804 403.05604 410.16004 417.26405 421.71205 426.16004 434.16004 438.16004 442.60804 450.60804 454.60804 459.05604 467.05604 474.16004 478.16004 483.48805 490.59205 497.69606 505.69606 512.80007 518.12808 522.12808 529.23208 537.23208 545.23208 549.23208 555.45608 563.45608 570.56008 577.66409 582.11209 587.44009 591.88809 598.99209 606.09609 610.54409 614.99209">result, I was sure to add a call to action that brings the issue directly to the reader and specifically</tspan></text>
<text xml:space="preserve" transform="matrix(.75 0 0 .75 72 237.58594)" font-size="16" font-family="TimesNewRomanPSMT"><tspan y="14.9375" x="0 7.1040008 13.328001 21.328001 27.552002 31.552002 36.000005 44.000005 51.104005 63.552007 67.552 72 80 84 96.448 103.552 111.552 118.656009 122.656009 129.76001 133.76001 141.76001 146.20801 151.22657 156.55457 163.65857 168.98657 176.09058 184.09058 191.19458 198.29859 202.29859 213.85059 218.29859 222.74658 230.74658 234.74658 239.19458 247.19458 254.29859 258.74659 264.0746 268.0746 276.0746 284.0746 288.52259 295.6266">asks them to make a difference with their vote.</tspan></text>
<text xml:space="preserve" transform="matrix(.75 0 0 .75 72 265.1836)" font-size="16" font-family="TimesNewRomanPSMT"><tspan y="14.9375" x="48 57.776 65.776 72.880008 76.880008 84.880008 91.98401 97.31201 101.76001 105.76001 113.76001 119.08801 123.08801 127.53601 135.53601 139.98401 146.20801 150.20801 158.20801 163.53601 171.53601 175.98401 183.08802 190.19202 194.64002 198.64002 203.08802 211.08802 218.19202 222.64002 226.64002 231.96802 235.96802 241.29602 249.29602 257.29603 265.29603 273.29603 277.29603 289.74403 297.74403 303.96803 308.41603 312.41603 319.52003 327.52003 334.62403 339.07203 343.52003 350.62403 358.62403 366.62403 371.07203 379.07203 387.07203 391.07203 402.62403 409.72804 415.95204 419.95204 427.95204 435.05604 442.16004 446.60804 454.60804 459.05604 467.05604 475.05604 479.05604 490.60804 498.60804 505.71205 510.16004 514.16006 519.48806 527.48806 532.81607 545.26406 549.26406 554.59207 558.59207 570.14407 577.24807 585.24807 589.69607 596.80007">The part of this project that I found most challenging was deciding what form I wanted</tspan></text>
<text xml:space="preserve" transform="matrix(.75 0 0 .75 72 292.78126)" font-size="16" font-family="TimesNewRomanPSMT"><tspan y="14.9375" x="0 12.448001 20.448002 24.448002 31.552002 39.552003 47.552003 54.656003 59.984 64.432 68.88 75.104 82.208 94.656 101.76 109.76 114.208 118.208 122.656 130.656 134.656 139.104 146.20801 154.20801 161.31201 165.31201 168.39844 179.95044 186.17444 190.17444 199.95044 207.05445 215.05445 220.38245 227.48645 231.48645 242.15845 250.15845 254.60645 259.05445 267.05445 271.05445 281.72645 288.83045 294.15846 299.48646 307.48646 311.93446 316.38246 320.38246 327.48646 335.48646 343.48646 347.93446 355.03846 359.48646 367.48646 374.59046 382.59046 386.59046 391.03846 399.03846 403.03846 410.14247 420.81446 427.91847 435.02247 443.02247 451.02247 458.12648 465.23048 473.23048 479.45448 483.45448 491.45448 497.67848 501.67848 505.67848 516.35049 521.67849 526.12649 533.23049 538.5585 545.6625 552.7665 558.9905 566.0945 572.3185 576.7665 580.7665 589.6625 594.1105 601.2145 609.2145">my advertisement to take. As Laura Bolin Carroll explained in &#x201c;Backpacks vs. Briefcases: Steps</tspan></text>
<text xml:space="preserve" transform="matrix(.75 0 0 .75 72 320.3789)" font-size="16" font-family="TimesNewRomanPSMT"><tspan y="14.9375" x="0 4.4480006 12.448 24 31.104 36.432 44.432 48.432 59.104 67.104007 74.20801 78.656009 86.656009 91.98401 96.43201 103.53601 110.640018 115.08801 118.1875 129.7395 137.7395 144.8435 149.2915 157.2915 163.5155 167.9635 174.1875 178.1875 185.2915 189.2915 193.7395 198.1875 202.1875 206.6355 212.8595 216.8595 223.9635 231.9635 236.4115 241.7395 248.8435 261.2915 268.3955 272.8435 280.8435 284.8435 289.2915 301.7395 309.7395 317.7395 323.0675 327.5155 334.6195 342.6195 347.0675 351.0675 356.3955 364.3955 369.7235 373.7235 385.2755 390.60353 395.0515 399.4995 406.60353 411.93153 418.15553 422.15553 426.60353 434.60353 438.60353 445.70753 453.70753 461.70753 467.93153 472.37953 480.37953 487.48353 492.81153 496.81153 504.81153 512.8115 524.3635 528.3635 532.8115 540.8115 547.9155 552.3635 557.6915 561.6915 573.2435 578.57156 583.01956 587.4675 591.9155 599.9155">toward Rhetorical Analysis,&#x201d; it is extremely important for writers to consider how their writing</tspan></text>
<text xml:space="preserve" transform="matrix(.75 0 0 .75 72 347.97657)" font-size="16" font-family="TimesNewRomanPSMT"><tspan y="14.9375" x="0 11.552001 16.000002 20.448002 24.896002 28.896002 36.896005 44.000005 48.000005 56.000005 63.104005 68.43201 75.53601 82.640018 87.08801 95.08801 102.19202 110.19202 114.19202 122.19202 130.19202 134.19202 138.64002 146.64002 153.74402 158.19202 163.52002 167.52002 174.62403 182.62403 190.62403 195.07202 202.17603 210.17603 217.28003 224.38404 228.38404 232.83203 240.83203 244.83203 252.83203 259.93605 266.16004 270.60804 278.60804 286.60804 291.05604 299.05604 307.05604 311.05604 315.50404 319.95204 323.95204 329.28004 339.95204 347.05604 352.38404 357.71205 365.71205 370.16004 374.60804 378.60804 386.60804 394.60804 402.60804 410.60804 415.93605 419.93605 423.93605 429.26405 437.26405 441.26405 453.71205 461.71205 465.71205 471.04005 475.48805 480.81605 487.04005 491.48805 495.48805 503.48805 508.81605 515.92007 521.24807 525.69607 529.69607 533.69607 539.02407 543.02407 554.57608 561.68008 567.90408 571.90408 579.90408 587.90408 594.12808 602.12808 607.45608">will be perceived by their audience in designing it (Carroll 2010). In my first draft, I was unsure</tspan></text>
<text xml:space="preserve" transform="matrix(.75 0 0 .75 72 375.57423)" font-size="16" font-family="TimesNewRomanPSMT"><tspan y="14.9375" x="0 11.552001 19.552002 26.656002 31.104002 39.104005 46.208005 51.536005 55.536005 60.864004 64.864 76.416 83.520008 89.744 93.744 101.744 109.744 114.192 122.192 130.192 134.192 138.64 146.64 150.64 157.744 163.072 170.17601 177.28002 181.72801 188.83202 192.83202 199.93602 203.93602 211.93602 219.93602 226.16002 230.60802 237.71202 243.04003 247.04003 255.04003 260.368 264.368 271.47203 275.47203 283.47203 288.80003 296.80003 303.90403 311.90403 319.90403 325.23204 332.33604 336.33604 340.33604 348.33604 356.33604 360.78404 364.78404 370.11204 374.11204 382.11204 390.11204 397.21604 408.76805 412.76805 418.09605 422.09605 433.64805 440.75205 448.75205 453.20005 460.30406 468.30406 472.30406 476.75205 484.75205 488.75205 496.75205 504.75205 508.75205 516.7521 524.7521 531.8561 535.8561 543.8561 549.1841 553.1841 557.6321 565.6321 572.7361 576.7361 584.7361 589.1841 597.1841 604.2881">whether I was going to create a poster or a brochure, but I knew I wanted to do one or the other</tspan></text>
<text xml:space="preserve" transform="matrix(.75 0 0 .75 72 403.17189)" font-size="16" font-family="TimesNewRomanPSMT"><tspan y="14.9375" x="0 6.2240006 14.224001 18.224 22.672 30.672 37.776 42.224004 46.224004 50.672006 58.672006 65.77601 69.77601 76.88001 84.88001 88.88001 95.98402 103.98402 111.98402 116.432018 124.432018 128.432 136.432 143.53601 147.53601 154.64002 161.74402 167.96802 172.41602 176.86402 184.86402 188.86402 196.86402 201.31201 207.53601 211.98401 217.31201 221.76001 229.76001 237.76001 242.20801 249.31201 257.312 261.312 265.76 273.76 277.76 284.864 292.864 305.312 317.76 325.76 333.76 338.208 342.656 350.656 354.656 361.76 368.864 376.864 381.312 388.41603 393.74403 399.96803 403.96803 407.96803 418.64 426.64 434.64 440.864 447.96803 455.96803 463.96803 471.07203 479.07203 483.52003 487.96803 494.85939 498.85939 502.85939 508.18739 512.1874 519.2914 527.2914 535.2914 542.3954 550.3954 554.3954 562.3954 570.3954 574.3954 585.9474 590.3954 594.8434 602.8434 606.8434">so that the ad could be easily distributed in community centers. Consequently, I ended up with a</tspan></text>
<text xml:space="preserve" transform="matrix(.75 0 0 .75 72 430.76954)" font-size="16" font-family="TimesNewRomanPSMT"><tspan y="14.9375" x="0 6.2240006 14.224001 22.224 30.224 38.224 42.672 47.120004 59.568006 66.672008 71.12 75.12 82.22401 90.22401 102.672008 110.672008 115.12 123.12 130.224 134.672 139.12 147.12 155.12 159.12 167.12 172.448 176.448 180.896 188.896 196 200 204.448 216 224 228 232 243.552 248 252.448 260.448 264.448 268.896 276.896 284.896 288.896 301.344 309.344 316.448 324.448 328.448 332.896 340 348 352.448 356.448 360.896 368.896 372.896 380.896 388 392 397.328 404.432 411.536 419.536 423.536 430.64 435.088 439.088 446.19203 450.19203 458.19203 462.64 469.74403 477.74403 484.84803 491.95204 495.95204 503.95204 511.95204 516.4 520.4 528.4 536.4 540.848 544.848 551.952 559.952 567.952 575.952 583.952">suboptimal combination of the two, with too much text to be read at a glance but not enough</tspan></text>
<text xml:space="preserve" transform="matrix(.75 0 0 .75 72 458.3672)" font-size="16" font-family="TimesNewRomanPSMT"><tspan y="14.9375" x="0 8 15.104 19.552 26.656 31.104 35.552003 39.552003 44.000005 52.000005 56.000005 64 71.104007 75.104007 82.20801 88.43201 92.43201 96.880008 104.880008 110.20801 118.20801 123.53601 135.98401 143.08802 147.53601 151.98401 159.98401 167.98401 175.08802 179.53601 183.53601 190.64002 196.86402 200.86402 206.19202 210.19202 218.19202 225.29602 233.29602 237.29602 248.84803 255.95203 263.95204 268.40003 275.50404 283.50404 287.50404 291.17189 299.82814 307.82814 311.82814 318.05213 326.05213 330.50013 338.50013 345.60414 349.60414 354.05213 362.05213 366.50013 372.72413 376.72413 380.72413 386.05213 390.05213 398.05213 405.15614 412.26014 416.70814 424.70814 431.81214 439.81214 443.81214 448.26014 456.26014 460.26014 467.36415 475.36415 487.81214 500.26014 504.70814 509.15614 513.1561 517.6041 525.6041 529.6041 542.0521 549.1561 557.1561 561.6041 569.6041 577.6041 581.6041">detail to be as informational as I had wanted. To solve this, I decided to commit to making a</tspan></text>
<text xml:space="preserve" transform="matrix(.75 0 0 .75 72 485.96485)" font-size="16" font-family="TimesNewRomanPSMT"><tspan y="14.9375" x="0 8 16 22.224 26.672 33.776 39.104 43.104 50.208 56.432 60.432 64.88 72.88 79.984 84.432 88.432 92.88 99.104 103.104 110.208 114.208 126.656 134.656 139.98401 147.08802 151.08802 159.08802 164.41602 172.41602 184.86402 189.31201 197.31201 204.41602 212.41602 216.86402 220.86402 232.41602 239.52002 247.52002 251.52002 255.96802 263.96803 267.96803 275.96803 280.41603 286.64 294.64 299.088 306.19203 314.19203 318.19203 322.64 330.64 335.96803 343.96803 349.29603 361.74403 368.84803 373.29603 377.74403 385.74403 393.74403 397.74403 401.74403 408.84803 416.84803 424.84803 428.84803 434.17604 438.17604 446.17604 451.50404 458.60804 465.71205 470.16004 474.60804 482.60804 486.60804 491.93605 499.04005 507.04005 515.04006 522.14407 529.24807 537.24807 541.24807 545.69607 553.69607 560.80007 564.80007 572.80007 580.80007 593.24807 601.24807 608.35208">poster as that is a more prominent way to display information, and I greatly reduced the number</tspan></text>
<text xml:space="preserve" transform="matrix(.75 0 0 .75 72 513.5625)" font-size="16" font-family="TimesNewRomanPSMT"><tspan y="14.9375" x="0 8 13.328 17.328 28.880002 36.88 42.208 50.208 56.432 60.432 64.88 72.88 76.88 83.984 91.088008 98.19201 106.19201 110.19201 118.19201 125.29601 130.62401 137.72801 145.72801 151.05602 158.16002 166.16002 174.16002 178.16002 182.60802 190.60802 194.60802 199.05602 211.50402 219.50402 224.83202 232.83202 240.83202 247.93602 251.93602 257.264 264.368 271.47203 279.47203 286.57603 294.57603 299.02403 303.47203 307.92 312.368 319.28907 323.28907 327.28907 336.18507 344.18507 349.51307 353.96107 361.96107 369.06507 374.39308 386.84107 394.84107 400.16908 407.27308 411.27308 415.27308 420.60108 424.60108 437.04908 445.04908 453.04908 457.49708 462.82508 467.27308 474.37709 482.37709 486.37709 494.37709 498.82508 505.04908 513.0491 520.1531 524.6011 530.8251 534.8251 541.0491 549.0491 553.0491 557.4971 565.4971 572.6011 577.0491 581.0491">of words in each paragraph to improve readability. Furthermore, I modified visuals so that a</tspan></text>
<text xml:space="preserve" transform="matrix(.75 0 0 .75 72 541.16018)" font-size="16" font-family="TimesNewRomanPSMT"><tspan y="14.9375" x="0 8 16 20.448 27.552 35.552003 39.552003 47.552003 52.000005 59.104005 67.104007 74.20801 81.31201 85.31201 93.31201 100.416019 108.416019 115.52002 119.52002 126.62402 134.62403 142.62403 150.62403 158.62403 166.62403 170.62403 175.07202 183.07202 188.40003 196.40003 201.72803 214.17603 221.28003 225.72803 230.17603 238.17603 246.17603 250.17603 255.50403 263.50404 268.83204 272.83204 278.16004 285.26405 292.36805 300.36805 307.47206 312.80006 319.02406 323.02406 327.47206 335.47206 339.47206 347.47206 355.47206 363.47206 370.57606 375.90406 382.12806 386.57606 393.68006 401.68006 409.68006 413.68006 418.12806 426.12806 433.23207 437.23207 441.68006 447.90406 454.12806 462.12806 469.23207 473.23207 480.33607 488.33607 496.33607 500.33607 506.56007 514.56008 522.56008 530.56008 538.56008 543.88809 548.33609 552.33609 556.78408 564.78408">quick glance gave enough information for readers to understand the issue and support the</tspan></text>
<text xml:space="preserve" transform="matrix(.75 0 0 .75 72 568.7578)" font-size="16" font-family="TimesNewRomanPSMT"><tspan y="14.9375" x="0 8 13.328 21.328 29.328 37.328 43.552 48 52.448 56.896005 64.896 72.896">proposition.</tspan></text>
<text xml:space="preserve" transform="matrix(.75 0 0 .75 72 596.35549)" font-size="16" font-family="TimesNewRomanPSMT"><tspan y="14.9375" x="48 59.552003 67.552 75.552 80 88 95.104007 100.43201 104.43201 111.53601 117.76001 125.76001 132.86402 139.96802 144.41602 148.41602 156.41602 161.74402 165.74402 170.19202 178.19202 185.29602 189.29602 197.29602 202.62403 210.62403 215.07202 222.17603 229.28003 233.72803 237.72803 243.05603 247.05603 253.28003 257.72804 263.05604 271.05604 279.05604 287.05604 291.50404 298.60804 306.60804 310.60804 322.16004 326.60804 331.05604 339.05604 343.05604 354.60804 361.71205 367.93605 371.93605 379.93605 387.04005 394.14405 398.59205 406.59205 411.04005 419.04005 427.04005 431.04005 439.04005 447.04005 455.04005 463.04005 467.04005 471.48805 479.48805 486.59205 490.59205 497.69606 505.69606 510.14405 518.14407 523.47207 527.47207 533.69607 540.80007 548.80007 555.90408 568.35208 575.45608 579.45608 587.45608 592.78408 596.78408 601.23208 609.23208">Another aspect of the project I struggled with was deciding upon the color scheme of the</tspan></text>
<text xml:space="preserve" transform="matrix(.75 0 0 .75 72 623.9531)" font-size="16" font-family="TimesNewRomanPSMT"><tspan y="14.9375" x="0 8 16 22.224 26.672 33.776 38.21875 42.21875 46.21875 51.54675 55.54675 63.54675 68.87475 73.32275 81.32275 85.770748 93.770748 100.87475 105.32275 109.770748 117.770748 121.770748 129.77075 135.99475 143.09876 151.09876 155.09876 162.20276 166.20276 174.20276 179.53076 186.63477 192.85877 200.85877 204.85877 212.85877 219.96277 224.41077 228.85877 236.85877 248.41077 252.41077 259.51478 267.51478 275.51478 279.51478 287.51478 291.96278 299.06678 306.17079 314.17079 318.17079 325.27479 333.27479 337.72279 345.72279 351.05079 355.05079 361.27479 368.37879 376.37879 383.4828 395.9308 403.0348 407.0348 411.4828 419.4828 426.5868 431.0348 435.0348 442.1388 450.1388 458.1388 462.5868 469.6908 474.1388 482.1388 489.2428 497.2428 501.2428 508.3468 515.4508 522.5548 529.6588 537.6588 542.1068 546.1068 553.2108 561.2108 565.6588 573.6588 578.9868">poster. I originally used a brash yellow and black color scheme that contained accent colors</tspan></text>
<text xml:space="preserve" transform="matrix(.75 0 0 .75 72 651.5508)" font-size="16" font-family="TimesNewRomanPSMT"><tspan y="14.9375" x="0 8 14.224001 22.224 29.328001 33.776 38.224004 46.224004 50.224004 56.448 63.552003 70.656009 78.656009 82.656009 90.656009 98.656009 102.656009 107.98401 115.98401 123.08801 131.08802 137.31201 141.31201 145.31201 150.64002 154.64002 159.08802 167.08802 175.08802 183.08802 191.08802 199.08802 203.53601 207.53601 211.98401 219.98401 227.08802 231.53601 235.53601 239.98401 247.98401 252.432 258.656 262.656 274.208 282.208 290.208 294.656 302.656 306.656 319.104 326.208 334.208 341.312 345.312 349.76 354.208 358.208 365.312 369.76 376.864 383.96803 389.29603 393.29603 404.84803 412.84803 419.95204 424.40003 428.40003 440.84803 448.84803 452.84803 460.84803 466.17604 474.17604 482.17604 490.17604 496.40003 500.84803 505.29603 509.74403 517.744 525.744 529.744 541.296 548.4 554.624 558.624 565.728 573.728 581.728 589.728 594.176 598.176 602.176 610.176 618.176">usually seen on roads. I thought that this would make it clear what my proposition was about, but</tspan></text>
</g>
</svg>
