<?xml version="1.0" encoding="UTF-8" standalone="no"?>
<!DOCTYPE svg PUBLIC "-//W3C//DTD SVG 1.1//EN" "http://www.w3.org/Graphics/SVG/1.1/DTD/svg11.dtd">
<svg xmlns="http://www.w3.org/2000/svg" xmlns:xlink="http://www.w3.org/1999/xlink" version="1.1" width="612pt" height="792pt" viewBox="0 0 612 792">
<g enable-background="new">
<path transform="matrix(.75,0,0,.75,0,0)" d="M 0 0 L 816 0 L 816 1056 L 0 1056 Z " fill="#ffffff"/>
<clipPath id="cp4">
<path d="M 0 0 L 612 0 L 612 72 L 0 72 Z " fill-rule="evenodd"/>
</clipPath>
<g clip-path="url(#cp4)">
<text xml:space="preserve" transform="matrix(.75 0 0 .75 72 36)" font-size="16" font-family="TimesNewRomanPSMT"><tspan y="14.9375" x="567.5703 579.1223 587.1223 599.5703 606.6743">Kumar</tspan></text>
<text xml:space="preserve" transform="matrix(.75 0 0 .75 72 36)" font-size="16" font-family="TimesNewRomanPSMT"><tspan y="14.9375" x="616">5</tspan></text>
</g>
<text xml:space="preserve" transform="matrix(.75 0 0 .75 72 72)" font-size="16" font-family="TimesNewRomanPSMT"><tspan y="14.9375" x="295.98048 309.80079 317.80079 323.12879 331.12879 337.35279 341.35279 352.02479 356.47279 360.92079 368.02479">Works Cited</tspan></text>
<text xml:space="preserve" transform="matrix(.75 0 0 .75 72 99.59766)" font-size="16" font-family="TimesNewRomanPSMT"><tspan y="30.9375" x="0 10.672001 17.776001 23.104 28.432 36.432 40.88 45.328004 49.328004 53.328004 63.104005 70.20801 78.20801 83.53601 90.640018 94.640018 105.31201 113.31201 117.76001 122.20801 130.20801 134.20801 138.20801 145.31201 155.98401 163.08802 170.19202 178.19202 186.19202 193.29602 200.40003 208.40003 214.62403 218.62403 226.62403 232.84803 236.84803 240.84803 251.52002 256.84803 261.29603 268.40003 273.72804 280.83204 287.93605 294.16004 301.26405 307.48805 311.93605 315.93605 324.83204 329.28004 336.38404 344.38404 350.60804 354.60804 359.05604 367.05604 378.60804 385.71205 391.04005 399.04005 403.04005 413.71205 421.71205 428.81605 433.26405 441.26405 446.59205 451.04005 458.14405 465.24806 469.69606 472.7578 484.3098 492.3098 499.41383 503.86183 511.86183 518.0858 522.5338 528.7578 532.7578 539.8618 543.5703 558.03128 563.35928 567.80728 572.25527 576.70327 584.70327">Carroll, Laura Bolin. &#x201c;Backpacks vs. Briefcases: Steps toward Rhetorical Analysis.&#x201d; Writing</tspan></text>
<text xml:space="preserve" transform="matrix(.75 0 0 .75 72 151.19532)" font-size="16" font-family="TimesNewRomanPSMT"><tspan y="14.9375" x="48 56.896 64.895999 72 79.104007 86.20801 92.43201 96.880008 100.880008 111.552 118.656009 125.76001 133.76001 138.20801 146.20801 154.20801 160.432 164.432 172.432 180.432 184.13282 198.59375 203.92176 208.36975 212.81775 217.26575 225.26575 233.26575 237.26575 241.26575 249.26575 257.26576 261.71376 265.71376 269.71376 277.71376 281.71376 285.71376 294.60975 301.71376 307.04176 311.48976 319.48976 324.81776 328.81776 337.71376 343.04176 350.14576 356.36976 362.59376 366.59376 369.70314 381.25514 389.25514 397.25514 404.35914 409.68714 415.91114 423.91114 431.91114 435.91114 439.91114 448.80714 459.47914 463.47914 467.47914 475.47914 483.47914 491.47914 499.47914 503.47914 507.47914 515.4791 523.4791 527.4791 531.4791 539.4791 547.4791 555.4791 563.4791 571.4791">Spaces: Readings on Writing, vol. 1, Parlor Press, Anderson, SC, 2010, pp. 45&#x2013;58.</tspan></text>
<text xml:space="preserve" transform="matrix(.75 0 0 .75 72 190.79297)" font-size="16" font-family="TimesNewRomanPSMT"><tspan y="14.9375" x="0 11.552001 19.552002 31.104004 39.104005 45.328004 49.328004 53.328004 63.104005 67.552 72 79.104007 86.20801 94.20801 101.31201 105.76001 113.76001 117.46094 131.28125 138.38526 143.71326 151.71326 156.16126 163.26526 167.26526 171.26526 182.81726 186.81726 190.52344 204.98438 210.31238 214.76038 219.20838 223.65637 231.65637 239.65637 243.65637 250.76038 258.76039 266.76039 274.76039 279.20838 282.90626 297.3672 302.6952 307.1432 311.5912 316.03919 324.03919 332.03919 336.03919 340.03919 351.5912 359.5912 364.03919 372.03919 379.1432 384.4712 390.6952 395.1432 399.5912 407.5912 411.5912 419.5912 424.9192 428.9192 439.5912 446.6952 451.1432 455.5912 460.9192 468.9192 474.2472 482.2472 486.6952 493.7992 497.7992 506.6952 513.7992 521.7992 526.2472 533.3512 537.3512 548.0232 555.1272 560.4552 568.4552 575.5592 580.8872 587.9912">Downs, Elizabeth Wardle, D. Writing about Writing, University of California Santa Barbara,</tspan></text>
<text xml:space="preserve" transform="matrix(.75 0 0 .75 72 218.39063)" font-size="16" font-family="TimesNewRomanPSMT"><tspan y="14.9375" x="48 56.896 64.895999 72.895999 78.224 82.672 90.672 94.672 104.448 112.448 116.895999 121.343997 125.79199 133.79199 141.79199 145.79199 149.79199 164.01599 171.12 178.224 190.672 195.12 199.568 204.01599 211.12 219.12 223.12 234.672 239.12 247.12 255.12 262.224 267.552 271.552 281.328 289.328 297.328 304.432 311.536 315.984 320.432 328.432 336.432 340.432 344.432 352.432 360.432 368.432 376.432 380.432 384.432 389.76 400.3125 404.7605 409.2085 416.3125 420.7605 429.6565 437.6565 445.6565 450.9845 458.0885 465.1925 469.1925 479.8645 487.8645 495.8645 503.8645 510.0885 518.0885 525.1925 529.6405 534.9685 540.2965">Fourth Edition. Macmillan Higher Education, 2020. [VitalSource Bookshelf].</tspan></text>
<text xml:space="preserve" transform="matrix(.75 0 0 .75 72 245.98828)" font-size="16" font-family="TimesNewRomanPSMT"><tspan y="30.9375" x="0 7.1040008 16.59375 24.59375 29.04175 33.48975 41.48975 49.48975 53.48975 60.59375 68.59375 76.59375 80.59375 91.26575 98.36975 106.36975 110.81775 117.04175 121.489749 126.81775 133.92176 138.36975 142.81775 150.81775 158.81775 162.81775 167.26575 175.26575 179.26575 183.71375 191.71375 198.81775 202.81775 212.59375 217.04175 224.14575 231.24976 235.69776 240.14575 248.14575 256.14576 260.14576 268.14576 273.47377 277.47377 289.02577 297.02577 305.02577 312.12977 324.57777 332.57777 339.68177 345.00978 349.00978 357.00978 365.00978 373.00978 381.00978 385.00978">&#x201c;Voting and Registration in the Election of November 2020.&#x201d;</tspan></text>
<text xml:space="preserve" transform="matrix(.75 0 0 .75 72 245.98828)" font-size="16" font-family="TimesNewRomanPS" font-style="italic"><tspan y="30.9375" x="396.0625 406.7345 413.8385 421.8385 428.0625 436.0625 442.2865 446.2865 454.2865 462.2865">Census.gov</tspan></text>
<text xml:space="preserve" transform="matrix(.75 0 0 .75 72 245.98828)" font-size="16" font-family="TimesNewRomanPSMT"><tspan y="30.9375" x="469.39064 473.39064 477.39064 488.94264 497.83863 501.83863 512.5106 519.6146 527.6146 533.8386 541.8386 548.0626 552.0626 562.7346 570.7346 576.0626 583.1666 590.2706 598.2706">, US Census Bureau,</tspan></text>
<text xml:space="preserve" transform="matrix(.75 0 0 .75 72 297.58595)" font-size="16" font-family="TimesNewRomanPSMT"><tspan y="14.9375" x="48 59.552003 67.552 72 76 80 88 96 104 112 116 120 128 132.448 136.896 144.896 151.12 155.568 160.01599 164.46399 176.01599 187.568 198.07813 202.07813 209.18213 216.28614 224.28614 230.51013 238.51013 244.73413 248.73413 256.73414 264.73414 272.73414 277.18214 285.18214 292.28614 296.73414 303.83815 308.28614 312.73414 319.83815 327.83815 332.28614 339.39015 345.61415 350.06214 354.51014 358.95814 371.40614 378.51014 383.83815 390.06214 397.16615 402.49415 406.94215 414.04615 420.27015 424.71815 432.71815 439.82215 452.27015 460.27015 464.71815 472.71815 480.71815 485.16615 489.61415 497.61415 505.61415 510.94215 518.04617 526.04617 534.04617 539.37417 544.70217 551.80618 559.80618 564.25418 570.47817 574.92617 580.25418 587.35818 591.80618 596.25418 604.25418 612.25418">Apr. 2021, https://www.census.gov/data/tables/time-series/demo/voting-and-registration/</tspan></text>
<text xml:space="preserve" transform="matrix(.75 0 0 .75 72 325.1836)" font-size="16" font-family="TimesNewRomanPSMT"><tspan y="14.9375" x="48 56 64 72 77.328 85.328 93.328 101.328 105.328 113.328 117.776 130.224 134.672">p20-585.html.</tspan></text>
<text xml:space="preserve" transform="matrix(.75 0 0 .75 72 364.78126)" font-size="16" font-family="TimesNewRomanPSMT"><tspan y="14.9375" x="0 13.8203129 21.820313 26.268313 31.596314 38.700315 42.700315 46.700315 56.476316 60.924318 65.372318 72.47632 79.58032 87.58032 94.684329 99.132328 107.132328 111.132328 120.02833 128.02832 135.13233 142.23633 150.23633 158.23633 165.34033 169.34033 173.34033 180.44434 184.89234 188.89234 195.99634 200.44434 204.44434 208.44434 215.54834 227.10034 231.54834 237.77234 242.22034 247.54834 254.65235 261.75636 266.20436 273.30836 281.30836 285.30836 295.98036 300.42835 308.42835 312.87635 320.87635 328.87635 332.87635 339.98036 343.98036 350.20436 358.20436 366.20436 371.53236 379.53236 386.63636 391.08436 395.08436 403.08436 408.41236 412.0625 421.27345 426.60145 433.70545 441.70545 454.15345 461.25746 465.25746 476.80946 484.80946 490.13746 496.36146 500.80946 508.80946 516.80947 520.80947 524.80947 532.80947 540.80947 545.25747 549.25747 553.25747 561.25747 569.25747 573.25747 577.25747 585.25747 593.25747 597.25747 601.25747 609.25747">Wolfe, Elizabeth Suzanne, et al. &#x201c;Distracted Biking.&#x201d; Journal of Trauma Nursing, vol. 23, no. 2,</tspan></text>
<text xml:space="preserve" transform="matrix(.75 0 0 .75 72 392.3789)" font-size="16" font-family="TimesNewRomanPSMT"><tspan y="14.9375" x="48 56 64 72 80 84 88 96 104 108 112 120 128 136 144 152 156 160 164 172 176.448 180.896 188.896 195.12 199.568 204.01599 208.46399 216.46399 224.46399 228.91199 232.91199 240.91199 245.9375 253.9375 258.3855 266.3855 274.3855 278.3855 286.3855 294.3855 302.3855 310.3855 314.8335 319.2815 323.7295 331.7295 335.7295 343.7295 351.7295 359.7295 367.7295 375.7295 383.7295 391.7295 399.7295 407.7295 415.7295 423.7295 431.7295 439.7295 447.7295 455.7295 463.7295">2016, pp. 65&#x2013;70., https://doi.org/10.1097/jtn.0000000000000188.</tspan></text>
</g>
</svg>
