<?xml version="1.0" encoding="UTF-8" standalone="no"?>
<!DOCTYPE svg PUBLIC "-//W3C//DTD SVG 1.1//EN" "http://www.w3.org/Graphics/SVG/1.1/DTD/svg11.dtd">
<svg xmlns="http://www.w3.org/2000/svg" xmlns:xlink="http://www.w3.org/1999/xlink" version="1.1" width="612pt" height="792pt" viewBox="0 0 612 792">
<g enable-background="new">
<path transform="matrix(.75,0,0,.75,0,0)" d="M 0 0 L 816 0 L 816 1056 L 0 1056 Z " fill="#ffffff"/>
<clipPath id="cp3">
<path d="M 0 0 L 612 0 L 612 72 L 0 72 Z " fill-rule="evenodd"/>
</clipPath>
<g clip-path="url(#cp3)">
<text xml:space="preserve" transform="matrix(.75 0 0 .75 72 36)" font-size="16" font-family="TimesNewRomanPSMT"><tspan y="14.9375" x="567.5703 579.1223 587.1223 599.5703 606.6743">Kumar</tspan></text>
<text xml:space="preserve" transform="matrix(.75 0 0 .75 72 36)" font-size="16" font-family="TimesNewRomanPSMT"><tspan y="14.9375" x="616">4</tspan></text>
</g>
<text xml:space="preserve" transform="matrix(.75 0 0 .75 72 72)" font-size="16" font-family="TimesNewRomanPSMT"><tspan y="14.9375" x="0 4.4480006 8.896001 12.896001 17.344002 25.344002 31.568003 36.016004 40.016004 47.120004 55.120004 63.120004 70.22401 78.22401 82.22401 90.22401 98.22401 102.22401 114.672008 121.77601 129.776 134.224 142.224 150.224 154.224 158.672 166.672 173.776 177.776 185.776 193.776 200 204.448 211.552 216.88 220.88 228.88 235.98401 241.31201 249.31201 256.41603 261.74403 265.74403 270.19203 278.19203 282.19203 287.52003 294.62403 301.72804 309.72804 313.72804 317.72804 326.62403 334.62403 338.62403 342.62403 347.95204 351.95204 358.17604 369.72804 374.17604 378.62403 385.72804 393.72804 400.83204 408.83204 412.83204 417.28004 425.28004 429.28004 436.38404 440.38404 452.83204 460.83204 466.16004 473.26405 477.26405 484.36805 492.36805 500.36805 508.36805 515.47207 523.47207 527.92007 532.36807 540.36807 548.36807 555.47207 559.92007 563.92007 571.02407 579.02407 583.47207 591.47207">it just ended up making the poster harder to read. So, I switched to a more conventional color</tspan></text>
<text xml:space="preserve" transform="matrix(.75 0 0 .75 72 99.59766)" font-size="16" font-family="TimesNewRomanPSMT"><tspan y="14.9375" x="0 6.2240006 13.328001 21.328001 28.432002 40.88 47.984 51.984 56.432004 64.43201 71.53601 75.98401 79.98401 92.43201 99.53601 107.53601 114.640018 118.640018 123.08801 131.08802 138.19202 142.19202 150.19202 158.19202 164.41602 168.86402 175.96802 181.29602 185.29602 192.40003 199.50403 205.72803 210.17603 217.28003 222.60803 226.60803 234.60803 242.60803 246.60803 251.05603 259.05604 266.16004 270.16004 277.26405 285.26405 292.36805 298.59205 302.59205 309.69606 317.69606 325.69606 329.69606 335.92005 340.36805 348.36805 355.47206 363.47206 367.47206 379.02406 383.47206 387.92005 395.92005 399.92005 404.36805 412.36805 419.47206 423.47206 430.57606 438.57606 445.68006 453.68006 461.68006 468.78407">scheme that made the poster easier on the eyes and stuck with the change.</tspan></text>
<text xml:space="preserve" transform="matrix(.75 0 0 .75 72 127.19531)" font-size="16" font-family="TimesNewRomanPSMT"><tspan y="14.9375" x="48 62.224 70.224 74.224 78.672 84 91.104007 99.104007 105.328 109.776 116.880008 121.328 125.776 133.776 141.776 145.776 150.224 158.224 163.552 171.552 177.776 181.776 188.88 192.88 200.88 207.98401 215.98401 222.20801 229.31201 233.31201 240.41602 247.52002 254.62403 262.62403 269.72804 282.17604 286.62403 293.72804 297.72804 304.83204 310.16004 314.60804 319.05604 326.16004 330.60804 337.71205 341.71205 346.16004 354.16004 358.60804 366.60804 370.60804 377.71205 385.71205 389.71205 396.81605 403.92005 410.14405 414.59205 419.04005 427.04005 431.04005 439.04005 447.04005 455.04005 462.14405 467.47206 473.69606 478.14405 485.24806 493.24806 501.24806 508.35206 516.35208 520.80007">My translation turns a dense academic article into an easily understandable</tspan></text>
<text xml:space="preserve" transform="matrix(.75 0 0 .75 72 154.79297)" font-size="16" font-family="TimesNewRomanPSMT"><tspan y="14.9375" x="0 7.1040008 15.104 23.104 30.208 35.536 39.984 44.432004 50.656003 57.760004 70.208 77.312007 85.312007 89.76 93.76 97.76 103.088008 107.536 111.536 123.984 131.088 139.088 146.192 152.416 156.416 160.864 168.864 175.968 179.968 187.968 195.072 203.072 210.17601 215.50402 222.60802 227.05602 231.05602 239.05602 247.05602 255.05602 259.50404 263.95204 271.05604 275.05604 282.16004 293.71205 300.81605 306.14405 313.24806 317.24806 325.24806 330.57606 334.57606 339.02406 347.02406 354.12806 358.12806 362.57606 368.80006 375.02406 383.02406 390.12806 394.12806 402.12806 407.45606 411.45606 419.45606 423.90406 430.12806 434.57606 439.90406 447.00807 454.11207 458.56007 465.66407 473.66407 477.66407 485.66407 490.11207 498.11207 502.56007 510.56007 518.56008 522.56008 534.11209 542.11209 546.56008 551.00808">advertisement. It makes the general public aware of the issue of distracted biking while</tspan></text>
<text xml:space="preserve" transform="matrix(.75 0 0 .75 72 182.39063)" font-size="16" font-family="TimesNewRomanPSMT"><tspan y="14.9375" x="0 8 13.328 21.328 29.328 37.328 43.552 48 56 64 68 72.448 80.448 87.552 91.552 97.776 105.776 110.224 118.224 122.672 127.119998 135.12 143.12 147.12 152.448 160.448 165.776 169.776 174.224 178.672 182.672 187.12 195.12 202.224 206.672 210.672 215.12 223.12 230.224 234.224 241.328 246.656 251.104 255.552 262.656 267.104 274.208 278.208 284.432 292.432 300.432 308.432 315.536 321.76 326.208 333.312 341.312 345.312 348.97657 357.6328 365.6328 369.6328 382.0808 389.1848 397.1848 404.28883 408.28883 412.73683 420.73683 425.1848 431.4088 435.4088 439.8568 445.1848 452.28883 460.28883 466.51283 470.96083 475.4088 479.8568 487.8568 495.8568 499.8568 507.8568 514.9608 522.9608 530.9608 538.0648 546.0648 550.0648 554.0648">proposing the solution for it that the article suggested. To make this transition happen, I</tspan></text>
<text xml:space="preserve" transform="matrix(.75 0 0 .75 72 209.98828)" font-size="16" font-family="TimesNewRomanPSMT"><tspan y="14.9375" x="0 6.2240006 14.224001 22.224 27.552002 32.000005 39.104005 47.104005 54.208005 62.208005 66.20801 72.43201 79.53601 87.53601 91.98401 99.08801 107.08801 114.19202 121.29602 127.52002 131.52002 138.62403 146.62403 154.62403 158.62403 166.62403 173.72803 179.05603 186.16004 194.16004 199.48804 206.59204 214.59204 222.59204 228.81604 232.81604 236.81604 241.26404 248.36804 253.38282 261.3828 268.48683 272.9348 280.03883 288.03883 292.03883 299.14283 303.14283 309.36683 317.36683 324.47084 331.57484 336.02284 341.35084 345.79884 352.90284 356.90284 364.00685 372.00685 380.00685 384.45484 391.55885 399.55885 406.66285 413.76686 417.76686 421.76686 426.21485 434.21485 439.54286 447.54286 454.64686 462.64686 466.64686 474.64686 481.75086 486.19886 493.30287 497.30287 502.63087 507.95887 515.95889 528.40689 532.40689 536.85488 544.85488 551.95889 555.95889 562.18289 566.63088 574.63088 582.63088 590.63088 594.63088 599.07888 607.07888 611.52688">shortened sentences and paragraphs, targeted a specific audience, turned data from the study into</tspan></text>
<text xml:space="preserve" transform="matrix(.75 0 0 .75 72 237.58594)" font-size="16" font-family="TimesNewRomanPSMT"><tspan y="14.9375" x="0 12.448001 20.448002 25.776001 32.88 36.88 43.984 51.984 59.984 67.088008 75.088008 79.536 87.536 95.536 99.536 107.536 112.864009 119.96801 127.96801 135.96802 140.41602 147.52002 153.74402 157.74402 161.74402 168.84803 176.84803 184.84803 188.84803 196.84803 202.17603 210.17603 218.17603 226.17603 234.17603 238.62403 242.62403 247.07202 255.07202 259.07203 266.17604 274.17604 282.17604 286.62403 291.07203 295.52003 303.52003 311.52003 318.62403 323.07203 327.07203 333.29603 341.29603 349.29603 354.62403 361.72804 368.83204 375.05604 379.05604 383.50404 391.50404 395.50404 401.72804 409.72804 417.72804 425.72804 433.72804 439.05604 443.50404 447.50404 451.95204 459.95204 467.05604 471.05604 479.05604 487.05604 494.16004 499.48805 506.59205 511.04005 515.48806 519.48806 531.93606 539.04006 545.26406 551.48806 558.59207 566.59207 573.69607 577.69607 582.14407 590.14407 597.24807">more engaging graphics, and brought in additional sources to support the overall message that</tspan></text>
<text xml:space="preserve" transform="matrix(.75 0 0 .75 72 265.1836)" font-size="16" font-family="TimesNewRomanPSMT"><tspan y="14.9375" x="0 8 12.448 18.672 23.12 28.448002 35.552003 42.656003 47.104005 54.208005 62.208005 66.20801 74.20801 78.656009 86.656009 91.104007 99.104007 107.104007 111.104007 115.552 121.776 125.776 132.88 136.88 144.88 150.20801 158.20801 166.20801 170.656 177.76001 190.20801 194.20801 198.656 206.656 209.74219 221.29419 233.74219 240.84619 246.1742 250.6222 257.7262 264.8302 272.8302 276.8302 283.9342 291.9342 304.3822 316.8302 324.8302 332.8302 337.2782 341.7262 346.1742 353.2782 359.5022 363.5022 367.1875 376.9635 384.9635 392.0675 398.2915 405.3955 409.3955 414.7235 422.7235 429.8275 434.2755 442.2755 447.60353 452.0515 459.15553 466.25953 470.70753 474.70753 481.81153 489.81153 497.81153 502.25953 509.36354 516.4675 522.6915 526.6915 534.6915 541.79556 549.79556 556.89956 562.22756 569.33157 573.77957 580.88357 588.88357 592.88357">distracted biking is a problem in American communities. These rhetorical choices generated a</tspan></text>
<text xml:space="preserve" transform="matrix(.75 0 0 .75 72 292.78126)" font-size="16" font-family="TimesNewRomanPSMT"><tspan y="14.9375" x="0 12.448001 19.552002 25.776003 32.000005 39.104005 47.104005 54.208005 58.208005 62.656007 70.656009 77.76001 82.20801 86.20801 93.31201 100.416019 108.416019 112.416019 120.416019 127.52002 131.52002 139.52002 147.52002 155.52002 162.62403 167.95203 174.17603 178.62403 186.62403 194.62403 202.62403 206.62403 211.07202 219.07202 223.07202 230.17603 236.40003 240.40003 252.84803 260.84803 267.95204 275.95204 279.95204 287.05604 295.05604 307.50404 315.50404 319.95204 327.05604 335.05604 339.50404 343.95204 351.95204 355.95204 363.05604 369.28004 373.28004 380.38404 384.38404 389.71205 396.81605 403.92005 411.92005 419.02406 424.35206 428.35206 432.80006 439.02406 443.02406 454.57606 459.02406 463.47206 467.92005 472.36805 480.36805 488.36805 492.36805 496.81605 504.81605 508.81605 516.81607 524.81607 529.26406 533.26406 537.71206 545.71206 549.71206 554.16006 558.60806 571.056 578.16006 582.16006 586.16006 597.71206 602.16006 606.60806">message that can be understood in as much complexity as a reader is willing to put in time, with</tspan></text>
<text xml:space="preserve" transform="matrix(.75 0 0 .75 72 320.3789)" font-size="16" font-family="TimesNewRomanPSMT"><tspan y="14.9375" x="0 7.1040008 11.104 19.104 26.208 32.432 36.88 43.984 47.984 55.984 63.984 71.984 79.088008 84.41601 90.64001 95.088008 102.19201 110.19201 118.19201 122.64001 130.64002 138.64002 142.64002 150.64002 157.74402 162.19202 170.19202 178.19202 182.19202 189.29602 193.74402 198.19202 205.29602 209.74402 217.74402 224.84803 232.84803 237.29602 244.40003 248.40003 259.95204 264.40003 268.84803 276.84803 280.84803 287.95204 291.95204 299.95204 307.95204 312.40003 319.50404 327.50404 331.50404 339.50404 343.95204 351.05604 359.05604 366.16004 373.26405">a basic understanding being attainable with a quick glance.</tspan></text>
</g>
</svg>
