<?xml version="1.0" encoding="UTF-8" standalone="no"?>
<!DOCTYPE svg PUBLIC "-//W3C//DTD SVG 1.1//EN" "http://www.w3.org/Graphics/SVG/1.1/DTD/svg11.dtd">
<svg xmlns="http://www.w3.org/2000/svg" xmlns:xlink="http://www.w3.org/1999/xlink" version="1.1" width="612pt" height="792pt" viewBox="0 0 612 792">
<g enable-background="new">
<path transform="matrix(.75,0,0,.75,0,0)" d="M 0 0 L 816 0 L 816 1056 L 0 1056 Z " fill="#ffffff"/>
<clipPath id="cp1">
<path d="M 0 0 L 612 0 L 612 72 L 0 72 Z " fill-rule="evenodd"/>
</clipPath>
<g clip-path="url(#cp1)">
<text xml:space="preserve" transform="matrix(.75 0 0 .75 72 36)" font-size="16" font-family="TimesNewRomanPSMT"><tspan y="14.9375" x="567.5703 579.1223 587.1223 599.5703 606.6743">Kumar</tspan></text>
<text xml:space="preserve" transform="matrix(.75 0 0 .75 72 36)" font-size="16" font-family="TimesNewRomanPSMT"><tspan y="14.9375" x="616">2</tspan></text>
</g>
<text xml:space="preserve" transform="matrix(.75 0 0 .75 72 72)" font-size="16" font-family="TimesNewRomanPSMT"><tspan y="14.9375" x="48 53.328 57.328 61.776 68.880008 73.91406 81.91406 89.01807 93.466068 100.57007 108.57007 112.57007 119.67407 127.67407 131.67407 138.77808 146.77808 154.77808 159.22608 166.33008 174.33008 181.43408 188.53809 192.53809 200.53809 205.86609 209.86609 216.9701 224.9701 228.9701 236.9701 241.41809 249.41809 256.5221 261.8501 265.8501 273.8501 280.9541 293.4021 301.4021 309.4021 314.7301 321.8341 329.8341 337.8341 342.2821 349.3861 353.3861 360.4901 366.7141 370.7141 375.1621 383.1621 390.2661 398.2661 402.2661 409.37013 414.69813 421.80213 425.80213 438.25013 446.25013 451.57814 458.68214 462.68214 467.13014 471.57814 479.57814 486.68214 491.13014 499.13014 503.13014 507.57814 515.5781 519.5781 527.5781 535.5781 540.0261 547.1301 551.1301 556.4581 568.01016">I targeted an audience of an older demographic as they are more likely to vote (US</tspan></text>
<text xml:space="preserve" transform="matrix(.75 0 0 .75 72 99.59766)" font-size="16" font-family="TimesNewRomanPSMT"><tspan y="14.9375" x="0 10.672001 17.776001 25.776001 32 40 46.224 50.224 60.896 68.895999 74.224 81.328 88.43201 96.43201 100.43201 108.43201 116.43201 124.43201 132.432 137.76001 141.76001 145.76001 151.08802 155.08802 163.08802 167.53601 175.53601 179.53601 183.98401 191.98401 196.432 202.656 206.656 214.656 222.656 226.656 233.76001 238.78907 246.78907 254.78907 259.23707 267.23707 275.23707 279.23707 283.68507 291.68507 298.78907 303.23707 307.23707 314.34107 322.34107 326.78907 331.23707 339.23707 344.56507 351.66908 359.66908 363.66908 371.66908 378.77308 385.87709 393.87709 397.87709 402.32508 410.32508 414.32508 422.32508 429.42909 433.42909 441.42909 446.75709 454.75709 459.20509 466.30909 473.4131 477.86109 484.9651 492.9651 496.9651 504.0691 512.0691 520.0691 524.0691 532.0691 540.0691 544.0691 548.5171 555.6211 563.6211 568.0691 576.0691 584.0691 588.0691 596.0691">Census Bureau 2021). I did this by arguing that children need to be protected and by taking on</tspan></text>
<text xml:space="preserve" transform="matrix(.75 0 0 .75 72 127.19531)" font-size="16" font-family="TimesNewRomanPSMT"><tspan y="14.9375" x="0 7.1040008 15.104 27.552002 40.000005 48.000005 56.000005 60.448007 64.896 72.896 76.896 84.896 92.00001 96.448009 104.448009 111.55201 117.77601 121.77601 126.22401 130.67201 138.67201 145.77602 149.77602 155.10402 162.20803 174.65602 179.10402 183.55202 191.55202 195.55202 202.65602 210.65602 218.65602 222.65602 228.88002 235.98403 241.31203 248.41603 252.86403 259.78126 263.78126 267.4922 282.5962 290.5962 295.0442 299.4922 306.5962 310.5962 315.0442 323.0442 327.4922 333.7162 337.7162 350.16419 357.2682 365.2682 369.2682 381.7162 386.16419 392.38819 398.61219 402.61219 407.06019 415.06019 422.16419 426.16419 438.61219 445.7162 451.0442 459.0442 463.0442 474.5962 479.0442 483.4922 491.4922 495.4922 503.4922 511.4922 519.4922 527.4922 535.4922 539.4922 547.4922 554.5962 562.5962 570.5962 575.0442 582.1482 586.1482 597.7002 605.7002">community values like family and safety. While this may miss the mark with young people who</tspan></text>
<text xml:space="preserve" transform="matrix(.75 0 0 .75 72 154.79297)" font-size="16" font-family="TimesNewRomanPSMT"><tspan y="14.9375" x="0 8 16 20 28 36 40.448 44.448 52.448 59.552003 67.552 74.656009 78.656009 85.76001 93.76001 98.20801 102.656009 110.656009 115.98401 123.08801 131.08802 135.08802 142.19202 150.19202 158.19202 162.19202 167.52002 174.62403 181.72803 186.17603 190.17603 194.62403 201.72803 206.17603 214.17603 221.28003 229.28003 233.28003 241.28003 249.28003 260.83204 268.83204 272.83204 277.28004 285.28004 289.28004 293.28004 297.72804 302.17604 306.17604 310.62403 316.84803 320.84803 326.17604 330.62403 338.62403 346.62403 351.07203 355.07203 363.07203 371.07203 375.07203 379.52003 384.84803 391.95204 399.05604 407.05604 411.05604 422.60804 427.05604 431.50404 439.50404 443.50404 455.05604 463.05604 470.16004 474.60804 478.60804 486.60804 493.71205 499.04005 506.14405 514.14407 518.59207 524.81607 528.81607 535.92007 543.92007">do not have children and feel talked down to, it is right on track with what parents and</tspan></text>
<text xml:space="preserve" transform="matrix(.75 0 0 .75 72 182.39063)" font-size="16" font-family="TimesNewRomanPSMT"><tspan y="14.9375" x="0 8 13.328 20.432002 28.432002 36.432 44.432 51.536 56.864 63.968 71.968 76.416 82.64 86.64 93.744 99.07201 106.17601 110.17601 117.280017 125.280017 133.28002 140.38402 147.48802 152.81603 160.81603 167.92003 175.92003 179.92003 187.02404 195.02404 203.02404 211.02404 215.47203 219.47203 223.47203 232.36803 240.36803 244.36803 248.36803 260.81605 268.81605 272.81605 280.81605 288.81605 295.04005 299.48805 306.59205 311.92005 315.92005 320.36805 326.59205 330.59205 343.04005 351.04005 356.36805 363.47206 367.47206 371.92005 376.36805 384.36805 391.47206 395.92005 403.92005 407.92005 412.36805 420.36805 424.36805 431.47206 439.47206 447.47206 455.47206 462.57606 469.68006 474.12806 478.12806 489.68006 494.12806 498.57606 506.57606 510.57606 518.57608 523.02407 531.02407 538.12808 543.45608 547.45608 551.90408 559.90408 567.90408 572.35208 580.35208 584.80007 592.80007 600.80007 607.90408 612.35208 618.57608">grandparents are concerned about. So, my poster is more likely to connect with older individuals,</tspan></text>
<text xml:space="preserve" transform="matrix(.75 0 0 .75 72 209.98828)" font-size="16" font-family="TimesNewRomanPSMT"><tspan y="14.9375" x="0 7.1040008 15.104 23.104 27.104 31.552 37.776 41.776 46.224004 54.224004 61.328004 66.656009 73.76001 79.08801 87.08801 92.416019 99.52002 103.52002 115.96802 123.96802 129.29602 136.40003 140.40003 144.84803 149.29602 157.29602 164.40003 168.84803 176.84803 180.84803 185.29602 193.29602 197.29602 202.62403 209.72803 215.95203 223.95203 228.40003 232.84803 236.84803 241.29602 249.29602 253.29602 258.62403 265.72804 272.83204 277.28004 282.60804 290.60804 298.60804 303.05604 310.16004 316.38404 320.38404 325.71205 333.71205 339.04005 343.04005 347.48805 355.48805 362.59205 366.59205 371.04005 378.14405 386.14405 393.24806 397.69606 401.69606 409.69606 415.02406 423.02406 431.02406 439.02406 445.24806 449.69606 454.14405 458.59205 466.59205 474.59205 478.59205 483.04005 487.48805 491.48805 495.93605 502.16004 506.16004 512.38406 520.38406 528.38406 536.38406 544.38406 549.71206 554.16006 558.60806 566.60806 574.60806">and is therefore more likely to result in real-votes for the legal proposition it is supporting.</tspan></text>
<text xml:space="preserve" transform="matrix(.75 0 0 .75 72 237.58594)" font-size="16" font-family="TimesNewRomanPSMT"><tspan y="14.9375" x="48 53.328 57.328 65.328 71.552 78.656009 86.656009 90.656009 97.76001 101.76001 108.86401 115.96802 122.19202 130.19202 137.29602 141.74402 145.74402 150.19202 158.19202 166.19202 173.29602 177.29602 181.74402 189.74402 193.74402 206.19202 213.29602 221.29602 228.40003 232.40003 236.84803 244.84803 251.95203 255.95203 263.95204 271.95204 278.17604 282.62403 289.72804 295.05604 299.05604 304.38404 311.48805 318.59205 323.04005 327.04005 331.48805 335.93605 343.93605 351.04005 355.04005 359.48805 363.93605 367.93605 375.04005 383.04005 395.48805 402.59205 408.81605 412.81605 418.14405 423.47206 431.47206 443.92005 447.92005 455.92005 463.02406 467.47206 475.47206 483.47206 491.47206 499.47206 504.80006 511.02406 515.02407 519.47207 527.47207 533.69607 538.14407 545.24807 552.35208 560.35208 564.35208 572.35208 577.68008 581.68008">I used a casual tone to make the poster feel like it comes from neighbors instead of a</tspan></text>
<text xml:space="preserve" transform="matrix(.75 0 0 .75 72 265.1836)" font-size="16" font-family="TimesNewRomanPSMT"><tspan y="14.9375" x="0 8 16 20.448 24.896 29.344 33.792 40.896 48 52.448 56.448 64.448 69.46875 77.46875 84.572757 92.572757 97.02075 104.124759 111.22876 115.67676 120.124759 128.12476 136.12476 140.12476 144.12476 153.02075 160.12476 168.12476 176.12476 180.57276 187.67676 191.67676 198.78076 204.10877 211.21277 215.21277 219.66077 226.76477 232.98877 239.21277 243.21277 247.66077 252.10877 260.10877 267.21278 271.66078 279.66078 283.66078 288.10877 296.10877 300.10877 306.33277 314.33277 322.33277 330.33277 338.33277 343.66078 348.10877 352.10877 359.21278 363.21278 367.66078 374.76478 379.7578 387.7578 394.86183 398.86183 406.86183 411.89845 419.89845 427.00245 435.00245 439.45045 446.55445 453.65846 458.10646 462.55445 470.55445 478.55445 482.55445 487.00245 495.00245 502.10646 506.55445 510.55445 517.65847 525.65847 533.65847 540.76248 547.86648 553.19448 559.41848 563.41848 567.86648 575.86648 583.86648 590.97048 598.97048 603.41848 611.41848">political organization. People are less likely to support a large organization that appears invading</tspan></text>
<text xml:space="preserve" transform="matrix(.75 0 0 .75 72 292.78126)" font-size="16" font-family="TimesNewRomanPSMT"><tspan y="14.9375" x="0 4.4480006 12.448 19.552 24 29.328 33.328 40.432 48.432 60.88 73.328 81.328 89.328 93.776 98.224 106.224 110.224 114.672 122.672 126.672 133.776 141.776 154.224 162.224 169.328 174.656 179.104 185.328 193.328 201.328 205.328 209.776 217.776 221.776 228.88 232.88 239.98401 247.98401 260.432 272.88 280.88 288.88 293.328 297.776 305.776 311.104 315.552 322.656 330.656 334.656 341.76 348.864 361.312 369.312 376.41603 380.864 388.864 396.864 400.864 404.864 411.088 419.088 423.088 427.536 431.984 435.984 440.432 446.656 450.656 455.104 467.552 475.552 483.552 488.88 493.328 500.432 508.432 512.88 516.88 521.328 529.328 536.432 540.88 544.88 549.328 557.328">their community in comparison to a community-led campaign, so it is important that the</tspan></text>
<text xml:space="preserve" transform="matrix(.75 0 0 .75 72 320.3789)" font-size="16" font-family="TimesNewRomanPSMT"><tspan y="14.9375" x="0 7.1040008 15.104 23.104 30.208 35.536 39.984 44.432004 50.656003 57.760004 70.208 77.312007 85.312007 89.76 93.76 100.864009 108.864009 121.312007 128.416 134.64 138.64 146.64 151.65625 156.98426 160.98426 168.08826 174.31226 178.31226 186.31226 193.41626 197.86426 205.86426 213.86426 217.86426 223.19226 228.52027 236.52027 248.96826 252.96826 260.07228 268.07228 276.07228 283.17628 290.28028 295.60829 303.60829 310.71229 318.71229 322.71229 329.81629 334.26429 338.71229 343.16029 350.26429 357.3683 365.3683 371.5923 375.5923 379.27345 389.04945 397.04945 401.49745 407.72145 411.72145 417.04945 422.37745 429.48146 441.92945 446.37745 454.37745 462.37745 466.37745 470.82545 477.04945 481.04945 488.15345 492.15345 496.60145 501.92945 509.92945 517.92947 525.03347 529.03347 537.03347 542.36148 546.36148 554.36148 562.36148 566.80947 571.25747 575.70547 580.15347 587.25747 594.36148">advertisement comes off as being from concerned citizens. This framing is a trope of political</tspan></text>
<text xml:space="preserve" transform="matrix(.75 0 0 .75 72 347.97657)" font-size="16" font-family="TimesNewRomanPSMT"><tspan y="14.9375" x="0 7.1040008 15.104 21.328001 25.328001 32.432004 38.656003 42.656003 47.104005 55.104005 62.208005 70.20801 74.20801 82.20801 87.53601 91.98401 99.08801 107.08801 111.08801 118.19202 122.640018 129.74402 134.19202 146.64002 150.64002 155.08802 163.08802 167.08802 175.08802 182.19202 186.19202 191.52002 196.84803 204.84803 217.29602 221.29602 226.62403 233.72803 241.72803 249.72803 254.17603 261.28004 266.60804 270.60804 278.60804 285.71205 293.71205 301.71205 306.16004 313.26405 317.26405 324.36805 332.36805 339.47206 347.47206 351.47206 363.02406 371.02406 378.12806 386.12806 390.12806 394.57606 402.57606 409.68006 417.68006 421.68006 428.78407 434.11207 441.21607 445.21607 453.21607 461.21607 465.66407 469.66407 477.66407 485.66407 490.11207 494.11207 502.11207 510.11207 514.11209 522.11209 530.11209 534.56008 539.00808 543.45608 547.90408 555.00808 562.11209">ads as they often claim to be from regular people even when they are put out by political</tspan></text>
<text xml:space="preserve" transform="matrix(.75 0 0 .75 72 375.57423)" font-size="16" font-family="TimesNewRomanPSMT"><tspan y="14.9375" x="0 8 13.0390629 21.039063 28.143063 36.143064 40.591066 47.695066 54.799066 59.247068 63.69507 71.69507 79.69507 85.91907 89.91907 93.61719 103.39319 111.39319 118.49719 122.94519 126.94519 134.94519 142.0492 146.4972 154.4972 162.4972 166.4972 172.72119 179.8252 184.2732 192.2732 196.2732 200.2732 207.3772 213.6012 217.6012 230.0492 238.0492 242.0492 249.1532 257.1532 265.1532 272.2572 277.5852 282.0332 286.4812 292.7052 299.8092 312.2572 319.3612 327.3612 331.8092 335.8092 342.9132 347.3612 359.8092 366.0332 370.0332 374.4812 382.4812 386.4812 393.5852 398.9132 406.0172 413.12123 417.5692 424.67323 428.67323 435.77723 439.77723 444.22523 451.32923 461.78126 465.78126 469.78126 475.10926 479.10926 490.66127 497.76527 503.98927 507.98927 514.21328 522.21328 527.54129 534.64529 538.64529 543.09329 551.09329 555.09329 567.54129 574.64529 582.64529 589.74929 593.74929 598.19729">organizations. That being said, as my advertisement aims to create a law, I was sure to make it</tspan></text>
<text xml:space="preserve" transform="matrix(.75 0 0 .75 72 403.17189)" font-size="16" font-family="TimesNewRomanPSMT"><tspan y="14.9375" x="0 6.2240006 14.224001 22.224 30.224 38.224 42.224 47.552 55.552 60.879999 73.327999 80.432 84.88 88.88 95.984 103.984 111.984 119.984 127.984 135.98401 139.98401 144.432 152.432 159.53601 163.98401 167.98401 172.432 176.88 180.88 185.328 191.552 195.552 203.552 210.656 215.98401 223.08802 230.19202 234.64002 242.64002 249.74402 257.74403 261.74403 268.84803 275.07203 279.07203 287.07203 294.17604 298.62403 306.62403 314.62403 318.62403 330.17604 337.28004 341.72804 346.17604 351.50404 355.95204 363.95204 371.95204 379.95204 387.95204 395.95204 400.40003 405.72804 413.72804 421.72804 426.17604">sound formal enough that it is perceived as being well-thought-out.</tspan></text>
<text xml:space="preserve" transform="matrix(.75 0 0 .75 72 430.76954)" font-size="16" font-family="TimesNewRomanPSMT"><tspan y="14.9375" x="48 53.328 57.328 61.776 69.776 76.880008 84.880008 90.20801 98.20801 106.20801 111.53601 118.640018 123.08801 130.19202 138.19202 142.19202 150.19202 155.52002 162.62403 170.62403 178.62403 184.84803 188.84803 193.29602 201.29602 205.29602 213.29602 218.62403 223.07202 231.07202 239.07202 243.07202 251.07202 259.07203 271.52003 278.62403 283.95204 288.40003 295.50404 302.60804 307.05604 311.05604 318.16004 326.16004 330.60804 338.60804 345.71205 353.71205 360.81605 367.92005 371.92005 379.92005 387.02406 395.02406 399.47206 407.47206 415.47206 419.47206 431.92005 439.92005 443.92005 451.92005 457.24806 465.24806 473.24806 481.24806 487.47206 491.92005 496.36805 500.81605 508.81605 516.81607 520.81607 523.875 535.427 541.651 545.651 558.099">I incorporated graphs to bring numerical evidence behind my proposition. As my</tspan></text>
<text xml:space="preserve" transform="matrix(.75 0 0 .75 72 458.3672)" font-size="16" font-family="TimesNewRomanPSMT"><tspan y="14.9375" x="0 7.1040008 15.104 23.104 30.208 35.536 39.984 44.432004 50.656003 57.760004 70.208 77.312007 85.312007 89.76 93.76 106.208 113.312007 121.312007 128.416 134.64 138.64 146.64 151.088 159.088 163.088 170.192 174.64 181.744 186.192 198.64 204.864 208.864 215.968 223.968 231.968 239.968 244.416 248.416 255.52 259.52003 267.52003 272.84803 280.84803 288.84803 293.29603 300.40003 312.84803 316.84803 329.29603 336.40003 344.40003 352.40003 356.40003 364.40003 371.50404 379.50404 387.50404 391.95204 399.05604 403.05604 410.16004 415.48805 422.59205 426.59205 434.59205 442.59205 447.04005 451.04005 458.14405 469.69606 476.80006 482.12806 489.23207 493.23207 501.23207 506.56007 510.56007 514.56008 519.00808 523.45608 527.45608 531.90408 538.12808 542.12808 549.23208 554.56008 562.56008 569.66409 574.11209 581.21609 585.66409 589.66409 594.11209 602.11209 609.21609">advertisement makes big claims about a problem many people are not aware of, it is crucial that</tspan></text>
<text xml:space="preserve" transform="matrix(.75 0 0 .75 72 485.96485)" font-size="16" font-family="TimesNewRomanPSMT"><tspan y="14.9375" x="0 4.4480006 8.896001 12.896001 20.896 28 35.104 43.104 49.328 53.328 61.328 69.328 73.328 77.776 82.224 88.448 92.448 99.552 104 111.104007 115.552 128 134.224 138.224 149.776 154.224 158.672 166.672 170.672 175.12 180.448 185.776 192.88 198.20801 206.20801 210.656 217.76001 225.76001 230.20801 237.31201 241.31201 246.64002 253.74402 260.84803 265.29603 271.52003 275.52003 279.52003 284.84803 288.84803 293.29603 301.29603 308.40003 312.84803 320.84803 328.84803 335.95204 343.95204 347.95204 354.17604 358.62403 365.72804 370.17604 374.62403 380.84803 385.29603 389.74403 396.84803 403.07203 407.07203 412.40003 417.72804 425.72804 438.17604 442.17604 447.50404 454.60804 462.60804 470.60804 475.05604 482.16004 490.16004 494.60804 501.71205 505.71205 513.71206 521.71206 529.71206 536.81607 542.14407 550.14407 562.59207 569.69607 577.69607 582.14407 589.24807 593.69607 597.69607 604.80007 612.80007">it backs up its claims with irrefutable facts. I included statistics from reputable governmental and</tspan></text>
<text xml:space="preserve" transform="matrix(.75 0 0 .75 72 513.5625)" font-size="16" font-family="TimesNewRomanPSMT"><tspan y="14.9375" x="0 7.1040008 14.208001 21.312003 29.312003 36.416006 48.864007 53.312009 60.416009 64.41601 70.64001 78.64001 86.64001 91.96801 99.072017 106.17602 112.40002 116.40002 120.848018 128.84803 132.84803 139.95203 147.95203 155.95203 163.05603 171.05603 175.50403 183.50403 191.50403 195.50403 203.50403 207.95203 214.17603 222.17603 229.28003 233.72803 239.95203 243.95203 248.40003 256.40003 263.50404 267.95204 271.95204 279.05604 287.05604 294.16004 302.16004 306.60804 313.71205 317.71205 323.04005 330.14405 337.24806 345.24806 352.35206 357.68006 363.90406 367.90406 372.35206 380.35206 384.35206 390.57606 397.68006 404.78407 408.78407 421.23207 429.23207 433.23207 441.23207 449.23207 461.68006 468.78407 474.11207 478.56007 485.66407 492.76808 497.21607 501.21607 508.32008 516.32009 520.76809 528.76809 535.8721 543.8721 550.9761 558.0801 562.0801 573.6321 578.0801 582.5281 590.5281 598.5281 606.5281">academic sources in engaging visuals that enable readers to see my numerical evidence without</tspan></text>
<text xml:space="preserve" transform="matrix(.75 0 0 .75 72 541.16018)" font-size="16" font-family="TimesNewRomanPSMT"><tspan y="14.9375" x="0 5.328 12.432001 19.536002 27.536002 31.984002 39.984 47.984 51.984 56.432004 64.43201 71.53601 75.53601 81.76001 88.86401 96.86401 101.31201 108.416019 116.416019 123.52002 130.62403 136.84803 140.84803 145.29602 153.29602 160.40003 164.84803 168.84803 175.95203 183.95203 191.95203 196.40003 203.50403 207.95203 215.95203 219.95203 224.40003 232.40003 239.50403 251.95203 255.95203 259.95204 268.84803 276.84803 282.17604 286.62403 294.62403 301.72804 307.05604 319.50404 327.50404 332.83204 339.93605 343.93605 347.93605 352.38404 360.38404 368.38404 374.60804 381.71205 385.71205 390.16004 398.16004 402.60804 409.71205 415.04005 422.14405 428.36805 432.81605 439.92005 447.92005 451.92005 456.36805 464.36805 468.36805 475.47206 479.47206 487.47206 494.57606 499.02406 506.12806 510.57606 515.02407 522.12808 530.12808 534.12808 541.23208 549.23208 557.23208 561.68008 568.78408 576.78408 583.88809 588.33609 592.78408 600.78408">reading the sentences that explain them. Furthermore, those interested in a detailed explanation</tspan></text>
<text xml:space="preserve" transform="matrix(.75 0 0 .75 72 568.7578)" font-size="16" font-family="TimesNewRomanPSMT"><tspan y="14.9375" x="0 8 15.104 23.104 30.208 34.208 38.656003 46.656003 53.760004 57.760004 65.76 73.76 81.76 89.76 95.088008 99.536 107.536 115.536 119.984 124.432 132.432 136.432 140.88 148.88 152.88 158.20801 165.31201 172.41602 180.41602 184.41602 192.41602 197.74402 204.84803 212.84803 220.84803 224.84803 229.29602 233.74402 238.19202 242.64002 249.74402 255.96802 259.96803 267.07203 275.07203 283.07203 287.07203 294.17604 301.28004 309.28004 313.72804 318.17604 326.17604 334.17604 340.40003 344.40003 348.84803 356.84803 363.95204 368.40003 372.40003 380.40003 385.72804 390.17604 398.17604 406.17604 410.17604 415.50404 423.50404 428.83204 433.28004 441.28004 448.38404 453.71205 457.71205 464.81605 470.14405 477.24806 485.24806 489.69606 497.69606 502.14405 506.59205 511.04005 515.48806 523.48806 527.48806 534.59207 542.59207 550.59207 554.59207 562.59207 569.69607 574.14407 581.24807 585.69607 590.14407 594.14407 598.59207">have the opportunity to read graph titles and captions that bring further credibility and detail to</tspan></text>
<text xml:space="preserve" transform="matrix(.75 0 0 .75 72 596.35549)" font-size="16" font-family="TimesNewRomanPSMT"><tspan y="14.9375" x="0 4.4480006 12.448 19.552 23.552 30.656 38.656">the ad.</tspan></text>
<text xml:space="preserve" transform="matrix(.75 0 0 .75 72 623.9531)" font-size="16" font-family="TimesNewRomanPSMT"><tspan y="14.9375" x="48 53.328 57.328 68.88 74.208 82.208 86.656 93.76 97.76 103.984 111.984 119.984 125.312007 129.76001 133.76001 139.98401 147.08802 155.08802 159.53601 166.64002 174.64002 181.74402 188.84803 195.07202 199.07202 205.29602 213.29602 217.29602 221.74402 229.74402 236.84803 241.29602 245.29602 250.62403 257.72804 264.83204 272.83204 279.93605 285.26405 291.48805 295.48805 303.48805 311.48805 315.48805 323.48805 331.48805 335.93605 339.93605 347.93605 355.04005 362.14405 370.14405 374.14405 378.59205 386.59205 390.59205 396.81605 404.81605 411.92005 419.92005 427.92005 431.92005 444.36805 452.36805 459.47206 467.47206 471.47206 475.92005 480.36805 492.81605 499.92005 503.92005 511.02406 519.02407 527.02407 534.12808 542.12808 546.57608 554.57608 562.57608 566.57608 578.12808 582.57608 587.02407 595.02407 599.02407 603.47207 611.47207">I wrote short sentences so that readers do not need to spend much time engaging with the</tspan></text>
<text xml:space="preserve" transform="matrix(.75 0 0 .75 72 651.5508)" font-size="16" font-family="TimesNewRomanPSMT"><tspan y="14.9375" x="0 8 16 22.224 26.672 33.776 38.21875 42.21875 45.929689 55.70569 63.70569 70.80969 74.80969 82.80969 90.80969 96.137699 104.137699 112.137699 118.361698 125.4657 129.4657 137.4657 142.7937 146.7937 153.8977 161.8977 165.8977 173.00171 181.00171 189.00171 196.10572 201.43372 205.88172 210.32971 216.55371 223.65772 236.10572 243.20972 251.20972 255.65772 259.6577 264.1057 270.3297 274.3297 278.7777 286.7777 290.7777 298.7777 305.8817 309.8817 315.20973 322.31373 329.41773 337.41773 341.41773 345.41773 352.52174 360.52174 368.52174 372.52174 376.96974 384.96974 392.07374 396.07374 408.52174 416.52174 421.84974 428.95375 432.95375 444.50575 452.50575 457.83375 465.83375 472.05775 476.05775 480.50575 488.50575 492.50575 496.95375 504.95375 512.05776 516.05776 524.05776 532.05776 538.28176 542.72976 549.83377 554.46878 558.46878 562.46878 566.91677 574.91677 582.02078 586.02078 590.46878 597.57278 603.79678">poster. The purpose of an advertisement is to be read, and the more words in the poster, the less</tspan></text>
<text xml:space="preserve" transform="matrix(.75 0 0 .75 72 679.14846)" font-size="16" font-family="TimesNewRomanPSMT"><tspan y="14.9375" x="0 4.4480006 8.896001 16.896 24 28.448 36.447999 40.447999 44.896 49.344 53.344 64.896 72.896 80.896 85.344 93.344 97.344 105.344 112.448009 116.448009 121.77601 129.776 134.224 138.672 146.672 150.672 156 163.104 170.20801 178.20801 182.20801 186.20801 195.104 203.104 207.104 211.104 216.432 220.432 227.53601 235.53601 239.98401 243.98401 251.98401 259.984 271.536 279.536 283.536 289.76 296.864 304.864 309.312 316.41603 324.41603 331.52003 338.62403 344.84803 348.84803 360.40003 368.40003 372.84803 377.29603 384.40003 388.40003 400.84803 407.95204 412.40003 420.40003 424.84803 431.95204 436.40003 444.40003 448.84803 456.84803 464.84803 468.84803 473.29603 481.29603 488.40003 492.40003 499.50404 503.95204 508.40003 513.728 518.176 526.176 534.176 538.624 545.728 551.952 555.952 563.952 569.28 573.28 580.38406">likely it would be fully read. So, I cut down sentences while maintaining the attributes of an</tspan></text>
</g>
</svg>
