<?xml version="1.0" encoding="UTF-8" standalone="no"?>
<!DOCTYPE svg PUBLIC "-//W3C//DTD SVG 1.1//EN" "http://www.w3.org/Graphics/SVG/1.1/DTD/svg11.dtd">
<svg xmlns="http://www.w3.org/2000/svg" xmlns:xlink="http://www.w3.org/1999/xlink" version="1.1" width="612pt" height="792pt" viewBox="0 0 612 792">
<g enable-background="new">
<path transform="matrix(.75,0,0,.75,0,0)" d="M 0 0 L 816 0 L 816 1056 L 0 1056 Z " fill="#ffffff"/>
<clipPath id="cp0">
<path d="M 0 0 L 612 0 L 612 72 L 0 72 Z " fill-rule="evenodd"/>
</clipPath>
<g clip-path="url(#cp0)">
<text xml:space="preserve" transform="matrix(.75 0 0 .75 72 36)" font-size="16" font-family="TimesNewRomanPSMT"><tspan y="14.9375" x="567.5703 579.1223 587.1223 599.5703 606.6743">Kumar</tspan></text>
<text xml:space="preserve" transform="matrix(.75 0 0 .75 72 36)" font-size="16" font-family="TimesNewRomanPSMT"><tspan y="14.9375" x="616">1</tspan></text>
</g>
<text xml:space="preserve" transform="matrix(.75 0 0 .75 72 72)" font-size="16" font-family="TimesNewRomanPSMT"><tspan y="14.9375" x="0 11.552001 19.552002 24.000002 31.104002 35.104005 46.656007 54.656007 67.104007 74.20801">Kyle Kumar</tspan></text>
<text xml:space="preserve" transform="matrix(.75 0 0 .75 72 99.59766)" font-size="16" font-family="TimesNewRomanPSMT"><tspan y="14.9375" x="0 11.552001 18.656002 23.104002 27.552002 31.552002 37.776 45.776 53.776 61.776 68 76">Neil Johnson</tspan></text>
<text xml:space="preserve" transform="matrix(.75 0 0 .75 72 127.19531)" font-size="16" font-family="TimesNewRomanPSMT"><tspan y="14.9375" x="0 14.4609379 19.788937 24.236937 28.684937 33.13294 41.13294 49.13294 53.13294">Writing 2</tspan></text>
<text xml:space="preserve" transform="matrix(.75 0 0 .75 72 154.79297)" font-size="16" font-family="TimesNewRomanPSMT"><tspan y="14.9375" x="0 11.552001 18.656002 25.760003 32.864004 45.312005 53.312005 60.416006 65.744 69.744 77.744 81.744 85.744 93.744 101.744 109.744">December 9, 2021</tspan></text>
<text xml:space="preserve" transform="matrix(.75 0 0 .75 72 182.39063)" font-size="16" font-family="TimesNewRomanPSMT"><tspan y="14.9375" x="160.26953 169.16553 174.49353 182.49353 194.94153 198.0586 209.6106 216.7146 223.8186 231.8186 238.9226 251.3706 255.8186 262.9226 266.02735 277.57936 282.90736 287.35536 291.80335 298.90736 303.35536 310.45936 314.45936 318.90736 326.90736 330.90736 341.57936 346.90736 351.35536 358.45936 363.78736 366.88673 378.43873 386.43873 394.43873 401.54273 406.87074 411.31874 415.76673 421.99073 429.09474 441.54273 448.64674 456.64674">From Academic Article to Brief Advertisement</tspan></text>
<text xml:space="preserve" transform="matrix(.75 0 0 .75 72 209.98828)" font-size="16" font-family="TimesNewRomanPSMT"><tspan y="14.9375" x="48 62.224 70.224 74.224 82.224 89.328 97.328 102.656009 109.76001 113.76001 118.20801 123.53601 130.64002 138.64002 144.86402 149.31201 156.41602 160.86402 165.31201 173.31201 181.31201 185.31201 189.76001 196.86402 204.86402 211.96802 218.19202 222.19202 226.64002 234.64002 241.74402 245.74402 252.84803 259.95204 267.05604 275.05604 282.16004 294.60804 299.05604 306.16004 310.16004 317.26405 322.59205 327.04005 331.48805 338.59205 343.04005 350.14405 354.14405 361.24806 372.80006 377.24806 383.47206 387.92005 393.24806 400.35206 407.45606 411.90406 419.00807 427.00807 431.00807 441.68006 446.12806 454.12806 458.57606 466.57606 474.57606 479.02406 482.0625 493.6145 501.6145 505.6145 517.1665 525.1665 531.3905 538.4945 543.8225 551.8225 558.9265 563.3745 567.8225 575.8225 583.8225 590.9265">My genre translation takes the academic article &#x201c;Distracted Biking: An Observational</tspan></text>
<text xml:space="preserve" transform="matrix(.75 0 0 .75 72 237.58594)" font-size="16" font-family="TimesNewRomanPSMT"><tspan y="14.9375" x="0 8.896001 13.344002 21.344002 29.344002 36.304689 40.304689 47.408689 51.408689 58.512689 66.51269 74.51269 78.51269 85.61669 93.61669 101.61669 109.61669 116.720699 122.0487 126.4967 132.7207 136.7207 141.1687 145.6167 149.6167 154.0647 162.0647 166.5127 174.5127 178.5127 182.9607 190.9607 198.0647 202.0647 208.2887 216.2887 220.7367 228.7367 233.1847 237.63269 245.63269 253.63269 257.6327 262.0807 270.0807 277.1847 281.6327 285.6327 290.0807 298.0807 305.1847 309.1847 316.2887 321.6167 326.0647 330.5127 337.6167 342.0647 349.1687 353.1687 361.1687 366.4967 374.4967 382.4967 390.4967 396.7207 403.8247 410.0487 414.0487 417.70314 427.47914 435.47914 442.58314 446.58314 454.58314 459.91114 464.35914 472.35914 476.80714 484.80714 491.91114 496.35914 500.35914 507.46315 512.79116 517.23916 521.68716 528.79116 533.23916 540.34317 544.34317 551.44717 556.4531 564.4531 572.4531 579.5571 585.7811 589.7811 594.2291 602.2291 609.3331">Study,&#x201d; and converts it into the solution that the article proposes. The original article argues that</tspan></text>
<text xml:space="preserve" transform="matrix(.75 0 0 .75 72 265.1836)" font-size="16" font-family="TimesNewRomanPSMT"><tspan y="14.9375" x="0 8 12.448 18.672 23.12 28.448002 35.552003 42.656003 47.104005 54.208005 62.208005 66.20801 74.20801 78.656009 86.656009 91.104007 99.104007 107.104007 111.104007 115.552 121.776 125.776 132.88 136.88 142.20801 149.31201 161.76001 169.76001 176.86402 184.86402 189.31201 193.31201 201.31201 206.64002 214.64002 222.64002 227.08802 234.19202 246.64002 250.64002 255.08802 263.088 270.19203 274.64 278.64 285.74403 293.74403 301.74403 306.19203 314.19203 318.19203 326.19203 333.29603 337.29603 344.40003 352.40003 360.40003 365.72804 372.83204 379.05604 385.28004 392.38404 400.38404 404.38404 415.93605 420.38404 424.83204 432.83204 436.83204 443.93605 451.93605 459.93605 467.04005 474.14405 478.59205 483.04005 491.04005 499.04005 503.04005 510.14405 517.24807 529.69607 537.69607 544.80007 549.24807 557.24807 565.24807 571.47207 575.47207 582.57608 590.57608">distracted biking is a rampant problem that could be addressed with education campaigns and</tspan></text>
<text xml:space="preserve" transform="matrix(.75 0 0 .75 72 292.78126)" font-size="16" font-family="TimesNewRomanPSMT"><tspan y="14.9375" x="0 4.4480006 11.552001 19.552002 24.000002 30.224003 34.672006 41.776006 46.224008 50.67201 58.67201 65.77601 69.77601 75.10401 82.208019 87.53602 95.53602 100.86402 113.31202 117.31202 122.64002 136.4375 144.4375 148.8855 154.2135 161.3175 165.3175 173.3175 181.3175 189.3175 197.3175 202.64551 206.64551 210.64551 221.3175 229.3175 237.3175 243.5415 250.64551 258.6455 266.6455 273.7495 281.7495 286.1975 290.6455 297.59376 301.59376 305.59376 318.04176 326.04176 330.04176 338.04176 343.36976 351.36976 355.81776 362.92176 370.02577 374.47377 378.47377 382.92176 389.14576 393.14576 400.24977 408.24977 412.24977 419.35377 427.35377 435.35377 442.45777 447.78578 452.23377 456.68177 462.90577 470.00978 482.45777 489.56178 497.56178 502.00978 506.00978 511.33778 519.33779 524.6658 528.6658 535.7698 539.7698 544.2178 551.3218 559.3218 566.4258">legislative reform (Wolfe 2016). Consequently, my project is an advertisement for a legal</tspan></text>
<text xml:space="preserve" transform="matrix(.75 0 0 .75 72 320.3789)" font-size="16" font-family="TimesNewRomanPSMT"><tspan y="14.9375" x="0 8 13.328 21.328 29.328 37.328 43.552 48 52.448 56.896005 64.896 72.896 76.896 81.344 89.344 96.448009 100.896 104.896 109.344 116.448009 123.55201 130.656 138.656 145.76001 151.98401 155.98401 162.20801 166.656 174.656 182.656 189.76001 197.76001 202.20801 208.432 212.432 216.88 224.88 231.98401 235.98401 243.98401 251.08802 259.088 267.088 274.19203 279.52003 285.74403 289.74403 297.74403 303.07203 307.07203 315.07203 319.52003 325.74403 330.19203 335.52003 342.62403 349.72804 354.17604 361.28004 369.28004 373.28004 381.28004 385.72804 393.72804 398.17604 406.17604 414.17604 418.17604 429.72804 437.72804 442.17604 446.62403 453.72804 457.72804 464.83204 472.83204 478.16004 486.16004 491.48805 498.59205 503.04005 511.04005 519.04006 523.04006 529.26406 533.71206 539.04006 543.48806 550.59207 555.04006 562.14407">proposition that teaches students the dangers of distracted biking while enforcing stricter</tspan></text>
<text xml:space="preserve" transform="matrix(.75 0 0 .75 72 347.97657)" font-size="16" font-family="TimesNewRomanPSMT"><tspan y="14.9375" x="0 8 16 24 28.448 34.672 42.672 55.120004 62.224004 70.224 74.672 80.895999 84.895999 90.224 98.224 103.552 107.552 112 120 128 134.224 141.328 145.328 156.88 164.88 172.88 176.88 184.88 192.88 197.328 201.328 205.776 213.776 220.88 233.328 239.552 246.656 251.104 259.104 266.208 272.432 276.432 283.536 291.536 299.536 303.536 311.536 315.984 323.984 331.088 336.41603 342.64 346.64 351.088 359.088 363.088 371.088 378.19203 386.19203 394.19203 401.29603 405.71095">punishments for those who put themselves and others in danger.</tspan></text>
<text xml:space="preserve" transform="matrix(.75 0 0 .75 72 375.57423)" font-size="16" font-family="TimesNewRomanPSMT"><tspan y="14.9375" x="48 53.328 57.328 68.88 76.88 82.208 90.208 97.312007 105.312007 109.312007 113.76 121.76 125.76 138.20801 145.31201 149.76001 156.86402 164.86402 168.86402 173.31201 181.31201 188.41602 192.41602 200.41602 207.52002 215.52002 220.84803 227.95203 231.95203 239.05603 247.05603 255.05603 262.16004 269.26405 273.71205 280.81605 285.26405 289.71205 297.71205 305.71205 311.93605 315.93605 323.93605 329.26405 333.26405 340.36805 348.36805 352.36805 359.47206 367.47206 375.47206 382.57606 387.90406 392.35206 396.80006 403.02406 410.12806 422.57606 429.68006 437.68006 442.12806 446.12806 449.1875 460.7395 467.8435 474.9475 482.9475 488.2755 496.2755 500.7235 508.7235 516.7235 520.7235 525.1715 533.1715 537.1715 546.9475 551.3955 555.8435 562.9475 570.0515 578.0515 585.1555 589.6035">I worked to match the genre expectations of an advertisement. According to Elizabeth</tspan></text>
<text xml:space="preserve" transform="matrix(.75 0 0 .75 72 403.17189)" font-size="16" font-family="TimesNewRomanPSMT"><tspan y="14.9375" x="0 13.8203129 20.924313 26.252312 34.25231 38.700315 45.804315 49.804315 56.908315 64.90831 72.90831 76.90831 88.46031 96.46031 104.46031 112.46031 116.46031 128.01232 136.01232 147.56432 155.56432 161.78832 165.78832 170.23632">Wardle and Doug Downs in</tspan></text>
<text xml:space="preserve" transform="matrix(.75 0 0 .75 72 403.17189)" font-size="16" font-family="TimesNewRomanPS" font-style="italic"><tspan y="14.9375" x="182.23438 194.67969 200.90369 205.35169 209.79969 214.24768 222.24768 230.24768 233.95313 243.72913 251.72913 259.72914 267.72914 272.17713 276.17713 288.6172 294.8412 299.28919 303.73719 308.18519 316.18519">Writing About Writing</tspan></text>
<text xml:space="preserve" transform="matrix(.75 0 0 .75 72 403.17189)" font-size="16" font-family="TimesNewRomanPSMT"><tspan y="14.9375" x="324.46876 328.46876 332.46876 339.57276 347.57276 354.67677 362.67677 368.00477 375.10877">, &#x201c;genres</tspan></text>
<text xml:space="preserve" transform="matrix(.75 0 0 .75 72 403.17189)" font-size="16" font-family="TimesNewRomanPSMT"><tspan y="14.9375" x="385.32814 392.43214 404.88014 411.98414 417.01564 425.01564 432.11964 436.11964 444.11964 451.22364 458.32765 465.43165 473.43165 479.65565 486.75965 490.75965 502.31166 507.63966 512.08767 516.53567 523.63967 528.96768 535.19168 539.19168 545.41567 549.86367 556.96768 562.29568 566.74368 570.74368 575.19168 583.19168 587.19168 592.51968 596.96768 604.96768">emerge because writers start to find</tspan></text>
<text xml:space="preserve" transform="matrix(.75 0 0 .75 72 430.76954)" font-size="16" font-family="TimesNewRomanPSMT"><tspan y="14.9375" x="0 11.552001 18.656002 26.656002 32.88 36.88 41.328004 49.328004 53.328004 58.656003 65.76 71.984 79.984 87.984 95.984 103.984 107.984 112.432 120.432 124.432 128.88 136.88 143.98401 147.98401 153.31201 160.41602 167.52002 175.52002 180.51563 185.84363 191.17163 195.61963 203.61963 211.61963 215.61963 221.84363 226.29163 230.73963 238.73963 245.84363 250.29163 254.73963 262.73963 270.73963 274.73963 279.18763 287.18763 294.29164 298.73963 302.73963 308.96363 316.06764 323.17164 335.61964 339.61964 344.06764 352.06764 356.06764 367.61964 375.61964 380.94764 388.94764 392.94764 400.94764 406.27565 413.37965 417.82765 422.27565 430.27565 434.27565 445.82765 452.93165 457.37965 461.82765 465.82765 472.93165 476.93165 484.03565 492.03565 500.03565 504.03565 508.48365 516.48367 520.48367 524.93167 532.03567 537.36367 549.81167 556.03567 560.03567 568.03567 573.36367 577.36367 581.81167 589.81167">ways to respond to the recur-ring situation that seem to work pretty well,&#x201d; and in terms of the</tspan></text>
<text xml:space="preserve" transform="matrix(.75 0 0 .75 72 458.3672)" font-size="16" font-family="TimesNewRomanPSMT"><tspan y="14.9375" x="0 8 15.104 23.104 28.432 35.536 39.536 47.536 52.864 56.864 63.968 71.968 79.968 87.07201 92.40001 96.84801 101.296009 107.520008 114.62401 127.07201 134.17601 142.17601 146.62401 152.848 156.848 160.848 172.40001 180.40001 187.50402 191.95201 195.95201 207.50402 215.50402 220.83202 228.83202 235.05602 239.05602 250.60802 257.712 262.16 266.608 270.608 275.056 281.28 285.28 293.28 300.384 304.832 312.832 320.832 324.832 332.832 338.16 342.608 349.712 355.04 359.04 367.04 375.04 379.488 383.488 387.936 395.04 402.144 410.144 414.592 422.592 430.592 434.592 441.696 449.696 453.696 458.144 470.592 478.592 485.696 492.80003 497.24803 501.24803 506.57603 518.128 526.128 537.68 545.68 551.904 555.904 563.904 571.904 579.904 587.904 593.232">genre of advertisements, what works well is being brief but leaving an impact (Downs 2020).</tspan></text>
<text xml:space="preserve" transform="matrix(.75 0 0 .75 72 485.96485)" font-size="16" font-family="TimesNewRomanPSMT"><tspan y="14.9375" x="0 11.552001 16.880002 21.328001 28.432002 36.432 40.88 45.328004 57.776006 64.880008 71.104007 75.104007 79.104007 86.20801 94.20801 102.20801 109.31201 114.640018 119.08801 123.53601 129.76001 136.86402 149.31201 156.41602 164.41602 168.86402 175.08802 179.08802 187.08802 194.19202 202.19202 209.29602 213.29602 217.74402 225.74402 229.74402 237.74402 244.84803 252.84803 256.84803 262.17604 270.17604 275.50404 279.50404 285.72804 293.72804 300.83204 307.93605 315.04005 319.04005 326.14405 334.14405 342.14405 346.14405 350.59205 355.04005 367.48805 374.59205 378.59205 382.59205 388.81605 396.81605 400.81605 408.81605 416.81605 423.92005 431.02406 435.02406 442.12806 446.12806 451.45606 458.56007 465.66407 473.66407 480.76808 486.09608 490.09608 497.20008 505.20008 513.2001 520.3041 528.3041 535.4081 541.6321 545.6321 557.1841 561.6321 566.0801 574.0801 578.0801 585.1841">Oftentimes, advertisements have to pay for space and time, so once a reader engages with an</tspan></text>
<text xml:space="preserve" transform="matrix(.75 0 0 .75 72 513.5625)" font-size="16" font-family="TimesNewRomanPSMT"><tspan y="14.9375" x="0 7.1040008 15.104 23.104 30.208 35.536 39.984 44.432004 50.656003 57.760004 70.208 77.312007 85.312007 89.76 93.76 98.208 102.656 106.656 111.104 117.327999 121.327999 125.77599 138.224 146.224 153.328 158.656 165.76001 170.20801 174.656 182.656 189.76001 193.76001 198.20801 206.20801 213.31201 217.76001 221.76001 226.20801 234.20801 241.31201 249.31201 253.31201 261.312 269.312 273.312 281.312 289.312 293.76 297.76 302.208 310.208 316.432 323.536 327.536 332.864 340.864 347.96803 355.96803 362.19203 366.19203 374.19203 382.19203 386.64 391.088 395.536 399.536 403.984 411.984 419.088 423.088 435.536 442.64 447.088 455.088 459.088 463.536 471.536 478.64 485.74403 489.74403 497.74403 504.84803 511.07203 515.072 523.072 530.176 537.28">advertisement it is imperative that they do not lose focus until the main idea has been</tspan></text>
<text xml:space="preserve" transform="matrix(.75 0 0 .75 72 541.16018)" font-size="16" font-family="TimesNewRomanPSMT"><tspan y="14.9375" x="0 7.1040008 13.328001 17.776001 24.880002 32.88 37.328004 41.776006 48.000005 56.000005 63.104005 71.104007 75.104007 79.104007 88.00001 96.00001 101.32801 105.77601 113.77601 120.88001 126.208019 138.65602 146.65602 151.98403 159.08803 163.08803 167.08803 174.19203 182.19203 186.19203 193.29604 201.29604 209.29604 216.40004 221.72805 226.17604 230.62404 236.84804 243.95204 256.40007 263.50407 271.50407 275.95207 279.95207 287.95207 295.05607 302.16007 310.16007 316.38407 320.38407 324.83207 332.83207 336.83207 341.28007 348.38407 355.48808 363.48808 370.59208 374.59208 381.69609 385.69609 390.14408 397.24809 403.47209 407.92008 412.36808 420.36808 428.36808 432.36808 436.81608 449.26408 457.26408 464.36808 471.47209 475.92008 479.92008 487.92008 495.92008 499.92008 505.24809 512.35208 519.45608 527.45608 534.56008 539.88809 546.11209 550.11209 556.33609 564.33609 568.33609 572.78408 580.78408 587.88809 592.33609 596.33609 600.78408">established. Furthermore, an advertisement needs to leave a lasting impact on readers so that it</tspan></text>
<text xml:space="preserve" transform="matrix(.75 0 0 .75 72 568.7578)" font-size="16" font-family="TimesNewRomanPSMT"><tspan y="14.9375" x="0 8 15.104 21.328001 25.328001 32.432004 36.432004 40.880006 47.984006 55.984006 63.984006 68.43201 76.43201 80.880008 87.98401 91.98401 99.08801 104.109378 109.43738 116.54138 123.645389 128.09339 132.09339 140.09339 148.09339 152.09339 156.54138 164.54138 171.64539 176.09339 181.42139 185.42139 190.74939 198.74939 203.19739 211.19739 216.52539 223.6294 227.6294 235.6294 242.7334 250.7334 257.8374 265.8374 270.2854 278.2854 282.70314 286.70314 289.8203 301.3723 309.3723 317.3723 321.3723 325.3723 330.70033 335.14833 343.14833 350.25233 354.70033 359.14833 366.10157 370.10157 374.10157 381.20558 387.42958 391.42958 398.53358 405.63758 413.63758 418.08558 425.18959 433.18959 437.63758 445.63758 453.63758 457.63758 465.63758 473.63758 478.08558 486.08558 490.08558 498.08558 503.41358 507.41358 511.86158 519.8616 526.9656 533.1896 540.2936 544.2936 549.6216 556.7256 562.9496 570.9496 575.3976 579.8456">has a tangible effect on their future behavior. And, finally, as achieving both of these results</tspan></text>
<text xml:space="preserve" transform="matrix(.75 0 0 .75 72 596.35549)" font-size="16" font-family="TimesNewRomanPSMT"><tspan y="14.9375" x="0 8 15.104 22.208 30.208 42.656003 49.760004 55.984 59.984 67.984 75.088008 80.41601 88.41601 95.52001 100.848018 104.848018 111.95202 118.17602 122.17602 126.624019 134.62403 141.72803 145.72803 153.72803 161.72803 174.17603 182.17603 189.28003 194.60803 198.60803 206.60803 211.93604 215.93604 223.93604 231.93604 238.16004 244.38404 248.83203 256.83204 261.28004 268.38404 272.38404 280.38404 284.83204 291.93605 303.48805 310.59205 315.92005 322.14405 326.14405 330.59205 338.59205 345.69606 351.02406 358.12806 365.23207 371.45606 378.56007 384.78407 388.78407 392.78407 399.88807 407.88807 411.88807 418.99208 426.99208 434.99208 442.09608 447.42408 451.87208 456.32008 462.54408 469.64808 482.09608 489.20008 497.20008 501.64808 505.64808 510.09608 516.32009 520.32009 528.32009 533.6481 538.09609 545.2001 553.2001 557.2001 561.6481 568.7521 573.72659 581.72659 588.83059 593.27859 600.38259">becomes harder as the number of possible viewers increases, an advertisement is often targeted</tspan></text>
<text xml:space="preserve" transform="matrix(.75 0 0 .75 72 623.9531)" font-size="16" font-family="TimesNewRomanPSMT"><tspan y="14.9375" x="0 4.4480006 12.448 24 31.104 36.432 44.432 50.656 54.656 61.76 65.759998 71.98399 79.98399 87.088 94.192 98.64 103.968 108.416 115.520008 119.520008 127.520008 132.848 140.848 148.848 156.848 160.848 168.848 174.17601 178.17601 186.17601 193.28002 201.28002 209.28002 213.72801 220.83202 224.83202 231.05602 239.05602 243.05602 247.50402 255.50402 262.608 267.056 271.056 275.504 279.952 283.952 291.056 298.16 306.16 310.16 318.16 325.264 333.264 340.368 344.368 351.47203 355.47203 359.92 367.02403 372.01564 380.01564 387.11964 391.11964 398.22364 403.2578 408.58583 415.68983 422.79383 427.24183 431.24183 439.24183 447.24183 451.24183 458.34584 462.34584 467.67384 474.77784 486.32984 490.32984 498.32984 505.43385 513.43386 521.43386 525.88186 532.98587 536.98587 541.43386 549.43386 555.65786 560.10586 567.20986 574.31387 582.31387 586.31387 594.31387">towards a specific group of people so that it can have a large effect on a few people instead of</tspan></text>
<text xml:space="preserve" transform="matrix(.75 0 0 .75 72 651.5508)" font-size="16" font-family="TimesNewRomanPSMT"><tspan y="14.9375" x="0 8 15.104 23.104 27.552 35.552003 43.552003 47.552003 54.656003 58.656003 70.208 77.312007 84.41601 92.41601 96.41601 103.52001 108.546878 113.87488 120.97888 128.08289 132.53089 136.53089 144.53089 152.53089 156.53089 168.97888 176.08289 184.08289 192.08289 196.08289 204.08289 211.18689 219.18689 227.18689 231.63489 238.73889">having a weak effect on many people.</tspan></text>
</g>
</svg>
