<?xml version="1.0" encoding="UTF-8" standalone="no"?>
<!DOCTYPE svg PUBLIC "-//W3C//DTD SVG 1.1//EN" "http://www.w3.org/Graphics/SVG/1.1/DTD/svg11.dtd">
<svg xmlns="http://www.w3.org/2000/svg" xmlns:xlink="http://www.w3.org/1999/xlink" version="1.1" width="612pt" height="792pt" viewBox="0 0 612 792">
<g enable-background="new">
<path transform="matrix(.75,0,0,.75,0,0)" d="M 0 0 L 816 0 L 816 1056 L 0 1056 Z " fill="#0097a7"/>
<text fill="#eeeeee" xml:space="preserve" transform="matrix(.75 0 0 .75 72 0)" font-size="34.666669" font-family="Arial" font-weight="bold"><tspan y="32.516927" x="0 25.027634 44.30179 53.930406 75.09982 86.640628 96.26924 119.38469 140.55411 161.72353 182.89295 192.52156 213.69098 223.3196 232.94821 242.57683 252.20545 273.37489 292.64906 302.27766 323.44709 344.61653 363.8907 373.5193 392.79347 413.9629 423.5915 442.86567 464.0351 483.30928 502.58345 523.75289 544.9223 556.46316 575.7373">Help! Should I include an anecdote?</tspan></text>
<text fill="#eeeeee" xml:space="preserve" transform="matrix(.75 0 0 .75 72 51.928346)" font-size="18.666666" font-family="ArialMT"><tspan y="17.509116" x="0 5.183304 10.366608 20.742325 31.118042 40.446168 50.821886 56.005189 66.380908 76.75662 81.939929 86.08475 101.62555 112.00127 122.37698 128.58966 133.77297 144.14868 154.5244 159.7077 164.891 175.26673 185.64244 196.01816 206.39388 212.60655 217.78986 228.16558 238.54129 248.917 254.10031 258.24513 268.62086 273.80415 278.98744 292.4604 302.83613 308.0194 318.39515 328.77088 338.099 347.42713 352.6104 357.7937 368.16944 378.54518 388.9209 394.1042 399.28749 404.47077 414.8465 430.3873 435.57063 444.89875 450.08204 456.2947 466.6704 477.04615 487.42189 491.5667 495.71156 506.08729 516.463 521.6463 526.8296 537.2053 542.3886 552.76437 563.1401 572.4682 576.61306 586.9888">I have an important paper due in two days, and I am struggling to decide</tspan></text>
<text fill="#eeeeee" xml:space="preserve" transform="matrix(.75 0 0 .75 72 70.44177)" font-size="18.666666" font-family="ArialMT"><tspan y="17.509116" x="0 13.472946 23.848664 34.22438 39.407686 49.7834 60.15912 66.371799 71.5551 76.7384 81.92171 91.24983 101.62555 112.00127 122.37698 126.521808 136.89752 142.08083 146.22565 156.60137 165.92949 170.07431 180.45003 190.82575 201.20146 206.38477 216.76049 227.1362 232.3195 242.69522 253.07094 263.44667 272.77479 283.1505 293.52626 298.70954 309.08528 314.26856 318.4134 328.78913 333.9724 349.5132 358.84135 364.02467 377.49763 383.7103 387.8551 393.0384 397.18324 407.55897 417.9347 423.11799 428.30128 433.48457 438.66786 449.04359 459.4193 468.74745 479.12318 484.30647 494.6822 505.05793 515.43368 521.64639 532.0221 537.2054 546.5335 556.90927 567.285 572.46829 576.6131 580.75796 590.08609 595.26937 599.4142 609.7899">whether I should include an anecdote in my writing. I have heard conflicting</tspan></text>
<text fill="#eeeeee" xml:space="preserve" transform="matrix(.75 0 0 .75 72 88.9552)" font-size="18.666666" font-family="ArialMT"><tspan y="17.509116" x="0 10.375717 20.751435 24.896256 35.271974 39.416795 49.79251 60.16823 69.49635 74.67966 85.055377 95.43109 100.614398 105.7977 116.173419 126.54913 131.73244 136.91574 147.29146 153.50414 169.04494 174.22824 184.60396 189.78726 194.97057 205.34629 214.67441 218.81923 229.19495 239.57067 249.94638 259.2745 269.6502 274.8335 280.01679 290.39253 300.76826 311.14399 316.32728 326.703 342.2438 347.42713 360.9001 371.27583 381.65156 392.02729 402.403 408.6157 412.7605 423.13624 433.51197 438.69526 452.1682 462.54396 472.91969 478.10298 483.28627 488.46955 498.84529 509.221 514.4043 527.87728 534.08999 538.2348 543.4181 547.5629 557.93869">opinions on the form of evidence, and am wondering what the writing</tspan></text>
<text fill="#eeeeee" xml:space="preserve" transform="matrix(.75 0 0 .75 72 107.46863)" font-size="18.666666" font-family="ArialMT"><tspan y="17.509116" x="0 9.328125 14.511429 24.887146 35.262865 39.407686 49.7834 59.111528 64.29483 73.622959 83.99867 99.539478 115.08028 125.45599 135.83171 139.97653 145.15984 154.48796 159.67127 170.04698 180.4227 189.75083 194.93413 200.11743 210.49315 215.67646 225.00458 235.3803 244.70842 249.89173 260.26747 270.6432 281.01893 291.39466 296.57795 301.76124 305.90608 311.08937 316.27265 321.45594 339.06459 343.2094 347.35426 351.49909 356.68238 360.8272 366.0105 371.1938 381.56953 391.94526 398.15794 407.48606 417.86177 428.2375 437.5656 441.71046 451.03858 461.4143 465.55915 474.88728 480.07057 489.39869 499.7744 510.15016 520.5259 530.9016 537.11428 542.29757 547.48086 563.0216">studies community has to say about it. Will it persuasively support my</tspan></text>
<text fill="#eeeeee" xml:space="preserve" transform="matrix(.75 0 0 .75 72 125.982059)" font-size="18.666666" font-family="ArialMT"><tspan y="17.509116" x="0 15.540802 25.91652 35.244646 44.57277 54.948488 65.3242 75.69992 80.883228 86.06653 96.442249 102.65492 107.83823 121.31117 125.45599 129.60082 133.74564 138.92894 143.07376 148.25707 153.44037 163.81609 167.9609 177.28903 182.47234 188.68502 199.06073 208.38886 213.57216 218.75547 224.96814 235.34386 245.71958 256.09529 266.471 272.6837 282.0118 287.19514 292.37843 298.5911 308.9668 324.5076 329.69093 333.83576 337.9806 347.30873 352.492 362.86775 373.24348 377.3883 387.76405 398.13978 403.32307 408.50636 418.88209 424.06538 437.53834 447.91407 458.2898 463.47309 468.65638 473.83967 479.02296 489.39869 499.7744 509.10255 519.4783 524.66159 529.84487 540.2206 545.4039 554.732 565.1077 574.43588">message, or will it distract readers from listening to what I have to say?</tspan></text>
<text fill="#eeeeee" xml:space="preserve" transform="matrix(.75 0 0 .75 72 163.00891)" font-size="18.666666" font-family="ArialMT"><tspan y="17.509116" x="0 11.395981 21.771698 32.147417 42.523134 51.851259 61.179384 66.362689 70.50751 80.883228 85.036579 97.48015 107.855869 117.18399 127.55971 137.93543 147.26355 157.63927">Thanks in Advance!</tspan></text>
<text fill="#b7b7b7" xml:space="preserve" transform="matrix(.75 0 0 .75 72 200.03577)" font-size="21.333334" font-family="ArialMT"><tspan y="20.010416" x="0 12.455292 17.203858 31.42955 42.093614 53.955308 58.69374 65.79617 70.53461 82.3963 94.257999 114.00308 121.105518 125.84395 131.76959 143.63129 150.73372 162.59542">~ AspiringWriter75</tspan></text>
<text fill="#eeeeee" xml:space="preserve" transform="matrix(.75 0 0 .75 72 221.19397)" font-size="14.666667" font-family="ArialMT"><tspan y="13.757161" x="0 8.151108 16.302216 24.453324 32.60443 40.75554 48.906648 57.057756 65.20886 73.35997 81.51108 89.662189 97.81329 105.9644 114.11551 122.26662 130.41773 138.56884 146.71994 154.87105 163.02216 171.17327 179.32437 187.47548 195.62659 203.7777 211.9288 220.07991 228.23102 236.38213 244.53324 252.68434 260.83546 268.98658 277.1377 285.28883 293.43995 301.59107 309.7422 317.8933 326.04444 334.19557 342.34669 350.4978 358.64894 366.80006 374.95118 383.1023 391.25343 399.40455 407.55567 415.7068 423.8579 432.00904 440.16017 448.31129 456.4624 464.61354 472.76466 480.91578 489.0669 497.21803 505.36915 513.52029 521.6714 529.8225 537.97366 546.12478 554.2759 562.427 570.5781 578.72927 586.8804 595.0315">__________________________________________________________________________</tspan></text>
<text fill="#eeeeee" xml:space="preserve" transform="matrix(.75 0 0 .75 72 235.74024)" font-size="14.666667" font-family="Arial" font-weight="bold"><tspan y="13.757161" x="0 10.584274 18.735383 27.688004 31.75998 35.831956 43.983064 52.13417 56.206148 61.086793 69.2379 77.38901 82.26965">Replies (12):</tspan></text>
<text fill="#b7b7b7" xml:space="preserve" transform="matrix(.75 0 0 .75 72 287.66859)" font-size="20" font-family="ArialMT"><tspan y="18.759766" x="0 20.300004 33.640005 40.300004 44.740007 54.740007 60.300008 71.420009 76.98 81.420009">@Aristotle</tspan></text>
<text fill="#eeeeee" xml:space="preserve" transform="matrix(.75 0 0 .75 72 325.05067)" font-size="14.666667" font-family="ArialMT"><tspan y="13.757161" x="0 14.878098 24.653702 31.981827 40.132936 43.389085 48.26973 51.52588 59.676988 67.828098 81.39639 86.27704 89.53319 93.60516 101.75627 106.63692 114.788028">@AspiringWriter75</tspan></text>
<text fill="#eeeeee" xml:space="preserve" transform="matrix(.75 0 0 .75 72 339.59693)" font-size="16" font-family="ArialMT"><tspan y="15.0078129" x="0 13.328001 21.328001 25.776001 33.776 38.224004 47.120004 56.016004 64.01601 68.464008 77.36001 81.80801 86.256008 91.58401 100.48001 109.376018 113.82401 122.72002 128.04802 131.60002 139.60002 144.04802 152.94402 161.84001 169.84001 174.28801 177.84001 186.73601 195.632 200.08 213.408 222.304 226.752 231.2 240.096 244.54399 253.43999 262.336 265.888 269.44 278.336 286.336 295.232 299.68 304.128 313.024 321.91999 326.36799 330.81599 339.71199 348.60798 357.50398 365.50398 374.39997 383.29597 387.74397 396.63996 404.63996 409.08796 417.08796 425.98396 434.87995 439.32795 448.22395 457.11994 461.56794 470.46394 474.91194 483.80793 491.80793 500.70393 505.15193 514.0479 517.5999 522.0479 526.4959 535.3919 544.2879 547.8399 552.2879 555.8399">My study of rhetoric has led me to believe that anecdotes can be a useful tool in</tspan></text>
<text fill="#eeeeee" xml:space="preserve" transform="matrix(.75 0 0 .75 72 355.46559)" font-size="16" font-family="ArialMT"><tspan y="15.0078129" x="0 8.896001 17.792002 26.688004 32.016004 40.912004 48.912004 56.912004 60.464006 69.36001 78.25601 82.70401 86.25601 95.152019 100.48002 109.37602 118.272029 122.720027 130.72003 136.04804 144.94403 156.49604 165.39203 173.39203 177.84003 186.73603 195.63202 204.52802 208.97602 212.52802 221.42401 225.87201 234.768 243.664 247.216 255.216 263.216 266.768 274.768 279.216 288.112 297.008 310.336 319.232 328.128 336.128 340.576 345.904 354.8 359.248 362.8 371.69599 380.59199 385.03999 389.48799 398.38398 407.27998 411.72798 425.05598 433.95198 439.27998 442.83198 447.27998 455.27998 459.72798 468.62397 473.07197 477.51997 486.41596 495.31196 499.75996 503.31196 512.20797 521.10397 529.99996 534.44796 538.89596 548.67196 557.56796">addressing large crowds and in quickly demonstrating the merits of an idea. For</tspan></text>
<text fill="#eeeeee" xml:space="preserve" transform="matrix(.75 0 0 .75 72 371.33424)" font-size="16" font-family="ArialMT"><tspan y="15.0078129" x="0 8.896001 16.896 25.792 39.120004 48.016004 51.568006 60.464006 64.912 69.36 73.808 82.704 91.600009 96.048007 104.94401 110.27201 119.168018 128.06401 132.51201 136.96 144.96 149.408 158.304 163.632 171.632 176.08 184.976 188.528 192.08 200.976 206.304 209.88282 220.55481 229.4508 237.4508 246.3468 255.2428 259.6908 264.1388 273.0348 276.5868 285.4828 289.9308 294.37879 303.27479 312.17079 315.72279 324.61878 332.61878 337.06678 341.51478 350.41078 359.30677 363.75477 368.20277 376.20277 385.09877 393.99476 397.54676 406.44276 410.89076 418.89076 427.78675 436.68275 444.68275 448.23475 457.13075 465.13075 474.02674 478.47474 487.37074 496.26673 505.16273 514.0587 518.5067 527.4027 536.2987 545.1947 548.7467 557.6427 566.5387 574.5387 583.4347 591.4347 595.8827 604.7787">example, the great storyteller Aesop told fables that could convince huge audiences of</tspan></text>
<text fill="#eeeeee" xml:space="preserve" transform="matrix(.75 0 0 .75 72 387.20289)" font-size="16" font-family="ArialMT"><tspan y="15.0078129" x="0 8.896001 12.448001 20.448002 24.896002 33.792005 42.688005 48.016004 56.016004 64.912 73.80801 81.80801 86.256008 89.80801 97.80801 106.70401 111.15201 115.32031 125.09631 133.99231 142.8883 147.3363 151.7843 160.6803 169.5763 173.1283 182.02429 190.92029 195.36829 203.36829 212.26428 215.81629 224.71228 229.16028 233.60828 237.16028 241.60828 246.05628 257.60829 266.50428 275.40028 278.95228 287.84828 292.29627 301.19227 310.08827 314.53627 323.43226 332.32826 336.77626 341.22425 350.12025 355.44825 359.89625 363.44825 367.89625 372.34425 380.34425 389.24024 398.13624 402.58424 411.48023 419.48023 428.37623 437.27223 441.7202 450.6162 458.6162 462.1682 471.0642 479.9602 488.8562 496.8562 505.7522 510.2002 519.0962 527.9922 535.9922 544.8882 553.7842 558.2322 567.1282">his perspective. That being said, it would be better if you used evidence based on</tspan></text>
<text fill="#eeeeee" xml:space="preserve" transform="matrix(.75 0 0 .75 72 403.07154)" font-size="16" font-family="ArialMT"><tspan y="15.0078129" x="0 8.896001 12.448001 20.448002 24.896002 33.792005 39.120004 42.672006 50.672006 59.568006 63.120008 67.56801 72.01601 80.91201 88.91201 93.36001 101.36001 105.80801 109.36001 118.25601 126.25601 130.70401 139.6 148.496 157.392 161.84 170.736 175.18399 179.63199 184.07999 192.97599 196.52799 200.07999 203.63199 212.52799 221.42398 225.87198 234.76798 239.21598 247.21598 251.66397 260.55998 265.88798 272.71876 277.16676 281.3203 291.0963 299.9923 308.8883 313.3363 322.2323 331.1283 339.1283 343.5763 348.0243 351.5763 359.5763 364.0243 368.4723 377.3683 386.26429 390.71229 399.60829 404.93629 413.83229 422.72828 427.17628 436.07228 444.07228 448.52027 452.96827 461.86427 467.19227 476.08827 484.98426 488.53627 496.53627 500.98426 509.88026 515.20828 519.65628 528.55227 533.00027 537.44827 541.89627 550.79226 559.68826 564.1362 568.5842 577.4802 581.9282 590.8242 596.1522 605.0482">historical facts instead of telling a story. The past is the greatest predictor of the future,</tspan></text>
<text fill="#eeeeee" xml:space="preserve" transform="matrix(.75 0 0 .75 72 418.9402)" font-size="16" font-family="ArialMT"><tspan y="15.0078129" x="0 8 16.896 21.344 30.240002 39.136 48.032 56.032 64.928 73.824008 78.272 87.16801 95.16801 99.616008 108.51201 113.84001 122.736019 127.18401 130.73601 134.28801 138.73601 143.184 146.73601 155.632 160.08 173.408 182.304 187.632 196.528 200.976 205.424 214.31999 223.21599 232.11199 236.55998 245.45598 249.90398 257.904 266.8 275.69599 284.59199 293.48799 297.93598 301.48799 314.81599 323.71199 327.26399 331.71199 339.71199 348.60798 357.50398 365.50398 369.95198 373.50398 377.95198 386.84797 391.29597 400.19197 404.63996 409.08796 417.98396 423.31196 427.75996 432.20796 441.10395 449.10395 453.55195 458.87995 467.77595 476.67195 484.67195 493.56794 502.46394 506.91194 515.8079 523.8079 527.3599 536.2559 545.1519 554.0479 562.0479 570.9439">so anecdotes are little more than a suboptimal substitute for fact-based evidence.</tspan></text>
<text fill="#b7b7b7" xml:space="preserve" transform="matrix(.75 0 0 .75 72 450.6775)" font-size="20" font-family="ArialMT"><tspan y="18.759766" x="0 20.300004 30.300004 41.420007 52.54001 63.66001 69.22001 83.66001 94.780017 99.22002 110.34002 121.46002 128.12003">@John Reinard</tspan></text>
<text fill="#eeeeee" xml:space="preserve" transform="matrix(.75 0 0 .75 72 486.5133)" font-size="16" font-family="ArialMT"><tspan y="15.0078129" x="0 16.240002 26.912003 32.24 35.792005 43.792005 48.240007 57.136007 61.584009 65.13601 74.03201 78.48001 94.72002 105.39201 113.39201 122.28802 125.84002 131.16802 134.72002 143.61602 152.51201 167.34375 172.67176 176.22376 180.67176 189.56775 194.89575 203.79175">@Aristotle @AspiringWriter75</tspan></text>
<text fill="#eeeeee" xml:space="preserve" transform="matrix(.75 0 0 .75 72 502.38197)" font-size="16" font-family="ArialMT"><tspan y="15.0078129" x="0 13.328001 22.224003 31.120003 40.016004 45.344 54.24 58.688005 67.58401 76.48001 80.92801 89.82401 94.27201 103.168018 106.72002 114.72002 123.61602 132.51203 137.84003 146.73603 155.63202 163.63202 168.08002 179.63202 183.18402 187.63202 196.52802 200.97602 208.97602 217.87201 226.768 232.09601 236.544 244.544 248.09601 256.992 264.992 272.992 276.544 284.544 293.44 296.992 301.44 310.336 319.232 322.784 326.336 335.232 339.68 347.68 352.128 356.576 365.472 374.36799 378.81599 383.26399 392.15998 401.05598 409.95198 417.95198 426.84797 435.74397 440.19197 449.08796 457.08796 461.53596 470.43196 475.75996 484.65596 489.10395 502.43196 511.32795 516.65597 525.55197 529.10397 537.10397 541.55197 550.44796 554.89596 566.44796 575.34396 584.2399 592.2399 601.1359">Modern data disagrees with your classical beliefs that anecdotes are merely a weaker</tspan></text>
<text fill="#eeeeee" xml:space="preserve" transform="matrix(.75 0 0 .75 72 518.2506)" font-size="16" font-family="ArialMT"><tspan y="15.0078129" x="0 8 16.896 22.223999 30.223999 33.776 42.672 51.568 56.016004 64.912 69.36 73.808 82.704 96.032009 104.92801 108.48001 113.808017 117.360019 125.360019 134.25601 137.80802 142.25601 151.15201 159.15201 162.70401 171.6 180.496 189.392 197.392 206.288 210.736 214.32813 225.00012 233.89612 242.79212 246.34412 254.34412 262.34413 265.89613 273.89613 278.34413 287.2401 291.6881 296.1361 304.1361 308.5841 317.4801 326.3761 329.9281 338.8241 346.8241 351.2721 355.7201 361.0481 369.9441 383.2721 387.7201 392.1681 401.0641 409.96009 414.40809 423.30409 432.20008 441.09608 449.99208 453.27345 461.27345 465.72145 473.72145 482.61744 491.51344 503.06544 511.06544 515.5134 519.9614 528.8574 537.7534 542.2014 546.6494 554.6494 559.0974 567.9934 572.4414 575.9934 583.9934 588.4414 591.9934 599.9934">version of empirical evidence. Analysis of studies from the 1950&#x2019;s shows that statistics</tspan></text>
<text fill="#eeeeee" xml:space="preserve" transform="matrix(.75 0 0 .75 72 534.11929)" font-size="16" font-family="ArialMT"><tspan y="15.0078129" x="0 8.896001 17.792002 26.688004 31.136004 40.032007 48.928007 57.824007 65.824008 74.72001 83.61601 88.06401 96.960018 104.960018 109.40801 118.304019 127.20002 131.64803 140.54402 149.44002 153.88802 158.33602 167.23201 170.78401 174.96094 179.40894 188.30493 193.63294 198.08094 206.08094 209.63294 218.52893 227.42493 230.97693 235.42493 238.97693 246.97693 255.87293 264.76893 269.21693 272.76893 280.76893 285.21693 288.76893 297.66493 302.1129 306.5609 315.4569 324.3529 327.9049 333.2329 337.6809 346.5769 355.4729 359.0249 362.5769 366.1289 370.5769 378.5769 383.0249 387.4729 396.3689 400.8169 409.7129 418.6089 423.9369 431.9369 440.8329 449.72889 458.62489 467.52088 471.96888 480.86488 489.76087 494.20887 503.10487 512.00088 520.89688 524.44888 533.34487 542.24087 550.24087 559.13687 563.58486 567.1953 577.8673 586.7633 595.6593">and anecdotes do not differ significantly in their ability to persuade an audience. And,</tspan></text>
<text fill="#eeeeee" xml:space="preserve" transform="matrix(.75 0 0 .75 72 549.9879)" font-size="16" font-family="ArialMT"><tspan y="15.0078129" x="0 8 16.896 25.792 30.24 39.136 52.464006 61.360006 70.256008 75.58401 84.48001 89.808017 97.808017 102.25601 107.584018 116.48002 124.48002 133.37602 142.27202 147.60002 155.60002 164.49602 168.94402 176.94402 185.84001 194.73601 203.632 212.528 220.528 224.976 232.976 237.424 241.872 250.76799 259.664 264.112 268.56 277.456 286.352 295.248 303.248 312.14399 321.03999 325.48799 334.38398 337.93598 342.38398 347.71199 356.60798 365.50398 374.39997 379.72798 384.17597 387.72798 396.62397 405.51997 409.96797 413.51997 421.51997 425.96797 439.29597 448.19197 453.51997 462.41596 466.86396 475.75996 484.65596 496.20796 505.10395 510.43196 514.87997 523.77597 527.32797 531.77597 536.22396 545.11996 554.0159">contemporary research suggests that anecdotal reporting is more powerful than</tspan></text>
<text fill="#eeeeee" xml:space="preserve" transform="matrix(.75 0 0 .75 72 565.85659)" font-size="16" font-family="ArialMT"><tspan y="15.0078129" x="0 8.896001 17.792002 31.120003 40.016004 45.344 48.896005 56.896005 65.79201 69.34401 73.79201 82.68801 91.584018 96.03201 104.92802 109.376018 118.27202 126.27202 130.72002 139.61602 148.51201 157.408 165.408 174.304 183.2 187.648 196.54399 204.54399 208.99199 217.88799 222.33599 226.78398 235.67998 244.57598 249.02397 257.91999 266.81599 271.26399 275.71199 283.71199 287.26399 296.15998 304.15998 313.05598 318.38398 322.83198 327.27998 336.17597 340.62397 345.07197 353.96797 362.86396 367.31196 375.31196 384.20796 393.10395 396.65596 405.55195 413.55195 417.99995 422.44795 431.34394 440.23994 443.79194 452.68794 461.58393 466.03193 474.92793 478.47993 486.47993 494.47993 503.37593 511.37593 519.3759 528.2719 537.1679 541.6159 546.0639 554.9599 563.8559 572.7519 577.1999 580.7519 589.6479 598.5439">numerical data as anecdotes often get closer to the subject being discussed than lone</tspan></text>
<text fill="#eeeeee" xml:space="preserve" transform="matrix(.75 0 0 .75 72 581.7252)" font-size="16" font-family="ArialMT"><tspan y="15.0078129" x="0 8.896001 17.792002 31.120003 40.016004 48.912004 54.24 62.24">numbers.</tspan></text>
<text fill="#b7b7b7" xml:space="preserve" transform="matrix(.75 0 0 .75 72 613.4625)" font-size="20" font-family="ArialMT"><tspan y="18.759766" x="48 68.3 78.3 89.420009 106.08001 117.20001 127.20001 132.76001 146.1 157.22 168.34 178.34 182.78 193.9">@James Baesler</tspan></text>
<text fill="#eeeeee" xml:space="preserve" transform="matrix(.75 0 0 .75 72 649.29837)" font-size="16" font-family="ArialMT"><tspan y="15.0078129" x="48 64.240009 72.240009 81.13601 90.03201 98.92802 103.376018 119.61601 130.28801 135.61602 139.16802 147.16802 151.61602 160.51201 164.96 168.51201">@John @Aristotle</tspan></text>
<text fill="#eeeeee" xml:space="preserve" transform="matrix(.75 0 0 .75 72 665.167)" font-size="16" font-family="ArialMT"><tspan y="15.0078129" x="48 57.776 66.672008 70.22401 78.22401 82.672008 90.672008 99.56801 108.46401 116.46401 125.360019 130.68802 138.68802 147.58402 152.03202 155.58402 164.48001 173.376 177.824 183.15201 192.048 195.6 204.496 208.944 217.84 225.84 230.288 234.736 243.63199 248.07999 261.408 269.408 273.856 279.184 288.08 296.08 304.97599 313.87199 319.19999 327.19999 336.09599 340.54399 352.09599 360.99198 364.54399 372.54399 381.43998 385.88798 394.78398 400.11198 409.00798 417.90397 425.90397 433.90397 438.35197 447.24797 455.24797 458.79997 467.69596 476.59196 485.48796 493.48796 502.38395 506.83195 515.72799 524.62399 536.17599 545.07199 549.51998 553.07199 561.96798 566.41598 575.31198 579.75997 584.20797 595.75997">This conversation relates to my research which breaks evidence down into two</tspan></text>
<text fill="#eeeeee" xml:space="preserve" transform="matrix(.75 0 0 .75 72 681.03567)" font-size="16" font-family="ArialMT"><tspan y="15.0078129" x="48 56 64.896 69.344 78.240009 87.13601 96.03201 101.360019 104.91202 113.80802 121.80802 126.25602 130.70403 135.15203 144.04802 152.04802 156.49602 160.04802 173.37602 182.27202 191.16802 194.72002 203.61602 207.16802 211.61602 220.51201 229.408 238.304 242.752 247.2 256.096 264.096 268.544 272.992 277.16407 285.16407 294.06007 302.06007 306.50807 310.06007 323.38807 332.28407 341.18006 344.73207 353.62806 357.18006 361.62806 370.52406 378.52406 382.07606 390.97206 399.86805 408.76405 416.76405 425.66004 430.10804 433.66004 441.66004 446.10804 455.00404 463.90003 471.90003 476.34803 485.24403 488.79603 497.69203 506.588 511.036 515.484 524.38 533.276 537.724 542.172 551.068 559.964 568.86 576.86 581.308 590.204 599.1">categories: testimonial and fact. Testimonial evidence is anything that does not</tspan></text>
<text fill="#eeeeee" xml:space="preserve" transform="matrix(.75 0 0 .75 72 696.9043)" font-size="16" font-family="ArialMT"><tspan y="15.0078129" x="48 56.896 65.792 73.792 82.688 87.136 96.032009 100.48 113.80801 122.70401 127.15201 136.048 144.944 158.272 167.168 171.616 175.168 183.168 192.064 195.616 200.064 208.95999 217.85599 225.85599 229.40799 237.40799 241.85599 246.30399 250.75199 255.19998 259.64799 263.19999 272.09599 280.09599 284.54399 293.43998 302.33598 311.23197 315.67997 320.12797 329.02397 332.57597 336.12797 344.12797 348.57597 357.47196 361.91996 369.91996 374.36796 383.26396 388.59196 396.59196 401.03996 405.48796 414.38395 423.27995 427.72795 432.17594 440.17594 449.07194 457.96794 466.86393 475.75993 481.08793 485.53593 493.53593 497.98393 502.43193 511.3279 520.22396 524.67196 536.22396 541.55197 545.10397 549.55197 558.44796 564.3906 567.65628">have a mathematical basis. It instead tells a story that supports the writer&#x2019;s</tspan></text>
<text fill="#eeeeee" xml:space="preserve" transform="matrix(.75 0 0 .75 72 712.77297)" font-size="16" font-family="ArialMT"><tspan y="15.0078129" x="48 56.896 65.792 71.12 79.12 88.01601 96.91201 104.91201 109.36001 112.91201 120.91201 129.80802 134.25601 138.70401 151.15201 160.048 164.496 168.944 177.84 186.736 191.18399 200.07999 204.52799 213.42398 222.31998 227.64798 232.09598 240.09598 243.64798 252.54398 261.43998 265.88798 274.78398 279.23197 283.67997 288.12797 297.02397 300.57597 309.47196 318.36796 326.36796 330.81596 335.26396 339.71195 348.60795 356.60795 361.05595 369.95195 378.84794 382.39994 386.84794 395.74394 403.74394 407.29594 416.19194 425.08793 433.98393 441.98393 450.8799 455.3279 464.2239 472.2239 481.1199 489.1199 493.5679 501.5679 506.0159 514.9119 519.3599 522.9119 530.9119 535.3599 538.9119 546.9119 555.8079 559.3599 563.8079 572.7039 581.5999">perspective. On the other side of things, factual evidence uses statistical and</tspan></text>
<text fill="#eeeeee" xml:space="preserve" transform="matrix(.75 0 0 .75 72 728.6416)" font-size="16" font-family="ArialMT"><tspan y="15.0078129" x="48 56.896 65.792 73.792 82.688 88.01601 96.01601 104.91201 109.36001 112.91201 121.808017 130.70401 139.6 143.15201 147.6 156.496 164.496 168.048 176.944 185.84 194.736 202.736 211.63199 216.07999 220.52799 229.42398 233.87198 241.87198 250.76798 259.66398 268.55998 277.45597 282.78398 287.23197 291.67997 300.57597 305.02397 316.57597 321.90397 325.45597 329.90397 338.79997 344.7578 348.02345 356.02345 360.47145 369.36744 374.69544 383.59144 392.48744 405.81544 414.71144 423.60743 428.05543 432.50343 436.0703 446.7423 455.6383 464.5343 468.0863 476.0863 484.0863 487.6383 496.5343 505.4303 509.8783 523.2063 532.1023 537.4303 546.3263 550.7743 556.1023 564.9983 572.9983 581.8943 590.7903">observational evidence to support a writer&#x2019;s argument. Analyzing more recent</tspan></text>
<text fill="#eeeeee" xml:space="preserve" transform="matrix(.75 0 0 .75 72 744.51028)" font-size="16" font-family="ArialMT"><tspan y="15.0078129" x="48 56 60.448 69.344 78.240009 81.79201 90.68801 98.68801 103.13601 112.03201 120.92802 128.92801 133.376 136.92801 145.824 154.72 159.168 172.496 181.392 185.84 190.288 199.18399 203.63199 211.63199 220.52799 229.42398 237.42398 240.97599 249.87198 258.76799 267.66398 272.11198 276.55998 285.45597 294.35197 298.79997 303.24797 307.69596 316.59196 325.48796 330.81596 339.71195 344.15995 347.71195 355.71195 360.15995 373.48796 377.03996 385.03996 393.93595 402.83195 407.27995 416.17594 424.17594 427.72795 436.62394 445.51994 454.41593 462.41593 471.31193 475.75993 484.6559 492.6559 497.1039 501.5519 510.4479 514.89596 526.44796 535.34396 538.89596 546.89596 555.79196 560.2399 564.6879 573.5839 578.9119 592.2399 596.6879 605.5839">studies has led me to conclude that there is mixed evidence as to which form of</tspan></text>
<text fill="#eeeeee" xml:space="preserve" transform="matrix(.75 0 0 .75 72 760.3789)" font-size="16" font-family="ArialMT"><tspan y="15.0078129" x="48 56.896 64.895999 68.448 77.344 86.240009 95.13601 103.13601 112.03201 116.48001 120.03201 128.03202 132.48001 145.80802 154.70401 160.03202 168.92801 173.376 182.272 191.168 200.064 208.95999 214.288 223.18399 226.736 230.288 238.288 242.736 251.63199 260.52799 265.856 273.856 282.75199 291.64799 299.64799 303.19999 311.19999 320.09599 324.54399 328.99198 336.99198 345.88798 350.33598 354.78398 363.67997 372.57597 377.02397 381.47196 385.91996 390.36796 403.69596 412.59196 420.59196 425.03996 429.48796 438.38395 441.93595 449.93595 458.83195 463.27995 472.17594 475.72795 483.72795 492.62394 501.51994 506.84794 515.74398 524.63998 529.08798 540.63998 544.19198 548.63998">evidence is more generally persuasive, so that I must also disagree with</tspan></text>
<text fill="#eeeeee" xml:space="preserve" transform="matrix(.75 0 0 .75 72 776.24758)" font-size="16" font-family="ArialMT"><tspan y="15.0078129" x="48 58.672 64 67.552 75.552 80 88.896 93.344 96.896 105.79201 108.84801 116.84801 121.296009 129.296 132.848 141.744 145.296 158.62401 163.072 167.52 176.416 185.312 189.76 194.208 203.10399 211.99999 220.89598 228.89598 237.79198 246.68798 251.13597 260.03199 268.03199 272.47999 281.37599 286.70399 295.59999 300.04798 308.04798 312.49598 317.82398 321.37599 329.37599 333.82398 337.37599 345.37599 349.82398 361.37599 370.27198 375.59999 383.59999 392.49598 396.94398 401.39198 410.28797 419.18397 428.07997 432.52796 436.97596 445.87196 453.87196 458.31996 463.64796 472.54396 481.43995 489.43995 498.33595 507.23194 511.67994 520.5759 524.1279 528.5759 537.4719 542.7999 551.6959 560.5919 565.0399 568.5919 576.5919 585.4879 593.4879">Aristotle's claim that anecdotes are strictly worse than fact-based alternatives.</tspan></text>
</g>
</svg>
