<?xml version="1.0" encoding="UTF-8" standalone="no"?>
<svg
   xmlns:dc="http://purl.org/dc/elements/1.1/"
   xmlns:cc="http://creativecommons.org/ns#"
   xmlns:rdf="http://www.w3.org/1999/02/22-rdf-syntax-ns#"
   xmlns:svg="http://www.w3.org/2000/svg"
   xmlns="http://www.w3.org/2000/svg"
   viewBox="0 0 816 1056"
   height="1056"
   width="816"
   xml:space="preserve"
   id="svg2"
   version="1.1"><metadata
     id="metadata8"><rdf:RDF><cc:Work
         rdf:about=""><dc:format>image/svg+xml</dc:format><dc:type
           rdf:resource="http://purl.org/dc/dcmitype/StillImage" /></cc:Work></rdf:RDF></metadata><defs
     id="defs6" /><g
     transform="matrix(1.3333333,0,0,1.3333333,0,2.64e-5)"
     id="g10"><g
       transform="scale(0.75)"
       id="g12"><path
         id="path14"
         style="fill:#ffffff;fill-opacity:1;fill-rule:nonzero;stroke:none"
         d="M 0,0 H 816 V 1056 H 0 Z" /></g><g
       transform="matrix(0.75,0,0,0.75,72,72)"
       id="g16"><text
         id="text20"
         style="font-variant:normal;font-weight:normal;font-size:16px;font-family:TimesNewRomanPSMT;-inkscape-font-specification:TimesNewRomanPSMT;writing-mode:lr-tb;fill:#000000;fill-opacity:1;fill-rule:nonzero;stroke:none"
         transform="translate(0,14.9375)"><tspan
           id="tspan18"
           y="0"
           x="0 11.554688 19.554688 24 31.101562 35.101562 46.65625 54.65625 67.101562 74.203125">Kyle Kumar</tspan></text>
</g><g
       transform="matrix(0.75,0,0,0.75,72,99.597656)"
       id="g22"><text
         id="text26"
         style="font-variant:normal;font-weight:normal;font-size:16px;font-family:TimesNewRomanPSMT;-inkscape-font-specification:TimesNewRomanPSMT;writing-mode:lr-tb;fill:#000000;fill-opacity:1;fill-rule:nonzero;stroke:none"
         transform="translate(0,14.9375)"><tspan
           id="tspan24"
           y="0"
           x="0 11.554688 18.65625 23.101562 27.546875 31.546875 37.773438 45.773438 53.773438 61.773438 68 76">Neil Johnson</tspan></text>
</g><g
       transform="matrix(0.75,0,0,0.75,72,127.19531)"
       id="g28"><text
         id="text32"
         style="font-variant:normal;font-weight:normal;font-size:16px;font-family:TimesNewRomanPSMT;-inkscape-font-specification:TimesNewRomanPSMT;writing-mode:lr-tb;fill:#000000;fill-opacity:1;fill-rule:nonzero;stroke:none"
         transform="translate(0,14.9375)"><tspan
           id="tspan30"
           y="0"
           x="0 14.460938 19.789062 24.234375 28.679688 33.125 41.125 49.125 53.125">Writing 2</tspan></text>
</g><g
       transform="matrix(0.75,0,0,0.75,72,154.79297)"
       id="g34"><text
         id="text38"
         style="font-variant:normal;font-weight:normal;font-size:16px;font-family:TimesNewRomanPSMT;-inkscape-font-specification:TimesNewRomanPSMT;writing-mode:lr-tb;fill:#000000;fill-opacity:1;fill-rule:nonzero;stroke:none"
         transform="translate(0,14.9375)"><tspan
           id="tspan36"
           y="0"
           x="0 8 12 23.554688 30.65625 37.757812 44.859375 57.304688 65.304688 72.40625 77.734375 81.734375 89.734375 97.734375 105.73438">9 December 2021</tspan></text>
</g><g
       transform="matrix(0.75,0,0,0.75,72,182.39063)"
       id="g40"><text
         id="text44"
         style="font-variant:normal;font-weight:normal;font-size:16px;font-family:TimesNewRomanPSMT;-inkscape-font-specification:TimesNewRomanPSMT;writing-mode:lr-tb;fill:#000000;fill-opacity:1;fill-rule:nonzero;stroke:none"
         transform="translate(271.98047,14.9375)"><tspan
           id="tspan42"
           y="0"
           x="0 13.820312 21.820312 27.148438 35.148438 41.375 45.375 56.046875 60.492188 64.9375 72.039062">Works Cited</tspan></text>
</g><g
       transform="matrix(0.75,0,0,0.75,72,237.58594)"
       id="g46"><text
         id="text50"
         style="font-variant:normal;font-weight:normal;font-size:16px;font-family:TimesNewRomanPSMT;-inkscape-font-specification:TimesNewRomanPSMT;writing-mode:lr-tb;fill:#000000;fill-opacity:1;fill-rule:nonzero;stroke:none"
         transform="translate(0,14.9375)"><tspan
           id="tspan48"
           y="0"
           x="0 11.554688 19.554688 27.554688 34.65625 46.210938 53.3125 61.3125 65.3125 69.3125 79.984375 87.085938 93.3125 97.757812 101.75781 107.98438 115.08594 122.1875 130.1875 134.1875 142.1875 149.28906 153.28906 159.51562 167.51562 175.51562 183.51562 187.51562 191.51562 196.84375 204.84375 212.84375 220.84375 228.84375 234.17188 238.17188 242.17188 251.07031 255.51562 262.61719 267.94531 272.39062 276.39062 287.94531 292.39062 296.83594 304.83594 308.83594 315.9375 319.9375 326.16406 330.60938 338.60938 343.9375 351.9375 356.38281 360.09375 369.86719 377.86719 384.96875 392.96875 398.29688 406.29688 410.29688 418.29688 425.39844 430.72656 436.95312 444.95312 451.17969 455.17969 463.17969 468.50781 475.60938 482.71094 487.15625 491.60156 498.70312 505.80469 509.80469 517.80469 523.13281 527.13281 531.57812 539.57812 546.67969 550.67969 557.78125 565.78125 572.88281 579.98438 587.98438 595.98438 600.42969">Andeweg, Bas; Jaap de Jong. (2006). Start with a story: Theory versus practice of the anecdote</tspan></text>
</g><g
       transform="matrix(0.75,0,0,0.75,72,265.18359)"
       id="g52"><text
         id="text56"
         style="font-variant:normal;font-weight:normal;font-size:16px;font-family:TimesNewRomanPSMT;-inkscape-font-specification:TimesNewRomanPSMT;writing-mode:lr-tb;fill:#000000;fill-opacity:1;fill-rule:nonzero;stroke:none"
         transform="translate(48,14.9375)"><tspan
           id="tspan54"
           y="0"
           x="0 7.1015625 13.328125 17.328125 23.554688 31.554688 38.65625 45.757812 52.859375 60.859375 64.859375 69.304688 77.304688 81.75 87.078125 95.078125 103.07812 111.07812 118.17969 122.625 127.07031 135.07031 143.07031 147.07031 151.51562 158.61719 165.71875 173.71875 181.71875 186.16406 194.16406 202.16406 209.26562 213.26562 217.26562 222.59375 230.59375 234.59375 246.14844 250.59375 255.03906 259.48438 266.58594 273.6875 279.01562 283.46094 289.6875 293.6875 297.6875 306.58594 313.6875 321.6875 326.13281 330.57812 334.57812 343.47656 351.47656 355.92188 360.36719 364.8125 372.8125 376.8125 385.71094 393.71094 400.8125 412.36719 416.36719 421.69531 431.46875 439.46875 445.69531 449.69531 455.02344 459.02344 462.73438 472.50781 480.50781 487.60938 491.60938 504.05469 511.15625 519.15625 523.15625 530.25781 538.25781 546.25781 550.25781 554.70312 562.70312">as speech introduction technique. In Gillaerts, Paul; Philip Shaw (Eds.), The map and the</tspan></text>
</g><g
       transform="matrix(0.75,0,0,0.75,72,292.78125)"
       id="g58"><text
         id="text62"
         style="font-variant:normal;font-weight:normal;font-size:16px;font-family:TimesNewRomanPSMT;-inkscape-font-specification:TimesNewRomanPSMT;writing-mode:lr-tb;fill:#000000;fill-opacity:1;fill-rule:nonzero;stroke:none"
         transform="translate(48,14.9375)"><tspan
           id="tspan60"
           y="0"
           x="0 4.4453125 11.546875 19.546875 27.546875 33.773438 40.875 47.976562 55.976562 63.078125 67.523438 71.523438 83.078125 91.078125 96.40625 108.85156 115.07812 119.07812 126.17969 134.17969 142.17969 146.17969 154.17969 159.50781 166.60938 173.71094 178.15625 182.60156 189.70312 196.80469 203.03125 207.03125 211.47656 219.47656 223.47656 231.47656 238.57812 246.57812 251.90625 259.00781 263.45312 267.45312 279.00781 286.10938 297.66406 301.07031 311.02344 319.02344 324.35156 332.35156 336.79688 340.79688 349.69531 356.79688 361.24219 368.34375 373.67188 377.67188 387.44531 394.54688 402.54688 410.54688 414.54688 419.875 427.875 435.875 439.875 443.875 451.875 459.875 467.875 473.20312 481.20312 489.20312 497.20312 502.53125">landscape: Norms and practices in genre; New York: Peter Lang (pp. 169-198).</tspan></text>
</g><g
       transform="matrix(0.75,0,0,0.75,72,320.37891)"
       id="g64"><text
         id="text68"
         style="font-variant:normal;font-weight:normal;font-size:16px;font-family:TimesNewRomanPSMT;-inkscape-font-specification:TimesNewRomanPSMT;writing-mode:lr-tb;fill:#000000;fill-opacity:1;fill-rule:nonzero;stroke:none"
         transform="translate(0,14.9375)"><tspan
           id="tspan66"
           y="0"
           x="0 11.554688 16.882812 21.328125 27.554688 32 40 44.445312 48.890625 55.992188 59.992188 67.992188 75.992188 83.992188 91.992188">Aristotle 1926.</tspan></text>
<text
         id="text72"
         style="font-style:italic;font-variant:normal;font-size:16px;font-family:TimesNewRomanPS;-inkscape-font-specification:TimesNewRomanPS-ItalicMT;writing-mode:lr-tb;fill:#000000;fill-opacity:1;fill-rule:nonzero;stroke:none"
         transform="translate(99.992188,14.9375)"><tspan
           id="tspan70"
           y="0"
           x="0 8.8984375 16.898438 24 28 31.421875 41.195312 47.421875 51.867188 55.289062 59.289062 67.289062 71.734375 75.734375 85.507812 93.507812 100.60938 105.05469 113.05469 119.28125 123.72656 130.82812">The 'Art' of Rhetoric.</tspan></text>
<text
         id="text76"
         style="font-variant:normal;font-weight:normal;font-size:16px;font-family:TimesNewRomanPSMT;-inkscape-font-specification:TimesNewRomanPSMT;writing-mode:lr-tb;fill:#000000;fill-opacity:1;fill-rule:nonzero;stroke:none"
         transform="translate(238.82031,14.9375)"><tspan
           id="tspan74"
           y="0"
           x="0 9.7734375 17.773438 25.773438 30.21875 34.664062 40.890625 48.890625 52.890625 57.335938 62.664062 69.765625 77.765625 83.992188 88.4375">English transl.</tspan></text>
<text
         id="text80"
         style="font-variant:normal;font-weight:normal;font-size:16px;font-family:TimesNewRomanPSMT;-inkscape-font-specification:TimesNewRomanPSMT;writing-mode:lr-tb;fill:#000000;fill-opacity:1;fill-rule:nonzero;stroke:none"
         transform="translate(335.25781,14.9375)"><tspan
           id="tspan78"
           y="0"
           x="0 8 16 20 26.226562 30.226562 41.78125 45.78125 49.78125 58.679688 64.007812 71.109375 78.210938 84.4375 91.539062 95.539062 99.539062 109.3125 117.3125 124.41406 132.41406 136.41406 147.08594 151.53125 158.63281 164.85938 171.08594 175.53125 182.63281 189.73438 194.17969 198.17969 202.625 207.07031 215.07031 220.39844 227.5 232.82812 239.78906 243.78906 247.78906 255.78906 263.78906 271.78906 279.78906">by J.H. Freese. Loeb Classical library. 1393a</tspan></text>
</g><g
       transform="matrix(0.75,0,0,0.75,72,347.97656)"
       id="g82"><text
         id="text86"
         style="font-variant:normal;font-weight:normal;font-size:16px;font-family:TimesNewRomanPSMT;-inkscape-font-specification:TimesNewRomanPSMT;writing-mode:lr-tb;fill:#000000;fill-opacity:1;fill-rule:nonzero;stroke:none"
         transform="translate(48,14.9375)"><tspan
           id="tspan84"
           y="0"
           x="0 5.328125 13.328125 21.328125 29.328125 37.328125">-1394a</tspan></text>
</g><g
       transform="matrix(0.75,0,0,0.75,72,375.57422)"
       id="g88"><text
         id="text92"
         style="font-variant:normal;font-weight:normal;font-size:16px;font-family:TimesNewRomanPSMT;-inkscape-font-specification:TimesNewRomanPSMT;writing-mode:lr-tb;fill:#000000;fill-opacity:1;fill-rule:nonzero;stroke:none"
         transform="translate(0,14.9375)"><tspan
           id="tspan90"
           y="0"
           x="0 10.671875 22.226562 32 40.898438 50.671875 60.445312 71.117188 75.117188 79.117188 88.890625 92.890625 96.890625 103.11719 114.67188 128.89844 138.67188 147.57031 151.57031 155.57031 162.67188 170.67188 178.67188 182.67188 188.89844 200.45312 212.00781 221.78125 231.55469 235.55469 247.10938 251.10938 255.10938 265.78125 277.33594 288.00781 299.5625 311.11719 322.67188 334.22656 338.22656 342.22656 349.32812 359.10156 367.10156 374.20312 377.91406 386.57031 393.67188 406.11719 414.11719 422.11719 427.44531 434.54688 438.99219 442.99219 452.76562 457.80469 463.13281 470.23438 477.33594 481.78125 488.00781 492.00781 500.00781 505.33594 509.33594 518.23438 522.67969 530.67969 536.00781 544.00781 548.00781 555.10938 563.10938">BAESLER, E. JAMES, and JUDEE K. BURGOON. “The Temporal Effects of Story and</tspan></text>
</g><g
       transform="matrix(0.75,0,0,0.75,72,403.17188)"
       id="g94"><text
         id="text98"
         style="font-variant:normal;font-weight:normal;font-size:16px;font-family:TimesNewRomanPSMT;-inkscape-font-specification:TimesNewRomanPSMT;writing-mode:lr-tb;fill:#000000;fill-opacity:1;fill-rule:nonzero;stroke:none"
         transform="translate(48,14.9375)"><tspan
           id="tspan96"
           y="0"
           x="0 8.8984375 13.34375 20.445312 24.890625 29.335938 35.5625 40.007812 44.453125 51.554688 58.65625 63.101562 67.101562 76.875 84.875 89.320312 97.320312 104.42188 112.42188 119.52344 126.625 130.625 138.625 146.625 150.625 161.29688 168.39844 172.84375 177.28906 184.39062 189.71875 193.71875 204.39062 212.39062 219.49219 227.49219 235.49219 242.59375 246.59375 253.69531 257.69531 268.36719 276.36719 288.8125 301.25781 309.25781 317.25781 321.70312 328.80469 335.90625 340.35156 344.79688 352.79688 360.79688 364.79688 375.46875 382.57031 388.79688 395.89844 403 408.32812 415.42969 423.42969 427.42969 431.42969 439.42969 447.42969 451.875 455.875 459.875 467.875 475.875 479.875 483.875 491.875 499.875 503.875 507.875 515.875 519.875 523.875 531.875 539.875 547.875 555.875">Statistical Evidence on Belief Change.” Communication Research, vol. 21, no. 5, 1994,</tspan></text>
</g><g
       transform="matrix(0.75,0,0,0.75,72,430.76953)"
       id="g100"><text
         id="text104"
         style="font-variant:normal;font-weight:normal;font-size:16px;font-family:TimesNewRomanPSMT;-inkscape-font-specification:TimesNewRomanPSMT;writing-mode:lr-tb;fill:#000000;fill-opacity:1;fill-rule:nonzero;stroke:none"
         transform="translate(48,14.9375)"><tspan
           id="tspan102"
           y="0"
           x="0 8 16 20 24 32 40 48 56 64 72 80 84 88 92 100 104.44531 108.89062 116.89062 123.11719 127.5625 132.00781 136.45312 144.45312 152.45312 156.89844 160.89844 168.89844 173.9375 181.9375 186.38281 194.38281 202.38281 206.38281 213.78906 221.78906 229.78906 237.78906 242.23438 250.23438 258.23438 266.23438 274.23438 282.23438 290.23438 298.23438 306.23438 314.23438 322.23438 330.23438 338.23438 346.23438 354.23438 362.23438 370.23438 378.23438 386.23438">pp. 582–602., https://doi.org/10.1177/009365094021005002.</tspan></text>
</g><g
       transform="matrix(0.75,0,0,0.75,72,458.36719)"
       id="g106"><text
         id="text110"
         style="font-variant:normal;font-weight:normal;font-size:16px;font-family:TimesNewRomanPSMT;-inkscape-font-specification:TimesNewRomanPSMT;writing-mode:lr-tb;fill:#000000;fill-opacity:1;fill-rule:nonzero;stroke:none"
         transform="translate(0,14.9375)"><tspan
           id="tspan108"
           y="0"
           x="0 10.671875 18.671875 25.773438 31.101562 35.546875 39.992188 47.992188 55.992188 59.992188 63.992188 78.21875 82.664062 89.765625 97.765625 104.86719 111.96875 116.41406 120.41406 124.41406 129.74219 137.74219 145.74219 153.74219 161.74219 167.07031 171.07031 174.78125 184.55469 192.55469 199.65625 204.10156 206.98438 213.21094 217.21094 223.4375 231.4375 237.66406 242.10938 246.10938 253.21094 257.21094 266.10938 270.55469 278.55469 283.88281 291.88281 296.32812 299.44531 311 318.10156 325.20312 333.20312 340.30469 352.75 357.19531 364.29688 368.29688 379.85156 386.95312 394.95312 400.28125 407.38281 413.60938 417.60938 424.71094 432.71094 440.71094 444.42188 453.07812 460.17969 467.28125 474.38281 482.38281 486.82812 494.82812 502.82812 505.94531 517.5 525.5 532.60156 539.70312 547.70312 555.70312 560.14844 567.25 573.47656 577.47656 581.92188">Charlton, Michael. (2007). That's Just a Story: Academic Genres and Teaching Anecdotes in</tspan></text>
</g><g
       transform="matrix(0.75,0,0,0.75,72,485.96484)"
       id="g112"><text
         id="text116"
         style="font-variant:normal;font-weight:normal;font-size:16px;font-family:TimesNewRomanPSMT;-inkscape-font-specification:TimesNewRomanPSMT;writing-mode:lr-tb;fill:#000000;fill-opacity:1;fill-rule:nonzero;stroke:none"
         transform="translate(48,14.9375)"><tspan
           id="tspan114"
           y="0"
           x="0 14.460938 19.789062 24.234375 28.679688 33.125 41.125 49.125 54.453125 66.007812 73.109375 78.4375 86.4375 92.664062 98.890625 104.21875 108.66406 116.66406 123.76562 129.09375 139.76562 147.76562 153.09375 158.42188 162.86719 169.96875 177.96875 182.41406 190.41406 202.85938 206.85938 215.75781 221.08594 229.08594 233.53125 240.63281 247.73438 252.17969 258.40625 262.40625 266.11719 275.89062 283.89062 290.99219 294.70312 308.03125 319.58594 330.25781 334.25781 340.48438 348.48438 356.48438 361.8125 369.8125 376.91406 381.35938 385.35938 389.35938 397.35938 405.35938 410.6875 418.6875 424.01562 428.01562 432.01562 440.01562 448.01562 453.34375 461.34375 469.34375">Writing-Across-the-Curriculum Projects. The WAC Journal, 18(1), 19-29.</tspan></text>
</g><g
       transform="matrix(0.75,0,0,0.75,72,513.5625)"
       id="g118"><text
         id="text122"
         style="font-variant:normal;font-weight:normal;font-size:16px;font-family:TimesNewRomanPSMT;-inkscape-font-specification:TimesNewRomanPSMT;writing-mode:lr-tb;fill:#000000;fill-opacity:1;fill-rule:nonzero;stroke:none"
         transform="translate(48,14.9375)"><tspan
           id="tspan120"
           y="0"
           x="0 8 12.445312 16.890625 24.890625 31.117188 35.5625 40.007812 44.453125 52.453125 60.453125 64.898438 68.898438 76.898438 81.9375 89.9375 94.382812 102.38281 110.38281 114.38281 122.38281 130.38281 138.38281 146.38281 154.38281 158.82812 172.15625 183.71094 194.38281 199.71094 205.9375 209.9375 217.9375 225.9375 233.9375 241.9375 245.9375 253.9375 261.9375 265.9375 273.9375 277.9375 285.9375">https://doi.org/10.37514/WAC-J.2007.18.1.02</tspan></text>
</g><g
       transform="matrix(0.75,0,0,0.75,72,541.16016)"
       id="g124"><text
         id="text128"
         style="font-variant:normal;font-weight:normal;font-size:16px;font-family:TimesNewRomanPSMT;-inkscape-font-specification:TimesNewRomanPSMT;writing-mode:lr-tb;fill:#000000;fill-opacity:1;fill-rule:nonzero;stroke:none"
         transform="translate(0,14.9375)"><tspan
           id="tspan126"
           y="0"
           x="0 10.671875 20.445312 25.773438 37.328125 48.882812 59.554688 71.109375 75.109375 79.109375 85.335938 96.890625 108.44531 120 131.55469 135.55469 146.22656 150.22656 154.22656 161.32812 171.10156 179.10156 186.20312 190.20312 199.97656 212.42188 220.42188 224.86719 230.19531 234.64062 241.74219 248.84375 253.28906 257.28906 266.1875 270.63281 278.63281 286.63281 294.63281 298.63281 306.63281 311.96094 315.96094 320.40625 328.40625 335.50781 339.50781 348.40625 355.50781 360.83594 367.0625 375.0625 382.16406 388.39062 392.83594 400.83594 407.9375 411.9375 421.71094 426.75 432.07812 439.17969 446.28125 450.72656 456.95312 460.95312 468.95312 474.28125 478.28125 488.05469 496.05469 500.5 508.5 515.60156 523.60156 530.70312 537.80469 541.80469 546.25 554.25 561.35156 565.35156 574.25 578.69531 585.79688 590.24219 598.24219">REINARD, JOOHN C. “The Empirical Study of the Persuasive Effects of Evidence the Status</tspan></text>
</g><g
       transform="matrix(0.75,0,0,0.75,72,568.75781)"
       id="g130"><text
         id="text134"
         style="font-variant:normal;font-weight:normal;font-size:16px;font-family:TimesNewRomanPSMT;-inkscape-font-specification:TimesNewRomanPSMT;writing-mode:lr-tb;fill:#000000;fill-opacity:1;fill-rule:nonzero;stroke:none"
         transform="translate(48,14.9375)"><tspan
           id="tspan132"
           y="0"
           x="0 7.1015625 12.429688 16.875 23.976562 29.304688 33.304688 42.203125 46.648438 51.976562 56.421875 64.421875 67.828125 77.78125 84.882812 91.984375 97.3125 103.53906 107.53906 115.53906 120.86719 124.86719 135.53906 142.64062 148.86719 155.96875 163.07031 168.39844 175.5 183.5 187.5 194.60156 198.60156 210.15625 218.15625 230.60156 237.70312 245.70312 249.70312 260.375 268.375 280.82031 293.26562 301.26562 309.26562 313.71094 320.8125 327.91406 332.35938 336.80469 344.80469 352.80469 356.80469 367.47656 374.57812 380.80469 387.90625 395.00781 400.33594 407.4375 415.4375 419.4375 423.4375 431.4375 439.4375 443.88281 447.88281 451.88281 459.88281 467.88281 471.88281 475.88281 483.88281 491.88281 495.88281 499.88281 507.88281 511.88281 515.88281 523.88281 531.88281 539.88281 547.88281">after Fifty Years of Research.” Human Communication Research, vol. 15, no. 1, 1988,</tspan></text>
</g><g
       transform="matrix(0.75,0,0,0.75,72,596.35547)"
       id="g136"><text
         id="text140"
         style="font-variant:normal;font-weight:normal;font-size:16px;font-family:TimesNewRomanPSMT;-inkscape-font-specification:TimesNewRomanPSMT;writing-mode:lr-tb;fill:#000000;fill-opacity:1;fill-rule:nonzero;stroke:none"
         transform="translate(48,14.9375)"><tspan
           id="tspan138"
           y="0"
           x="0 8 16 20 24 32 40 48 56 60 64 68 76 80.445312 84.890625 92.890625 99.117188 103.5625 108.00781 112.45312 120.45312 128.45312 132.89844 136.89844 144.89844 149.9375 157.9375 162.38281 170.38281 178.38281 182.38281 189.78906 197.19531 204.60156 212.60156 217.04688 221.49219 225.49219 233.49219 241.49219 249.49219 257.49219 262.82031 270.82031 278.82031 286.82031 294.82031 298.82031 306.82031 314.82031 322.82031 330.82031 334.82031 339.26562 347.26562 355.26562 363.26562 371.26562 379.26562 387.26562 391.26562 399.26562">pp. 3–59., https://doi.org/10.1111/j.1468-2958.1988.tb00170.x.</tspan></text>
</g></g></svg>