<?xml version="1.0" encoding="UTF-8" standalone="no"?>
<!DOCTYPE svg PUBLIC "-//W3C//DTD SVG 1.1//EN" "http://www.w3.org/Graphics/SVG/1.1/DTD/svg11.dtd">
<svg xmlns="http://www.w3.org/2000/svg" xmlns:xlink="http://www.w3.org/1999/xlink" version="1.1" width="612pt" height="792pt" viewBox="0 0 612 792">
<g enable-background="new">
<path transform="matrix(.75,0,0,.75,0,0)" d="M 0 0 L 816 0 L 816 1056 L 0 1056 Z " fill="#0097a7"/>
<text fill="#b7b7b7" xml:space="preserve" transform="matrix(.75 0 0 .75 72 15.868652)" font-size="20" font-family="ArialMT"><tspan y="18.759766" x="48 68.3 81.64001 92.76001 102.76001 107.21875 120.558757 131.67876 142.79875 153.91875 168.35875 179.47875">@Bas Andeweg</tspan></text>
<text fill="#eeeeee" xml:space="preserve" transform="matrix(.75 0 0 .75 72 51.704469)" font-size="16" font-family="ArialMT"><tspan y="15.0078129" x="48 64.240009 72.240009 81.13601 94.46401 103.360019 111.360019 115.808017 132.04802 140.04802 148.94402 157.84001">@James @John</tspan></text>
<text fill="#eeeeee" xml:space="preserve" transform="matrix(.75 0 0 .75 72 67.57312)" font-size="16" font-family="ArialMT"><tspan y="15.0078129" x="48 52.448 56.896005 65.79201 74.68801 78.24001 81.792018 90.68802 98.68802 107.58402 112.03202 125.36002 134.25603 143.15203 147.60002 151.15203 160.04802 168.94402 172.49602 181.39202 190.28801 194.73601 208.06401 216.06401 220.51201 232.06401 240.96 246.28801 254.28801 258.73603 267.63203 276.528 281.85603 290.752 295.2 303.2 312.096 320.992 324.544 333.44 337.888 346.784 352.112 355.664 364.56 373.456 377.904 382.352 391.248 394.8 402.8 407.248 416.14399 419.69599 427.69599 435.69599 444.59199 452.59199 460.59199 464.14399 473.03999 481.93598 486.38398 499.71199 508.60798 513.936 522.832 527.27999 535.27999 544.17599 553.07199 561.07199 566.39999 575.29598 579.74398">I believe mentioning my work here could bring this discussion more concrete</tspan></text>
<text fill="#eeeeee" xml:space="preserve" transform="matrix(.75 0 0 .75 72 83.44177)" font-size="16" font-family="ArialMT"><tspan y="15.0078129" x="48 56.896 65.792 70.24 79.136 82.688 86.240009 94.240009 98.688 103.136 107.584 112.032 120.032 124.479999 133.37599 142.27199 145.82399 154.71999 163.61598 168.06398 176.95998 185.85597 197.40798 201.85597 209.85597 218.75197 227.64797 236.54396 244.54396 253.43996 258.76795 266.76795 271.21595 279.21595 283.66395 288.99195 297.88795 306.78395 315.67994 319.23194 328.12794 332.57594 337.02394 345.91993 350.36793 354.81593 358.36793 362.81593 367.26393 376.1599 385.0559 393.9519 401.9519 410.8479 419.7439 424.1919 433.0879 441.0879 445.5359 449.0879 457.9839 462.4319 471.32789 475.77589 480.22389 489.11988 498.01588 501.56788 506.89588 511.34388 520.23989 523.7919 529.1199 538.01589 546.91189 555.80789">details. I studied how speakers struggle to fit anecdotes into their already</tspan></text>
<text fill="#eeeeee" xml:space="preserve" transform="matrix(.75 0 0 .75 72 99.310428)" font-size="16" font-family="ArialMT"><tspan y="15.0078129" x="48 52.448 56.000005 69.328 78.22401 83.55201 91.55201 100.44801 109.34402 117.34402 121.792018 127.12002 136.01602 139.56803 148.46402 157.36002 166.25601 170.70401 178.70401 187.6 196.496 205.392 213.392 222.288 231.18399 239.18399 243.63199 248.07999 263.184 272.08 280.97599 289.87199 294.31999 298.76799 303.21598 306.76799 315.66398 324.55998 332.55998 341.45597 350.35197 354.79997 363.69596 368.14396 372.59196 381.48796 390.38395 398.38395 402.83195 407.27995 412.60795 421.50395 429.50395 438.39994 447.29594 452.62394 460.62394 469.51994 473.96794 478.41593 482.86393 487.31193 491.75993 500.6559 509.5519 518.44796 527.34396 531.79196 536.2399 545.1359 554.0319 558.4799 562.9279 567.3759 576.2719">time-constrained speeches. When I looked at past research, I found that the</tspan></text>
<text fill="#eeeeee" xml:space="preserve" transform="matrix(.75 0 0 .75 72 115.17908)" font-size="16" font-family="ArialMT"><tspan y="15.0078129" x="48 56.896 64.895999 73.792 79.12 88.01601 91.56801 95.12001 99.56801 107.56801 116.46401 125.360019 133.36002 142.25601 151.15201 159.15201 168.048 176.048 180.496 184.048 192.048 196.496 200.944 209.84 218.736 223.18399 227.63199 236.52799 245.42398 254.31998 262.31999 271.21598 280.11198 284.55998 293.45597 301.45597 305.90397 314.79997 320.12797 329.02397 333.47196 342.36796 346.81596 355.71195 363.71195 372.60795 377.05595 385.95195 389.50395 393.95195 398.39994 407.29594 412.62394 425.95195 430.39994 439.29594 443.74394 448.19194 457.08793 465.08793 468.63993 477.53593 486.43193 495.3279 503.3279 512.22396 516.67196 521.11996 532.67196 541.56796 553.11996 562.0159 570.0159 578.9119 583.40628">overall consensus is that anecdotes are a useful form of evidence. However,</tspan></text>
<text fill="#eeeeee" xml:space="preserve" transform="matrix(.75 0 0 .75 72 131.04773)" font-size="16" font-family="ArialMT"><tspan y="15.0078129" x="48 59.552003 68.448009 77.34401 86.24001 90.68801 95.13601 99.58401 108.48001 117.376018 121.82401 130.72002 139.61602 144.94402 153.84001 162.73601 167.184 176.08 184.976 189.424 198.31999 202.76799 211.66399 220.55998 225.00798 233.90398 242.79998 254.35198 258.8 266.8 275.69599 284.59199 293.48799 301.48799 310.38398 314.83198 326.38398 331.71199 335.26399 339.71199 348.60798 353.93598 361.93598 366.38398 375.27998 383.27998 392.17597 396.62397 405.51997 414.41596 423.31196 431.31196 440.20796 449.10395 453.55195 462.44795 470.44795 474.89595 478.44795 487.34394 491.79194 500.68794 505.13594 514.0319 519.3599 528.2559 532.7039 541.5999 549.5999 557.5999 561.1519 570.0479 578.9439 587.8399">when I gathered data on how speech writers use anecdotes in a professional</tspan></text>
<text fill="#eeeeee" xml:space="preserve" transform="matrix(.75 0 0 .75 72 146.91638)" font-size="16" font-family="ArialMT"><tspan y="15.0078129" x="48 56 64.896 69.344 73.792 77.344 86.240009 95.13601 99.58401 104.032009 108.48 112.928 117.376 126.272 135.168 144.064 152.95999 157.40799 161.85599 170.75199 179.64798 184.09598 188.54398 197.43997 206.33597 215.23197 224.12796 227.67996 236.57596 241.02396 249.91996 258.81596 267.71195 276.60795 281.93595 289.93595 298.83195 302.38395 311.27995 320.17594 329.07194 333.51994 337.96794 346.86393 355.75993 360.20793 364.6559 373.5519 378.8799 392.20793 396.6559 405.5519 414.4479 423.3439 427.7919 432.2399 441.1359 444.6879 453.5839 458.0319 462.4799 471.3759 482.9279 491.82389 497.1519 501.59989 509.59989 514.0479 522.9439 528.2719 531.8239 540.7199 548.7199 553.1679 557.6159 566.5119 575.4079 584.3039 588.7519 593.1999 602.0959 610.9919">setting, I found that people undervalued the form and told fewer stories than they</tspan></text>
<text fill="#eeeeee" xml:space="preserve" transform="matrix(.75 0 0 .75 72 162.78504)" font-size="16" font-family="ArialMT"><tspan y="15.0078129" x="48 59.552003 68.448009 77.34401 80.89601 89.792018 94.24001 103.13602 112.03202 120.03202 128.92803 133.37602 136.92803 140.48003 148.48003 157.37602 166.27202 170.72002 175.16802 184.06401 188.51201 192.96 205.408 214.304 223.2 227.648 236.54399 245.43999 253.43999 261.44 264.992 273.888 277.44 286.336 290.784 299.68 307.68 316.576 320.128 329.024 337.91999 346.81599 351.26399 354.81599 363.71199 372.60798 377.05598 381.50398 390.39997 395.72798 400.17597 404.62397 413.51997 417.07197 425.07197 429.51997 433.07197 441.07197 445.51997 449.96797 458.86396 467.75996 472.20796 476.65596 485.55195 494.44795 503.34394 512.2399 515.79196 524.6879 529.1359 540.6879 549.5839 558.4799 562.9279 567.3759 571.8239 580.7199 585.1679 594.0639">would have liked to. One possible explanation for this is that people want to be</tspan></text>
<text fill="#eeeeee" xml:space="preserve" transform="matrix(.75 0 0 .75 72 178.65369)" font-size="16" font-family="ArialMT"><tspan y="15.0078129" x="48 52.448 61.344 69.344 78.240009 87.13601 91.58401 99.58401 108.48001 113.808017 117.360019 126.25602 135.15203 143.15203 146.70403 154.70403 159.15203 168.04802 176.94402 185.84001 190.28801 199.184 208.08 211.632 215.184 224.08 232.08 240.976 245.424 249.872 258.768 267.664 272.112 276.56 281.008 289.904 293.456 297.008 300.56 309.456 318.352 322.8 331.69599 336.14399 344.14399 348.59199 357.48799 362.81599 370.81599 375.26399 386.81599 395.71199 404.60798 408.15998 417.05598 421.50398 430.39997 439.29597 448.19197 457.08796 462.41596 475.74397 479.29597 488.19197 497.08796 501.53596 505.98396 514.87997 523.77597 527.32797 532.65597 537.10397 545.10397 550.43197 559.32797 568.22396 571.77597 580.67196 584.22396 587.77597 591.32797 595.77597 602.66409">taken seriously and believe that telling a story would undermine their credibility.</tspan></text>
<text fill="#b7b7b7" xml:space="preserve" transform="matrix(.75 0 0 .75 72 210.39099)" font-size="20" font-family="ArialMT"><tspan y="18.759766" x="0 20.300004 30.300004 41.420007 58.08001 69.20001 79.20001 84.76001 98.10001 109.22002 120.34002 130.34003 134.78003 145.90003">@James Baesler</tspan></text>
<text fill="#eeeeee" xml:space="preserve" transform="matrix(.75 0 0 .75 72 246.2268)" font-size="16" font-family="ArialMT"><tspan y="15.0078129" x="0 16.240002 26.912003 35.808004">@Bas</tspan></text>
<text fill="#eeeeee" xml:space="preserve" transform="matrix(.75 0 0 .75 72 262.09547)" font-size="16" font-family="ArialMT"><tspan y="15.0078129" x="0 4.4480006 8.896001 13.344002 16.896002 24.896002 29.344002 38.24 47.136 51.584005 55.136007 64.032009 68.48 77.37601 82.70401 91.60001 99.60001 104.04801 107.60001 116.49602 125.39202 129.84003 137.84003 146.73603 155.63202 160.08002 165.40802 168.96002 177.85602 186.75202 191.20001 194.75202 203.64801 212.544 216.992 221.44 230.336 239.232 243.68 248.12799 253.456 262.352 271.248 274.8 280.128 291.68 300.576 305.904 309.456 318.352 322.8 330.8 339.69599 348.59199 357.48799 365.48799 374.38398 378.83198 390.38398 395.71199 399.26399 403.71199 412.60798 417.93598 425.93598 430.38398 439.27998 447.27998 456.17597 460.62397 469.51997 478.41596 487.31196 495.31196 504.20796 513.10397 517.55197 526.44796 529.99996 534.44796 543.34396 551.34396 554.89596 563.79196 572.6879 581.5839 589.5839">It is an interesting contribution that real-world speech writers use anecdotal evidence</tspan></text>
<text fill="#eeeeee" xml:space="preserve" transform="matrix(.75 0 0 .75 72 277.9641)" font-size="16" font-family="ArialMT"><tspan y="15.0078129" x="0 3.5520004 12.448001 20.448002 28.448002 32.896005 37.344007 46.240007 55.136007 64.032009 68.48 80.032009 85.36001 88.91201 93.36001 96.91201 105.808017 114.70402 119.152019 127.152019 131.60002 140.49602 149.39202 152.94402 161.84001 169.84001 174.28801 182.28801 190.28801 199.184 208.08 211.632 220.528 225.856 233.856 238.304 247.2 252.528 261.424 270.32 279.216 283.664 288.112 297.008 305.904 313.904 318.352 326.352 335.248 344.14399 353.03999 356.59199 365.48799 369.93598 374.1328 383.9088 392.8048 396.3568 404.3568 408.8048 412.3568 420.3568 424.8048 433.7008 441.7008 450.5968 459.4928 467.4928 471.0448 479.9408 483.4928 487.0448 495.0448 499.4928 508.3888 517.2848 521.7328 530.6288 542.1808 551.0768 556.4048 560.8528 569.7488">less than writing studies scholars argue they should. This is especially noteworthy</tspan></text>
<text fill="#eeeeee" xml:space="preserve" transform="matrix(.75 0 0 .75 72 293.83277)" font-size="16" font-family="ArialMT"><tspan y="15.0078129" x="0 8.896001 17.792002 25.792002 34.688005 43.584005 51.584005 60.480005 64.928 72.928 80.928 89.824008 98.72001 102.27201 111.168018 116.49602 124.49602 128.94402 137.84001 146.73601 151.184 160.08 168.976 173.424 177.872 189.424 198.31999 201.872 210.76799 219.66399 224.11199 228.55998 237.45598 246.35198 250.79998 255.24797 264.14399 269.472 282.8 287.248 296.14399 300.59199 305.03999 313.93598 321.93598 325.48799 334.38398 343.27998 352.17597 360.17597 369.07197 373.51997 382.41596 385.96797 389.51997 393.96797 398.41596 407.31196 416.20796 420.65596 425.10395 433.99995 437.55195 446.44795 455.34394 458.89595 466.89595 471.34394 475.79194 484.68794 493.58393 506.91194 514.9119 523.8079 527.3599 535.3599 544.2559 552.2559 556.7039 561.1519 572.7039 581.5999 590.4959">because scholars do not weigh the form of evidence all that highly themselves. Does</tspan></text>
<text fill="#eeeeee" xml:space="preserve" transform="matrix(.75 0 0 .75 72 309.70143)" font-size="16" font-family="ArialMT"><tspan y="15.0078129" x="0 8.896001 17.792002 25.792002 34.688005 43.584005 52.480005 56.928007 65.824008 69.37601 77.37601 86.27201 89.55469 97.55469 102.002689 107.33069 116.22669 124.22669 133.1227 142.01869 147.3467 155.3467 164.24269 168.69069 177.58669 186.48268 194.48268 203.37868 207.82668 215.82668 224.72267 238.05068 246.94667 251.39467 260.29069 263.84269 272.73869 281.63468 286.08268 290.53068 299.42668 303.87467 311.87467 320.77067 328.77067 333.21867 342.11466 351.01066 359.90666 368.80265 373.25065 377.69865 386.59465 395.49064 404.38664 412.38664 421.28263 430.17863 434.62663 443.5226 447.07463 451.5226 460.4186 468.4186 471.9706 480.8666 489.7626 498.6586 506.6586 515.5546 520.0026 523.5546 532.4506 536.8986 545.7946 551.1226 560.0186 568.0186 572.4666 576.0186 584.0186 592.9146">anyone else&#x2019;s research have something to say about anecdotal evidence in practice?</tspan></text>
<text fill="#b7b7b7" xml:space="preserve" transform="matrix(.75 0 0 .75 72 341.43873)" font-size="20" font-family="ArialMT"><tspan y="18.759766" x="48 68.3 84.96001 89.40001 99.40001 110.52001 121.640018 132.76001 137.20001 142.76001 157.20001 168.32 179.44 186.1 190.54001 196.1 207.22">@Michael Charlton</tspan></text>
<text fill="#eeeeee" xml:space="preserve" transform="matrix(.75 0 0 .75 72 377.27455)" font-size="16" font-family="ArialMT"><tspan y="15.0078129" x="48 64.240009 72.240009 81.13601 94.46401 103.360019">@James</tspan></text>
<text fill="#eeeeee" xml:space="preserve" transform="matrix(.75 0 0 .75 72 393.1432)" font-size="16" font-family="ArialMT"><tspan y="15.0078129" x="48 52.448 56.896005 65.79201 74.68801 82.68801 91.584018 96.03201 100.48001 109.376018 118.27202 127.16802 136.06403 140.51203 144.96002 153.85602 162.75202 167.20001 171.64801 180.544 189.44 198.336 206.336 215.232 224.12799 228.57599 237.47199 245.47199 249.91999 258.81599 264.14399 273.03999 277.48799 286.38398 290.83198 295.27998 304.17597 313.07197 317.51997 321.07197 329.96797 338.86396 346.86396 355.75996 364.65596 369.10395 377.99995 386.89595 398.44795 407.34394 411.79194 420.68794 429.58393 438.47993 447.37593 451.8239 460.7199 468.7199 473.1679 477.6159 486.5119 495.4079 503.4079 512.3039 516.7519 520.3039 529.1999 533.6479 538.0959 546.9919 555.8879 560.3359 569.2319 578.12789 586.12789 594.12789 597.6799 605.6799 614.57589">I have found that anecdotes are often looked down upon by those in the physical</tspan></text>
<text fill="#eeeeee" xml:space="preserve" transform="matrix(.75 0 0 .75 72 409.01185)" font-size="16" font-family="ArialMT"><tspan y="15.0078129" x="48 56 64 67.552 76.448009 85.34401 93.34401 102.24001 110.24001 114.68801 123.584018 132.48001 140.48001 149.376 158.272 166.272 175.168 179.616 184.064 192.95999 201.85599 209.85599 214.30399 217.85599 226.75199 234.75199 242.75199 247.19998 251.64798 260.54399 269.43998 273.88798 287.21598 296.11198 300.55998 309.45597 318.35197 331.67997 340.57597 345.02397 348.57597 356.57597 365.47196 369.02397 373.47196 382.36796 391.26396 399.26396 407.26396 410.81596 419.71195 428.60795 433.05595 441.95195 446.39994 450.84794 458.84794 463.29594 472.19194 476.63993 480.19194 488.19194 492.63993 496.19194 504.19194 512.1919 516.6399 521.0879 533.5359 542.4319 551.3279 555.7759 564.6719 573.5679 581.5679 589.5679 593.1199 602.01589 605.5679">sciences because they lack the mathematical backing of statistics. One possible</tspan></text>
<text fill="#eeeeee" xml:space="preserve" transform="matrix(.75 0 0 .75 72 424.8805)" font-size="16" font-family="ArialMT"><tspan y="15.0078129" x="48 56.896 64.895999 73.792 77.344 86.240009 95.13601 104.03201 108.48001 112.03201 120.92802 129.82402 134.27202 138.72002 147.61602 152.94402 157.39202 161.84001 170.73601 174.28801 182.28801 186.73601 195.632 204.528 209.856 217.856 226.752 235.648 243.648 248.096 251.648 259.648 268.544 272.992 276.544 284.544 288.992 293.44 302.336 311.232 315.68 320.128 333.456 342.352 351.248 359.248 363.69599 377.024 385.91999 399.248 408.14399 417.03999 422.36799 430.36799 434.81599 443.71199 448.15998 452.60798 460.60798 468.60798 472.15998 481.05598 489.95198 494.39997 497.95198 502.39997 505.95198 513.95199 518.39999 527.29598 530.84799 538.84799 546.84799 555.74398 564.63998 569.96798 577.96798">explanation for this perspective is that many members of scientific discourse</tspan></text>
<text fill="#eeeeee" xml:space="preserve" transform="matrix(.75 0 0 .75 72 440.74916)" font-size="16" font-family="ArialMT"><tspan y="15.0078129" x="48 56 64.896 78.22401 91.55201 100.44801 109.34402 112.89602 117.34402 120.89602 129.79203 137.79203 142.24002 151.13602 160.03202 168.03202 176.92801 181.376 190.272 199.168 208.064 216.95999 221.40799 225.85599 231.18399 240.07999 243.63199 252.52799 261.42399 270.31999 274.76799 279.21598 288.11198 292.55998 300.55998 309.45597 318.35197 327.24797 336.14396 341.47196 345.91996 350.36796 354.81596 363.71195 372.60795 376.15995 381.48796 385.93595 393.93595 397.48796 406.38395 409.93595 423.26396 431.26396 435.71195 447.26396 450.81596 455.26396 464.15995 468.60795 481.93595 490.83195 495.27995 504.17594 513.07199 526.39999 535.29598 539.74398 543.29598 551.29598 560.19198">communities have been trained to support their claims with mathematical</tspan></text>
<text fill="#eeeeee" xml:space="preserve" transform="matrix(.75 0 0 .75 72 456.6178)" font-size="16" font-family="ArialMT"><tspan y="15.0078129" x="48 56.896 65.792 73.792 82.688 88.01601 96.01601 104.91201 109.36001 112.91201 121.808017 130.70401 138.70401 143.15201 147.6 160.92801 169.824 177.824 181.376 190.272 199.168 203.616 208.064 216.95999 225.85599 239.18399 243.63199 248.95999 257.856 261.408 270.304 278.304 282.75199 291.64799 300.54399 304.99198 309.43998 313.88798 322.78398 327.23197 330.78398 339.67997 344.12797 348.57597 353.02397 361.91996 370.81596 374.36796 379.69596 384.14396 393.03996 401.93595 407.26396 415.26396 424.15995 433.05595 441.95195 445.50395 449.95195 458.84794 466.84794 475.74394 484.63993 489.96794 493.51994 502.41593 511.31193 519.3119 528.2079 536.2079 540.6559 548.6559 557.5519 566.4479 575.3439 584.23989 588.68789 593.13589 602.03189 610.92788 614.47988">observations, making them reluctant to let their personal experiences shape their</tspan></text>
<text fill="#eeeeee" xml:space="preserve" transform="matrix(.75 0 0 .75 72 472.48646)" font-size="16" font-family="ArialMT"><tspan y="15.0078129" x="48 56 64.896 73.79201 81.79201 85.34401 94.24001 102.24001 105.792018 114.68802 123.58402 131.58402 136.03202 140.48001 152.03202 160.92801 172.48001 181.376 189.376 198.272 202.74219 207.19019 211.63819 216.08618 224.98218 228.53418 236.53418 240.98218 244.53418 253.43018 262.32618 271.22218 279.22218 283.67018 288.11817 297.01417 301.46217 310.35816 314.80616 318.35816 327.25416 335.25416 343.25416 347.70216 356.59815 361.04615 365.49415 374.39015 383.28614 392.18214 397.51014 406.40614 414.40614 417.95814 426.85414 431.30213 434.85414 443.75013 452.64613 457.09413 461.5421 470.4381 475.7661 480.2141 484.6621 493.5581 502.4541 506.9021 515.7981 524.6941 533.5901 541.5901 550.4861 559.3821 563.8301 572.7261 575.7821">conclusions. However, this leads to a lack of appreciation for the anecdote's</tspan></text>
<text fill="#eeeeee" xml:space="preserve" transform="matrix(.75 0 0 .75 72 488.3551)" font-size="16" font-family="ArialMT"><tspan y="15.0078129" x="48 56.896 65.792 69.344 72.896 76.448009 80.896 88.896 93.344 97.792 106.688 111.136 120.032009 128.92801 134.25601 142.25601 151.15201 160.048 168.944 177.84 182.288 191.18399 195.63199 204.52799 213.42398 218.75199 226.75199 231.19998 242.75199 251.64798 260.54399 269.43998 273.88798 287.21598 296.11198 300.55998 309.45597 318.35197 331.67997 340.57597 345.02397 348.57597 356.57597 365.47196 369.02397 373.47196 382.36796 390.36796 393.91996 402.81596 411.71195 420.60795 428.60795 437.50395 441.95195 450.84794 454.39994 458.84794 467.74394 476.63993 481.96794 486.41593 495.31193 504.20793 513.10397 521.10397 525.55197 534.44796 543.34396 547.79196 552.2399 560.2399 569.1359 573.5839 578.0319 586.9279 594.9279 598.4799 606.4799">ability to persuade others when mathematical evidence either does not yet exist</tspan></text>
<text fill="#eeeeee" xml:space="preserve" transform="matrix(.75 0 0 .75 72 504.22377)" font-size="16" font-family="ArialMT"><tspan y="15.0078129" x="48 56.896 62.224 66.672 70.224 78.224 82.672 91.568 99.568 108.464008 113.79201 117.34401 125.34401 129.792 137.792 146.688 160.016 168.912 172.464 181.36 189.36">or is overly complex.</tspan></text>
<text fill="#b7b7b7" xml:space="preserve" transform="matrix(.75 0 0 .75 72 535.96109)" font-size="20" font-family="ArialMT"><tspan y="18.759766" x="48 68.3 81.64001 92.76001 102.76001 107.21875 120.558757 131.67876 142.79875 153.91875 168.35875 179.47875">@Bas Andeweg</tspan></text>
<text fill="#eeeeee" xml:space="preserve" transform="matrix(.75 0 0 .75 72 571.7969)" font-size="16" font-family="ArialMT"><tspan y="15.0078129" x="48 64.240009 72.240009 81.13601 94.46401 103.360019">@James</tspan></text>
<text fill="#eeeeee" xml:space="preserve" transform="matrix(.75 0 0 .75 72 587.6655)" font-size="16" font-family="ArialMT"><tspan y="15.0078129" x="48 61.328004 69.328 73.776 79.104007 88.00001 96.00001 104.89601 113.792018 119.12002 127.12002 136.01602 140.46402 149.36002 152.91202 160.91202 169.80802 174.25601 177.80802 186.70401 195.6 204.496 208.944 212.496 216.944 220.496 229.392 238.288 242.736 251.63199 256.08 260.52799 269.42399 280.97599 285.42399 293.42399 302.31999 310.31999 314.76799 322.76799 331.66398 340.55998 345.88798 354.78398 362.78398 367.23197 376.12797 381.45597 385.00798 393.00798 397.45597 401.00798 409.00798 417.00798 421.45597 430.35197 434.79997 439.24797 448.14396 457.03996 465.93595 473.93595 482.83195 491.72795 496.17594 505.07194 508.62394 513.07199 521.96798 529.96798 533.51998 542.41598 551.31198 560.20797 568.20797 577.10397 581.55197 585.99996 597.55197 606.44796 610.89596">My research also identified a few key characteristics of anecdotal evidence. Data</tspan></text>
<text fill="#eeeeee" xml:space="preserve" transform="matrix(.75 0 0 .75 72 603.5342)" font-size="16" font-family="ArialMT"><tspan y="15.0078129" x="48 52.448 56.896005 64.896 73.79201 77.34401 80.89601 89.792018 97.792018 102.24001 111.13602 120.03202 124.48002 132.48001 141.376 150.272 161.824 169.824 174.272 178.72 187.616 196.512 200.95999 205.40799 214.30399 223.19998 232.09598 240.09598 248.99198 257.88798 262.33598 271.23197 279.23197 283.67997 291.67997 300.57597 309.47196 318.36796 321.91996 330.81596 335.26396 344.15995 353.05595 357.50395 362.83195 371.72795 375.27995 384.17594 392.17594 401.07194 409.96794 414.41593 418.86393 423.31193 432.20793 436.6559 441.1039 449.9999 458.8959 463.3439 467.7919 476.6879 485.5839 489.1359 497.1359 501.5839 510.4799 514.9279 519.3759 528.2719 537.1679 546.0639 554.9599 559.4079 568.3039 577.1999">I collected shows that anecdotes should be relevant to the topic at hand and</tspan></text>
<text fill="#eeeeee" xml:space="preserve" transform="matrix(.75 0 0 .75 72 619.40286)" font-size="16" font-family="ArialMT"><tspan y="15.0078129" x="48 61.328004 70.22401 78.22401 82.672008 87.12 96.01601 104.91201 109.36001 113.80801 122.70401 130.70401 139.6 144.92801 152.92801 157.376 166.272 174.272 178.72 183.168 192.064 200.95999 204.512 209.84 214.288 225.84 234.736 238.288 246.288 255.18399 268.512 277.408 281.856 286.304 296.08 304.97599 310.304 314.75199 323.64799 331.64799 340.54399 353.87199 362.76799 366.31999 375.21598 379.66398 384.11198 388.55998 397.45597 406.35197 414.35197 418.79997 432.12797 441.02397 449.02397 453.47196 457.91996 466.81596 475.71195 480.15995 484.60795 493.50395 497.05595 505.95195 514.84799 523.74398 528.19198 531.74398 540.63998 545.08798 553.98397 558.43197 562.87997 571.77597 580.67196 585.11996 594.0159 602.9119 611.8079">must not overstay their welcome. For example, they must not bleed into the body</tspan></text>
<text fill="#eeeeee" xml:space="preserve" transform="matrix(.75 0 0 .75 72 635.2715)" font-size="16" font-family="ArialMT"><tspan y="15.0078129" x="48 56.896 61.344 65.792 74.688 79.136 87.136 96.032009 104.92801 113.82401 121.82401 130.72002 135.16802 138.72002 143.16802 147.61602 156.51201 164.51201 173.408 182.304 186.752 190.304 199.2 203.648 208.096 216.99199 225.88799 230.33599 233.88799 242.78398 247.23198 252.55998 261.456 270.352 279.248 287.248 291.69599 295.248 304.14399 313.03999 317.48799 321.0703 331.7423 340.6383 349.5343 353.0863 357.5343 361.0863 369.9823 378.8783 387.7743 391.3263 394.8783 401.71095 406.15895 410.60694 415.05494 423.95094 432.84693 440.84693 445.29493 453.29493 462.19093 471.0869 479.9829 483.5349 492.4309 496.8789 505.7749 514.6709 519.1189 523.5669 532.4629 541.3589 545.8069 554.7029 562.7029 571.5989 580.4949 584.9429 588.4949">of a speech if used in the introduction. Additionally, they should not be used in</tspan></text>
<text fill="#eeeeee" xml:space="preserve" transform="matrix(.75 0 0 .75 72 651.14016)" font-size="16" font-family="ArialMT"><tspan y="15.0078129" x="48 56.896 65.792 74.688 78.240009 87.13601 96.03201 104.03201 112.92802 121.82402 126.27202 130.72002 139.61602 144.94402 149.39202 158.28801 166.28801 175.184 184.08 189.408 194.73601 199.184 208.08 213.408 226.73601 235.632 239.184 243.632 251.632 255.184 259.63203 268.528 277.424 281.872 285.424 294.32 303.216 311.216 315.664 324.56 332.56 337.008 341.456 350.352 359.248 367.248 376.14399 380.59199 388.59199 392.14399 396.59199 405.48799 414.38398 418.83198 422.38398 431.27998 440.17597 448.17597 452.62397 457.07197 465.96797 474.86396 483.75996 488.20796 492.65596 501.55195 505.99995 514.89596 523.79196 537.11996 546.0159 554.9119 563.8079 568.2559 572.7039 581.5999 589.5999 594.0479 602.0479">unpleasant or hyper-formal situations as these situations tend to demand facts.</tspan></text>
<text fill="#b7b7b7" xml:space="preserve" transform="matrix(.75 0 0 .75 72 682.87747)" font-size="20" font-family="ArialMT"><tspan y="18.759766" x="96 116.3 132.96 137.40001 147.40001 158.52 169.64 180.76 185.2 190.76 205.2 216.31999 227.43999 234.09999 238.54 244.09999 255.21999">@Michael Charlton</tspan></text>
<text fill="#eeeeee" xml:space="preserve" transform="matrix(.75 0 0 .75 72 718.71328)" font-size="16" font-family="ArialMT"><tspan y="15.0078129" x="96 112.240009 122.912 131.808">@Bas</tspan></text>
<text fill="#eeeeee" xml:space="preserve" transform="matrix(.75 0 0 .75 72 734.58206)" font-size="16" font-family="ArialMT"><tspan y="15.0078129" x="96 100.448 104.895999 113.792 122.688 127.136 130.688 138.688 147.584 152.032 156.48 165.37599 174.27199 178.71999 183.16799 191.16799 200.06398 208.95998 212.51198 220.51198 229.40798 233.85597 241.85597 250.75197 254.30397 263.19999 267.64799 276.54399 280.99198 284.54399 293.43998 297.88798 302.33598 311.23197 320.12797 329.02397 337.91996 342.36796 346.81596 358.36796 367.26396 376.15995 380.60795 385.05595 393.95195 402.84794 411.74394 419.74394 428.63993 437.53593 441.98393 450.8799 458.8799 463.3279 471.3279 480.2239 489.1199 498.0159 501.5679 510.4639 514.9119 523.8079 532.7039 537.1519 541.5999 550.4959 559.3919 563.8399 568.2879 577.1839 586.0799 590.5279 594.9759 598.5279 602.0799 606.5279 610.9759 614.5279">I notice that you&#x2019;ve said a lot about what anecdotes should not be, but little</tspan></text>
<text fill="#eeeeee" xml:space="preserve" transform="matrix(.75 0 0 .75 72 750.4507)" font-size="16" font-family="ArialMT"><tspan y="15.0078129" x="96 104.896 113.79201 122.68801 131.58402 136.03202 140.48001 152.03202 160.92801 169.824 174.272 178.72 187.616 192.064 200.95999 209.85599 218.75199 227.64798 232.09598 240.99198 249.88797 258.78398 266.78398 275.67997 284.57597 289.02397 297.91996 302.36796 305.91996 314.81596 323.71195 331.71195 339.71195 344.15995 347.71195 351.26396 359.26396 368.15995 372.60795 377.05595 388.60795 392.15995 401.05595 405.50395 413.50395 422.39994 431.29594 436.62394 441.07194 446.39994 455.29594 463.29594 472.19194 481.08793 486.41593 494.41593 503.31193 507.75993 515.7599 524.6559 533.5519 541.5519 545.1039 553.9999 562.8959">about what a good anecdote looks like. Did your research conclude</tspan></text>
<text fill="#eeeeee" xml:space="preserve" transform="matrix(.75 0 0 .75 72 766.31936)" font-size="16" font-family="ArialMT"><tspan y="15.0078129" x="96 104.896 113.79201 121.79201 126.240009 135.136 138.688 147.584 156.48 160.928 169.82399 178.71999 187.61598 196.51198 200.95998 205.40798 214.30397 223.19997 231.19997 234.75197 239.19997 242.75197 250.75197 259.64799 264.09599 272.99198 277.43998 281.88798 287.21598 290.76799 299.66398 308.55998 313.00798 321.90397 329.90397 334.35197 343.24797 347.69596 352.14396 361.03996 369.93595 378.83195 386.83195 395.72795 404.62394 409.07194 417.96794 425.96794">anything about positive attributes of anecdotes?</tspan></text>
</g>
</svg>
