<?xml version="1.0" encoding="UTF-8" standalone="no"?>
<!DOCTYPE svg PUBLIC "-//W3C//DTD SVG 1.1//EN" "http://www.w3.org/Graphics/SVG/1.1/DTD/svg11.dtd">
<svg xmlns="http://www.w3.org/2000/svg" xmlns:xlink="http://www.w3.org/1999/xlink" version="1.1" width="612pt" height="792pt" viewBox="0 0 612 792">
<g enable-background="new">
<path transform="matrix(.75,0,0,.75,0,0)" d="M 0 0 L 816 0 L 816 1056 L 0 1056 Z " fill="#0097a7"/>
<text fill="#b7b7b7" xml:space="preserve" transform="matrix(.75 0 0 .75 72 15.868652)" font-size="20" font-family="ArialMT"><tspan y="18.759766" x="96 116.3 129.64 140.76 150.76 155.21875 168.55875 179.67874 190.79874 201.91873 216.35874 227.47873">@Bas Andeweg</tspan></text>
<text fill="#eeeeee" xml:space="preserve" transform="matrix(.75 0 0 .75 72 51.704347)" font-size="16" font-family="ArialMT"><tspan y="15.0078129" x="96 112.240009 125.56801 129.12001 137.12001 146.016 154.912 163.808">@Michael</tspan></text>
<text fill="#eeeeee" xml:space="preserve" transform="matrix(.75 0 0 .75 72 67.573)" font-size="16" font-family="ArialMT"><tspan y="15.0078129" x="96 108.448 117.344 126.240009 135.136 139.584 148.48 157.37599 160.928 169.82399 174.27199 178.71999 183.16799 187.61598 192.06398 200.06398 208.95998 217.85597 226.75197 230.30397 239.19997 243.64797 252.54396 261.43998 269.43998 278.33598 282.78398 291.67997 300.57597 309.47196 318.36796 322.81596 330.81596 334.36796 343.26396 352.15995 357.48796 366.38395 371.71195 376.15995 380.60795 389.50395 398.39994 403.72795 412.62394 417.07194 421.51994 425.96794 430.41593 434.86393 443.75993 452.6559 461.5519 470.4479 474.8959 479.3439 488.2399 497.1359 501.5839 506.0319 514.9279 523.8239 532.7199 540.7199 549.6159 558.5119 562.9599 571.8559 579.8559 584.3039 593.1999 602.0959 610.9919">Good point, I should have been clearer there. I found that anecdotes need</tspan></text>
<text fill="#eeeeee" xml:space="preserve" transform="matrix(.75 0 0 .75 72 83.44165)" font-size="16" font-family="ArialMT"><tspan y="15.0078129" x="96 100.448 109.344 113.792 122.688 131.584 136.032 144.032 152.928 161.82399 166.27199 169.82399 177.82399 186.71999 191.16799 194.71999 203.61598 212.51198 216.95998 221.40798 229.40798 234.73598 243.63198 252.52797 256.07997 264.97596 268.52796 277.42396 281.87196 286.31996 295.21595 304.11195 313.00794 317.45594 326.35194 335.24794 343.24794 351.24794 355.69593 360.14393 369.03993 373.4879 377.9359 386.8319 390.3839 393.9359 402.8319 413.53126 417.97926 422.42726 425.97926 434.87525 439.32325 448.21925 453.54725 462.44325 471.33924 476.66725 481.11524 485.56324 494.45924 498.90724 507.80323 516.6992 524.6992 533.5952 538.0432 542.4912 551.3872 560.2832 564.7312 573.6272 578.9552 587.8512 596.7472 601.1952 610.0912 618.0912">to be captivating, credible, and easy to follow, in order to have the greatest</tspan></text>
<text fill="#eeeeee" xml:space="preserve" transform="matrix(.75 0 0 .75 72 99.3103)" font-size="16" font-family="ArialMT"><tspan y="15.0078129" x="96 99.552 112.880008 121.77601 130.67201 138.67201 143.12001 147.56801 151.72657 161.50257 170.39856 179.29456 187.29456 191.74256 203.29456 212.19055 217.51856 225.51856 229.96656 238.86255 246.86255 255.75855 264.65455 272.65455 276.20655 285.10255 288.65455 292.20655 300.20655 304.65455 316.20655 325.10255 328.65455 332.20655 336.65455 340.20655 349.10255 353.55055 357.99855 366.89454 375.79054 380.23854 383.79054 392.68653 397.13453 402.46253 411.35853 420.25453 429.1505 437.1505 441.5985 445.1505 454.0465 462.9425 467.3905 476.2865 480.7345 485.1825 494.0785 498.5265 507.4225 510.9745 519.8705 527.8705 536.7665 541.2145 550.1105 554.5585 559.0065 570.5585 575.8865 579.4385 583.8865 587.4385 596.3345 605.23049 609.67849 614.12649">impact. They work especially well in the introduction of a piece of writing to</tspan></text>
<text fill="#eeeeee" xml:space="preserve" transform="matrix(.75 0 0 .75 72 115.178958)" font-size="16" font-family="ArialMT"><tspan y="15.0078129" x="96 104.896 110.22401 119.12001 130.67201 135.12001 138.67201 147.56801 152.016 160.912 166.24 175.136 183.136 187.584 192.032 196.48 205.37599 209.82399 214.27199 223.16799 232.06398 236.51198 240.95998 249.85597 258.75199 262.304 270.304 274.75199 283.64799 288.09599 292.54399 301.43998 310.33598 319.23197 328.12797 332.57597 344.12797 353.02397 356.57597 360.12797 369.02397 373.47196 381.47196 385.02397 398.35197 407.24797 410.79997 415.24797 424.14396 433.03996 441.93595 450.83195 459.72795 467.72795 471.27995 479.27995 483.72795 492.62394 501.51994 505.07194 513.96798 517.51998 526.41598 535.31198 539.75997 544.20797 553.10397">draw interest to the topic at hand while simultaneously helping the</tspan></text>
<text fill="#eeeeee" xml:space="preserve" transform="matrix(.75 0 0 .75 72 131.0476)" font-size="16" font-family="ArialMT"><tspan y="15.0078129" x="96 104.896 113.79201 122.68801 126.24001 135.13602 144.03202 152.03202 160.92801 165.376 174.272 183.168 192.064 200.95999 206.288 214.288 218.736 227.63199 236.52799 245.42398 249.87198 254.31998 263.21598 272.11198 276.55998 284.55998 293.45597 302.35197 305.90397 314.79997 322.79997 327.24797 331.69596 345.02397 353.91996 358.36796 362.81596 371.71195 376.1875">audience understand the subject matter.</tspan></text>
<text fill="#b7b7b7" xml:space="preserve" transform="matrix(.75 0 0 .75 72 162.78491)" font-size="20" font-family="ArialMT"><tspan y="18.759766" x="96 116.3 126.3 137.42 154.08 165.2 175.2 180.76 194.09999 205.21999 216.33998 226.33998 230.77999 241.89998">@James Baesler</tspan></text>
<text fill="#eeeeee" xml:space="preserve" transform="matrix(.75 0 0 .75 72 198.62085)" font-size="16" font-family="ArialMT"><tspan y="15.0078129" x="96 112.240009 125.56801 129.12001 137.12001 146.016 154.912 163.808 167.36 171.808 188.048 198.72 207.616">@Michael @Bas</tspan></text>
<text fill="#eeeeee" xml:space="preserve" transform="matrix(.75 0 0 .75 72 214.4895)" font-size="16" font-family="ArialMT"><tspan y="15.0078129" x="96 100.448 104.895999 109.343997 113.79199 117.343997 130.672 135.12 143.12 152.01599 165.344 178.672 187.568 192.896 196.448 204.448 208 216.896 225.79199 230.23999 234.68799 243.58399 247.13599 255.13599 259.58399 267.58399 276.47999 281.80799 287.136 296.03199 304.03199 308.47999 312.03199 318.85157 323.29957 327.74757 339.29957 348.19557 352.64356 360.64356 369.53956 378.43556 382.88356 390.88356 399.77955 408.67555 416.67555 420.22755 429.12355 438.01954 446.91554 451.36354 455.81153 464.70753 473.60353 478.0515 482.4995 491.3955 500.2915 509.1875 517.1875 526.0835 534.9795 539.4275 548.3235 556.3235 560.7715 572.3235 581.2195 586.5475">If I&#x2019;m summarizing this correctly, we can conclude that anecdotes work</tspan></text>
<text fill="#eeeeee" xml:space="preserve" transform="matrix(.75 0 0 .75 72 230.35816)" font-size="16" font-family="ArialMT"><tspan y="15.0078129" x="96 107.552 116.448009 120.00001 123.55201 128.00002 139.55202 148.44802 157.34401 166.24 170.688 179.584 184.032 195.584 200.912 204.464 208.912 217.808 223.136 227.584 239.136 248.032 256.928 261.376 269.376 273.824 278.272 287.168 291.616 304.944 313.84 321.84 330.736 335.184 344.08 352.97599 357.42399 366.31999 375.21598 384.11198 387.66398 396.55998 405.45597 413.45597 422.35197 426.79997 430.35197 439.24797 443.69596 452.59196 457.91996 466.81596 474.81596 479.26396 488.15995 497.05595 501.50395 505.05595 513.95199 518.39999 529.95199 538.84799 547.74398 552.19198 556.63998 561.08798 569.98397 578.87997">well when a writer wants to make an audience interested in what they</tspan></text>
<text fill="#eeeeee" xml:space="preserve" transform="matrix(.75 0 0 .75 72 246.2268)" font-size="16" font-family="ArialMT"><tspan y="15.0078129" x="96 104.896 113.79201 121.79201 130.688 135.136 139.584 148.48 152.928 160.928 169.82399 176.64063 181.08863 185.53662 194.43262 203.32862 207.77661 212.22461 216.6726 225.5686 229.1206 232.6726 237.1206 245.1206 254.0166 262.9126 268.2406 272.6886 277.1366 288.6886 297.5846 306.4806 315.3766 319.8246 328.72059 336.72059 345.61659 354.51258 358.96058 363.40858 372.30458 376.75257 384.75257 393.64857 402.54457 410.54457 414.99256 423.88856 432.78456 437.23255 440.78456 449.68055 454.12855 463.02455 467.47254 475.47254 479.02455 487.92054 491.47254 504.80055 512.80056 517.24856 530.57656 539.47256 548.3685 557.2645 561.7125 566.1605 575.0565 579.5045 588.4005 597.2965 606.1925 611.5205">have to say, but fall short when used to substantiate claims made to peers</tspan></text>
<text fill="#eeeeee" xml:space="preserve" transform="matrix(.75 0 0 .75 72 262.09547)" font-size="16" font-family="ArialMT"><tspan y="15.0078129" x="96 99.552 108.448009 112.896 121.79201 130.688 135.136 144.032 152.032 160.928 169.82399 178.71999 192.04799 195.59999 203.59999 208.04799 216.94399 220.49599 228.49599 236.49599 245.39199 254.28798 259.61598 267.61598 276.51197 280.95997 288.95997 297.85597 311.18397 324.51197 333.40797 342.30397 345.85597 350.30397 357.14845">in an academic discourse community.</tspan></text>
<text fill="#b7b7b7" xml:space="preserve" transform="matrix(.75 0 0 .75 72 293.83277)" font-size="20" font-family="ArialMT"><tspan y="18.759766" x="0 20.300004 30.300004 41.420007 52.54001 63.66001 69.22001 83.66001 94.780017 99.22002 110.34002 121.46002 128.12003">@John Reinard</tspan></text>
<text fill="#eeeeee" xml:space="preserve" transform="matrix(.75 0 0 .75 72 329.66859)" font-size="16" font-family="ArialMT"><tspan y="15.0078129" x="0 16.240002 26.912003 35.808004 43.808004 48.256006 64.496 75.168 80.496 84.048007 92.048007 96.496 105.392009 109.840007 113.392009 122.28801 126.73601 142.97602 156.30402 159.85602 167.85602 176.75202 185.64801 194.544">@Bas @Aristotle @Michael</tspan></text>
<text fill="#eeeeee" xml:space="preserve" transform="matrix(.75 0 0 .75 72 345.53724)" font-size="16" font-family="ArialMT"><tspan y="15.0078129" x="0 10.672001 15.120001 19.568 24.016 32.912004 36.464006 44.464006 48.912008 57.808008 66.70401 70.25601 79.152019 83.60001 88.04801 91.60001 96.04801 100.49601 109.39201 118.28802 126.28802 130.73603 139.63202 148.52802 157.42401 166.32 170.768 179.664 187.664 192.112 201.008 209.90399 213.456 217.008 225.008 233.90399 242.79999 251.69599 256.14399 260.59199 269.48799 278.38398 282.83198 287.27998 296.17597 305.07197 313.96797 321.96797 330.86396 339.75996 344.20796 353.10395 356.65596 361.10395 369.99995 377.99995 381.55195 390.44795 399.34394 408.23994 416.23994 425.13594 429.58393 438.47993 447.37593 455.37593 459.8239 463.37593 467.8239 475.8239 480.2719 489.1679 492.7199 501.6159 509.6159 518.5119 522.9599 526.5119 535.4079 539.8559 548.7519 557.6479 562.0959">At this point it has been established that anecdotal evidence has its place in both</tspan></text>
<text fill="#eeeeee" xml:space="preserve" transform="matrix(.75 0 0 .75 72 361.40589)" font-size="16" font-family="ArialMT"><tspan y="15.0078129" x="0 8.896001 14.224001 23.120003 27.568003 36.464006 44.464006 52.464006 56.016008 64.91201 73.808017 82.70402 86.25602 90.70402 99.60002 108.496028 117.39203 121.84003 129.84003 138.73603 146.73603 155.63202 164.52802 168.08002 172.52802 177.85602 186.75202 195.64801 200.09601 208.992 214.32 217.87201 225.87201 230.32 233.91407 244.58606 253.48206 262.37806 270.37806 279.27406 288.17005 292.61805 301.51405 309.51405 313.96205 321.96205 330.85804 336.18605 344.18605 353.08204 357.53004 366.42604 374.42604 378.87403 387.77003 392.21803 401.114 410.01 421.562 430.458 435.786 440.234 449.13 452.682 457.13 461.578 470.474 479.37 482.922 487.37 491.818 500.714 505.162 513.162 524.714 533.61 541.61 546.058 554.954 563.85 572.746 576.298 585.194 594.08999 602.08999 610.98599">professional and casual rhetoric. Anecdotes serve as a powerful tool to sway audiences</tspan></text>
<text fill="#eeeeee" xml:space="preserve" transform="matrix(.75 0 0 .75 72 377.27455)" font-size="16" font-family="ArialMT"><tspan y="15.0078129" x="0 11.552001 20.448002 29.344002 38.24 42.688005 50.688005 55.136007 64.032009 68.48 72.032009 80.032009 84.48 88.032009 96.032009 104.032009 108.48 116.48 125.37601 134.272 143.168 152.064 156.512 160.95999 165.125 174.901 183.797 192.693 200.693 205.14099 208.693 217.58899 225.58899 230.91699 239.81299 248.70899 256.70899 265.60499 270.05299 278.94898 287.84498 296.74098 305.63697 314.53297 323.42897 336.75697 345.65296 354.54896 358.99696 363.44496 374.99696 378.54896 382.99696 391.89295 396.34095 405.23695 409.68495 418.58094 422.13294 431.02894 439.02894 447.92494 452.37294 461.26893 465.71693 470.16493 481.71693 487.04493 490.59693 495.04493 498.59693 507.49293 516.3889 520.8369 529.7329 538.6289 547.5249 551.9729 559.9729 568.8689">when statistics cannot. They increase engagement with a piece of writing and can</tspan></text>
<text fill="#eeeeee" xml:space="preserve" transform="matrix(.75 0 0 .75 72 393.1432)" font-size="16" font-family="ArialMT"><tspan y="15.0078129" x="0 8 16.896 25.792 34.688 43.584 48.032 56.928 61.376005 72.928 78.256008 81.80801 86.256008 95.15201 101.08594 104.35156 112.35156 116.79956 122.12756 131.02356 139.91956 144.36756 153.26355 158.59156 162.14356 170.14356 179.03955 182.59156 187.03955 195.93555 200.10157 204.54956 213.44556 221.44556 225.89356 230.34156 234.78955 245.46155 254.35755 262.35755 271.25355 280.14955 288.14955 297.04554 301.49354 310.38954 314.83753 319.28553 323.73353 332.62953 336.18153 344.18153 348.62953 353.0775 357.5255 361.9735 373.5255 377.0775 380.62953 384.18153 388.62953 397.5255 406.4215 410.8695 419.7655 427.7655 432.2135 436.6615 445.5575 450.8855 455.3335 464.2295 472.2295 476.6775 485.5735 490.9015 499.7975 508.69349 512.2455 521.1415 530.0375 534.4855 538.9335 547.82949 556.72549">shape a writer&#x2019;s rhetorical effect. Because of this, I will go as far as arguing that</tspan></text>
<text fill="#eeeeee" xml:space="preserve" transform="matrix(.75 0 0 .75 72 409.01185)" font-size="16" font-family="ArialMT"><tspan y="15.0078129" x="0 8 12.448 21.344002 26.672 34.672 39.120004 48.016004 51.568006 55.120008 58.67201 67.56801 76.46401 80.91201 84.46401 92.46401 96.91201 105.808017 114.70402 123.60002 128.04802 136.94402 141.39202 145.84001 150.28801 159.184 168.08 172.528 185.856 194.752 202.752 207.2 211.648 219.648 228.54399 241.872 250.76799 259.664 263.216 266.768 270.32 279.216 288.112 292.56 297.008 305.904 311.232 324.56 332.56 337.008 345.904 350.352 354.8 363.69599 371.69599 375.248 384.14399 393.03999 401.93598 409.93598 418.83198">storytelling is one of the most compelling forms of evidence.</tspan></text>
<text fill="#b7b7b7" xml:space="preserve" transform="matrix(.75 0 0 .75 72 440.74916)" font-size="20" font-family="ArialMT"><tspan y="18.759766" x="48 68.3 84.96001 89.40001 99.40001 110.52001 121.640018 132.76001 137.20001 142.76001 157.20001 168.32 179.44 186.1 190.54001 196.1 207.22">@Michael Charlton</tspan></text>
<text fill="#eeeeee" xml:space="preserve" transform="matrix(.75 0 0 .75 72 476.58497)" font-size="16" font-family="ArialMT"><tspan y="15.0078129" x="48 64.240009 72.240009 81.13601 90.03201">@John</tspan></text>
<text fill="#eeeeee" xml:space="preserve" transform="matrix(.75 0 0 .75 72 492.4536)" font-size="16" font-family="ArialMT"><tspan y="15.0078129" x="48 63.104 72 75.552 79.104007 88.00001 92.448009 101.34401 110.24001 119.13602 127.13602 136.03202 144.92801 149.376 158.272 166.272 170.72 179.616 184.944 193.84 198.288 207.18399 215.18399 219.63199 224.95999 233.85599 247.18399 256.08 259.632 267.632 272.08 280.97599 288.97599 297.87199 302.31999 311.21598 314.76799 319.21598 322.76799 331.66398 336.11198 344.11198 353.00798 361.90397 369.90397 373.45597 382.35197 390.35197 393.90397 402.79997 411.69596 416.14396 425.03996 429.48796 438.38395 447.27995 452.60795 460.60795 465.05595 469.50395 473.95195 482.84794 491.74394 497.07194 505.96794 510.41593 519.31198 524.63998 533.53598 537.98397 545.98397 550.43197 553.98397 557.53598 561.08798 565.53598 578.86398 587.75997 596.65597">While anecdotes are extremely useful in convincing others, there are still many</tspan></text>
<text fill="#eeeeee" xml:space="preserve" transform="matrix(.75 0 0 .75 72 508.32228)" font-size="16" font-family="ArialMT"><tspan y="15.0078129" x="48 56.896 62.224 71.12 80.01601 88.01601 92.464008 104.01601 112.91201 121.808017 127.13602 136.03202 140.48001 148.48001 152.92801 161.824 166.272 169.824 177.824 182.272 185.824 193.824 202.72 206.272 210.72 219.616 227.616 231.168 240.064 248.95999 257.856 265.856 274.75199 279.19999 290.75199 299.64799 304.97599 312.97599 320.97599 325.42399 334.31999 343.21598 347.66398 352.11198 361.00798 365.48439 369.93238 373.4922 383.28126 387.72926 393.05726 401.95326 410.84925 419.74525 423.29725 432.19325 436.64125 445.53724 450.86524 458.86524 463.31324 472.20924 481.10523 490.00123 498.89723 506.89723 514.8972 519.3452 530.8972 539.7932 548.6892 552.2412 561.1372 565.5852 574.4812 583.3772">areas where statistical evidence works better. A regulatory agency would not</tspan></text>
<text fill="#eeeeee" xml:space="preserve" transform="matrix(.75 0 0 .75 72 524.1909)" font-size="16" font-family="ArialMT"><tspan y="15.0078129" x="48 56.896 65.792 74.688 80.01601 88.91201 96.91201 105.808017 110.25601 119.152019 123.60001 132.49602 141.39202 152.94402 157.39202 170.72002 179.61602 188.51201 192.06401 200.06401 203.61602 212.51201 221.408 225.856 234.752 243.648 251.648 260.544 269.44 273.888 282.784 291.68 296.128 299.68 304.128 312.128 316.576 325.472 329.66407 334.11207 343.00807 351.00807 355.45606 363.45606 367.90406 376.80006 385.69606 390.14405 399.04005 407.93605 416.83204 421.28004 430.17604 439.07203 443.52003 447.07203 455.96803 464.864 469.312 473.76 478.208 482.656 487.104 491.552 495.104 503.104 507.552 511.104 524.432 533.328 542.224 547.552 552 560.896 569.792 574.24 578.688 583.136 592.032 596.48 605.376">approve a new medicine based on its effects on one patient. It is important to be</tspan></text>
<text fill="#eeeeee" xml:space="preserve" transform="matrix(.75 0 0 .75 72 540.0596)" font-size="16" font-family="ArialMT"><tspan y="15.0078129" x="48 52.448 61.344 64.896 70.22401 74.672008 83.56801 92.46401 101.360019 105.808017 113.808017 122.70402 131.60002 140.49602 144.94402 148.49602 157.39202 161.84001 175.16802 178.72002 187.61602 196.51201 200.96 205.408 214.304 223.2 227.648 232.096 240.096 244.54399 253.43999 258.76799 262.31999 271.21598 279.21598 283.66398 291.66398 300.55998 309.45597 318.35197 327.24797 331.69596 336.14396 339.69596 348.59196 357.48796 361.03996 369.03996 377.93595 382.38395 391.27995 395.72795 404.62394 412.62394 421.51994 426.84794 435.74394 439.29594 442.84794 447.29594 451.74394 457.07194 465.96794 474.86393 483.75993 491.75993 496.20793 499.75993 503.31193 511.31193 520.20797 524.65597 532.65597 537.10397 545.99996 550.44796 553.99996 561.99996 566.44796 569.99996 577.99996 585.99996 590.44796 598.44796 607.34396 616.2399">fair and keep in mind that stories cannot indicate overall trends like statistics can,</tspan></text>
<text fill="#eeeeee" xml:space="preserve" transform="matrix(.75 0 0 .75 72 555.9282)" font-size="16" font-family="ArialMT"><tspan y="15.0078129" x="48 61.328004 70.22401 78.22401 81.77601 90.67201 99.568019 104.016017 112.91202 121.80802 130.70403 138.70403 147.60002 156.49602 160.94402 169.84001 177.84001 182.28801 191.184 195.632 204.528 208.08 221.408 230.304 233.856 242.752 247.2 251.648 260.544 269.44 272.992 277.44 281.888 290.784 296.112 300.56 309.456 313.904 321.904 330.8 338.8 347.69599 356.59199 360.14399 364.59199 372.59199 381.48799 385.93598 390.38398 393.93598 402.83198 411.72798 416.17597 425.07197 433.96797 438.41596 442.86396 451.75996 456.20796 465.10395 473.99995 482.89595 488.22395 492.67195 501.56794 510.46394 514.9119 518.4639 527.3599 536.2559 540.7039 545.1519 554.0479 559.3759 563.8239 572.7199 577.1679 581.6159 590.5119 595.8399 609.1679 618.0639">making anecdotes a nimble tool for a casual setting but a poor option for a formal</tspan></text>
<text fill="#eeeeee" xml:space="preserve" transform="matrix(.75 0 0 .75 72 571.7969)" font-size="16" font-family="ArialMT"><tspan y="15.0078129" x="48 56 64.896 73.79201 81.79201 90.68801 96.016017 104.016017 112.91202 117.360019 120.91202 129.80802 138.70401">conversation.</tspan></text>
</g>
</svg>
